<svg width="392" height="358" viewBox="0 0 392 358" fill="none" xmlns="http://www.w3.org/2000/svg">
<ellipse cx="142.554" cy="142.5" rx="139" ry="137.5" transform="rotate(-1.50092 142.554 142.5)" fill="#FFCE2E"/>
<path fill-rule="evenodd" clip-rule="evenodd" d="M97.9884 272.808C44.3665 254.883 5.15418 205.386 3.60188 146.142C3.23264 132.051 5.02009 118.398 8.66712 105.494C36.5549 104.771 70.5989 113.42 102.909 143.759C151.174 189.08 227.712 190.31 275.384 183.063C258.257 237.877 207.336 278.351 146.156 279.954C143.56 280.022 140.978 280.02 138.414 279.948L97.9884 272.808Z" fill="#FFDE2E"/>
<path fill-rule="evenodd" clip-rule="evenodd" d="M244.962 236.02C220.307 262.077 185.465 278.752 146.476 279.774C79.7595 281.522 22.7701 236.865 7.374 175.589C36.3352 174.191 70.9275 180.947 105.641 205.402C145.705 233.626 198.853 239.217 244.962 236.02Z" fill="#FFEE51" fill-opacity="0.78"/>
<g filter="url(#filter0_d_509_2)">
<ellipse cx="213.434" cy="173.552" rx="151.387" ry="149.753" transform="rotate(9.90023 213.434 173.552)" fill="#FFF9EE"/>
</g>
<path d="M111.932 208.453H112.635C113.968 208.453 114.937 208.177 115.541 207.625C116.145 207.073 116.448 206.188 116.448 204.969C116.448 203.844 116.145 203.026 115.541 202.516C114.937 201.995 113.968 201.734 112.635 201.734H111.932V208.453ZM107.01 221V198.125H112.635C115.635 198.125 117.849 198.698 119.276 199.844C120.713 200.99 121.432 202.76 121.432 205.156C121.432 207.375 120.708 209.115 119.26 210.375C117.823 211.635 115.828 212.266 113.276 212.266H111.932V221H107.01ZM138.253 213.312C138.253 211.938 137.904 210.849 137.206 210.047C136.518 209.245 135.586 208.844 134.409 208.844C133.2 208.844 132.247 209.245 131.549 210.047C130.862 210.839 130.518 211.927 130.518 213.312C130.518 214.698 130.857 215.776 131.534 216.547C132.221 217.318 133.169 217.703 134.378 217.703C135.607 217.703 136.56 217.318 137.237 216.547C137.914 215.776 138.253 214.698 138.253 213.312ZM142.315 221H138.003L138.065 218.797C137.461 219.766 136.732 220.479 135.878 220.938C135.034 221.385 134.003 221.609 132.784 221.609C130.753 221.609 129.112 220.854 127.862 219.344C126.622 217.833 126.003 215.839 126.003 213.359C126.003 210.776 126.612 208.766 127.831 207.328C129.06 205.88 130.763 205.156 132.94 205.156C134.075 205.156 135.07 205.411 135.924 205.922C136.789 206.432 137.513 207.193 138.096 208.203V205.672H142.315V221ZM154.495 209.609C154.943 208.12 155.584 207.005 156.417 206.266C157.261 205.526 158.302 205.156 159.542 205.156C159.823 205.156 160.287 205.208 160.933 205.312C161.058 205.333 161.151 205.349 161.214 205.359L160.542 210.141C160.209 210.005 159.87 209.906 159.526 209.844C159.193 209.771 158.839 209.734 158.464 209.734C157.11 209.734 156.136 210.083 155.542 210.781C154.948 211.469 154.651 212.625 154.651 214.25V221H150.198V205.672H154.589L154.495 209.609ZM167.456 221V209.156H165.316V205.672H167.456V200.578H171.909V205.672H174.05V209.156H171.909V221H167.456ZM180.277 199.375C180.277 198.667 180.532 198.057 181.043 197.547C181.553 197.036 182.162 196.781 182.871 196.781C183.589 196.781 184.204 197.036 184.714 197.547C185.235 198.047 185.496 198.656 185.496 199.375C185.496 200.094 185.235 200.708 184.714 201.219C184.204 201.729 183.589 201.984 182.871 201.984C182.162 201.984 181.553 201.724 181.043 201.203C180.532 200.682 180.277 200.073 180.277 199.375ZM180.668 221V205.672H185.105V221H180.668ZM204.598 220.547C203.993 220.911 203.358 221.177 202.691 221.344C202.025 221.521 201.295 221.609 200.504 221.609C198.087 221.609 196.118 220.844 194.598 219.312C193.077 217.771 192.316 215.771 192.316 213.312C192.316 210.906 193.082 208.948 194.613 207.438C196.144 205.917 198.129 205.156 200.566 205.156C201.379 205.156 202.108 205.234 202.754 205.391C203.4 205.547 204.014 205.792 204.598 206.125L204.566 210.594C204.098 210.115 203.556 209.745 202.941 209.484C202.327 209.224 201.676 209.094 200.988 209.094C199.738 209.094 198.738 209.479 197.988 210.25C197.238 211.01 196.863 212.021 196.863 213.281C196.863 214.573 197.243 215.604 198.004 216.375C198.775 217.135 199.811 217.516 201.113 217.516C201.832 217.516 202.467 217.385 203.019 217.125C203.582 216.865 204.098 216.458 204.566 215.906L204.598 220.547ZM211.418 199.375C211.418 198.667 211.673 198.057 212.184 197.547C212.694 197.036 213.304 196.781 214.012 196.781C214.731 196.781 215.345 197.036 215.856 197.547C216.376 198.047 216.637 198.656 216.637 199.375C216.637 200.094 216.376 200.708 215.856 201.219C215.345 201.729 214.731 201.984 214.012 201.984C213.304 201.984 212.694 201.724 212.184 201.203C211.673 200.682 211.418 200.073 211.418 199.375ZM211.809 221V205.672H216.246V221H211.809ZM228.504 213.312C228.504 214.698 228.843 215.776 229.52 216.547C230.208 217.318 231.161 217.703 232.379 217.703C233.598 217.703 234.546 217.318 235.223 216.547C235.911 215.776 236.254 214.698 236.254 213.312C236.254 211.927 235.905 210.839 235.208 210.047C234.52 209.245 233.567 208.844 232.348 208.844C231.171 208.844 230.234 209.245 229.536 210.047C228.848 210.849 228.504 211.938 228.504 213.312ZM224.442 227.969V205.672H228.708V208.203C229.291 207.182 230.004 206.422 230.848 205.922C231.702 205.411 232.692 205.156 233.817 205.156C235.994 205.156 237.697 205.88 238.926 207.328C240.155 208.766 240.77 210.776 240.77 213.359C240.77 215.849 240.15 217.849 238.911 219.359C237.671 220.859 236.041 221.609 234.02 221.609C232.801 221.609 231.765 221.385 230.911 220.938C230.067 220.479 229.343 219.766 228.739 218.797C228.791 219.182 228.827 219.604 228.848 220.062C228.879 220.51 228.895 221.026 228.895 221.609V227.969H224.442ZM259.138 213.312C259.138 211.938 258.789 210.849 258.091 210.047C257.403 209.245 256.471 208.844 255.294 208.844C254.085 208.844 253.132 209.245 252.434 210.047C251.747 210.839 251.403 211.927 251.403 213.312C251.403 214.698 251.742 215.776 252.419 216.547C253.106 217.318 254.054 217.703 255.263 217.703C256.492 217.703 257.445 217.318 258.122 216.547C258.799 215.776 259.138 214.698 259.138 213.312ZM263.2 221H258.888L258.95 218.797C258.346 219.766 257.617 220.479 256.763 220.938C255.919 221.385 254.888 221.609 253.669 221.609C251.638 221.609 249.997 220.854 248.747 219.344C247.507 217.833 246.888 215.839 246.888 213.359C246.888 210.776 247.497 208.766 248.716 207.328C249.945 205.88 251.648 205.156 253.825 205.156C254.96 205.156 255.955 205.411 256.809 205.922C257.674 206.432 258.398 207.193 258.981 208.203V205.672H263.2V221ZM271.083 221V205.672H275.443V208.078C276.245 207.078 277.104 206.344 278.021 205.875C278.948 205.396 279.974 205.156 281.099 205.156C282.286 205.156 283.281 205.359 284.083 205.766C284.896 206.161 285.536 206.771 286.005 207.594C286.234 208.021 286.396 208.505 286.489 209.047C286.594 209.578 286.646 210.417 286.646 211.562V212.047V221H282.193V213.422C282.193 211.536 281.974 210.292 281.536 209.688C281.099 209.083 280.349 208.781 279.286 208.781C278.672 208.781 278.104 208.911 277.583 209.172C277.073 209.422 276.646 209.781 276.302 210.25C276.031 210.615 275.833 211.031 275.708 211.5C275.594 211.969 275.536 212.682 275.536 213.641V214.25V221H271.083ZM295.091 221V209.156H292.951V205.672H295.091V200.578H299.544V205.672H301.685V209.156H299.544V221H295.091ZM306.631 218.312L310.052 216.547C310.167 217.141 310.474 217.609 310.974 217.953C311.474 218.297 312.094 218.469 312.834 218.469C313.563 218.469 314.136 218.339 314.552 218.078C314.969 217.807 315.177 217.438 315.177 216.969C315.177 216.229 314.438 215.609 312.959 215.109C312.5 214.953 312.136 214.823 311.865 214.719C310.063 214.042 308.813 213.359 308.115 212.672C307.427 211.984 307.084 211.135 307.084 210.125C307.084 208.625 307.672 207.411 308.849 206.484C310.026 205.557 311.579 205.094 313.506 205.094C314.881 205.094 316.068 205.37 317.068 205.922C318.079 206.474 318.813 207.255 319.271 208.266L316.006 209.891C315.829 209.318 315.521 208.885 315.084 208.594C314.646 208.292 314.099 208.141 313.443 208.141C312.787 208.141 312.256 208.276 311.849 208.547C311.443 208.818 311.24 209.172 311.24 209.609C311.24 210.37 312.25 211.078 314.271 211.734C314.511 211.807 314.693 211.865 314.818 211.906C316.495 212.458 317.688 213.104 318.396 213.844C319.105 214.573 319.459 215.505 319.459 216.641C319.459 218.161 318.87 219.37 317.693 220.266C316.516 221.161 314.927 221.609 312.927 221.609C311.344 221.609 309.99 221.318 308.865 220.734C307.75 220.141 307.006 219.333 306.631 218.312Z" fill="#EB9928"/>
<path d="M153.129 157.968H159.681V168.768H153.129V180H140.025V168.768H113.673V159.768L134.625 125.712H153.129V157.968ZM140.025 157.968V137.088H139.881L127.209 157.968H140.025ZM203.64 137.664H184.848L183.912 143.856L188.376 143.496C188.616 143.496 188.856 143.496 189.096 143.496C189.384 143.496 189.624 143.496 189.816 143.496C195 143.496 199.248 145.416 202.56 149.256C205.92 153.048 207.6 157.632 207.6 163.008C207.6 165.84 207 168.552 205.8 171.144C204.6 173.688 202.872 175.872 200.616 177.696C199.08 178.944 197.352 179.88 195.432 180.504C193.512 181.176 191.544 181.632 189.528 181.872C188.712 181.968 187.896 182.04 187.08 182.088C186.312 182.136 185.544 182.16 184.776 182.16C184.584 182.16 184.368 182.16 184.128 182.16C183.936 182.16 183.744 182.16 183.552 182.16C180.672 182.064 177.816 181.632 174.984 180.864C172.152 180.096 169.512 178.92 167.064 177.336L169.152 163.944C171.264 165.864 173.616 167.4 176.208 168.552C178.8 169.704 181.488 170.28 184.272 170.28C186.528 170.28 188.52 169.536 190.248 168.048C192.024 166.56 192.912 164.64 192.912 162.288C192.912 159.312 191.832 157.104 189.672 155.664C187.56 154.176 185.208 153.312 182.616 153.072C182.376 153.072 182.112 153.072 181.824 153.072C181.536 153.024 181.272 153 181.032 153C179.256 153 177.48 153.192 175.704 153.576C173.976 153.912 172.296 154.464 170.664 155.232L175.416 125.712H203.64V137.664ZM238.377 123.552C245.913 123.6 251.505 126.384 255.153 131.904C258.849 137.424 260.913 143.496 261.345 150.12C261.345 150.6 261.345 151.08 261.345 151.56C261.393 151.992 261.417 152.448 261.417 152.928C261.417 153.408 261.393 153.888 261.345 154.368C261.345 154.8 261.345 155.256 261.345 155.736C260.913 162.36 258.873 168.432 255.225 173.952C251.577 179.424 245.961 182.16 238.377 182.16C230.793 182.16 225.177 179.424 221.529 173.952C217.881 168.432 215.841 162.36 215.409 155.736C215.409 155.256 215.385 154.8 215.337 154.368C215.337 153.888 215.337 153.408 215.337 152.928C215.337 152.448 215.337 151.992 215.337 151.56C215.385 151.08 215.409 150.6 215.409 150.12C215.841 143.496 217.881 137.424 221.529 131.904C225.225 126.384 230.841 123.624 238.377 123.624V123.552ZM238.377 136.008C236.025 136.056 234.201 137.088 232.905 139.104C231.657 141.12 230.745 143.328 230.169 145.728C229.881 147.072 229.665 148.368 229.521 149.616C229.425 150.864 229.377 151.944 229.377 152.856C229.377 153.768 229.425 154.872 229.521 156.168C229.665 157.416 229.881 158.712 230.169 160.056C230.745 162.504 231.657 164.736 232.905 166.752C234.201 168.768 236.025 169.776 238.377 169.776C240.729 169.776 242.529 168.768 243.777 166.752C245.073 164.736 246.009 162.504 246.585 160.056C246.873 158.712 247.065 157.416 247.161 156.168C247.305 154.872 247.377 153.768 247.377 152.856C247.377 151.944 247.305 150.864 247.161 149.616C247.065 148.368 246.873 147.072 246.585 145.728C246.009 143.328 245.073 141.12 243.777 139.104C242.529 137.088 240.729 136.08 238.377 136.08V136.008ZM283.416 156.096V143.064H294.216V156.096H307.248V166.896H294.216V180H283.416V166.896H270.384V156.096H283.416Z" fill="url(#paint0_linear_509_2)"/>
<defs>
<filter id="filter0_d_509_2" x="47.0703" y="15.7247" width="344.727" height="341.654" filterUnits="userSpaceOnUse" color-interpolation-filters="sRGB">
<feFlood flood-opacity="0" result="BackgroundImageFix"/>
<feColorMatrix in="SourceAlpha" type="matrix" values="0 0 0 0 0 0 0 0 0 0 0 0 0 0 0 0 0 0 127 0" result="hardAlpha"/>
<feMorphology radius="7" operator="erode" in="SourceAlpha" result="effect1_dropShadow_509_2"/>
<feOffset dx="6" dy="13"/>
<feGaussianBlur stdDeviation="14"/>
<feComposite in2="hardAlpha" operator="out"/>
<feColorMatrix type="matrix" values="0 0 0 0 0.921569 0 0 0 0 0.6 0 0 0 0 0.156863 0 0 0 0.45 0"/>
<feBlend mode="normal" in2="BackgroundImageFix" result="effect1_dropShadow_509_2"/>
<feBlend mode="normal" in="SourceGraphic" in2="effect1_dropShadow_509_2" result="shape"/>
</filter>
<linearGradient id="paint0_linear_509_2" x1="213" y1="116" x2="213" y2="218.402" gradientUnits="userSpaceOnUse">
<stop offset="0.235745" stop-color="#FFCE2E"/>
<stop offset="1" stop-color="#EB9928"/>
</linearGradient>
</defs>
</svg>
