<svg width="392" height="358" viewBox="0 0 392 358" fill="none" xmlns="http://www.w3.org/2000/svg">
<ellipse cx="142.554" cy="142.5" rx="139" ry="137.5" transform="rotate(-1.50092 142.554 142.5)" fill="#FFCE2E"/>
<path fill-rule="evenodd" clip-rule="evenodd" d="M97.9884 272.808C44.3665 254.883 5.15418 205.386 3.60188 146.142C3.23264 132.051 5.02009 118.398 8.66712 105.494C36.5549 104.771 70.5989 113.42 102.909 143.759C151.174 189.08 227.712 190.31 275.384 183.063C258.257 237.877 207.336 278.351 146.156 279.954C143.56 280.022 140.978 280.02 138.414 279.948L97.9884 272.808Z" fill="#FFDE2E"/>
<path fill-rule="evenodd" clip-rule="evenodd" d="M244.962 236.02C220.307 262.077 185.465 278.752 146.476 279.773C79.7595 281.521 22.7701 236.865 7.374 175.588C36.3352 174.19 70.9275 180.947 105.641 205.402C145.705 233.626 198.853 239.217 244.962 236.02Z" fill="#FFEE51" fill-opacity="0.78"/>
<g filter="url(#filter0_d_509_3)">
<ellipse cx="213.434" cy="173.552" rx="151.387" ry="149.753" transform="rotate(9.90023 213.434 173.552)" fill="#FFF9EE"/>
</g>
<path d="M168.39 202.281V221H163.484V202.281H157.89V198.125H174.015V202.281H168.39ZM187.82 211.75C187.695 210.781 187.341 210.052 186.757 209.562C186.185 209.062 185.398 208.812 184.398 208.812C183.398 208.812 182.596 209.062 181.992 209.562C181.398 210.052 181.018 210.781 180.851 211.75H187.82ZM192.226 214.438H180.711C180.888 215.542 181.289 216.37 181.914 216.922C182.539 217.464 183.388 217.734 184.461 217.734C185.273 217.734 185.971 217.578 186.554 217.266C187.148 216.953 187.643 216.479 188.039 215.844L191.632 217.641C190.799 218.984 189.789 219.984 188.601 220.641C187.414 221.286 186.002 221.609 184.367 221.609C181.888 221.609 179.924 220.87 178.476 219.391C177.028 217.911 176.304 215.922 176.304 213.422C176.304 211.016 177.06 209.036 178.57 207.484C180.091 205.932 182.034 205.156 184.398 205.156C186.836 205.156 188.763 205.885 190.179 207.344C191.596 208.792 192.304 210.771 192.304 213.281C192.304 213.417 192.299 213.568 192.289 213.734C192.278 213.891 192.257 214.125 192.226 214.438ZM210.578 213.312C210.578 211.938 210.229 210.849 209.531 210.047C208.844 209.245 207.911 208.844 206.734 208.844C205.526 208.844 204.573 209.245 203.875 210.047C203.188 210.839 202.844 211.927 202.844 213.312C202.844 214.698 203.182 215.776 203.859 216.547C204.547 217.318 205.495 217.703 206.703 217.703C207.932 217.703 208.885 217.318 209.562 216.547C210.24 215.776 210.578 214.698 210.578 213.312ZM214.641 221H210.328L210.391 218.797C209.786 219.766 209.057 220.479 208.203 220.938C207.359 221.385 206.328 221.609 205.109 221.609C203.078 221.609 201.438 220.854 200.188 219.344C198.948 217.833 198.328 215.839 198.328 213.359C198.328 210.776 198.938 208.766 200.156 207.328C201.385 205.88 203.089 205.156 205.266 205.156C206.401 205.156 207.396 205.411 208.25 205.922C209.115 206.432 209.839 207.193 210.422 208.203V205.672H214.641V221ZM226.914 221H222.461V205.672H226.914V208.078C227.644 207.068 228.42 206.328 229.242 205.859C230.076 205.391 231.019 205.156 232.071 205.156C233.341 205.156 234.373 205.417 235.164 205.938C235.966 206.458 236.534 207.245 236.867 208.297C237.576 207.255 238.378 206.474 239.274 205.953C240.18 205.422 241.17 205.156 242.242 205.156C243.326 205.156 244.242 205.359 244.992 205.766C245.753 206.161 246.341 206.76 246.758 207.562C246.977 208 247.133 208.495 247.227 209.047C247.321 209.599 247.367 210.438 247.367 211.562V212.047V221H242.914V213.422C242.914 211.557 242.722 210.318 242.336 209.703C241.961 209.089 241.3 208.781 240.352 208.781C239.206 208.781 238.373 209.208 237.852 210.062C237.341 210.917 237.086 212.312 237.086 214.25V221H232.633V213.422C232.633 211.62 232.456 210.401 232.102 209.766C231.748 209.13 231.138 208.812 230.274 208.812C229.097 208.812 228.242 209.245 227.711 210.109C227.18 210.964 226.914 212.344 226.914 214.25V221ZM253.798 218.312L257.219 216.547C257.334 217.141 257.641 217.609 258.141 217.953C258.641 218.297 259.261 218.469 260.001 218.469C260.73 218.469 261.303 218.339 261.719 218.078C262.136 217.807 262.344 217.438 262.344 216.969C262.344 216.229 261.605 215.609 260.126 215.109C259.667 214.953 259.303 214.823 259.032 214.719C257.23 214.042 255.98 213.359 255.282 212.672C254.594 211.984 254.251 211.135 254.251 210.125C254.251 208.625 254.839 207.411 256.016 206.484C257.193 205.557 258.745 205.094 260.673 205.094C262.048 205.094 263.235 205.37 264.235 205.922C265.245 206.474 265.98 207.255 266.438 208.266L263.173 209.891C262.995 209.318 262.688 208.885 262.251 208.594C261.813 208.292 261.266 208.141 260.61 208.141C259.954 208.141 259.423 208.276 259.016 208.547C258.61 208.818 258.407 209.172 258.407 209.609C258.407 210.37 259.417 211.078 261.438 211.734C261.678 211.807 261.86 211.865 261.985 211.906C263.662 212.458 264.855 213.104 265.563 213.844C266.271 214.573 266.626 215.505 266.626 216.641C266.626 218.161 266.037 219.37 264.86 220.266C263.683 221.161 262.094 221.609 260.094 221.609C258.511 221.609 257.157 221.318 256.032 220.734C254.917 220.141 254.173 219.333 253.798 218.312Z" fill="#EB9928"/>
<path d="M131.889 137.664H124.113V125.712H146.001V180H131.889V137.664ZM203.64 137.664H184.848L183.912 143.856L188.376 143.496C188.616 143.496 188.856 143.496 189.096 143.496C189.384 143.496 189.624 143.496 189.816 143.496C195 143.496 199.248 145.416 202.56 149.256C205.92 153.048 207.6 157.632 207.6 163.008C207.6 165.84 207 168.552 205.8 171.144C204.6 173.688 202.872 175.872 200.616 177.696C199.08 178.944 197.352 179.88 195.432 180.504C193.512 181.176 191.544 181.632 189.528 181.872C188.712 181.968 187.896 182.04 187.08 182.088C186.312 182.136 185.544 182.16 184.776 182.16C184.584 182.16 184.368 182.16 184.128 182.16C183.936 182.16 183.744 182.16 183.552 182.16C180.672 182.064 177.816 181.632 174.984 180.864C172.152 180.096 169.512 178.92 167.064 177.336L169.152 163.944C171.264 165.864 173.616 167.4 176.208 168.552C178.8 169.704 181.488 170.28 184.272 170.28C186.528 170.28 188.52 169.536 190.248 168.048C192.024 166.56 192.912 164.64 192.912 162.288C192.912 159.312 191.832 157.104 189.672 155.664C187.56 154.176 185.208 153.312 182.616 153.072C182.376 153.072 182.112 153.072 181.824 153.072C181.536 153.024 181.272 153 181.032 153C179.256 153 177.48 153.192 175.704 153.576C173.976 153.912 172.296 154.464 170.664 155.232L175.416 125.712H203.64V137.664ZM238.377 123.552C245.913 123.6 251.505 126.384 255.153 131.904C258.849 137.424 260.913 143.496 261.345 150.12C261.345 150.6 261.345 151.08 261.345 151.56C261.393 151.992 261.417 152.448 261.417 152.928C261.417 153.408 261.393 153.888 261.345 154.368C261.345 154.8 261.345 155.256 261.345 155.736C260.913 162.36 258.873 168.432 255.225 173.952C251.577 179.424 245.961 182.16 238.377 182.16C230.793 182.16 225.177 179.424 221.529 173.952C217.881 168.432 215.841 162.36 215.409 155.736C215.409 155.256 215.385 154.8 215.337 154.368C215.337 153.888 215.337 153.408 215.337 152.928C215.337 152.448 215.337 151.992 215.337 151.56C215.385 151.08 215.409 150.6 215.409 150.12C215.841 143.496 217.881 137.424 221.529 131.904C225.225 126.384 230.841 123.624 238.377 123.624V123.552ZM238.377 136.008C236.025 136.056 234.201 137.088 232.905 139.104C231.657 141.12 230.745 143.328 230.169 145.728C229.881 147.072 229.665 148.368 229.521 149.616C229.425 150.864 229.377 151.944 229.377 152.856C229.377 153.768 229.425 154.872 229.521 156.168C229.665 157.416 229.881 158.712 230.169 160.056C230.745 162.504 231.657 164.736 232.905 166.752C234.201 168.768 236.025 169.776 238.377 169.776C240.729 169.776 242.529 168.768 243.777 166.752C245.073 164.736 246.009 162.504 246.585 160.056C246.873 158.712 247.065 157.416 247.161 156.168C247.305 154.872 247.377 153.768 247.377 152.856C247.377 151.944 247.305 150.864 247.161 149.616C247.065 148.368 246.873 147.072 246.585 145.728C246.009 143.328 245.073 141.12 243.777 139.104C242.529 137.088 240.729 136.08 238.377 136.08V136.008ZM283.416 156.096V143.064H294.216V156.096H307.248V166.896H294.216V180H283.416V166.896H270.384V156.096H283.416Z" fill="url(#paint0_linear_509_3)"/>
<defs>
<filter id="filter0_d_509_3" x="47.0703" y="15.7249" width="344.727" height="341.654" filterUnits="userSpaceOnUse" color-interpolation-filters="sRGB">
<feFlood flood-opacity="0" result="BackgroundImageFix"/>
<feColorMatrix in="SourceAlpha" type="matrix" values="0 0 0 0 0 0 0 0 0 0 0 0 0 0 0 0 0 0 127 0" result="hardAlpha"/>
<feMorphology radius="7" operator="erode" in="SourceAlpha" result="effect1_dropShadow_509_3"/>
<feOffset dx="6" dy="13"/>
<feGaussianBlur stdDeviation="14"/>
<feComposite in2="hardAlpha" operator="out"/>
<feColorMatrix type="matrix" values="0 0 0 0 0.921569 0 0 0 0 0.6 0 0 0 0 0.156863 0 0 0 0.45 0"/>
<feBlend mode="normal" in2="BackgroundImageFix" result="effect1_dropShadow_509_3"/>
<feBlend mode="normal" in="SourceGraphic" in2="effect1_dropShadow_509_3" result="shape"/>
</filter>
<linearGradient id="paint0_linear_509_3" x1="213" y1="116" x2="213" y2="218.402" gradientUnits="userSpaceOnUse">
<stop offset="0.235745" stop-color="#FFCE2E"/>
<stop offset="1" stop-color="#EB9928"/>
</linearGradient>
</defs>
</svg>
