<svg width="392" height="358" viewBox="0 0 392 358" fill="none" xmlns="http://www.w3.org/2000/svg">
<ellipse cx="142.554" cy="142.5" rx="139" ry="137.5" transform="rotate(-1.50092 142.554 142.5)" fill="#FFCE2E"/>
<path fill-rule="evenodd" clip-rule="evenodd" d="M97.9884 272.808C44.3665 254.883 5.15418 205.386 3.60188 146.142C3.23264 132.051 5.02009 118.398 8.66712 105.494C36.5549 104.771 70.5989 113.42 102.909 143.759C151.174 189.08 227.712 190.31 275.384 183.063C258.257 237.877 207.336 278.351 146.156 279.954C143.56 280.022 140.978 280.02 138.414 279.948L97.9884 272.808Z" fill="#FFDE2E"/>
<path fill-rule="evenodd" clip-rule="evenodd" d="M244.962 236.02C220.307 262.077 185.465 278.752 146.476 279.774C79.7595 281.522 22.7701 236.865 7.374 175.589C36.3352 174.191 70.9275 180.947 105.641 205.402C145.705 233.626 198.853 239.217 244.962 236.02Z" fill="#FFEE51" fill-opacity="0.78"/>
<g filter="url(#filter0_d_509_4)">
<ellipse cx="213.434" cy="173.552" rx="151.387" ry="149.753" transform="rotate(9.90023 213.434 173.552)" fill="#FFF9EE"/>
</g>
<path d="M125.901 198.125V212.359C125.901 215.464 125.083 217.781 123.448 219.312C121.812 220.844 119.349 221.609 116.057 221.609C112.713 221.609 110.224 220.844 108.588 219.312C106.953 217.781 106.135 215.464 106.135 212.359V198.125H110.994V211.594C110.994 213.479 111.411 214.901 112.244 215.859C113.078 216.807 114.323 217.281 115.979 217.281C117.645 217.281 118.906 216.802 119.76 215.844C120.614 214.885 121.041 213.469 121.041 211.594V198.125H125.901ZM134.268 221V205.672H138.628V208.078C139.43 207.078 140.289 206.344 141.206 205.875C142.133 205.396 143.159 205.156 144.284 205.156C145.471 205.156 146.466 205.359 147.268 205.766C148.081 206.161 148.721 206.771 149.19 207.594C149.419 208.021 149.581 208.505 149.674 209.047C149.779 209.578 149.831 210.417 149.831 211.562V212.047V221H145.378V213.422C145.378 211.536 145.159 210.292 144.721 209.688C144.284 209.083 143.534 208.781 142.471 208.781C141.857 208.781 141.289 208.911 140.768 209.172C140.258 209.422 139.831 209.781 139.487 210.25C139.216 210.615 139.018 211.031 138.893 211.5C138.779 211.969 138.721 212.682 138.721 213.641V214.25V221H134.268ZM157.511 199.375C157.511 198.667 157.766 198.057 158.276 197.547C158.787 197.036 159.396 196.781 160.104 196.781C160.823 196.781 161.438 197.036 161.948 197.547C162.469 198.047 162.729 198.656 162.729 199.375C162.729 200.094 162.469 200.708 161.948 201.219C161.438 201.729 160.823 201.984 160.104 201.984C159.396 201.984 158.787 201.724 158.276 201.203C157.766 200.682 157.511 200.073 157.511 199.375ZM157.901 221V205.672H162.339V221H157.901ZM174.316 221L168.081 205.672H173.222L175.816 213.641C176.024 214.286 176.191 214.885 176.316 215.438C176.441 215.99 176.529 216.531 176.581 217.062C176.706 216.26 176.831 215.578 176.956 215.016C177.081 214.453 177.227 213.943 177.394 213.484L180.003 205.672H185.066L178.769 221H174.316ZM201.246 211.75C201.121 210.781 200.766 210.052 200.183 209.562C199.61 209.062 198.824 208.812 197.824 208.812C196.824 208.812 196.022 209.062 195.418 209.562C194.824 210.052 194.444 210.781 194.277 211.75H201.246ZM205.652 214.438H194.136C194.313 215.542 194.714 216.37 195.339 216.922C195.964 217.464 196.813 217.734 197.886 217.734C198.699 217.734 199.397 217.578 199.98 217.266C200.574 216.953 201.069 216.479 201.464 215.844L205.058 217.641C204.225 218.984 203.214 219.984 202.027 220.641C200.839 221.286 199.428 221.609 197.793 221.609C195.313 221.609 193.35 220.87 191.902 219.391C190.454 217.911 189.73 215.922 189.73 213.422C189.73 211.016 190.485 209.036 191.996 207.484C193.516 205.932 195.459 205.156 197.824 205.156C200.261 205.156 202.188 205.885 203.605 207.344C205.022 208.792 205.73 210.771 205.73 213.281C205.73 213.417 205.725 213.568 205.714 213.734C205.704 213.891 205.683 214.125 205.652 214.438ZM217.004 209.609C217.452 208.12 218.092 207.005 218.926 206.266C219.769 205.526 220.811 205.156 222.051 205.156C222.332 205.156 222.795 205.208 223.441 205.312C223.566 205.333 223.66 205.349 223.723 205.359L223.051 210.141C222.717 210.005 222.379 209.906 222.035 209.844C221.702 209.771 221.348 209.734 220.973 209.734C219.618 209.734 218.644 210.083 218.051 210.781C217.457 211.469 217.16 212.625 217.16 214.25V221H212.707V205.672H217.098L217.004 209.609ZM227.918 218.312L231.34 216.547C231.455 217.141 231.762 217.609 232.262 217.953C232.762 218.297 233.382 218.469 234.121 218.469C234.85 218.469 235.423 218.339 235.84 218.078C236.257 217.807 236.465 217.438 236.465 216.969C236.465 216.229 235.725 215.609 234.246 215.109C233.788 214.953 233.423 214.823 233.152 214.719C231.35 214.042 230.1 213.359 229.402 212.672C228.715 211.984 228.371 211.135 228.371 210.125C228.371 208.625 228.96 207.411 230.137 206.484C231.314 205.557 232.866 205.094 234.793 205.094C236.168 205.094 237.356 205.37 238.356 205.922C239.366 206.474 240.1 207.255 240.559 208.266L237.293 209.891C237.116 209.318 236.809 208.885 236.371 208.594C235.934 208.292 235.387 208.141 234.731 208.141C234.074 208.141 233.543 208.276 233.137 208.547C232.731 208.818 232.527 209.172 232.527 209.609C232.527 210.37 233.538 211.078 235.559 211.734C235.798 211.807 235.981 211.865 236.106 211.906C237.783 212.458 238.975 213.104 239.684 213.844C240.392 214.573 240.746 215.505 240.746 216.641C240.746 218.161 240.158 219.37 238.981 220.266C237.804 221.161 236.215 221.609 234.215 221.609C232.632 221.609 231.277 221.318 230.152 220.734C229.038 220.141 228.293 219.333 227.918 218.312ZM247.473 199.375C247.473 198.667 247.728 198.057 248.239 197.547C248.749 197.036 249.359 196.781 250.067 196.781C250.786 196.781 251.4 197.036 251.911 197.547C252.431 198.047 252.692 198.656 252.692 199.375C252.692 200.094 252.431 200.708 251.911 201.219C251.4 201.729 250.786 201.984 250.067 201.984C249.359 201.984 248.749 201.724 248.239 201.203C247.728 200.682 247.473 200.073 247.473 199.375ZM247.864 221V205.672H252.301V221H247.864ZM261.044 221V209.156H258.903V205.672H261.044V200.578H265.497V205.672H267.638V209.156H265.497V221H261.044ZM273.864 199.375C273.864 198.667 274.12 198.057 274.63 197.547C275.14 197.036 275.75 196.781 276.458 196.781C277.177 196.781 277.791 197.036 278.302 197.547C278.823 198.047 279.083 198.656 279.083 199.375C279.083 200.094 278.823 200.708 278.302 201.219C277.791 201.729 277.177 201.984 276.458 201.984C275.75 201.984 275.14 201.724 274.63 201.203C274.12 200.682 273.864 200.073 273.864 199.375ZM274.255 221V205.672H278.693V221H274.255ZM297.451 211.75C297.326 210.781 296.971 210.052 296.388 209.562C295.815 209.062 295.029 208.812 294.029 208.812C293.029 208.812 292.227 209.062 291.622 209.562C291.029 210.052 290.649 210.781 290.482 211.75H297.451ZM301.857 214.438H290.341C290.518 215.542 290.919 216.37 291.544 216.922C292.169 217.464 293.018 217.734 294.091 217.734C294.904 217.734 295.602 217.578 296.185 217.266C296.779 216.953 297.274 216.479 297.669 215.844L301.263 217.641C300.43 218.984 299.419 219.984 298.232 220.641C297.044 221.286 295.633 221.609 293.997 221.609C291.518 221.609 289.555 220.87 288.107 219.391C286.659 217.911 285.935 215.922 285.935 213.422C285.935 211.016 286.69 209.036 288.201 207.484C289.721 205.932 291.664 205.156 294.029 205.156C296.466 205.156 298.393 205.885 299.81 207.344C301.227 208.792 301.935 210.771 301.935 213.281C301.935 213.417 301.93 213.568 301.919 213.734C301.909 213.891 301.888 214.125 301.857 214.438ZM307.412 218.312L310.834 216.547C310.948 217.141 311.256 217.609 311.756 217.953C312.256 218.297 312.875 218.469 313.615 218.469C314.344 218.469 314.917 218.339 315.334 218.078C315.75 217.807 315.959 217.438 315.959 216.969C315.959 216.229 315.219 215.609 313.74 215.109C313.282 214.953 312.917 214.823 312.646 214.719C310.844 214.042 309.594 213.359 308.896 212.672C308.209 211.984 307.865 211.135 307.865 210.125C307.865 208.625 308.454 207.411 309.631 206.484C310.808 205.557 312.36 205.094 314.287 205.094C315.662 205.094 316.849 205.37 317.849 205.922C318.86 206.474 319.594 207.255 320.052 208.266L316.787 209.891C316.61 209.318 316.302 208.885 315.865 208.594C315.427 208.292 314.881 208.141 314.224 208.141C313.568 208.141 313.037 208.276 312.631 208.547C312.224 208.818 312.021 209.172 312.021 209.609C312.021 210.37 313.032 211.078 315.052 211.734C315.292 211.807 315.474 211.865 315.599 211.906C317.276 212.458 318.469 213.104 319.177 213.844C319.886 214.573 320.24 215.505 320.24 216.641C320.24 218.161 319.651 219.37 318.474 220.266C317.297 221.161 315.709 221.609 313.709 221.609C312.125 221.609 310.771 221.318 309.646 220.734C308.532 220.141 307.787 219.333 307.412 218.312Z" fill="#EB9928"/>
<path d="M203.64 137.664H184.848L183.912 143.856L188.376 143.496C188.616 143.496 188.856 143.496 189.096 143.496C189.384 143.496 189.624 143.496 189.816 143.496C195 143.496 199.248 145.416 202.56 149.256C205.92 153.048 207.6 157.632 207.6 163.008C207.6 165.84 207 168.552 205.8 171.144C204.6 173.688 202.872 175.872 200.616 177.696C199.08 178.944 197.352 179.88 195.432 180.504C193.512 181.176 191.544 181.632 189.528 181.872C188.712 181.968 187.896 182.04 187.08 182.088C186.312 182.136 185.544 182.16 184.776 182.16C184.584 182.16 184.368 182.16 184.128 182.16C183.936 182.16 183.744 182.16 183.552 182.16C180.672 182.064 177.816 181.632 174.984 180.864C172.152 180.096 169.512 178.92 167.064 177.336L169.152 163.944C171.264 165.864 173.616 167.4 176.208 168.552C178.8 169.704 181.488 170.28 184.272 170.28C186.528 170.28 188.52 169.536 190.248 168.048C192.024 166.56 192.912 164.64 192.912 162.288C192.912 159.312 191.832 157.104 189.672 155.664C187.56 154.176 185.208 153.312 182.616 153.072C182.376 153.072 182.112 153.072 181.824 153.072C181.536 153.024 181.272 153 181.032 153C179.256 153 177.48 153.192 175.704 153.576C173.976 153.912 172.296 154.464 170.664 155.232L175.416 125.712H203.64V137.664ZM238.377 123.552C245.913 123.6 251.505 126.384 255.153 131.904C258.849 137.424 260.913 143.496 261.345 150.12C261.345 150.6 261.345 151.08 261.345 151.56C261.393 151.992 261.417 152.448 261.417 152.928C261.417 153.408 261.393 153.888 261.345 154.368C261.345 154.8 261.345 155.256 261.345 155.736C260.913 162.36 258.873 168.432 255.225 173.952C251.577 179.424 245.961 182.16 238.377 182.16C230.793 182.16 225.177 179.424 221.529 173.952C217.881 168.432 215.841 162.36 215.409 155.736C215.409 155.256 215.385 154.8 215.337 154.368C215.337 153.888 215.337 153.408 215.337 152.928C215.337 152.448 215.337 151.992 215.337 151.56C215.385 151.08 215.409 150.6 215.409 150.12C215.841 143.496 217.881 137.424 221.529 131.904C225.225 126.384 230.841 123.624 238.377 123.624V123.552ZM238.377 136.008C236.025 136.056 234.201 137.088 232.905 139.104C231.657 141.12 230.745 143.328 230.169 145.728C229.881 147.072 229.665 148.368 229.521 149.616C229.425 150.864 229.377 151.944 229.377 152.856C229.377 153.768 229.425 154.872 229.521 156.168C229.665 157.416 229.881 158.712 230.169 160.056C230.745 162.504 231.657 164.736 232.905 166.752C234.201 168.768 236.025 169.776 238.377 169.776C240.729 169.776 242.529 168.768 243.777 166.752C245.073 164.736 246.009 162.504 246.585 160.056C246.873 158.712 247.065 157.416 247.161 156.168C247.305 154.872 247.377 153.768 247.377 152.856C247.377 151.944 247.305 150.864 247.161 149.616C247.065 148.368 246.873 147.072 246.585 145.728C246.009 143.328 245.073 141.12 243.777 139.104C242.529 137.088 240.729 136.08 238.377 136.08V136.008Z" fill="url(#paint0_linear_509_4)"/>
<defs>
<filter id="filter0_d_509_4" x="47.0703" y="15.7247" width="344.727" height="341.654" filterUnits="userSpaceOnUse" color-interpolation-filters="sRGB">
<feFlood flood-opacity="0" result="BackgroundImageFix"/>
<feColorMatrix in="SourceAlpha" type="matrix" values="0 0 0 0 0 0 0 0 0 0 0 0 0 0 0 0 0 0 127 0" result="hardAlpha"/>
<feMorphology radius="7" operator="erode" in="SourceAlpha" result="effect1_dropShadow_509_4"/>
<feOffset dx="6" dy="13"/>
<feGaussianBlur stdDeviation="14"/>
<feComposite in2="hardAlpha" operator="out"/>
<feColorMatrix type="matrix" values="0 0 0 0 0.921569 0 0 0 0 0.6 0 0 0 0 0.156863 0 0 0 0.45 0"/>
<feBlend mode="normal" in2="BackgroundImageFix" result="effect1_dropShadow_509_4"/>
<feBlend mode="normal" in="SourceGraphic" in2="effect1_dropShadow_509_4" result="shape"/>
</filter>
<linearGradient id="paint0_linear_509_4" x1="213" y1="116" x2="213" y2="218.402" gradientUnits="userSpaceOnUse">
<stop offset="0.235745" stop-color="#FFCE2E"/>
<stop offset="1" stop-color="#EB9928"/>
</linearGradient>
</defs>
</svg>
