<svg width="392" height="358" viewBox="0 0 392 358" fill="none" xmlns="http://www.w3.org/2000/svg">
<ellipse cx="142.554" cy="142.5" rx="139" ry="137.5" transform="rotate(-1.50092 142.554 142.5)" fill="#FFCE2E"/>
<path fill-rule="evenodd" clip-rule="evenodd" d="M97.9884 272.808C44.3665 254.883 5.15418 205.386 3.60188 146.142C3.23264 132.051 5.02009 118.398 8.66712 105.494C36.5549 104.771 70.5989 113.42 102.909 143.759C151.174 189.08 227.712 190.31 275.384 183.063C258.257 237.877 207.336 278.351 146.156 279.954C143.56 280.022 140.978 280.02 138.414 279.948L97.9884 272.808Z" fill="#FFDE2E"/>
<path fill-rule="evenodd" clip-rule="evenodd" d="M244.962 236.02C220.307 262.077 185.465 278.752 146.476 279.773C79.7595 281.521 22.7701 236.865 7.374 175.588C36.3352 174.19 70.9275 180.947 105.641 205.402C145.705 233.626 198.853 239.217 244.962 236.02Z" fill="#FFEE51" fill-opacity="0.78"/>
<g filter="url(#filter0_d_509_5)">
<ellipse cx="213.434" cy="173.552" rx="151.387" ry="149.753" transform="rotate(9.90023 213.434 173.552)" fill="#FFF9EE"/>
</g>
<path d="M145.233 204.078C144.244 203.193 143.228 202.547 142.186 202.141C141.145 201.724 140.03 201.516 138.842 201.516C136.405 201.516 134.462 202.245 133.014 203.703C131.566 205.161 130.842 207.12 130.842 209.578C130.842 211.984 131.514 213.896 132.858 215.312C134.202 216.719 136.035 217.422 138.358 217.422C139.681 217.422 140.91 217.203 142.046 216.766C143.181 216.318 144.233 215.651 145.202 214.766L145.171 219.781C144.129 220.396 143.035 220.854 141.889 221.156C140.754 221.458 139.556 221.609 138.296 221.609C134.65 221.609 131.655 220.479 129.311 218.219C126.978 215.948 125.811 213.068 125.811 209.578C125.811 206.099 126.983 203.229 129.327 200.969C131.671 198.708 134.691 197.578 138.389 197.578C139.629 197.578 140.827 197.708 141.983 197.969C143.139 198.229 144.28 198.63 145.405 199.172L145.233 204.078ZM164.663 213.359C164.663 212.109 164.299 211.115 163.569 210.375C162.84 209.625 161.861 209.25 160.632 209.25C159.403 209.25 158.429 209.62 157.71 210.359C156.991 211.099 156.632 212.099 156.632 213.359C156.632 214.609 156.991 215.609 157.71 216.359C158.429 217.109 159.403 217.484 160.632 217.484C161.851 217.484 162.825 217.109 163.554 216.359C164.293 215.609 164.663 214.609 164.663 213.359ZM169.194 213.391C169.194 215.745 168.387 217.703 166.772 219.266C165.168 220.828 163.132 221.609 160.663 221.609C158.174 221.609 156.121 220.828 154.507 219.266C152.892 217.703 152.085 215.745 152.085 213.391C152.085 211.047 152.897 209.089 154.522 207.516C156.147 205.943 158.194 205.156 160.663 205.156C163.142 205.156 165.184 205.932 166.788 207.484C168.392 209.036 169.194 211.005 169.194 213.391ZM180.609 205.672V213.734C180.609 215.089 180.869 216.057 181.39 216.641C181.921 217.224 182.781 217.516 183.968 217.516C185.145 217.516 185.999 217.224 186.531 216.641C187.062 216.047 187.327 215.078 187.327 213.734V205.672H191.781V213.734C191.781 216.432 191.15 218.422 189.89 219.703C188.63 220.974 186.676 221.609 184.031 221.609C181.333 221.609 179.348 220.974 178.077 219.703C176.817 218.432 176.187 216.443 176.187 213.734V205.672H180.609ZM199.742 221V205.672H204.101V208.078C204.903 207.078 205.763 206.344 206.679 205.875C207.606 205.396 208.633 205.156 209.758 205.156C210.945 205.156 211.94 205.359 212.742 205.766C213.554 206.161 214.195 206.771 214.664 207.594C214.893 208.021 215.054 208.505 215.148 209.047C215.252 209.578 215.304 210.417 215.304 211.562V212.047V221H210.851V213.422C210.851 211.536 210.633 210.292 210.195 209.688C209.758 209.083 209.008 208.781 207.945 208.781C207.33 208.781 206.763 208.911 206.242 209.172C205.731 209.422 205.304 209.781 204.961 210.25C204.69 210.615 204.492 211.031 204.367 211.5C204.252 211.969 204.195 212.682 204.195 213.641V214.25V221H199.742ZM223.75 221V209.156H221.609V205.672H223.75V200.578H228.203V205.672H230.344V209.156H228.203V221H223.75ZM241.086 209.609C241.534 208.12 242.175 207.005 243.008 206.266C243.852 205.526 244.894 205.156 246.133 205.156C246.414 205.156 246.878 205.208 247.524 205.312C247.649 205.333 247.742 205.349 247.805 205.359L247.133 210.141C246.8 210.005 246.461 209.906 246.117 209.844C245.784 209.771 245.43 209.734 245.055 209.734C243.701 209.734 242.727 210.083 242.133 210.781C241.539 211.469 241.242 212.625 241.242 214.25V221H236.789V205.672H241.18L241.086 209.609ZM253.282 199.375C253.282 198.667 253.537 198.057 254.048 197.547C254.558 197.036 255.167 196.781 255.876 196.781C256.594 196.781 257.209 197.036 257.719 197.547C258.24 198.047 258.501 198.656 258.501 199.375C258.501 200.094 258.24 200.708 257.719 201.219C257.209 201.729 256.594 201.984 255.876 201.984C255.167 201.984 254.558 201.724 254.048 201.203C253.537 200.682 253.282 200.073 253.282 199.375ZM253.673 221V205.672H258.11V221H253.673ZM276.868 211.75C276.743 210.781 276.389 210.052 275.806 209.562C275.233 209.062 274.446 208.812 273.446 208.812C272.446 208.812 271.644 209.062 271.04 209.562C270.446 210.052 270.066 210.781 269.899 211.75H276.868ZM281.274 214.438H269.759C269.936 215.542 270.337 216.37 270.962 216.922C271.587 217.464 272.436 217.734 273.509 217.734C274.321 217.734 275.019 217.578 275.602 217.266C276.196 216.953 276.691 216.479 277.087 215.844L280.681 217.641C279.847 218.984 278.837 219.984 277.649 220.641C276.462 221.286 275.05 221.609 273.415 221.609C270.936 221.609 268.972 220.87 267.524 219.391C266.076 217.911 265.352 215.922 265.352 213.422C265.352 211.016 266.108 209.036 267.618 207.484C269.139 205.932 271.082 205.156 273.446 205.156C275.884 205.156 277.811 205.885 279.227 207.344C280.644 208.792 281.352 210.771 281.352 213.281C281.352 213.417 281.347 213.568 281.337 213.734C281.326 213.891 281.306 214.125 281.274 214.438ZM286.829 218.312L290.251 216.547C290.366 217.141 290.673 217.609 291.173 217.953C291.673 218.297 292.293 218.469 293.033 218.469C293.762 218.469 294.335 218.339 294.751 218.078C295.168 217.807 295.376 217.438 295.376 216.969C295.376 216.229 294.637 215.609 293.158 215.109C292.699 214.953 292.335 214.823 292.064 214.719C290.262 214.042 289.012 213.359 288.314 212.672C287.626 211.984 287.283 211.135 287.283 210.125C287.283 208.625 287.871 207.411 289.048 206.484C290.225 205.557 291.777 205.094 293.704 205.094C295.079 205.094 296.267 205.37 297.267 205.922C298.277 206.474 299.012 207.255 299.47 208.266L296.204 209.891C296.027 209.318 295.72 208.885 295.283 208.594C294.845 208.292 294.298 208.141 293.642 208.141C292.986 208.141 292.454 208.276 292.048 208.547C291.642 208.818 291.439 209.172 291.439 209.609C291.439 210.37 292.449 211.078 294.47 211.734C294.71 211.807 294.892 211.865 295.017 211.906C296.694 212.458 297.887 213.104 298.595 213.844C299.303 214.573 299.658 215.505 299.658 216.641C299.658 218.161 299.069 219.37 297.892 220.266C296.715 221.161 295.126 221.609 293.126 221.609C291.543 221.609 290.189 221.318 289.064 220.734C287.949 220.141 287.204 219.333 286.829 218.312Z" fill="#EB9928"/>
<path d="M182.469 137.664H174.693V125.712H196.581V180H182.469V137.664ZM238.236 123.552C245.772 123.6 251.364 126.384 255.012 131.904C258.708 137.424 260.772 143.496 261.204 150.12C261.204 150.6 261.204 151.08 261.204 151.56C261.252 151.992 261.276 152.448 261.276 152.928C261.276 153.408 261.252 153.888 261.204 154.368C261.204 154.8 261.204 155.256 261.204 155.736C260.772 162.36 258.732 168.432 255.084 173.952C251.436 179.424 245.82 182.16 238.236 182.16C230.652 182.16 225.036 179.424 221.388 173.952C217.74 168.432 215.7 162.36 215.268 155.736C215.268 155.256 215.244 154.8 215.196 154.368C215.196 153.888 215.196 153.408 215.196 152.928C215.196 152.448 215.196 151.992 215.196 151.56C215.244 151.08 215.268 150.6 215.268 150.12C215.7 143.496 217.74 137.424 221.388 131.904C225.084 126.384 230.7 123.624 238.236 123.624V123.552ZM238.236 136.008C235.884 136.056 234.06 137.088 232.764 139.104C231.516 141.12 230.604 143.328 230.028 145.728C229.74 147.072 229.524 148.368 229.38 149.616C229.284 150.864 229.236 151.944 229.236 152.856C229.236 153.768 229.284 154.872 229.38 156.168C229.524 157.416 229.74 158.712 230.028 160.056C230.604 162.504 231.516 164.736 232.764 166.752C234.06 168.768 235.884 169.776 238.236 169.776C240.588 169.776 242.388 168.768 243.636 166.752C244.932 164.736 245.868 162.504 246.444 160.056C246.732 158.712 246.924 157.416 247.02 156.168C247.164 154.872 247.236 153.768 247.236 152.856C247.236 151.944 247.164 150.864 247.02 149.616C246.924 148.368 246.732 147.072 246.444 145.728C245.868 143.328 244.932 141.12 243.636 139.104C242.388 137.088 240.588 136.08 238.236 136.08V136.008Z" fill="url(#paint0_linear_509_5)"/>
<defs>
<filter id="filter0_d_509_5" x="47.0703" y="15.7249" width="344.727" height="341.654" filterUnits="userSpaceOnUse" color-interpolation-filters="sRGB">
<feFlood flood-opacity="0" result="BackgroundImageFix"/>
<feColorMatrix in="SourceAlpha" type="matrix" values="0 0 0 0 0 0 0 0 0 0 0 0 0 0 0 0 0 0 127 0" result="hardAlpha"/>
<feMorphology radius="7" operator="erode" in="SourceAlpha" result="effect1_dropShadow_509_5"/>
<feOffset dx="6" dy="13"/>
<feGaussianBlur stdDeviation="14"/>
<feComposite in2="hardAlpha" operator="out"/>
<feColorMatrix type="matrix" values="0 0 0 0 0.921569 0 0 0 0 0.6 0 0 0 0 0.156863 0 0 0 0.45 0"/>
<feBlend mode="normal" in2="BackgroundImageFix" result="effect1_dropShadow_509_5"/>
<feBlend mode="normal" in="SourceGraphic" in2="effect1_dropShadow_509_5" result="shape"/>
</filter>
<linearGradient id="paint0_linear_509_5" x1="213" y1="116" x2="213" y2="218.402" gradientUnits="userSpaceOnUse">
<stop offset="0.235745" stop-color="#FFCE2E"/>
<stop offset="1" stop-color="#EB9928"/>
</linearGradient>
</defs>
</svg>
