<svg width="64" height="62" viewBox="0 0 64 62" fill="none" xmlns="http://www.w3.org/2000/svg">
<path fill-rule="evenodd" clip-rule="evenodd" d="M0 31C0 13.8792 14.3129 0 31.9688 0C49.6246 0 63.9375 13.8792 63.9375 31C63.9375 48.1208 49.6246 62 31.9688 62C14.3129 62 0 48.1208 0 31ZM31.9703 14.4667C27.3398 14.4667 26.7586 14.4863 24.94 14.5665C23.1249 14.6471 21.8859 14.9259 20.8018 15.3347C19.6804 15.7569 18.7292 16.3219 17.7814 17.2412C16.833 18.1602 16.2504 19.0826 15.8135 20.1696C15.3908 21.2213 15.1031 22.4231 15.0214 24.1825C14.9401 25.9461 14.9187 26.5099 14.9187 31.0001C14.9187 35.4903 14.9394 36.0522 15.0217 37.8157C15.1052 39.5759 15.3926 40.7773 15.8139 41.8286C16.2497 42.916 16.8322 43.8384 17.7804 44.7574C18.7277 45.6771 19.6789 46.2433 20.7997 46.6657C21.8845 47.0745 23.1238 47.3531 24.9386 47.4337C26.7573 47.5141 27.3381 47.5337 31.9682 47.5337C36.5992 47.5337 37.1785 47.5141 38.9972 47.4337C40.8122 47.3531 42.0526 47.0745 43.1376 46.6657C44.2586 46.2433 45.2083 45.6771 46.1557 44.7574C47.1041 43.8384 47.6867 42.916 48.1236 41.8289C48.5428 40.7773 48.8305 39.5755 48.9158 37.8161C48.9974 36.0525 49.0187 35.4903 49.0187 31.0001C49.0187 26.5099 48.9974 25.9465 48.9158 24.1828C48.8305 22.4227 48.5428 21.2213 48.1236 20.17C47.6867 19.0826 47.1041 18.1602 46.1557 17.2412C45.2073 16.3215 44.2589 15.7567 43.1365 15.3347C42.0494 14.9259 40.8098 14.6471 38.9947 14.5665C37.1759 14.4863 36.597 14.4667 31.965 14.4667H31.9703Z" fill="#FFCE2E"/>
<path fill-rule="evenodd" clip-rule="evenodd" d="M30.4402 17.4465C30.8941 17.4459 31.4007 17.4465 31.9697 17.4465C36.5221 17.4465 37.0617 17.4624 38.8594 17.5416C40.5218 17.6153 41.4241 17.8846 42.0251 18.1109C42.8207 18.4106 43.388 18.7688 43.9844 19.3475C44.5811 19.9261 44.9506 20.4773 45.2603 21.2489C45.4937 21.8309 45.7718 22.7059 45.8475 24.3179C45.9291 26.0608 45.947 26.5844 45.947 30.9967C45.947 35.4091 45.9291 35.9327 45.8475 37.6756C45.7714 39.2876 45.4937 40.1625 45.2603 40.7446C44.9513 41.5162 44.5811 42.0656 43.9844 42.644C43.3876 43.2226 42.8211 43.5808 42.0251 43.8805C41.4247 44.1078 40.5218 44.3765 38.8594 44.4502C37.0621 44.5294 36.5221 44.5466 31.9697 44.5466C27.417 44.5466 26.8774 44.5294 25.0801 44.4502C23.4177 44.3758 22.5154 44.1064 21.9141 43.8801C21.1183 43.5804 20.55 43.2222 19.9532 42.6436C19.3565 42.0649 18.9871 41.5152 18.6774 40.7433C18.444 40.1611 18.1659 39.2863 18.0902 37.6743C18.0084 35.9313 17.9922 35.4078 17.9922 30.9926C17.9922 26.5774 18.0084 26.0566 18.0902 24.3138C18.1662 22.7018 18.444 21.8268 18.6774 21.244C18.9864 20.4725 19.3565 19.9213 19.9532 19.3427C20.55 18.764 21.1183 18.4058 21.9141 18.1054C22.5151 17.8781 23.4177 17.6094 25.0801 17.5354C26.6529 17.4665 27.2625 17.4459 30.4402 17.4424V17.4465ZM41.071 20.1917C39.9414 20.1917 39.025 21.0795 39.025 22.175C39.025 23.2704 39.9414 24.1591 41.071 24.1591C42.2005 24.1591 43.117 23.2704 43.117 22.175C43.117 21.0797 42.2005 20.1917 41.071 20.1917ZM31.9697 22.5099C27.1342 22.5099 23.2137 26.3116 23.2137 31.0005C23.2137 35.6895 27.1342 39.4895 31.9697 39.4895C36.8053 39.4895 40.7242 35.6895 40.7242 31.0005C40.7242 26.3116 36.8053 22.5099 31.9697 22.5099Z" fill="#FFCE2E"/>
<path fill-rule="evenodd" clip-rule="evenodd" d="M31.9705 25.4893C35.1092 25.4893 37.6539 27.9566 37.6539 31.0004C37.6539 34.044 35.1092 36.5116 31.9705 36.5116C28.8314 36.5116 26.2871 34.044 26.2871 31.0004C26.2871 27.9566 28.8314 25.4893 31.9705 25.4893Z" fill="#FFCE2E"/>
</svg>
