<svg width="85" height="72" viewBox="0 0 85 72" fill="none" xmlns="http://www.w3.org/2000/svg">
<path d="M81.4111 0L85 7.6875C77.6963 10.6875 72.5333 14 69.5111 17.625C66.4889 21.25 64.9778 25.1875 64.9778 29.4375C64.9778 32.0625 65.4815 34.25 66.4889 36C67.6222 37.75 69.0074 39.3125 70.6444 40.6875C72.2815 41.9375 73.9185 43.25 75.5556 44.625C77.1926 45.875 78.5148 47.4375 79.5222 49.3125C80.6556 51.1875 81.2222 53.625 81.2222 56.625C81.2222 60.875 79.5852 64.5 76.3111 67.5C73.163 70.5 69.0704 72 64.0333 72C61.0111 72 57.9889 71.1875 54.9667 69.5625C52.0704 67.9375 49.6148 65.375 47.6 61.875C45.7111 58.25 44.7667 53.5 44.7667 47.625C44.7667 40.875 46.0889 34.5 48.7333 28.5C51.5037 22.5 55.5963 17.0625 61.0111 12.1875C66.4259 7.3125 73.2259 3.25 81.4111 0ZM36.6444 0L40.2333 7.6875C32.9296 10.6875 27.7667 14 24.7444 17.625C21.7222 21.25 20.2111 25.1875 20.2111 29.4375C20.2111 32.0625 20.7148 34.25 21.7222 36C22.8556 37.75 24.2407 39.3125 25.8778 40.6875C27.5148 41.9375 29.1519 43.25 30.7889 44.625C32.4259 45.875 33.7482 47.4375 34.7556 49.3125C35.8889 51.1875 36.4556 53.625 36.4556 56.625C36.4556 60.875 34.8185 64.5 31.5444 67.5C28.3963 70.5 24.3037 72 19.2667 72C16.2444 72 13.2222 71.1875 10.2 69.5625C7.3037 67.9375 4.84815 65.375 2.83333 61.875C0.944445 58.25 0 53.5 0 47.625C0 40.875 1.32222 34.5 3.96667 28.5C6.73704 22.5 10.8296 17.0625 16.2444 12.1875C21.6593 7.3125 28.4593 3.25 36.6444 0Z" fill="#EB9928"/>
</svg>
