<svg width="62" height="62" viewBox="0 0 62 62" fill="none" xmlns="http://www.w3.org/2000/svg">
<g clip-path="url(#clip0_513_10)">
<path fill-rule="evenodd" clip-rule="evenodd" d="M0 31C0 13.8792 13.8792 0 31 0C48.1208 0 62 13.8792 62 31C62 48.1208 48.1208 62 31 62C13.8792 62 0 48.1208 0 31ZM50.6333 29.8681C50.6333 21.3758 42.058 14.4667 31.5165 14.4667C20.9764 14.4667 12.4 21.3758 12.4 29.8681C12.4 37.4816 19.2009 43.8576 28.3876 45.0634C29.0102 45.1966 29.8575 45.4709 30.0718 45.9991C30.2647 46.4791 30.1979 47.2307 30.1334 47.7153C30.1334 47.7153 29.9092 49.0545 29.8607 49.3399C29.7776 49.8197 29.4767 51.2164 31.5165 50.3629C33.557 49.5093 42.5259 43.9271 46.5366 39.344C49.307 36.3279 50.6333 33.267 50.6333 29.8681Z" fill="#FFCE2E"/>
<path fill-rule="evenodd" clip-rule="evenodd" d="M27.5318 25.833H26.2033C25.9996 25.833 25.834 26.0039 25.834 26.2139V34.7521C25.834 34.9625 25.9996 35.133 26.2033 35.133H27.5318C27.7354 35.133 27.9007 34.9625 27.9007 34.7521V26.2139C27.9007 26.0039 27.7354 25.833 27.5318 25.833Z" fill="#FFCE2E"/>
<path fill-rule="evenodd" clip-rule="evenodd" d="M36.812 25.833H35.4134C35.199 25.833 35.0251 26.0039 35.0251 26.2139V31.2866L31.0438 26.0025C31.0346 25.9889 31.0243 25.9761 31.0137 25.9637L31.011 25.9615C31.0034 25.9529 30.9956 25.9454 30.9876 25.9378C30.9854 25.9356 30.9831 25.9336 30.9804 25.9314C30.9739 25.9254 30.9671 25.9198 30.9597 25.9145C30.9567 25.9115 30.9532 25.9092 30.9498 25.9066C30.9429 25.9021 30.9365 25.8972 30.9296 25.8931C30.9257 25.8905 30.9219 25.8882 30.9177 25.8864C30.9109 25.8822 30.9039 25.8781 30.8971 25.8747C30.8928 25.8728 30.889 25.8706 30.8848 25.869C30.8776 25.8657 30.8703 25.8623 30.8627 25.8596C30.858 25.8582 30.8543 25.8566 30.85 25.8552C30.8424 25.8525 30.8348 25.8499 30.8268 25.848C30.8225 25.8466 30.818 25.8458 30.8134 25.8442C30.8057 25.8428 30.7985 25.8409 30.7911 25.8393C30.7858 25.8387 30.7802 25.8379 30.7747 25.8375C30.7679 25.836 30.761 25.8356 30.7541 25.8349C30.7476 25.8342 30.7412 25.8342 30.7342 25.8338C30.7293 25.8338 30.7254 25.833 30.7205 25.833H29.3223C29.1078 25.833 28.9336 26.0039 28.9336 26.2139V34.7521C28.9336 34.9625 29.1078 35.133 29.3223 35.133H30.7205C30.9353 35.133 31.1091 34.9625 31.1091 34.7521V29.681L35.0954 34.9718C35.1229 35.0102 35.157 35.0413 35.194 35.0661L35.1978 35.0692C35.2058 35.074 35.2138 35.0789 35.2219 35.0834C35.2257 35.0857 35.2292 35.0872 35.2329 35.0891C35.2387 35.0924 35.2452 35.0954 35.2513 35.0981C35.2579 35.1007 35.2635 35.1033 35.2704 35.106C35.2743 35.1074 35.2781 35.109 35.2819 35.1101C35.291 35.1135 35.2994 35.1161 35.3082 35.1187L35.314 35.1198C35.3457 35.1281 35.379 35.133 35.4134 35.133H36.812C37.0268 35.133 37.2003 34.9625 37.2003 34.7521V26.2139C37.2003 26.0039 37.0268 25.833 36.812 25.833Z" fill="#FFCE2E"/>
<path fill-rule="evenodd" clip-rule="evenodd" d="M24.4219 32.9949H20.7191V26.2147C20.7191 26.0039 20.5496 25.833 20.3412 25.833H18.9781C18.7691 25.833 18.5996 26.0039 18.5996 26.2147V34.7511C18.5996 34.8535 18.6402 34.9471 18.7054 35.0155C18.7054 35.0155 18.7084 35.0192 18.7106 35.021C18.7125 35.023 18.7161 35.0263 18.7161 35.0263C18.7843 35.0924 18.8759 35.133 18.9777 35.133H24.4219C24.6309 35.133 24.7996 34.9617 24.7996 34.7511V33.3766C24.7996 33.1659 24.6309 32.9949 24.4219 32.9949Z" fill="#FFCE2E"/>
<path fill-rule="evenodd" clip-rule="evenodd" d="M44.0547 27.9711C44.2637 27.9711 44.4324 27.8005 44.4324 27.5894V26.215C44.4324 26.0043 44.2637 25.833 44.0547 25.833H38.6109C38.5087 25.833 38.4161 25.8743 38.3479 25.9409L38.3434 25.945C38.3412 25.9472 38.3394 25.9494 38.3374 25.9517C38.2726 26.02 38.2324 26.1125 38.2324 26.2147V34.7513C38.2324 34.8539 38.273 34.9471 38.3382 35.0155L38.3434 35.021L38.3491 35.0263C38.4167 35.0921 38.5087 35.133 38.6101 35.133H44.0547C44.2637 35.133 44.4324 34.9617 44.4324 34.7513V33.3766C44.4324 33.1663 44.2637 32.9949 44.0547 32.9949H40.3523V31.5519H44.0547C44.2637 31.5519 44.4324 31.381 44.4324 31.1702V29.7958C44.4324 29.585 44.2637 29.4138 44.0547 29.4138H40.3523V27.9711H44.0547Z" fill="#FFCE2E"/>
</g>
<defs>
<clipPath id="clip0_513_10">
<rect width="62" height="62" fill="white"/>
</clipPath>
</defs>
</svg>
