<svg width="62" height="62" viewBox="0 0 62 62" fill="none" xmlns="http://www.w3.org/2000/svg">
<g clip-path="url(#clip0_513_16)">
<path fill-rule="evenodd" clip-rule="evenodd" d="M0 31C0 13.8792 13.8792 0 31 0C48.1208 0 62 13.8792 62 31C62 48.1208 48.1208 62 31 62C13.8792 62 0 48.1208 0 31ZM21.9073 25.6755H14.8821V46.7836H21.9073V25.6755ZM22.3701 19.146C22.3245 17.0763 20.8445 15.5 18.4411 15.5C16.0378 15.5 14.4667 17.0763 14.4667 19.146C14.4667 21.1727 15.9915 22.7944 18.3499 22.7944H18.3949C20.8445 22.7944 22.3701 21.1727 22.3701 19.146ZM47.2432 34.6809C47.2432 28.1975 43.7774 25.1799 39.1544 25.1799C35.4245 25.1799 33.7545 27.2286 32.8222 28.6658V25.6761H25.796C25.8886 27.6568 25.796 46.7842 25.796 46.7842H32.8222V34.9956C32.8222 34.3648 32.8677 33.7355 33.0535 33.2839C33.5612 32.0235 34.7173 30.7187 36.6581 30.7187C39.2013 30.7187 40.218 32.6542 40.218 35.4907V46.7836H47.243L47.2432 34.6809Z" fill="#FFCE2E"/>
</g>
<defs>
<clipPath id="clip0_513_16">
<rect width="62" height="62" fill="white"/>
</clipPath>
</defs>
</svg>
