<svg width="771" height="189" viewBox="0 0 771 189" fill="none" xmlns="http://www.w3.org/2000/svg">
<circle cx="140.871" cy="53.8706" r="52.8706" stroke="#EB9928" stroke-width="2"/>
<circle cx="386.871" cy="53.8706" r="52.8706" stroke="#EB9928" stroke-width="2"/>
<circle cx="631.871" cy="53.8706" r="52.8706" stroke="#EB9928" stroke-width="2"/>
<path d="M333.623 178V157.191L346.338 169.428C346.684 169.774 347.035 170.143 347.39 170.535C347.746 170.927 348.12 171.369 348.511 171.861V157.984H351.519V178.779L338.545 166.324C338.198 165.987 337.861 165.632 337.533 165.258C337.214 164.884 336.909 164.492 336.617 164.082V178H333.623ZM368.783 171.957H358.42C358.493 173.169 358.853 174.117 359.5 174.801C360.147 175.475 361.008 175.812 362.084 175.812C363.041 175.812 363.838 175.612 364.476 175.211C365.114 174.81 365.67 174.163 366.144 173.27L368.646 174.664C367.917 175.967 367.015 176.938 365.939 177.576C364.864 178.214 363.601 178.533 362.152 178.533C360.074 178.533 358.42 177.9 357.189 176.633C355.959 175.366 355.344 173.675 355.344 171.561C355.344 169.528 355.977 167.86 357.244 166.557C358.52 165.244 360.156 164.588 362.152 164.588C364.239 164.588 365.866 165.185 367.033 166.379C368.2 167.573 368.783 169.245 368.783 171.396V171.957ZM365.707 169.961C365.588 169.031 365.233 168.325 364.64 167.842C364.048 167.35 363.237 167.104 362.207 167.104C361.232 167.104 360.448 167.34 359.855 167.814C359.263 168.288 358.848 169.004 358.611 169.961H365.707ZM373.004 178V167.637H370.734V165.039H373.004V160.131H375.971V165.039H378.24V167.637H375.971V178H373.004ZM393.631 178.779L390.637 172.039C390.409 171.52 390.222 171.059 390.076 170.658C389.93 170.248 389.798 169.847 389.68 169.455C389.479 170.048 389.301 170.558 389.146 170.986C388.992 171.406 388.868 171.72 388.777 171.93L385.701 178.779L378.988 165.039H382.146L385.059 171.287C385.177 171.551 385.291 171.916 385.4 172.381C385.519 172.837 385.619 173.342 385.701 173.898C385.71 173.57 385.765 173.229 385.865 172.873C385.965 172.518 386.134 172.08 386.371 171.561L389.543 164.561H389.789L393.016 171.561C393.216 171.998 393.362 172.404 393.453 172.777C393.553 173.151 393.613 173.525 393.631 173.898C393.713 173.406 393.818 172.941 393.945 172.504C394.073 172.066 394.219 171.67 394.383 171.314L397.24 165.039H400.371L393.631 178.779ZM412.836 171.561C412.836 170.357 412.449 169.341 411.674 168.512C410.899 167.673 409.951 167.254 408.83 167.254C407.718 167.254 406.77 167.673 405.986 168.512C405.212 169.341 404.824 170.357 404.824 171.561C404.824 172.764 405.212 173.785 405.986 174.623C406.77 175.452 407.718 175.867 408.83 175.867C409.942 175.867 410.886 175.452 411.66 174.623C412.444 173.785 412.836 172.764 412.836 171.561ZM401.693 171.533C401.693 170.585 401.871 169.692 402.227 168.854C402.591 168.006 403.111 167.254 403.785 166.598C404.451 165.951 405.216 165.454 406.082 165.107C406.948 164.761 407.855 164.588 408.803 164.588C409.778 164.588 410.694 164.761 411.551 165.107C412.417 165.454 413.191 165.964 413.875 166.639C414.559 167.304 415.078 168.056 415.434 168.895C415.789 169.733 415.967 170.613 415.967 171.533C415.967 172.49 415.789 173.388 415.434 174.227C415.087 175.065 414.577 175.808 413.902 176.455C413.191 177.139 412.403 177.654 411.537 178C410.671 178.355 409.76 178.533 408.803 178.533C407.864 178.533 406.962 178.355 406.096 178C405.23 177.654 404.46 177.148 403.785 176.482C403.102 175.808 402.582 175.051 402.227 174.213C401.871 173.374 401.693 172.481 401.693 171.533ZM422.498 167.104C422.817 166.247 423.236 165.613 423.756 165.203C424.285 164.793 424.936 164.588 425.711 164.588C426.13 164.588 426.541 164.638 426.942 164.738C427.352 164.839 427.753 164.984 428.145 165.176L427.078 167.691C426.823 167.509 426.545 167.377 426.244 167.295C425.953 167.204 425.625 167.158 425.26 167.158C424.276 167.158 423.569 167.555 423.141 168.348C422.712 169.132 422.498 170.453 422.498 172.312V178H419.531V165.012H422.498V167.104ZM430.26 178V156.809H433.227V170.412L438.655 165.039H442.319L436.44 170.754L442.879 178H439.051L433.227 171.314V178H430.26Z" fill="#EB9928"/>
<path d="M552.302 177V156.984H555.556V177H552.302ZM560.406 177V164.039H563.195V166.158C563.787 165.265 564.485 164.613 565.287 164.203C566.089 163.793 567.064 163.588 568.213 163.588C569.179 163.588 569.999 163.743 570.673 164.053C571.357 164.354 571.89 164.805 572.273 165.406C572.501 165.762 572.665 166.176 572.765 166.65C572.865 167.124 572.916 167.954 572.916 169.139V177H569.921V170.342C569.921 168.637 569.712 167.507 569.293 166.951C568.882 166.386 568.149 166.104 567.091 166.104C566.399 166.104 565.779 166.231 565.232 166.486C564.694 166.742 564.27 167.102 563.961 167.566C563.742 167.876 563.587 168.277 563.496 168.77C563.414 169.253 563.373 170.027 563.373 171.094V177H560.406ZM575.797 174.648L578.258 173.309C578.44 173.956 578.777 174.448 579.269 174.785C579.761 175.122 580.395 175.291 581.17 175.291C581.835 175.291 582.355 175.141 582.728 174.84C583.111 174.53 583.302 174.111 583.302 173.582C583.302 172.88 582.628 172.279 581.279 171.777C580.823 171.613 580.472 171.477 580.226 171.367C578.841 170.793 577.87 170.21 577.314 169.617C576.767 169.025 576.494 168.305 576.494 167.457C576.494 166.299 576.945 165.361 577.847 164.641C578.759 163.921 579.962 163.561 581.457 163.561C582.459 163.561 583.316 163.747 584.027 164.121C584.747 164.486 585.271 165.01 585.599 165.693L583.494 167.143C583.339 166.732 583.065 166.409 582.674 166.172C582.291 165.926 581.844 165.803 581.334 165.803C580.769 165.803 580.313 165.939 579.966 166.213C579.629 166.477 579.461 166.833 579.461 167.279C579.461 167.954 580.226 168.569 581.758 169.125C582.241 169.298 582.614 169.439 582.879 169.549C584.073 170.023 584.925 170.561 585.435 171.162C585.955 171.755 586.215 172.497 586.215 173.391C586.215 174.685 585.745 175.701 584.806 176.439C583.868 177.169 582.573 177.533 580.924 177.533C579.657 177.533 578.604 177.296 577.765 176.822C576.927 176.348 576.271 175.624 575.797 174.648ZM592.5 170.479C592.5 171.818 592.832 172.889 593.498 173.691C594.172 174.493 595.056 174.895 596.15 174.895C597.271 174.895 598.137 174.521 598.748 173.773C599.368 173.026 599.678 171.964 599.678 170.588C599.678 169.221 599.354 168.154 598.707 167.389C598.069 166.614 597.189 166.227 596.068 166.227C594.947 166.227 594.072 166.6 593.443 167.348C592.814 168.095 592.5 169.139 592.5 170.479ZM589.629 183.098V164.039H592.595V166.158C592.942 165.338 593.493 164.704 594.25 164.258C595.015 163.811 595.927 163.588 596.984 163.588C598.707 163.588 600.101 164.226 601.168 165.502C602.243 166.769 602.781 168.437 602.781 170.506C602.781 172.684 602.252 174.402 601.195 175.66C600.147 176.909 598.707 177.533 596.875 177.533C595.963 177.533 595.152 177.351 594.441 176.986C593.739 176.622 593.124 176.066 592.595 175.318V183.098H589.629ZM606.086 158.434C606.086 157.932 606.268 157.499 606.633 157.135C607.006 156.77 607.448 156.588 607.959 156.588C608.487 156.588 608.925 156.766 609.271 157.121C609.627 157.467 609.805 157.905 609.805 158.434C609.805 158.962 609.627 159.409 609.271 159.773C608.916 160.129 608.478 160.307 607.959 160.307C607.448 160.307 607.006 160.124 606.633 159.76C606.268 159.386 606.086 158.944 606.086 158.434ZM606.482 177V164.039H609.449V177H606.482ZM617.088 166.104C617.407 165.247 617.826 164.613 618.346 164.203C618.874 163.793 619.526 163.588 620.301 163.588C620.72 163.588 621.13 163.638 621.531 163.738C621.941 163.839 622.342 163.984 622.734 164.176L621.668 166.691C621.413 166.509 621.135 166.377 620.834 166.295C620.542 166.204 620.214 166.158 619.85 166.158C618.865 166.158 618.159 166.555 617.73 167.348C617.302 168.132 617.088 169.453 617.088 171.312V177H614.121V164.012H617.088V166.104ZM637.045 177H634.078V175.318C633.549 176.066 632.93 176.622 632.219 176.986C631.517 177.351 630.71 177.533 629.799 177.533C627.967 177.533 626.522 176.909 625.465 175.66C624.417 174.402 623.893 172.684 623.893 170.506C623.893 168.437 624.43 166.769 625.506 165.502C626.581 164.226 627.985 163.588 629.717 163.588C630.774 163.588 631.676 163.811 632.424 164.258C633.18 164.695 633.732 165.329 634.078 166.158V164.039H637.045V177ZM634.16 170.479C634.16 169.139 633.846 168.095 633.217 167.348C632.597 166.6 631.727 166.227 630.605 166.227C629.484 166.227 628.6 166.614 627.953 167.389C627.315 168.154 626.996 169.221 626.996 170.588C626.996 171.964 627.306 173.026 627.926 173.773C628.546 174.521 629.421 174.895 630.551 174.895C631.617 174.895 632.483 174.489 633.148 173.678C633.823 172.867 634.16 171.8 634.16 170.479ZM642.264 177V166.637H639.994V164.039H642.264V159.131H645.231V164.039H647.5V166.637H645.231V177H642.264ZM650.231 158.434C650.231 157.932 650.413 157.499 650.777 157.135C651.151 156.77 651.593 156.588 652.104 156.588C652.632 156.588 653.07 156.766 653.416 157.121C653.772 157.467 653.949 157.905 653.949 158.434C653.949 158.962 653.772 159.409 653.416 159.773C653.061 160.129 652.623 160.307 652.104 160.307C651.593 160.307 651.151 160.124 650.777 159.76C650.413 159.386 650.231 158.944 650.231 158.434ZM650.627 177V164.039H653.594V177H650.627ZM668.451 170.561C668.451 169.357 668.064 168.341 667.289 167.512C666.515 166.673 665.567 166.254 664.446 166.254C663.334 166.254 662.386 166.673 661.602 167.512C660.827 168.341 660.44 169.357 660.44 170.561C660.44 171.764 660.827 172.785 661.602 173.623C662.386 174.452 663.334 174.867 664.446 174.867C665.558 174.867 666.501 174.452 667.276 173.623C668.059 172.785 668.451 171.764 668.451 170.561ZM657.309 170.533C657.309 169.585 657.487 168.692 657.842 167.854C658.207 167.006 658.726 166.254 659.401 165.598C660.066 164.951 660.832 164.454 661.698 164.107C662.563 163.761 663.47 163.588 664.418 163.588C665.393 163.588 666.309 163.761 667.166 164.107C668.032 164.454 668.807 164.964 669.49 165.639C670.174 166.304 670.694 167.056 671.049 167.895C671.405 168.733 671.582 169.613 671.582 170.533C671.582 171.49 671.405 172.388 671.049 173.227C670.703 174.065 670.192 174.808 669.518 175.455C668.807 176.139 668.018 176.654 667.153 177C666.287 177.355 665.375 177.533 664.418 177.533C663.479 177.533 662.577 177.355 661.711 177C660.845 176.654 660.075 176.148 659.401 175.482C658.717 174.808 658.198 174.051 657.842 173.213C657.487 172.374 657.309 171.481 657.309 170.533ZM675.147 177V164.039H677.936V166.158C678.528 165.265 679.226 164.613 680.028 164.203C680.83 163.793 681.805 163.588 682.953 163.588C683.92 163.588 684.74 163.743 685.414 164.053C686.098 164.354 686.631 164.805 687.014 165.406C687.242 165.762 687.406 166.176 687.506 166.65C687.606 167.124 687.657 167.954 687.657 169.139V177H684.662V170.342C684.662 168.637 684.453 167.507 684.034 166.951C683.623 166.386 682.89 166.104 681.832 166.104C681.14 166.104 680.52 166.231 679.973 166.486C679.435 166.742 679.011 167.102 678.701 167.566C678.483 167.876 678.328 168.277 678.237 168.77C678.155 169.253 678.114 170.027 678.114 171.094V177H675.147ZM704.223 177H701.256V175.318C700.728 176.066 700.108 176.622 699.397 176.986C698.695 177.351 697.888 177.533 696.977 177.533C695.145 177.533 693.7 176.909 692.643 175.66C691.595 174.402 691.071 172.684 691.071 170.506C691.071 168.437 691.608 166.769 692.684 165.502C693.76 164.226 695.163 163.588 696.895 163.588C697.952 163.588 698.855 163.811 699.602 164.258C700.358 164.695 700.91 165.329 701.256 166.158V164.039H704.223V177ZM701.338 170.479C701.338 169.139 701.024 168.095 700.395 167.348C699.775 166.6 698.905 166.227 697.784 166.227C696.663 166.227 695.778 166.614 695.131 167.389C694.493 168.154 694.174 169.221 694.174 170.588C694.174 171.964 694.484 173.026 695.104 173.773C695.724 174.521 696.599 174.895 697.729 174.895C698.795 174.895 699.661 174.489 700.327 173.678C701.001 172.867 701.338 171.8 701.338 170.479ZM708.881 177V155.809H711.848V177H708.881Z" fill="#EB9928"/>
<path d="M68.0249 168.033C68.0249 167.021 67.8381 166.06 67.4644 165.148C67.0998 164.237 66.5711 163.426 65.8784 162.715C65.204 162.013 64.4201 161.475 63.5269 161.102C62.6428 160.719 61.7085 160.527 60.7241 160.527C59.7398 160.527 58.801 160.714 57.9077 161.088C57.0236 161.462 56.2352 162.004 55.5425 162.715C54.8498 163.417 54.3211 164.223 53.9566 165.135C53.592 166.046 53.4097 167.012 53.4097 168.033C53.4097 169.045 53.592 170.002 53.9566 170.904C54.3211 171.807 54.8498 172.613 55.5425 173.324C56.2352 174.035 57.0236 174.577 57.9077 174.951C58.7919 175.325 59.7307 175.512 60.7241 175.512C61.6994 175.512 62.6245 175.325 63.4995 174.951C64.3836 174.577 65.1766 174.035 65.8784 173.324C66.5711 172.613 67.0998 171.807 67.4644 170.904C67.8381 169.993 68.0249 169.036 68.0249 168.033ZM71.4156 168.033C71.4156 169.455 71.1467 170.799 70.6089 172.066C70.0803 173.333 69.3055 174.464 68.2847 175.457C67.2547 176.451 66.0926 177.212 64.7984 177.74C63.5041 178.269 62.146 178.533 60.7241 178.533C59.284 178.533 57.9077 178.269 56.5952 177.74C55.2919 177.202 54.1389 176.441 53.1363 175.457C52.1154 174.464 51.3407 173.338 50.812 172.08C50.2834 170.822 50.0191 169.473 50.0191 168.033C50.0191 166.602 50.2834 165.253 50.812 163.986C51.3407 162.719 52.1154 161.585 53.1363 160.582C54.1571 159.589 55.3146 158.832 56.6089 158.312C57.9032 157.793 59.2749 157.533 60.7241 157.533C62.1642 157.533 63.5269 157.793 64.812 158.312C66.1063 158.832 67.2639 159.589 68.2847 160.582C69.3055 161.594 70.0803 162.738 70.6089 164.014C71.1467 165.281 71.4156 166.62 71.4156 168.033ZM78.193 171.479C78.193 172.818 78.5257 173.889 79.191 174.691C79.8655 175.493 80.7496 175.895 81.8434 175.895C82.9645 175.895 83.8303 175.521 84.441 174.773C85.0608 174.026 85.3707 172.964 85.3707 171.588C85.3707 170.221 85.0471 169.154 84.4 168.389C83.762 167.614 82.8824 167.227 81.7613 167.227C80.6402 167.227 79.7652 167.6 79.1363 168.348C78.5074 169.095 78.193 170.139 78.193 171.479ZM75.3219 184.098V165.039H78.2887V167.158C78.635 166.338 79.1865 165.704 79.943 165.258C80.7086 164.811 81.6201 164.588 82.6773 164.588C84.4 164.588 85.7945 165.226 86.8609 166.502C87.9365 167.769 88.4742 169.437 88.4742 171.506C88.4742 173.684 87.9456 175.402 86.8883 176.66C85.8401 177.909 84.4 178.533 82.568 178.533C81.6565 178.533 80.8453 178.351 80.1344 177.986C79.4326 177.622 78.8173 177.066 78.2887 176.318V184.098H75.3219ZM94.9099 171.479C94.9099 172.818 95.2425 173.889 95.9079 174.691C96.5824 175.493 97.4665 175.895 98.5602 175.895C99.6813 175.895 100.547 175.521 101.158 174.773C101.778 174.026 102.088 172.964 102.088 171.588C102.088 170.221 101.764 169.154 101.117 168.389C100.479 167.614 99.5993 167.227 98.4782 167.227C97.3571 167.227 96.4821 167.6 95.8532 168.348C95.2243 169.095 94.9099 170.139 94.9099 171.479ZM92.0388 184.098V165.039H95.0056V167.158C95.3519 166.338 95.9033 165.704 96.6599 165.258C97.4255 164.811 98.3369 164.588 99.3942 164.588C101.117 164.588 102.511 165.226 103.578 166.502C104.653 167.769 105.191 169.437 105.191 171.506C105.191 173.684 104.662 175.402 103.605 176.66C102.557 177.909 101.117 178.533 99.2849 178.533C98.3734 178.533 97.5622 178.351 96.8513 177.986C96.1494 177.622 95.5342 177.066 95.0056 176.318V184.098H92.0388ZM118.941 171.561C118.941 170.357 118.554 169.341 117.779 168.512C117.004 167.673 116.056 167.254 114.935 167.254C113.823 167.254 112.875 167.673 112.092 168.512C111.317 169.341 110.929 170.357 110.929 171.561C110.929 172.764 111.317 173.785 112.092 174.623C112.875 175.452 113.823 175.867 114.935 175.867C116.047 175.867 116.991 175.452 117.765 174.623C118.549 173.785 118.941 172.764 118.941 171.561ZM107.799 171.533C107.799 170.585 107.976 169.692 108.332 168.854C108.696 168.006 109.216 167.254 109.89 166.598C110.556 165.951 111.321 165.454 112.187 165.107C113.053 164.761 113.96 164.588 114.908 164.588C115.883 164.588 116.799 164.761 117.656 165.107C118.522 165.454 119.297 165.964 119.98 166.639C120.664 167.304 121.183 168.056 121.539 168.895C121.894 169.733 122.072 170.613 122.072 171.533C122.072 172.49 121.894 173.388 121.539 174.227C121.192 175.065 120.682 175.808 120.008 176.455C119.297 177.139 118.508 177.654 117.642 178C116.776 178.355 115.865 178.533 114.908 178.533C113.969 178.533 113.067 178.355 112.201 178C111.335 177.654 110.565 177.148 109.89 176.482C109.207 175.808 108.687 175.051 108.332 174.213C107.976 173.374 107.799 172.481 107.799 171.533ZM128.603 167.104C128.922 166.247 129.342 165.613 129.861 165.203C130.39 164.793 131.042 164.588 131.816 164.588C132.236 164.588 132.646 164.638 133.047 164.738C133.457 164.839 133.858 164.984 134.25 165.176L133.183 167.691C132.928 167.509 132.65 167.377 132.349 167.295C132.058 167.204 131.73 167.158 131.365 167.158C130.381 167.158 129.674 167.555 129.246 168.348C128.818 169.132 128.603 170.453 128.603 172.312V178H125.637V165.012H128.603V167.104ZM137.062 178V167.637H134.793V165.039H137.062V160.131H140.029V165.039H142.299V167.637H140.029V178H137.062ZM148.16 165.039V172.34C148.16 173.598 148.42 174.5 148.939 175.047C149.459 175.594 150.302 175.867 151.469 175.867C152.635 175.867 153.479 175.594 153.998 175.047C154.518 174.5 154.777 173.598 154.777 172.34V165.039H157.744V171.451C157.744 173.93 157.247 175.73 156.254 176.852C155.26 177.973 153.674 178.533 151.496 178.533C149.281 178.533 147.677 177.977 146.684 176.865C145.69 175.753 145.193 173.949 145.193 171.451V165.039H148.16ZM162.17 178V165.039H164.959V167.158C165.552 166.265 166.249 165.613 167.051 165.203C167.853 164.793 168.828 164.588 169.977 164.588C170.943 164.588 171.763 164.743 172.438 165.053C173.121 165.354 173.654 165.805 174.037 166.406C174.265 166.762 174.429 167.176 174.529 167.65C174.63 168.124 174.68 168.954 174.68 170.139V178H171.686V171.342C171.686 169.637 171.476 168.507 171.057 167.951C170.647 167.386 169.913 167.104 168.856 167.104C168.163 167.104 167.543 167.231 166.996 167.486C166.458 167.742 166.035 168.102 165.725 168.566C165.506 168.876 165.351 169.277 165.26 169.77C165.178 170.253 165.137 171.027 165.137 172.094V178H162.17ZM178.791 159.434C178.791 158.932 178.973 158.499 179.338 158.135C179.712 157.77 180.154 157.588 180.664 157.588C181.193 157.588 181.63 157.766 181.977 158.121C182.332 158.467 182.51 158.905 182.51 159.434C182.51 159.962 182.332 160.409 181.977 160.773C181.621 161.129 181.184 161.307 180.664 161.307C180.154 161.307 179.712 161.124 179.338 160.76C178.973 160.386 178.791 159.944 178.791 159.434ZM179.188 178V165.039H182.154V178H179.188ZM187.524 178V167.637H185.254V165.039H187.524V160.131H190.49V165.039H192.76V167.637H190.49V178H187.524ZM195.491 159.434C195.491 158.932 195.673 158.499 196.037 158.135C196.411 157.77 196.853 157.588 197.364 157.588C197.892 157.588 198.33 157.766 198.676 158.121C199.032 158.467 199.209 158.905 199.209 159.434C199.209 159.962 199.032 160.409 198.676 160.773C198.321 161.129 197.883 161.307 197.364 161.307C196.853 161.307 196.411 161.124 196.037 160.76C195.673 160.386 195.491 159.944 195.491 159.434ZM195.887 178V165.039H198.854V178H195.887ZM216.008 171.957H205.645C205.718 173.169 206.078 174.117 206.725 174.801C207.372 175.475 208.233 175.812 209.309 175.812C210.266 175.812 211.064 175.612 211.702 175.211C212.34 174.81 212.896 174.163 213.37 173.27L215.871 174.664C215.142 175.967 214.24 176.938 213.164 177.576C212.089 178.214 210.827 178.533 209.377 178.533C207.299 178.533 205.645 177.9 204.414 176.633C203.184 175.366 202.569 173.675 202.569 171.561C202.569 169.528 203.202 167.86 204.469 166.557C205.745 165.244 207.381 164.588 209.377 164.588C211.465 164.588 213.092 165.185 214.258 166.379C215.425 167.573 216.008 169.245 216.008 171.396V171.957ZM212.932 169.961C212.814 169.031 212.458 168.325 211.866 167.842C211.273 167.35 210.462 167.104 209.432 167.104C208.457 167.104 207.673 167.34 207.08 167.814C206.488 168.288 206.073 169.004 205.836 169.961H212.932ZM218.041 175.648L220.502 174.309C220.685 174.956 221.022 175.448 221.514 175.785C222.006 176.122 222.64 176.291 223.415 176.291C224.08 176.291 224.599 176.141 224.973 175.84C225.356 175.53 225.547 175.111 225.547 174.582C225.547 173.88 224.873 173.279 223.524 172.777C223.068 172.613 222.717 172.477 222.471 172.367C221.086 171.793 220.115 171.21 219.559 170.617C219.012 170.025 218.739 169.305 218.739 168.457C218.739 167.299 219.19 166.361 220.092 165.641C221.004 164.921 222.207 164.561 223.702 164.561C224.704 164.561 225.561 164.747 226.272 165.121C226.992 165.486 227.516 166.01 227.844 166.693L225.739 168.143C225.584 167.732 225.31 167.409 224.918 167.172C224.536 166.926 224.089 166.803 223.579 166.803C223.013 166.803 222.558 166.939 222.211 167.213C221.874 167.477 221.706 167.833 221.706 168.279C221.706 168.954 222.471 169.569 224.002 170.125C224.485 170.298 224.859 170.439 225.124 170.549C226.318 171.023 227.17 171.561 227.68 172.162C228.2 172.755 228.459 173.497 228.459 174.391C228.459 175.685 227.99 176.701 227.051 177.439C226.112 178.169 224.818 178.533 223.168 178.533C221.901 178.533 220.849 178.296 220.01 177.822C219.172 177.348 218.515 176.624 218.041 175.648Z" fill="#EB9928"/>
<line x1="334" y1="55" x2="194" y2="55" stroke="#EB9928" stroke-width="2"/>
<line x1="580" y1="55" x2="440" y2="55" stroke="#EB9928" stroke-width="2"/>
<path d="M158.602 50.3997C158.609 40.4492 150.559 32.379 140.617 32.3725C130.675 32.3599 122.601 40.4171 122.594 50.361C122.588 56.8008 126.021 62.7543 131.596 65.9771C132.709 66.6232 133.392 67.806 133.392 69.0912V72.0074C133.399 73.9961 135.01 75.6075 136.992 75.6075H144.197C146.186 75.6075 147.797 73.9961 147.797 72.0074V69.0912C147.797 67.806 148.481 66.6232 149.594 65.9771C155.15 62.7543 158.583 56.8199 158.602 50.3997ZM162.202 50.3997C162.202 58.1117 158.078 65.2419 151.397 69.0912V72.0074C151.397 75.9848 148.174 79.208 144.197 79.208H136.992C133.016 79.208 129.793 75.9848 129.793 72.0074V69.0912C119.468 63.1251 115.938 49.9073 121.904 39.5795C127.875 29.2518 141.084 25.7155 151.416 31.6886C158.09 35.5509 162.202 42.6811 162.202 50.3997ZM118.112 35.3334L114.992 33.5301C114.129 33.0377 113.029 33.3316 112.531 34.1888C112.038 35.052 112.332 36.1518 113.189 36.6508L116.309 38.454C116.578 38.6073 116.891 38.6972 117.204 38.6907C118.202 38.6972 119.007 37.8913 119.007 36.8939C119.014 36.2543 118.668 35.6529 118.112 35.3334ZM125.535 27.9027C125.855 28.4654 126.449 28.8045 127.095 28.8045C127.408 28.8045 127.722 28.7212 127.99 28.5614C128.853 28.069 129.147 26.9691 128.655 26.1059L126.852 22.9852C126.353 22.122 125.254 21.8276 124.39 22.3265C123.534 22.8254 123.24 23.9253 123.732 24.7885L125.535 27.9027ZM140.598 25.1849C141.589 25.1914 142.395 24.379 142.395 23.3882V19.7877C142.395 18.7903 141.589 17.9844 140.598 17.9844C139.601 17.9844 138.795 18.7903 138.795 19.7877V23.3882C138.795 24.379 139.601 25.1849 140.592 25.1849H140.598ZM153.2 28.5614C153.474 28.7212 153.781 28.8045 154.095 28.8045C154.741 28.8045 155.335 28.4654 155.661 27.9027L157.458 24.7885C157.956 23.9253 157.662 22.8254 156.799 22.3265C155.936 21.8276 154.837 22.122 154.338 22.9852L152.541 26.1059C152.042 26.9626 152.336 28.0625 153.193 28.5614C153.2 28.5614 153.2 28.5614 153.2 28.5614ZM168.665 34.1888C168.167 33.3316 167.067 33.0377 166.21 33.5301H166.204L163.084 35.3334C162.221 35.8323 161.927 36.9321 162.425 37.7953C162.745 38.3516 163.34 38.6972 163.985 38.6907C164.299 38.6972 164.612 38.6073 164.887 38.454L168.001 36.6508C168.864 36.1518 169.158 35.052 168.665 34.1953C168.665 34.1953 168.665 34.1953 168.665 34.1888ZM171.204 48.5959H167.604C166.607 48.5959 165.801 49.4018 165.801 50.3997C165.801 51.3905 166.607 52.1964 167.604 52.1964H171.204C172.195 52.1964 173.001 51.3905 173.001 50.3997C173.001 49.4018 172.195 48.5959 171.204 48.5959ZM113.592 48.5959H109.992C108.995 48.5959 108.189 49.4018 108.189 50.3997C108.189 51.3905 108.995 52.1964 109.992 52.1964H113.592C114.583 52.1964 115.389 51.3905 115.389 50.3997C115.389 49.4018 114.583 48.5959 113.592 48.5959ZM147.797 84.6113C147.797 85.6026 146.992 86.415 146.001 86.415C146.001 86.415 146.001 86.415 145.994 86.415H144.197C144.197 88.4037 142.586 90.0151 140.598 90.0151C138.61 90.0151 136.992 88.4037 136.992 86.415H135.196C134.198 86.415 133.392 85.6091 133.392 84.6113C133.392 83.6204 134.198 82.8145 135.196 82.8145H145.994C146.992 82.8145 147.797 83.6204 147.797 84.6113Z" fill="#EB9928"/>
<mask id="mask0_562_2" style="mask-type:luminance" maskUnits="userSpaceOnUse" x="133" y="38" width="15" height="26">
<path d="M133.49 38.9888H147.052V63.666H133.49V38.9888Z" fill="white"/>
</mask>
<g mask="url(#mask0_562_2)">
<path d="M147.018 54.8991C147.018 49.6403 137.303 49.9838 137.303 46.8084C137.303 45.2717 138.777 44.521 140.486 44.521C143.359 44.521 143.871 46.3638 145.172 46.3638C146.094 46.3638 146.538 45.7845 146.538 45.1354C146.538 43.6265 144.246 42.4845 142.048 42.0889V40.633C142.048 39.7247 141.312 38.9878 140.401 38.9878C139.49 38.9878 138.753 39.7247 138.753 40.633V42.1402C136.356 42.6847 134.295 44.3434 134.295 47.0477C134.295 52.0989 144.008 51.8948 144.008 55.4427C144.008 56.672 142.675 57.9008 140.486 57.9008C137.202 57.9008 136.107 55.6828 134.774 55.6828C134.124 55.6828 133.543 56.2282 133.543 57.051C133.543 58.3576 135.737 59.9299 138.755 60.3693L138.753 60.3797V62.0228C138.753 62.9316 139.491 63.6685 140.402 63.6685C141.312 63.6685 142.049 62.9316 142.049 62.0228V60.3797C142.049 60.3602 142.04 60.3454 142.038 60.3281C144.753 59.8222 147.018 58.0558 147.018 54.8991Z" fill="#EB9928"/>
</g>
<mask id="mask1_562_2" style="mask-type:luminance" maskUnits="userSpaceOnUse" x="353" y="15" width="68" height="69">
<path d="M420.648 15.9185H353.361V83.3382H420.648V15.9185Z" fill="white"/>
</mask>
<g mask="url(#mask1_562_2)">
<path d="M387.005 15.9769C389.587 15.9769 391.631 18.0801 391.631 20.6386C391.631 21.6962 391.292 22.66 390.702 23.4488C392.852 24.7221 394.265 27.0766 394.265 29.7694V30.8154C394.265 33.1695 392.384 35.0449 390.077 35.0449H383.933C381.626 35.0449 379.745 33.1579 379.745 30.8154V29.7694C379.745 27.0766 381.158 24.7221 383.308 23.4488C382.712 22.66 382.379 21.6962 382.379 20.6386C382.379 18.0801 384.423 15.9769 387.005 15.9769ZM387.005 18.2202C385.703 18.2202 384.622 19.2836 384.622 20.6386C384.622 21.9939 385.703 23.0631 387.005 23.0631C388.308 23.0631 389.394 21.9939 389.394 20.6386C389.394 19.2836 388.308 18.2202 387.005 18.2202ZM388.711 24.9734C388.167 25.1953 387.595 25.3006 387.005 25.3006C386.415 25.3006 385.889 25.2069 385.294 24.9734C383.401 25.6627 381.988 27.5203 381.988 29.7694V30.8154C381.988 31.9078 382.841 32.8016 383.933 32.8016H390.077C391.17 32.8016 392.022 31.9078 392.022 30.8154V29.7694C392.022 27.4855 390.562 25.6279 388.711 24.9734ZM400.521 30.7918C400.702 30.8034 400.871 30.8561 401.017 30.9498C409.732 35.9793 415.041 45.2155 415.041 55.2343C415.018 56.7299 412.839 56.7241 412.798 55.2343C412.798 46.016 407.886 37.5043 399.902 32.8949C398.915 32.3168 399.289 30.786 400.521 30.7918ZM373.571 30.7918C374.763 30.8797 375.049 32.3168 374.108 32.8949C366.124 37.5043 361.212 46.016 361.212 55.2343C361.212 56.7299 358.963 56.7299 358.963 55.2343C358.963 45.2155 364.313 35.9561 372.987 30.9498C373.151 30.8503 373.331 30.7976 373.571 30.7918ZM387.005 37.2882C396.976 37.2882 404.954 45.4026 404.954 55.2343C404.954 65.0661 396.981 73.1804 387.005 73.1804C377.023 73.1804 369.068 65.0951 369.068 55.2343C369.068 45.3615 377.035 37.2882 387.005 37.2882ZM390.311 39.882C392.127 41.5409 393.623 43.4803 394.744 45.6303C395.807 45.1338 396.823 44.5378 397.793 43.8369C395.737 41.8914 393.144 40.4954 390.311 39.882ZM383.699 39.8878C380.861 40.4954 378.267 41.8856 376.217 43.8249C377.186 44.532 378.203 45.1396 379.266 45.6419C380.387 43.4923 381.882 41.5409 383.699 39.8878ZM385.889 40.9508C384.032 42.4932 382.49 44.386 381.363 46.4713C382.823 46.9504 384.347 47.2544 385.889 47.3477V40.9508ZM388.132 40.9686V47.3535C389.668 47.2544 391.193 46.9562 392.647 46.4771C391.526 44.3918 389.984 42.5048 388.132 40.9686ZM399.312 45.4901C398.161 46.3486 396.952 47.0847 395.673 47.6865C396.467 49.7196 396.946 51.8812 397.069 54.1125H402.659C402.431 50.8647 401.222 47.891 399.312 45.4901ZM374.693 45.4959C372.788 47.8968 371.579 50.8647 371.351 54.1125H376.947C377.064 51.8812 377.537 49.7196 378.337 47.6807C377.058 47.0847 375.843 46.3486 374.693 45.4959ZM393.593 48.5276C391.841 49.1294 389.996 49.4857 388.132 49.591V54.1125H394.82C394.703 52.1732 394.289 50.2977 393.593 48.5276ZM380.416 48.5276C379.727 50.2977 379.307 52.1674 379.19 54.1125H385.889V49.5968C384.02 49.4919 382.18 49.1294 380.416 48.5276ZM402.665 56.3558H397.069C396.946 58.5933 396.467 60.7549 395.667 62.7938C396.946 63.3893 398.167 64.1255 399.318 64.9786C401.222 62.5773 402.436 59.6098 402.665 56.3558ZM394.82 56.3558H388.132V60.8777C389.996 60.9826 391.835 61.3447 393.593 61.9464C394.289 60.1705 394.703 58.3013 394.82 56.3558ZM385.889 56.3558H379.19C379.307 58.3013 379.721 60.1705 380.416 61.9464C382.174 61.3447 384.026 60.9768 385.889 60.8777V56.3558ZM376.947 56.3558H371.351C371.579 59.6098 372.794 62.5715 374.698 64.9786C375.843 64.1197 377.064 63.3893 378.343 62.7938C377.543 60.7549 377.064 58.5933 376.947 56.3558ZM411.677 59.721C414.779 59.721 417.284 62.2384 417.284 65.3232C417.284 66.7076 416.782 67.9813 415.941 68.9626C418.744 70.4755 420.648 73.4666 420.648 76.9019V78.2104C420.648 80.9912 418.423 83.2752 415.596 83.2752H407.752C404.972 83.2752 402.711 81.0435 402.711 78.2104V76.9019C402.711 73.4666 404.592 70.4871 407.413 68.9684C406.572 67.9871 406.07 66.7134 406.07 65.3232C406.07 62.2384 408.575 59.721 411.677 59.721ZM362.333 60.042C365.446 60.042 367.94 62.5657 367.94 65.6505C367.94 66.9411 367.514 68.1157 366.772 69.0679C369.5 70.6157 371.31 73.5778 371.31 76.9019V78.2104C371.31 80.9912 369.073 83.2752 366.258 83.2752H358.408C355.581 83.2752 353.361 80.9912 353.361 78.2104V76.9019C353.361 73.5425 355.166 70.6157 357.894 69.0679C357.146 68.1157 356.72 66.9179 356.72 65.6505C356.72 62.5657 359.226 60.042 362.333 60.042ZM411.677 61.9639C409.837 61.9639 408.312 63.4536 408.312 65.3232C408.312 67.1983 409.825 68.6938 411.677 68.6938C413.523 68.6938 415.041 67.1983 415.041 65.3232C415.041 63.4536 413.517 61.9639 411.677 61.9639ZM362.333 62.2853C360.493 62.2853 358.963 63.775 358.963 65.6505C358.963 67.5197 360.493 69.021 362.333 69.021C364.173 69.021 365.697 67.5197 365.697 65.6505C365.697 63.775 364.173 62.2853 362.333 62.2853ZM388.132 63.1206V69.5117C389.984 67.9755 391.526 66.0826 392.647 63.9969C391.193 63.5237 389.668 63.2201 388.132 63.1206ZM385.889 63.1206C384.347 63.2201 382.829 63.5179 381.369 63.9969C382.49 66.0826 384.02 67.9697 385.878 69.5059L385.889 63.1206ZM394.744 64.8384C393.623 66.9822 392.127 68.9277 390.317 70.5809C393.185 69.9675 395.743 68.5831 397.793 66.6375C396.823 65.9366 395.807 65.3349 394.744 64.8384ZM379.266 64.8384C378.203 65.3349 377.181 65.9366 376.211 66.6434C378.232 68.5594 380.837 69.9733 383.705 70.5867C381.882 68.9219 380.387 66.9822 379.266 64.8384ZM409.498 70.4992C406.882 71.3751 404.954 73.893 404.954 76.9019V78.2104C404.954 79.7644 406.181 81.0318 407.752 81.0318H415.596C417.15 81.0318 418.406 79.7934 418.406 78.2104V76.9019C418.406 73.893 416.484 71.3813 413.855 70.4992C413.196 70.7737 412.43 70.9371 411.677 70.9371C410.917 70.9371 410.158 70.7737 409.498 70.4992ZM364.892 70.6394C364.132 71.0246 363.238 71.2644 362.333 71.2644C361.428 71.2644 360.534 71.0304 359.775 70.6394C357.357 71.6148 355.604 74.0331 355.604 76.9019V78.2104C355.604 79.7934 356.86 81.0318 358.408 81.0318H366.258C367.794 81.0318 369.068 79.7934 369.068 78.2104V76.9019C369.068 74.0331 367.269 71.5974 364.892 70.6394ZM397.39 78.993C398.552 79.1041 398.804 80.6814 397.717 81.1488C390.86 83.9819 383.162 83.9819 376.299 81.1488C375.171 80.6582 375.504 79.0689 376.649 78.993C376.824 78.993 376.994 78.9988 377.152 79.0809C383.466 81.6863 390.551 81.6863 396.864 79.0809C397.034 79.0046 397.203 78.9814 397.39 78.993Z" fill="#EB9928"/>
</g>
<path fill-rule="evenodd" clip-rule="evenodd" d="M625.949 81.8884H638.966C640.978 81.8884 642.615 80.2506 642.615 78.2379V73.0495C642.615 72.4569 642.135 71.9762 641.542 71.9762H623.373C622.78 71.9762 622.299 72.4569 622.299 73.0495V78.2379C622.299 80.2506 623.937 81.8884 625.949 81.8884ZM640.469 74.1237V78.2379C640.469 79.0666 639.794 79.7405 638.966 79.7405L625.949 79.7409C625.12 79.7409 624.446 79.0666 624.446 78.2379V74.1237H640.469Z" fill="#EB9928"/>
<mask id="mask2_562_2" style="mask-type:luminance" maskUnits="userSpaceOnUse" x="625" y="79" width="15" height="10">
<path d="M639.014 79.7335H625.848V88.7238H639.014V79.7335Z" fill="white"/>
</mask>
<g mask="url(#mask2_562_2)">
<path fill-rule="evenodd" clip-rule="evenodd" d="M632.362 88.7238H632.553C636.097 88.7238 638.98 85.8393 638.98 82.2937V80.904C638.98 80.3113 638.5 79.8302 637.907 79.8302C637.314 79.8302 636.833 80.3113 636.833 80.904V82.2937C636.833 84.6544 634.913 86.5763 632.553 86.5763H632.362C630.002 86.5763 628.082 84.6553 628.082 82.2937V80.904C628.082 80.3113 627.601 79.8302 627.008 79.8302C626.416 79.8302 625.935 80.3113 625.935 80.904V82.2937C625.935 85.8393 628.818 88.7238 632.362 88.7238Z" fill="#EB9928"/>
</g>
<path fill-rule="evenodd" clip-rule="evenodd" d="M623.807 74.1238H641.109C642.083 74.1238 643.042 73.7953 643.81 73.1981C644.586 72.5951 645.138 71.7411 645.363 70.7914C645.747 69.1747 646.546 67.6576 647.674 66.4039C651.052 62.6455 652.912 57.7889 652.912 52.7299C652.912 49.9948 652.382 47.3384 651.334 44.8354C650.322 42.4183 648.873 40.2426 647.026 38.368C645.18 36.495 643.027 35.0148 640.628 33.9676C638.145 32.8848 635.504 32.3145 632.777 32.2722C621.554 32.1009 612.239 41.0845 612.008 52.2999C611.9 57.5198 613.759 62.5281 617.242 66.403C618.369 67.6576 619.168 69.1747 619.552 70.7914C619.777 71.7403 620.329 72.5951 621.105 73.1981C621.873 73.7953 622.832 74.1238 623.807 74.1238ZM632.461 34.4176C632.556 34.4176 632.649 34.4185 632.745 34.4197C642.681 34.5719 650.765 42.7862 650.765 52.7299C650.765 57.2581 649.1 61.6041 646.077 64.9676C644.71 66.4876 643.741 68.3299 643.275 70.2945C643.039 71.2845 642.148 71.9763 641.109 71.9763H623.807C622.766 71.9763 621.876 71.2845 621.641 70.2945C621.173 68.3299 620.205 66.4876 618.838 64.9676C615.721 61.4992 614.058 57.0163 614.154 52.3442C614.359 42.4017 622.545 34.4176 632.461 34.4176Z" fill="#EB9928"/>
<path fill-rule="evenodd" clip-rule="evenodd" d="M632.442 28.3478C633.035 28.3478 633.516 27.8672 633.516 27.2737V21.0742C633.516 20.4807 633.035 20 632.442 20C631.849 20 631.369 20.4807 631.369 21.0742V27.2737C631.369 27.8672 631.849 28.3478 632.442 28.3478Z" fill="#EB9928"/>
<path fill-rule="evenodd" clip-rule="evenodd" d="M645.525 31.8558C645.896 31.8558 646.257 31.6625 646.456 31.3183L649.556 25.9483C649.852 25.4348 649.675 24.7787 649.162 24.4818C648.649 24.1852 647.992 24.3615 647.696 24.8749L644.596 30.2441C644.3 30.7584 644.476 31.4145 644.989 31.7115C645.158 31.8089 645.343 31.8558 645.525 31.8558Z" fill="#EB9928"/>
<path fill-rule="evenodd" clip-rule="evenodd" d="M655.108 41.4366C655.291 41.4366 655.475 41.391 655.644 41.2935L661.012 38.1934C661.525 37.8968 661.701 37.2403 661.405 36.7269C661.109 36.2134 660.452 36.0371 659.939 36.3333L654.571 39.4334C654.057 39.73 653.882 40.3869 654.178 40.8999C654.377 41.2446 654.738 41.4366 655.108 41.4366Z" fill="#EB9928"/>
<mask id="mask3_562_2" style="mask-type:luminance" maskUnits="userSpaceOnUse" x="657" y="52" width="9" height="3">
<path d="M665.885 52.3408H657.488V54.5705H665.885V52.3408Z" fill="white"/>
</mask>
<g mask="url(#mask3_562_2)">
<path fill-rule="evenodd" clip-rule="evenodd" d="M658.613 54.5257H664.811C665.404 54.5257 665.885 54.045 665.885 53.4523C665.885 52.8597 665.404 52.3782 664.811 52.3782H658.613C658.02 52.3782 657.539 52.8597 657.539 53.4523C657.539 54.045 658.02 54.5257 658.613 54.5257Z" fill="#EB9928"/>
</g>
<path fill-rule="evenodd" clip-rule="evenodd" d="M660.474 70.7154C660.845 70.7154 661.206 70.5234 661.405 70.1787C661.701 69.6649 661.526 69.0088 661.012 68.7114L655.644 65.6116C655.131 65.3151 654.474 65.4914 654.178 66.0048C653.882 66.5183 654.057 67.1748 654.571 67.4713L659.938 70.5715C660.107 70.6689 660.292 70.7154 660.474 70.7154Z" fill="#EB9928"/>
<path fill-rule="evenodd" clip-rule="evenodd" d="M604.411 70.7154C604.593 70.7154 604.778 70.6689 604.947 70.5715L610.315 67.4713C610.828 67.1748 611.004 66.5183 610.707 66.0048C610.411 65.4914 609.754 65.3151 609.241 65.6116L603.873 68.7114C603.36 69.0088 603.184 69.6649 603.481 70.1787C603.68 70.5234 604.04 70.7154 604.411 70.7154Z" fill="#EB9928"/>
<mask id="mask4_562_2" style="mask-type:luminance" maskUnits="userSpaceOnUse" x="599" y="52" width="9" height="3">
<path d="M607.363 52.3408H598.999V54.5705H607.363V52.3408Z" fill="white"/>
</mask>
<g mask="url(#mask4_562_2)">
<path fill-rule="evenodd" clip-rule="evenodd" d="M600.073 54.5257H606.271C606.863 54.5257 607.344 54.045 607.344 53.4523C607.344 52.8597 606.863 52.3782 606.271 52.3782H600.073C599.479 52.3782 598.999 52.8597 598.999 53.4523C598.999 54.045 599.48 54.5257 600.073 54.5257Z" fill="#EB9928"/>
</g>
<path fill-rule="evenodd" clip-rule="evenodd" d="M609.777 41.4366C610.148 41.4366 610.509 41.2446 610.707 40.8999C611.004 40.3869 610.828 39.73 610.315 39.4334L604.947 36.3333C604.434 36.0371 603.777 36.2134 603.48 36.7269C603.184 37.2403 603.36 37.8968 603.873 38.1934L609.241 41.2935C609.41 41.391 609.595 41.4366 609.777 41.4366Z" fill="#EB9928"/>
<path fill-rule="evenodd" clip-rule="evenodd" d="M619.357 31.8558C619.539 31.8558 619.724 31.8089 619.893 31.7115C620.406 31.4145 620.582 30.7584 620.286 30.2441L617.187 24.8749C616.891 24.3615 616.234 24.1852 615.721 24.4818C615.206 24.7787 615.031 25.4348 615.327 25.9491L618.426 31.3183C618.625 31.6625 618.986 31.8558 619.357 31.8558Z" fill="#EB9928"/>
<path fill-rule="evenodd" clip-rule="evenodd" d="M632.442 62.815C633.035 62.815 633.516 62.3343 633.516 61.7408C633.516 59.5863 632.553 57.5698 630.656 55.75C629.345 54.4929 627.582 53.3175 625.265 52.1575C624.735 51.8916 624.09 52.1065 623.825 52.6369C623.559 53.167 623.774 53.8119 624.304 54.0777C629.058 56.4583 631.369 58.965 631.369 61.7408C631.369 62.3343 631.849 62.815 632.442 62.815Z" fill="#EB9928"/>
<path fill-rule="evenodd" clip-rule="evenodd" d="M625.993 58.4545C627.213 58.4545 628.531 58.0058 630.13 57.3107C630.516 57.1423 630.769 56.7645 630.775 56.3435C630.803 54.7049 630.55 53.2645 630.025 52.063C629.526 50.925 628.783 49.9926 627.815 49.2934C624.985 47.2471 620.828 47.617 617.881 48.646C617.498 48.7804 617.223 49.118 617.171 49.5198C617.118 49.9225 617.296 50.3203 617.631 50.5484C619.171 51.5948 619.849 52.88 620.14 53.4292C620.19 53.5258 620.23 53.6017 620.271 53.6709C620.289 53.7016 620.366 53.836 620.436 53.9584C620.497 54.0662 620.554 54.1653 620.566 54.1873C622.014 56.6653 623.29 57.8975 624.833 58.3069C625.213 58.4081 625.598 58.4545 625.993 58.4545ZM628.62 55.6173C627.254 56.1743 626.211 56.4505 625.383 56.2311C624.453 55.9844 623.539 55.0197 622.42 53.1036C622.407 53.0812 622.357 52.992 622.301 52.8946C622.179 52.6806 622.135 52.6042 622.117 52.5744C622.104 52.5516 622.069 52.4852 622.038 52.4263C621.815 52.0054 621.348 51.1186 620.472 50.1747C622.542 49.7873 624.925 49.8537 626.557 51.0332C627.838 51.9597 628.531 53.4997 628.62 55.6173Z" fill="#EB9928"/>
<path fill-rule="evenodd" clip-rule="evenodd" d="M632.44 74.1237C633.034 74.1237 633.514 73.643 633.514 73.0495V61.7408C633.514 60.1047 634.297 58.593 635.906 57.119C637.043 56.0776 638.571 55.0826 640.579 54.0777C641.109 53.8119 641.324 53.167 641.058 52.6369C640.793 52.1065 640.148 51.8916 639.618 52.1575C637.429 53.2528 635.741 54.3581 634.457 55.5351C632.407 57.411 631.367 59.4996 631.367 61.7408V73.0495C631.367 73.643 631.848 74.1237 632.44 74.1237Z" fill="#EB9928"/>
<path fill-rule="evenodd" clip-rule="evenodd" d="M638.891 58.4546C639.286 58.4546 639.671 58.4081 640.051 58.3069C641.594 57.8976 642.87 56.6654 644.318 54.1873C644.331 54.1654 644.387 54.0662 644.449 53.958C644.518 53.8361 644.595 53.7017 644.613 53.6693C644.654 53.6017 644.694 53.5258 644.745 53.4292C645.035 52.8801 645.713 51.594 647.252 50.5484C647.588 50.3203 647.766 49.9226 647.714 49.5199C647.66 49.118 647.385 48.7804 647.003 48.646C644.056 47.6171 639.899 47.2471 637.068 49.293C636.101 49.9927 635.358 50.925 634.86 52.0631C634.334 53.2645 634.081 54.7049 634.108 56.3436C634.116 56.7645 634.368 57.1423 634.753 57.3107C636.353 58.0058 637.671 58.4546 638.891 58.4546ZM644.412 50.1747C643.537 51.1187 643.068 52.0054 642.846 52.4264C642.815 52.4853 642.78 52.5516 642.767 52.5744C642.75 52.6043 642.706 52.6806 642.583 52.8946C642.528 52.9921 642.477 53.0812 642.464 53.1036C641.345 55.0197 640.431 55.9844 639.501 56.2312C638.674 56.4506 637.63 56.1743 636.263 55.6174C636.353 53.4997 637.046 51.9598 638.327 51.0341C639.959 49.8537 642.342 49.7874 644.412 50.1747Z" fill="#EB9928"/>
</svg>
