<svg width="936" height="341" viewBox="0 0 936 341" fill="none" xmlns="http://www.w3.org/2000/svg">
<line x1="134" y1="241" x2="802" y2="241" stroke="#EB9928" stroke-width="2"/>
<ellipse cx="801.318" cy="240.228" rx="17.9375" ry="16.9679" fill="#EB9928"/>
<ellipse cx="133.32" cy="241.198" rx="17.9375" ry="16.9679" fill="#EB9928"/>
<path d="M59.2892 326.566L62.0724 325.277C62.336 326.234 62.8194 326.967 63.5226 327.475C64.2257 327.973 65.1241 328.222 66.2179 328.222C67.253 328.222 68.0733 327.934 68.6788 327.357C69.294 326.781 69.6017 326.01 69.6017 325.043C69.6017 323.783 68.5567 322.66 66.4669 321.674C66.1739 321.527 65.9493 321.42 65.7931 321.352C63.4298 320.199 61.8526 319.159 61.0616 318.231C60.2804 317.294 59.8897 316.151 59.8897 314.804C59.8897 313.056 60.4806 311.64 61.6622 310.556C62.8536 309.472 64.4112 308.93 66.3351 308.93C67.9171 308.93 69.2403 309.237 70.3048 309.853C71.3692 310.458 72.1065 311.332 72.5167 312.475L69.7921 313.881C69.3624 313.207 68.8888 312.714 68.3712 312.401C67.8634 312.089 67.2774 311.933 66.6134 311.933C65.6759 311.933 64.9288 312.177 64.3722 312.665C63.8253 313.153 63.5518 313.808 63.5518 314.628C63.5518 315.917 64.7628 317.118 67.1847 318.231C67.3702 318.319 67.5167 318.388 67.6241 318.437C69.7433 319.413 71.1983 320.37 71.9893 321.308C72.7804 322.235 73.1759 323.397 73.1759 324.794C73.1759 326.825 72.5362 328.441 71.2569 329.643C69.9776 330.834 68.2491 331.43 66.0714 331.43C64.2452 331.43 62.7462 331.01 61.5743 330.17C60.4122 329.33 59.6505 328.129 59.2892 326.566ZM90.5448 324.384H79.4413C79.5194 325.683 79.9052 326.698 80.5985 327.431C81.2919 328.153 82.2147 328.515 83.3671 328.515C84.3925 328.515 85.247 328.3 85.9306 327.87C86.6142 327.44 87.2099 326.747 87.7177 325.79L90.3983 327.284C89.6171 328.681 88.6503 329.721 87.4979 330.404C86.3456 331.088 84.9931 331.43 83.4403 331.43C81.2138 331.43 79.4413 330.751 78.1229 329.394C76.8046 328.036 76.1454 326.225 76.1454 323.959C76.1454 321.781 76.8241 319.994 78.1815 318.598C79.5487 317.191 81.3017 316.488 83.4403 316.488C85.6767 316.488 87.4198 317.128 88.6698 318.407C89.9198 319.687 90.5448 321.479 90.5448 323.783V324.384ZM87.2489 322.245C87.122 321.249 86.7411 320.492 86.1063 319.975C85.4716 319.447 84.6024 319.184 83.4989 319.184C82.454 319.184 81.6142 319.438 80.9794 319.945C80.3446 320.453 79.9003 321.22 79.6464 322.245H87.2489ZM97.3962 323.871C97.3962 325.307 97.7526 326.454 98.4655 327.313C99.1882 328.173 100.135 328.603 101.307 328.603C102.508 328.603 103.436 328.202 104.091 327.401C104.755 326.601 105.087 325.463 105.087 323.988C105.087 322.523 104.74 321.381 104.047 320.561C103.363 319.73 102.421 319.315 101.219 319.315C100.018 319.315 99.0808 319.716 98.4069 320.517C97.7331 321.317 97.3962 322.436 97.3962 323.871ZM94.32 337.392V316.972H97.4987V319.242C97.8698 318.363 98.4606 317.685 99.2712 317.206C100.091 316.728 101.068 316.488 102.201 316.488C104.047 316.488 105.541 317.172 106.683 318.539C107.836 319.896 108.412 321.684 108.412 323.9C108.412 326.234 107.845 328.075 106.713 329.423C105.59 330.761 104.047 331.43 102.084 331.43C101.107 331.43 100.238 331.234 99.4763 330.844C98.7243 330.453 98.0651 329.857 97.4987 329.057V337.392H94.32ZM112.978 330.858V319.755H110.546V316.972H112.978V311.713H116.157V316.972H118.588V319.755H116.157V330.858H112.978ZM135.166 324.384H124.063C124.141 325.683 124.527 326.698 125.22 327.431C125.913 328.153 126.836 328.515 127.989 328.515C129.014 328.515 129.868 328.3 130.552 327.87C131.236 327.44 131.831 326.747 132.339 325.79L135.02 327.284C134.239 328.681 133.272 329.721 132.119 330.404C130.967 331.088 129.615 331.43 128.062 331.43C125.835 331.43 124.063 330.751 122.744 329.394C121.426 328.036 120.767 326.225 120.767 323.959C120.767 321.781 121.446 319.994 122.803 318.598C124.17 317.191 125.923 316.488 128.062 316.488C130.298 316.488 132.041 317.128 133.291 318.407C134.541 319.687 135.166 321.479 135.166 323.783V324.384ZM131.87 322.245C131.743 321.249 131.363 320.492 130.728 319.975C130.093 319.447 129.224 319.184 128.12 319.184C127.075 319.184 126.236 319.438 125.601 319.945C124.966 320.453 124.522 321.22 124.268 322.245H131.87ZM142.12 330.858H138.941V316.972H141.93V319.242C142.565 318.275 143.282 317.572 144.083 317.133C144.894 316.684 145.846 316.459 146.94 316.459C148.024 316.459 148.922 316.688 149.635 317.147C150.348 317.597 150.89 318.285 151.261 319.213C151.993 318.256 152.77 317.558 153.59 317.118C154.42 316.679 155.362 316.459 156.417 316.459C157.335 316.459 158.136 316.63 158.819 316.972C159.503 317.304 160.035 317.792 160.416 318.437C160.592 318.739 160.719 319.101 160.797 319.521C160.885 319.94 160.929 320.541 160.929 321.322V322.436V330.858H157.75V323.725C157.75 321.859 157.55 320.634 157.15 320.048C156.759 319.452 156.056 319.154 155.04 319.154C153.79 319.154 152.897 319.555 152.359 320.355C151.832 321.146 151.568 322.538 151.568 324.53V330.858H148.36V323.725C148.36 322.006 148.15 320.814 147.731 320.15C147.32 319.486 146.608 319.154 145.592 319.154C144.967 319.154 144.396 319.296 143.878 319.579C143.36 319.862 142.95 320.253 142.648 320.751C142.452 321.073 142.316 321.469 142.237 321.938C142.159 322.406 142.12 323.271 142.12 324.53V330.858ZM168.718 323.871C168.718 325.287 169.079 326.43 169.802 327.299C170.534 328.168 171.476 328.603 172.629 328.603C173.83 328.603 174.758 328.202 175.412 327.401C176.076 326.601 176.408 325.463 176.408 323.988C176.408 322.523 176.061 321.381 175.368 320.561C174.684 319.73 173.742 319.315 172.541 319.315C171.34 319.315 170.402 319.716 169.728 320.517C169.055 321.317 168.718 322.436 168.718 323.871ZM168.82 308.153V319.242C169.191 318.363 169.782 317.685 170.593 317.206C171.413 316.728 172.39 316.488 173.522 316.488C175.368 316.488 176.862 317.172 178.005 318.539C179.157 319.896 179.733 321.684 179.733 323.9C179.733 326.234 179.167 328.075 178.034 329.423C176.911 330.761 175.368 331.43 173.405 331.43C172.429 331.43 171.559 331.234 170.798 330.844C170.046 330.453 169.387 329.857 168.82 329.057V330.858H165.641V308.153H168.82ZM196.926 324.384H185.823C185.901 325.683 186.287 326.698 186.98 327.431C187.674 328.153 188.596 328.515 189.749 328.515C190.774 328.515 191.629 328.3 192.312 327.87C192.996 327.44 193.591 326.747 194.099 325.79L196.78 327.284C195.999 328.681 195.032 329.721 193.88 330.404C192.727 331.088 191.375 331.43 189.822 331.43C187.595 331.43 185.823 330.751 184.505 329.394C183.186 328.036 182.527 326.225 182.527 323.959C182.527 321.781 183.206 319.994 184.563 318.598C185.93 317.191 187.683 316.488 189.822 316.488C192.058 316.488 193.801 317.128 195.051 318.407C196.301 319.687 196.926 321.479 196.926 323.783V324.384ZM193.631 322.245C193.504 321.249 193.123 320.492 192.488 319.975C191.853 319.447 190.984 319.184 189.881 319.184C188.836 319.184 187.996 319.438 187.361 319.945C186.726 320.453 186.282 321.22 186.028 322.245H193.631ZM203.88 319.184C204.222 318.266 204.671 317.587 205.228 317.147C205.794 316.708 206.493 316.488 207.323 316.488C207.772 316.488 208.211 316.542 208.641 316.649C209.081 316.757 209.51 316.913 209.93 317.118L208.788 319.813C208.514 319.618 208.216 319.477 207.894 319.389C207.582 319.291 207.23 319.242 206.839 319.242C205.785 319.242 205.028 319.667 204.569 320.517C204.11 321.356 203.88 322.772 203.88 324.765V330.858H200.702V316.942H203.88V319.184Z" fill="#EB9928"/>
<path d="M765.488 320.18C765.488 319.096 765.288 318.065 764.888 317.089C764.497 316.112 763.931 315.243 763.188 314.481C762.466 313.729 761.626 313.153 760.669 312.753C759.722 312.343 758.721 312.138 757.666 312.138C756.611 312.138 755.605 312.338 754.648 312.738C753.701 313.139 752.856 313.72 752.114 314.481C751.372 315.233 750.806 316.098 750.415 317.074C750.024 318.051 749.829 319.086 749.829 320.18C749.829 321.264 750.024 322.289 750.415 323.256C750.806 324.223 751.372 325.087 752.114 325.849C752.856 326.61 753.701 327.191 754.648 327.592C755.596 327.992 756.601 328.192 757.666 328.192C758.711 328.192 759.702 327.992 760.64 327.592C761.587 327.191 762.436 326.61 763.188 325.849C763.931 325.087 764.497 324.223 764.888 323.256C765.288 322.279 765.488 321.254 765.488 320.18ZM769.121 320.18C769.121 321.703 768.833 323.144 768.257 324.501C767.69 325.858 766.86 327.069 765.767 328.134C764.663 329.198 763.418 330.014 762.031 330.58C760.644 331.146 759.189 331.43 757.666 331.43C756.123 331.43 754.648 331.146 753.242 330.58C751.846 330.004 750.61 329.188 749.536 328.134C748.442 327.069 747.612 325.863 747.046 324.516C746.479 323.168 746.196 321.723 746.196 320.18C746.196 318.646 746.479 317.201 747.046 315.844C747.612 314.486 748.442 313.271 749.536 312.196C750.63 311.132 751.87 310.321 753.257 309.765C754.643 309.208 756.113 308.93 757.666 308.93C759.209 308.93 760.669 309.208 762.046 309.765C763.433 310.321 764.673 311.132 765.767 312.196C766.86 313.28 767.69 314.506 768.257 315.873C768.833 317.23 769.121 318.666 769.121 320.18ZM783.677 320.927C783.189 320.39 782.618 319.979 781.964 319.696C781.319 319.413 780.621 319.271 779.869 319.271C778.57 319.271 777.53 319.691 776.749 320.531C775.967 321.371 775.577 322.484 775.577 323.871C775.577 325.316 775.967 326.454 776.749 327.284C777.54 328.104 778.629 328.515 780.015 328.515C780.787 328.515 781.475 328.373 782.081 328.09C782.686 327.797 783.218 327.357 783.677 326.771V330.434C783.092 330.766 782.462 331.015 781.788 331.181C781.124 331.347 780.416 331.43 779.664 331.43C777.486 331.43 775.709 330.736 774.332 329.35C772.965 327.963 772.281 326.166 772.281 323.959C772.281 321.723 772.989 319.921 774.405 318.554C775.831 317.177 777.691 316.488 779.986 316.488C780.709 316.488 781.373 316.562 781.978 316.708C782.584 316.845 783.15 317.06 783.677 317.353V320.927ZM788.126 330.858V319.755H785.695V316.972H788.126V311.713H791.305V316.972H793.737V319.755H791.305V330.858H788.126ZM807.854 323.959C807.854 322.67 807.439 321.581 806.609 320.692C805.779 319.794 804.763 319.345 803.562 319.345C802.37 319.345 801.355 319.794 800.515 320.692C799.685 321.581 799.27 322.67 799.27 323.959C799.27 325.248 799.685 326.342 800.515 327.24C801.355 328.129 802.37 328.573 803.562 328.573C804.753 328.573 805.764 328.129 806.594 327.24C807.434 326.342 807.854 325.248 807.854 323.959ZM795.915 323.93C795.915 322.914 796.106 321.957 796.487 321.059C796.877 320.15 797.434 319.345 798.157 318.642C798.869 317.948 799.69 317.416 800.617 317.045C801.545 316.674 802.517 316.488 803.533 316.488C804.577 316.488 805.559 316.674 806.477 317.045C807.405 317.416 808.235 317.963 808.967 318.686C809.7 319.398 810.256 320.204 810.637 321.103C811.018 322.001 811.208 322.943 811.208 323.93C811.208 324.955 811.018 325.917 810.637 326.815C810.266 327.714 809.719 328.51 808.996 329.203C808.235 329.936 807.39 330.487 806.462 330.858C805.534 331.239 804.558 331.43 803.533 331.43C802.527 331.43 801.56 331.239 800.632 330.858C799.704 330.487 798.879 329.945 798.157 329.232C797.424 328.51 796.867 327.699 796.487 326.801C796.106 325.902 795.915 324.945 795.915 323.93ZM818.104 323.871C818.104 325.287 818.465 326.43 819.188 327.299C819.92 328.168 820.862 328.603 822.015 328.603C823.216 328.603 824.144 328.202 824.798 327.401C825.462 326.601 825.794 325.463 825.794 323.988C825.794 322.523 825.447 321.381 824.754 320.561C824.07 319.73 823.128 319.315 821.927 319.315C820.726 319.315 819.788 319.716 819.114 320.517C818.441 321.317 818.104 322.436 818.104 323.871ZM818.206 308.153V319.242C818.577 318.363 819.168 317.685 819.979 317.206C820.799 316.728 821.775 316.488 822.908 316.488C824.754 316.488 826.248 317.172 827.391 318.539C828.543 319.896 829.119 321.684 829.119 323.9C829.119 326.234 828.553 328.075 827.42 329.423C826.297 330.761 824.754 331.43 822.791 331.43C821.815 331.43 820.945 331.234 820.184 330.844C819.432 330.453 818.773 329.857 818.206 329.057V330.858H815.027V308.153H818.206ZM846.312 324.384H835.209C835.287 325.683 835.673 326.698 836.366 327.431C837.059 328.153 837.982 328.515 839.135 328.515C840.16 328.515 841.015 328.3 841.698 327.87C842.382 327.44 842.977 326.747 843.485 325.79L846.166 327.284C845.385 328.681 844.418 329.721 843.266 330.404C842.113 331.088 840.761 331.43 839.208 331.43C836.981 331.43 835.209 330.751 833.891 329.394C832.572 328.036 831.913 326.225 831.913 323.959C831.913 321.781 832.592 319.994 833.949 318.598C835.316 317.191 837.069 316.488 839.208 316.488C841.444 316.488 843.187 317.128 844.437 318.407C845.687 319.687 846.312 321.479 846.312 323.783V324.384ZM843.017 322.245C842.89 321.249 842.509 320.492 841.874 319.975C841.239 319.447 840.37 319.184 839.267 319.184C838.222 319.184 837.382 319.438 836.747 319.945C836.112 320.453 835.668 321.22 835.414 322.245H843.017ZM853.266 319.184C853.608 318.266 854.057 317.587 854.614 317.147C855.18 316.708 855.879 316.488 856.709 316.488C857.158 316.488 857.597 316.542 858.027 316.649C858.466 316.757 858.896 316.913 859.316 317.118L858.174 319.813C857.9 319.618 857.602 319.477 857.28 319.389C856.967 319.291 856.616 319.242 856.225 319.242C855.171 319.242 854.414 319.667 853.955 320.517C853.496 321.356 853.266 322.772 853.266 324.765V330.858H850.088V316.942H853.266V319.184Z" fill="#EB9928"/>
<path d="M467.543 187.87C464.597 187.87 462.21 190.258 462.21 193.203C462.21 196.149 464.597 198.536 467.543 198.536C470.488 198.536 472.876 196.149 472.876 193.203C472.876 190.258 470.488 187.87 467.543 187.87ZM466.543 193.203L466.543 240.713L468.543 240.713L468.543 193.203L466.543 193.203Z" fill="#EB9928"/>
<path d="M370.842 149.654H373.959V149.818C373.959 150.739 374.273 151.473 374.902 152.02C375.531 152.566 376.383 152.84 377.459 152.84C378.671 152.84 379.605 152.539 380.261 151.938C380.927 151.327 381.259 150.452 381.259 149.312C381.259 148.118 380.918 147.221 380.234 146.619C379.56 146.008 378.548 145.703 377.199 145.703C377.135 145.703 377.035 145.708 376.898 145.717C376.761 145.726 376.657 145.73 376.584 145.73V143.105C376.648 143.105 376.743 143.11 376.871 143.119C377.008 143.128 377.108 143.133 377.172 143.133C378.357 143.133 379.25 142.887 379.851 142.395C380.453 141.893 380.754 141.16 380.754 140.193C380.754 139.337 380.48 138.658 379.933 138.156C379.396 137.646 378.671 137.391 377.759 137.391C376.784 137.391 376.019 137.628 375.463 138.102C374.916 138.566 374.629 139.223 374.601 140.07H371.662C371.753 138.366 372.332 137.058 373.398 136.146C374.465 135.235 375.946 134.779 377.842 134.779C379.674 134.779 381.123 135.258 382.189 136.215C383.265 137.172 383.802 138.466 383.802 140.098C383.802 141.328 383.497 142.34 382.886 143.133C382.285 143.917 381.446 144.391 380.371 144.555C381.638 144.783 382.599 145.339 383.256 146.223C383.921 147.107 384.254 148.278 384.254 149.736C384.254 151.514 383.629 152.926 382.381 153.975C381.141 155.014 379.459 155.533 377.336 155.533C375.412 155.533 373.863 155.005 372.687 153.947C371.511 152.881 370.896 151.45 370.842 149.654ZM402.556 145.361C402.556 148.542 401.914 151.035 400.629 152.84C399.353 154.635 397.594 155.533 395.351 155.533C393.082 155.533 391.314 154.626 390.047 152.812C388.789 150.99 388.16 148.433 388.16 145.143C388.16 141.88 388.798 139.337 390.074 137.514C391.35 135.691 393.123 134.779 395.392 134.779C397.689 134.779 399.457 135.695 400.697 137.527C401.937 139.35 402.556 141.962 402.556 145.361ZM395.297 152.73C396.627 152.73 397.625 152.097 398.291 150.83C398.965 149.554 399.303 147.649 399.303 145.115C399.303 142.654 398.97 140.781 398.304 139.496C397.648 138.202 396.687 137.555 395.42 137.555C394.098 137.555 393.1 138.197 392.426 139.482C391.751 140.768 391.414 142.663 391.414 145.17C391.414 147.604 391.747 149.472 392.412 150.775C393.086 152.079 394.048 152.73 395.297 152.73ZM405.897 146V139.782H404.535V138.223H405.897V135.279H407.677V138.223H409.039V139.782H407.677V146H405.897ZM410.833 146V133.285H412.506V139.495C412.862 138.959 413.28 138.568 413.761 138.322C414.243 138.076 414.828 137.953 415.517 137.953C416.096 137.953 416.589 138.046 416.993 138.232C417.403 138.412 417.723 138.683 417.953 139.044C418.09 139.257 418.188 139.506 418.248 139.79C418.309 140.075 418.339 140.572 418.339 141.283V146H416.542V142.005C416.542 140.982 416.416 140.304 416.165 139.971C415.919 139.632 415.478 139.462 414.844 139.462C414.428 139.462 414.057 139.539 413.728 139.692C413.406 139.845 413.151 140.061 412.966 140.34C412.834 140.526 412.741 140.766 412.687 141.062C412.637 141.352 412.613 141.816 412.613 142.456V146H410.833ZM426.201 150.994L428.798 149.791C429.045 150.684 429.496 151.368 430.152 151.842C430.808 152.307 431.647 152.539 432.668 152.539C433.634 152.539 434.399 152.27 434.964 151.732C435.539 151.195 435.826 150.475 435.826 149.572C435.826 148.396 434.851 147.348 432.9 146.428C432.627 146.291 432.417 146.191 432.271 146.127C430.065 145.051 428.593 144.081 427.855 143.215C427.126 142.34 426.761 141.273 426.761 140.016C426.761 138.384 427.313 137.062 428.416 136.051C429.528 135.039 430.981 134.533 432.777 134.533C434.254 134.533 435.489 134.82 436.482 135.395C437.476 135.96 438.164 136.775 438.547 137.842L436.004 139.154C435.603 138.525 435.16 138.065 434.677 137.773C434.203 137.482 433.657 137.336 433.037 137.336C432.162 137.336 431.464 137.564 430.945 138.02C430.435 138.475 430.179 139.086 430.179 139.852C430.179 141.055 431.31 142.176 433.57 143.215C433.743 143.297 433.88 143.361 433.98 143.406C435.958 144.318 437.316 145.211 438.054 146.086C438.793 146.952 439.162 148.036 439.162 149.34C439.162 151.236 438.565 152.744 437.371 153.865C436.177 154.977 434.563 155.533 432.531 155.533C430.826 155.533 429.427 155.141 428.334 154.357C427.249 153.574 426.538 152.452 426.201 150.994ZM455.373 148.957H445.009C445.082 150.169 445.442 151.117 446.09 151.801C446.737 152.475 447.598 152.812 448.674 152.812C449.631 152.812 450.428 152.612 451.066 152.211C451.704 151.81 452.26 151.163 452.734 150.27L455.236 151.664C454.507 152.967 453.605 153.938 452.529 154.576C451.454 155.214 450.191 155.533 448.742 155.533C446.664 155.533 445.009 154.9 443.779 153.633C442.549 152.366 441.933 150.675 441.933 148.561C441.933 146.528 442.567 144.86 443.834 143.557C445.11 142.244 446.746 141.588 448.742 141.588C450.829 141.588 452.456 142.185 453.623 143.379C454.789 144.573 455.373 146.245 455.373 148.396V148.957ZM452.297 146.961C452.178 146.031 451.823 145.325 451.23 144.842C450.638 144.35 449.827 144.104 448.797 144.104C447.821 144.104 447.037 144.34 446.445 144.814C445.853 145.288 445.438 146.004 445.201 146.961H452.297ZM461.767 148.479C461.767 149.818 462.1 150.889 462.765 151.691C463.44 152.493 464.324 152.895 465.418 152.895C466.539 152.895 467.405 152.521 468.015 151.773C468.635 151.026 468.945 149.964 468.945 148.588C468.945 147.221 468.622 146.154 467.974 145.389C467.336 144.614 466.457 144.227 465.336 144.227C464.215 144.227 463.34 144.6 462.711 145.348C462.082 146.095 461.767 147.139 461.767 148.479ZM458.896 161.098V142.039H461.863V144.158C462.209 143.338 462.761 142.704 463.517 142.258C464.283 141.811 465.194 141.588 466.252 141.588C467.974 141.588 469.369 142.226 470.435 143.502C471.511 144.769 472.049 146.437 472.049 148.506C472.049 150.684 471.52 152.402 470.463 153.66C469.414 154.909 467.974 155.533 466.142 155.533C465.231 155.533 464.42 155.351 463.709 154.986C463.007 154.622 462.392 154.066 461.863 153.318V161.098H458.896ZM476.31 155V144.637H474.041V142.039H476.31V137.131H479.277V142.039H481.547V144.637H479.277V155H476.31ZM497.019 148.957H486.656C486.729 150.169 487.089 151.117 487.736 151.801C488.383 152.475 489.245 152.812 490.32 152.812C491.277 152.812 492.075 152.612 492.713 152.211C493.351 151.81 493.907 151.163 494.381 150.27L496.883 151.664C496.154 152.967 495.251 153.938 494.176 154.576C493.1 155.214 491.838 155.533 490.389 155.533C488.311 155.533 486.656 154.9 485.426 153.633C484.195 152.366 483.58 150.675 483.58 148.561C483.58 146.528 484.213 144.86 485.48 143.557C486.756 142.244 488.393 141.588 490.389 141.588C492.476 141.588 494.103 142.185 495.269 143.379C496.436 144.573 497.019 146.245 497.019 148.396V148.957ZM493.943 146.961C493.825 146.031 493.469 145.325 492.877 144.842C492.284 144.35 491.473 144.104 490.443 144.104C489.468 144.104 488.684 144.34 488.092 144.814C487.499 145.288 487.085 146.004 486.848 146.961H493.943ZM503.51 155H500.543V142.039H503.332V144.158C503.925 143.256 504.594 142.6 505.342 142.189C506.098 141.77 506.987 141.561 508.008 141.561C509.02 141.561 509.858 141.775 510.523 142.203C511.189 142.622 511.695 143.265 512.041 144.131C512.725 143.238 513.449 142.586 514.215 142.176C514.99 141.766 515.869 141.561 516.854 141.561C517.71 141.561 518.458 141.72 519.096 142.039C519.734 142.349 520.23 142.805 520.586 143.406C520.75 143.689 520.869 144.026 520.941 144.418C521.023 144.81 521.064 145.37 521.064 146.1V147.139V155H518.098V148.342C518.098 146.601 517.911 145.457 517.537 144.91C517.173 144.354 516.516 144.076 515.568 144.076C514.402 144.076 513.568 144.45 513.066 145.197C512.574 145.936 512.328 147.234 512.328 149.094V155H509.334V148.342C509.334 146.738 509.138 145.626 508.746 145.006C508.363 144.386 507.698 144.076 506.75 144.076C506.167 144.076 505.633 144.208 505.15 144.473C504.667 144.737 504.285 145.102 504.002 145.566C503.82 145.867 503.692 146.236 503.619 146.674C503.546 147.111 503.51 147.918 503.51 149.094V155ZM528.334 148.479C528.334 149.8 528.671 150.867 529.346 151.678C530.029 152.489 530.909 152.895 531.984 152.895C533.106 152.895 533.971 152.521 534.582 151.773C535.202 151.026 535.512 149.964 535.512 148.588C535.512 147.221 535.188 146.154 534.541 145.389C533.903 144.614 533.024 144.227 531.902 144.227C530.781 144.227 529.906 144.6 529.277 145.348C528.649 146.095 528.334 147.139 528.334 148.479ZM528.43 133.809V144.158C528.776 143.338 529.328 142.704 530.084 142.258C530.85 141.811 531.761 141.588 532.818 141.588C534.541 141.588 535.936 142.226 537.002 143.502C538.078 144.769 538.615 146.437 538.615 148.506C538.615 150.684 538.087 152.402 537.029 153.66C535.981 154.909 534.541 155.533 532.709 155.533C531.798 155.533 530.986 155.351 530.276 154.986C529.574 154.622 528.958 154.066 528.43 153.318V155H525.463V133.809H528.43ZM554.662 148.957H544.299C544.372 150.169 544.732 151.117 545.379 151.801C546.026 152.475 546.888 152.812 547.963 152.812C548.92 152.812 549.718 152.612 550.356 152.211C550.994 151.81 551.55 151.163 552.024 150.27L554.526 151.664C553.796 152.967 552.894 153.938 551.819 154.576C550.743 155.214 549.481 155.533 548.031 155.533C545.953 155.533 544.299 154.9 543.069 153.633C541.838 152.366 541.223 150.675 541.223 148.561C541.223 146.528 541.856 144.86 543.123 143.557C544.399 142.244 546.035 141.588 548.031 141.588C550.119 141.588 551.746 142.185 552.912 143.379C554.079 144.573 554.662 146.245 554.662 148.396V148.957ZM551.586 146.961C551.468 146.031 551.112 145.325 550.52 144.842C549.927 144.35 549.116 144.104 548.086 144.104C547.111 144.104 546.327 144.34 545.735 144.814C545.142 145.288 544.727 146.004 544.49 146.961H551.586ZM561.153 144.104C561.472 143.247 561.891 142.613 562.41 142.203C562.939 141.793 563.591 141.588 564.366 141.588C564.785 141.588 565.195 141.638 565.596 141.738C566.006 141.839 566.407 141.984 566.799 142.176L565.733 144.691C565.477 144.509 565.199 144.377 564.899 144.295C564.607 144.204 564.279 144.158 563.914 144.158C562.93 144.158 562.224 144.555 561.795 145.348C561.367 146.132 561.153 147.453 561.153 149.312V155H558.186V142.012H561.153V144.104Z" fill="#EB9928"/>
<path d="M392.932 15.9629C391.819 14.9668 390.676 14.2402 389.504 13.7832C388.333 13.3145 387.079 13.0801 385.743 13.0801C383.001 13.0801 380.815 13.9004 379.186 15.541C377.557 17.1816 376.743 19.3848 376.743 22.1504C376.743 24.8574 377.499 27.0078 379.01 28.6016C380.522 30.1836 382.585 30.9746 385.198 30.9746C386.686 30.9746 388.069 30.7285 389.346 30.2363C390.624 29.7324 391.807 28.9824 392.897 27.9863L392.862 33.6289C391.69 34.3203 390.46 34.8359 389.17 35.1758C387.893 35.5156 386.545 35.6855 385.128 35.6855C381.026 35.6855 377.657 34.4141 375.02 31.8711C372.395 29.3164 371.083 26.0762 371.083 22.1504C371.083 18.2363 372.401 15.0078 375.038 12.4648C377.674 9.92187 381.073 8.65039 385.233 8.65039C386.628 8.65039 387.975 8.79687 389.276 9.08984C390.577 9.38281 391.86 9.83398 393.126 10.4434L392.932 15.9629ZM414.791 26.4043C414.791 24.998 414.381 23.8789 413.56 23.0469C412.74 22.2031 411.639 21.7812 410.256 21.7812C408.873 21.7812 407.777 22.1973 406.969 23.0293C406.16 23.8613 405.756 24.9863 405.756 26.4043C405.756 27.8105 406.16 28.9355 406.969 29.7793C407.777 30.623 408.873 31.0449 410.256 31.0449C411.627 31.0449 412.723 30.623 413.543 29.7793C414.375 28.9355 414.791 27.8105 414.791 26.4043ZM419.889 26.4395C419.889 29.0879 418.98 31.291 417.164 33.0488C415.359 34.8066 413.068 35.6855 410.291 35.6855C407.49 35.6855 405.182 34.8066 403.365 33.0488C401.549 31.291 400.641 29.0879 400.641 26.4395C400.641 23.8027 401.555 21.5996 403.383 19.8301C405.211 18.0605 407.514 17.1758 410.291 17.1758C413.08 17.1758 415.377 18.0488 417.182 19.7949C418.986 21.541 419.889 23.7559 419.889 26.4395ZM440.534 26.3516C440.534 24.8047 440.142 23.5801 439.357 22.6777C438.583 21.7754 437.534 21.3242 436.21 21.3242C434.851 21.3242 433.779 21.7754 432.993 22.6777C432.22 23.5684 431.833 24.793 431.833 26.3516C431.833 27.9102 432.214 29.123 432.976 29.9902C433.749 30.8574 434.816 31.291 436.175 31.291C437.558 31.291 438.63 30.8574 439.392 29.9902C440.154 29.123 440.534 27.9102 440.534 26.3516ZM445.105 35H440.253L440.324 32.5215C439.644 33.6113 438.824 34.4141 437.863 34.9297C436.913 35.4336 435.753 35.6855 434.382 35.6855C432.097 35.6855 430.251 34.8359 428.845 33.1367C427.45 31.4375 426.753 29.1934 426.753 26.4043C426.753 23.498 427.439 21.2363 428.81 19.6191C430.193 17.9902 432.109 17.1758 434.558 17.1758C435.835 17.1758 436.954 17.4629 437.915 18.0371C438.888 18.6113 439.702 19.4668 440.359 20.6035V17.7559H445.105V35ZM466.682 34.4902C466.003 34.9004 465.288 35.1992 464.538 35.3867C463.788 35.5859 462.967 35.6855 462.077 35.6855C459.358 35.6855 457.143 34.8242 455.432 33.1016C453.721 31.3672 452.866 29.1172 452.866 26.3516C452.866 23.6445 453.727 21.4414 455.45 19.7422C457.173 18.0312 459.405 17.1758 462.147 17.1758C463.061 17.1758 463.881 17.2637 464.608 17.4395C465.335 17.6152 466.026 17.8906 466.682 18.2656L466.647 23.293C466.12 22.7539 465.51 22.3379 464.819 22.0449C464.128 21.752 463.395 21.6055 462.622 21.6055C461.215 21.6055 460.09 22.0391 459.247 22.9062C458.403 23.7617 457.981 24.8984 457.981 26.3164C457.981 27.7695 458.409 28.9297 459.264 29.7969C460.131 30.6523 461.298 31.0801 462.762 31.0801C463.571 31.0801 464.286 30.9336 464.907 30.6406C465.54 30.3477 466.12 29.8906 466.647 29.2695L466.682 34.4902ZM474.602 35V7.75391H479.506V17.4395C479.506 17.9785 479.488 18.5176 479.453 19.0566C479.418 19.584 479.365 20.0996 479.295 20.6035C480.326 19.3965 481.357 18.5234 482.389 17.9844C483.432 17.4453 484.592 17.1758 485.869 17.1758C487.205 17.1758 488.33 17.4043 489.244 17.8613C490.17 18.3184 490.885 19.0039 491.389 19.918C491.646 20.3984 491.828 20.9434 491.934 21.5527C492.051 22.1504 492.109 23.0938 492.109 24.3828V24.9277V35H487.1V26.4746C487.1 24.3535 486.854 22.9531 486.361 22.2734C485.869 21.5938 485.025 21.2539 483.83 21.2539C483.139 21.2539 482.5 21.4004 481.914 21.6934C481.34 21.9746 480.859 22.3789 480.473 22.9062C480.168 23.3164 479.945 23.7852 479.805 24.3125C479.676 24.8398 479.611 25.6426 479.611 26.7207V27.4062V35H474.602ZM500.749 10.6719C500.749 9.875 501.036 9.18945 501.611 8.61523C502.185 8.04102 502.87 7.75391 503.667 7.75391C504.476 7.75391 505.167 8.04102 505.742 8.61523C506.327 9.17773 506.62 9.86328 506.62 10.6719C506.62 11.4805 506.327 12.1719 505.742 12.7461C505.167 13.3203 504.476 13.6074 503.667 13.6074C502.87 13.6074 502.185 13.3145 501.611 12.7285C501.036 12.1426 500.749 11.457 500.749 10.6719ZM501.189 35V17.7559H506.181V35H501.189ZM515.401 35V17.7559H520.305V20.4629C521.208 19.3379 522.175 18.5117 523.206 17.9844C524.249 17.4453 525.403 17.1758 526.669 17.1758C528.005 17.1758 529.124 17.4043 530.026 17.8613C530.94 18.3066 531.661 18.9922 532.188 19.918C532.446 20.3984 532.628 20.9434 532.733 21.5527C532.85 22.1504 532.909 23.0938 532.909 24.3828V24.9277V35H527.899V26.4746C527.899 24.3535 527.653 22.9531 527.161 22.2734C526.669 21.5938 525.825 21.2539 524.63 21.2539C523.938 21.2539 523.3 21.4004 522.714 21.6934C522.139 21.9746 521.659 22.3789 521.272 22.9062C520.967 23.3164 520.745 23.7852 520.604 24.3125C520.475 24.8398 520.411 25.6426 520.411 26.7207V27.4062V35H515.401ZM559.039 34.7188C559.039 36.5352 558.928 37.8125 558.705 38.5508C558.494 39.2891 558.125 39.9277 557.598 40.4668C556.848 41.2754 555.887 41.873 554.715 42.2598C553.543 42.6465 552.119 42.8398 550.443 42.8398C547.643 42.8398 545.516 42.3945 544.063 41.5039C542.609 40.6133 541.818 39.2598 541.69 37.4434H547.191C547.274 38.1113 547.578 38.6035 548.106 38.9199C548.633 39.2363 549.412 39.3945 550.443 39.3945C551.803 39.3945 552.781 39.043 553.379 38.3398C553.988 37.6367 554.293 36.4648 554.293 34.8242V32.3633C553.625 33.4297 552.816 34.2207 551.867 34.7363C550.93 35.252 549.816 35.5098 548.527 35.5098C546.16 35.5098 544.268 34.6836 542.85 33.0312C541.432 31.3672 540.723 29.1289 540.723 26.3164C540.723 23.457 541.414 21.2188 542.797 19.6016C544.18 17.9844 546.09 17.1758 548.527 17.1758C549.781 17.1758 550.895 17.4688 551.867 18.0547C552.852 18.6289 553.672 19.4785 554.328 20.6035V17.7559H559.039V34.7188ZM554.504 26.3516C554.504 24.8281 554.117 23.627 553.344 22.748C552.57 21.8691 551.516 21.4297 550.18 21.4297C548.809 21.4297 547.736 21.8691 546.963 22.748C546.19 23.6152 545.803 24.8164 545.803 26.3516C545.803 27.8867 546.184 29.082 546.945 29.9375C547.707 30.793 548.774 31.2207 550.145 31.2207C551.516 31.2207 552.582 30.793 553.344 29.9375C554.117 29.082 554.504 27.8867 554.504 26.3516ZM433.068 53.9629C431.955 52.9668 430.812 52.2402 429.64 51.7832C428.468 51.3145 427.214 51.0801 425.879 51.0801C423.136 51.0801 420.951 51.9004 419.322 53.541C417.693 55.1816 416.879 57.3848 416.879 60.1504C416.879 62.8574 417.634 65.0078 419.146 66.6016C420.658 68.1836 422.72 68.9746 425.334 68.9746C426.822 68.9746 428.205 68.7285 429.482 68.2363C430.759 67.7324 431.943 66.9824 433.033 65.9863L432.998 71.6289C431.826 72.3203 430.595 72.8359 429.306 73.1758C428.029 73.5156 426.681 73.6855 425.263 73.6855C421.162 73.6855 417.793 72.4141 415.156 69.8711C412.531 67.3164 411.218 64.0762 411.218 60.1504C411.218 56.2363 412.537 53.0078 415.173 50.4648C417.81 47.9219 421.209 46.6504 425.369 46.6504C426.763 46.6504 428.111 46.7969 429.412 47.0898C430.713 47.3828 431.996 47.834 433.261 48.4434L433.068 53.9629ZM442.077 73V45.7539H447.069V73H442.077ZM456.043 48.6719C456.043 47.875 456.33 47.1895 456.905 46.6152C457.479 46.041 458.164 45.7539 458.961 45.7539C459.77 45.7539 460.461 46.041 461.035 46.6152C461.621 47.1777 461.914 47.8633 461.914 48.6719C461.914 49.4805 461.621 50.1719 461.035 50.7461C460.461 51.3203 459.77 51.6074 458.961 51.6074C458.164 51.6074 457.479 51.3145 456.905 50.7285C456.33 50.1426 456.043 49.457 456.043 48.6719ZM456.483 73V55.7559H461.475V73H456.483ZM470.695 73V55.7559H475.599V58.4629C476.502 57.3379 477.468 56.5117 478.5 55.9844C479.543 55.4453 480.697 55.1758 481.963 55.1758C483.299 55.1758 484.418 55.4043 485.32 55.8613C486.234 56.3066 486.955 56.9922 487.482 57.918C487.74 58.3984 487.922 58.9434 488.027 59.5527C488.144 60.1504 488.203 61.0938 488.203 62.3828V62.9277V73H483.193V64.4746C483.193 62.3535 482.947 60.9531 482.455 60.2734C481.963 59.5938 481.119 59.2539 479.924 59.2539C479.232 59.2539 478.593 59.4004 478.008 59.6934C477.433 59.9746 476.953 60.3789 476.566 60.9062C476.261 61.3164 476.039 61.7852 475.898 62.3125C475.769 62.8398 475.705 63.6426 475.705 64.7207V65.4062V73H470.695ZM496.843 48.6719C496.843 47.875 497.13 47.1895 497.704 46.6152C498.278 46.041 498.964 45.7539 499.761 45.7539C500.569 45.7539 501.261 46.041 501.835 46.6152C502.421 47.1777 502.714 47.8633 502.714 48.6719C502.714 49.4805 502.421 50.1719 501.835 50.7461C501.261 51.3203 500.569 51.6074 499.761 51.6074C498.964 51.6074 498.278 51.3145 497.704 50.7285C497.13 50.1426 496.843 49.457 496.843 48.6719ZM497.282 73V55.7559H502.274V73H497.282ZM524.204 72.4902C523.524 72.9004 522.809 73.1992 522.059 73.3867C521.309 73.5859 520.489 73.6855 519.598 73.6855C516.879 73.6855 514.664 72.8242 512.954 71.1016C511.243 69.3672 510.387 67.1172 510.387 64.3516C510.387 61.6445 511.248 59.4414 512.971 57.7422C514.694 56.0312 516.926 55.1758 519.668 55.1758C520.582 55.1758 521.403 55.2637 522.129 55.4395C522.856 55.6152 523.547 55.8906 524.204 56.2656L524.168 61.293C523.641 60.7539 523.032 60.3379 522.34 60.0449C521.649 59.752 520.916 59.6055 520.143 59.6055C518.737 59.6055 517.612 60.0391 516.768 60.9062C515.924 61.7617 515.502 62.8984 515.502 64.3164C515.502 65.7695 515.93 66.9297 516.786 67.7969C517.653 68.6523 518.819 69.0801 520.284 69.0801C521.092 69.0801 521.807 68.9336 522.428 68.6406C523.061 68.3477 523.641 67.8906 524.168 67.2695L524.204 72.4902Z" fill="url(#paint0_radial_852_10)"/>
<line x1="507" y1="111" x2="423" y2="111" stroke="#EB9928" stroke-width="2"/>
<defs>
<radialGradient id="paint0_radial_852_10" cx="0" cy="0" r="1" gradientUnits="userSpaceOnUse" gradientTransform="translate(467.5 40.5) rotate(90) scale(40.5 126.114)">
<stop stop-color="#EB9928"/>
<stop offset="1" stop-color="#FFCE2E"/>
</radialGradient>
</defs>
</svg>
