<svg width="1453" height="238" viewBox="0 0 1453 238" fill="none" xmlns="http://www.w3.org/2000/svg">
<line x1="160" y1="144" x2="564" y2="144" stroke="#EB9928" stroke-width="2"/>
<line x1="601" y1="144" x2="940" y2="144" stroke="#EB9928" stroke-width="2"/>
<line x1="977.473" y1="143.666" x2="1293.29" y2="143.666" stroke="#EB9928" stroke-width="2"/>
<ellipse cx="958.625" cy="143.138" rx="18.8473" ry="17.8286" fill="#EB9928"/>
<ellipse cx="1311.63" cy="144.157" rx="18.3379" ry="17.8286" fill="#EB9928"/>
<ellipse cx="141.338" cy="143.138" rx="18.3379" ry="17.8286" fill="#EB9928"/>
<ellipse cx="582.847" cy="144.157" rx="18.8473" ry="17.8286" fill="#EB9928"/>
<path d="M116.449 223.104C116.81 223.533 117.157 223.846 117.489 224.041C117.821 224.236 118.173 224.334 118.544 224.334C119.227 224.334 119.706 224.109 119.979 223.66C120.263 223.211 120.404 222.376 120.404 221.155V205.555H123.861V222.283C123.861 224.1 123.461 225.438 122.66 226.297C121.859 227.146 120.609 227.571 118.91 227.571C117.973 227.571 117.123 227.391 116.361 227.029C115.609 226.668 114.896 226.106 114.223 225.345L116.449 223.104ZM131.723 213.113V220.936C131.723 222.283 132.002 223.25 132.558 223.836C133.115 224.422 134.018 224.715 135.268 224.715C136.518 224.715 137.422 224.422 137.978 223.836C138.535 223.25 138.813 222.283 138.813 220.936V213.113H141.992V219.983C141.992 222.64 141.46 224.568 140.395 225.77C139.331 226.971 137.632 227.571 135.298 227.571C132.924 227.571 131.206 226.976 130.141 225.784C129.077 224.593 128.545 222.659 128.545 219.983V213.113H131.723ZM146.88 227V204.295H150.059V227H146.88ZM157.452 233.533H154.186L157.994 225.799L152.897 213.113H156.412L158.961 220.306C159.108 220.745 159.235 221.194 159.342 221.653C159.459 222.103 159.552 222.562 159.62 223.03C159.747 222.542 160.05 221.766 160.529 220.701L160.602 220.525L164.03 213.113H167.472L157.452 233.533Z" fill="#EB9928"/>
<path d="M508.076 222.708L510.859 221.419C511.123 222.376 511.606 223.108 512.309 223.616C513.013 224.114 513.911 224.363 515.005 224.363C516.04 224.363 516.86 224.075 517.466 223.499C518.081 222.923 518.389 222.151 518.389 221.185C518.389 219.925 517.344 218.802 515.254 217.815C514.961 217.669 514.736 217.562 514.58 217.493C512.217 216.341 510.64 215.301 509.848 214.373C509.067 213.436 508.677 212.293 508.677 210.945C508.677 209.197 509.267 207.781 510.449 206.697C511.64 205.613 513.198 205.071 515.122 205.071C516.704 205.071 518.027 205.379 519.092 205.994C520.156 206.6 520.893 207.474 521.304 208.616L518.579 210.022C518.149 209.349 517.676 208.855 517.158 208.543C516.65 208.23 516.064 208.074 515.4 208.074C514.463 208.074 513.716 208.318 513.159 208.807C512.612 209.295 512.339 209.949 512.339 210.77C512.339 212.059 513.55 213.26 515.972 214.373C516.157 214.461 516.304 214.529 516.411 214.578C518.53 215.555 519.985 216.512 520.776 217.449C521.567 218.377 521.963 219.539 521.963 220.936C521.963 222.967 521.323 224.583 520.044 225.784C518.765 226.976 517.036 227.571 514.858 227.571C513.032 227.571 511.533 227.151 510.361 226.312C509.199 225.472 508.437 224.271 508.076 222.708ZM539.332 220.525H528.228C528.306 221.824 528.692 222.84 529.385 223.572C530.079 224.295 531.002 224.656 532.154 224.656C533.179 224.656 534.034 224.441 534.717 224.012C535.401 223.582 535.997 222.889 536.505 221.932L539.185 223.426C538.404 224.822 537.437 225.862 536.285 226.546C535.132 227.229 533.78 227.571 532.227 227.571C530.001 227.571 528.228 226.893 526.91 225.535C525.591 224.178 524.932 222.366 524.932 220.101C524.932 217.923 525.611 216.136 526.968 214.739C528.336 213.333 530.089 212.63 532.227 212.63C534.464 212.63 536.207 213.27 537.457 214.549C538.707 215.828 539.332 217.62 539.332 219.925V220.525ZM536.036 218.387C535.909 217.391 535.528 216.634 534.893 216.116C534.258 215.589 533.389 215.325 532.286 215.325C531.241 215.325 530.401 215.579 529.766 216.087C529.132 216.595 528.687 217.361 528.433 218.387H536.036ZM546.183 220.013C546.183 221.448 546.54 222.596 547.252 223.455C547.975 224.314 548.922 224.744 550.094 224.744C551.295 224.744 552.223 224.344 552.877 223.543C553.541 222.742 553.873 221.604 553.873 220.13C553.873 218.665 553.527 217.522 552.833 216.702C552.15 215.872 551.207 215.457 550.006 215.457C548.805 215.457 547.868 215.857 547.194 216.658C546.52 217.459 546.183 218.577 546.183 220.013ZM543.107 233.533V213.113H546.286V215.384C546.657 214.505 547.248 213.826 548.058 213.348C548.878 212.869 549.855 212.63 550.988 212.63C552.833 212.63 554.328 213.313 555.47 214.681C556.623 216.038 557.199 217.825 557.199 220.042C557.199 222.376 556.632 224.217 555.499 225.564C554.376 226.902 552.833 227.571 550.871 227.571C549.894 227.571 549.025 227.376 548.263 226.985C547.511 226.595 546.852 225.999 546.286 225.198V233.533H543.107ZM561.765 227V215.896H559.333V213.113H561.765V207.854H564.944V213.113H567.375V215.896H564.944V227H561.765ZM583.953 220.525H572.85C572.928 221.824 573.314 222.84 574.007 223.572C574.7 224.295 575.623 224.656 576.775 224.656C577.801 224.656 578.655 224.441 579.339 224.012C580.023 223.582 580.618 222.889 581.126 221.932L583.807 223.426C583.025 224.822 582.059 225.862 580.906 226.546C579.754 227.229 578.401 227.571 576.849 227.571C574.622 227.571 572.85 226.893 571.531 225.535C570.213 224.178 569.554 222.366 569.554 220.101C569.554 217.923 570.232 216.136 571.59 214.739C572.957 213.333 574.71 212.63 576.849 212.63C579.085 212.63 580.828 213.27 582.078 214.549C583.328 215.828 583.953 217.62 583.953 219.925V220.525ZM580.657 218.387C580.53 217.391 580.149 216.634 579.515 216.116C578.88 215.589 578.011 215.325 576.907 215.325C575.862 215.325 575.023 215.579 574.388 216.087C573.753 216.595 573.309 217.361 573.055 218.387H580.657ZM590.907 227H587.728V213.113H590.717V215.384C591.351 214.417 592.069 213.714 592.87 213.274C593.681 212.825 594.633 212.601 595.726 212.601C596.81 212.601 597.709 212.83 598.422 213.289C599.135 213.738 599.677 214.427 600.048 215.354C600.78 214.397 601.557 213.699 602.377 213.26C603.207 212.82 604.149 212.601 605.204 212.601C606.122 212.601 606.923 212.771 607.606 213.113C608.29 213.445 608.822 213.934 609.203 214.578C609.379 214.881 609.506 215.242 609.584 215.662C609.672 216.082 609.716 216.683 609.716 217.464V218.577V227H606.537V219.866C606.537 218.001 606.337 216.775 605.936 216.189C605.546 215.594 604.843 215.296 603.827 215.296C602.577 215.296 601.683 215.696 601.146 216.497C600.619 217.288 600.355 218.68 600.355 220.672V227H597.147V219.866C597.147 218.147 596.937 216.956 596.517 216.292C596.107 215.628 595.394 215.296 594.379 215.296C593.754 215.296 593.182 215.438 592.665 215.721C592.147 216.004 591.737 216.395 591.434 216.893C591.239 217.215 591.102 217.61 591.024 218.079C590.946 218.548 590.907 219.412 590.907 220.672V227ZM617.505 220.013C617.505 221.429 617.866 222.571 618.589 223.44C619.321 224.31 620.263 224.744 621.416 224.744C622.617 224.744 623.545 224.344 624.199 223.543C624.863 222.742 625.195 221.604 625.195 220.13C625.195 218.665 624.848 217.522 624.155 216.702C623.471 215.872 622.529 215.457 621.328 215.457C620.127 215.457 619.189 215.857 618.515 216.658C617.841 217.459 617.505 218.577 617.505 220.013ZM617.607 204.295V215.384C617.978 214.505 618.569 213.826 619.38 213.348C620.2 212.869 621.176 212.63 622.309 212.63C624.155 212.63 625.649 213.313 626.792 214.681C627.944 216.038 628.52 217.825 628.52 220.042C628.52 222.376 627.954 224.217 626.821 225.564C625.698 226.902 624.155 227.571 622.192 227.571C621.215 227.571 620.346 227.376 619.585 226.985C618.833 226.595 618.173 225.999 617.607 225.198V227H614.428V204.295H617.607ZM645.713 220.525H634.61C634.688 221.824 635.074 222.84 635.767 223.572C636.46 224.295 637.383 224.656 638.536 224.656C639.561 224.656 640.415 224.441 641.099 224.012C641.783 223.582 642.378 222.889 642.886 221.932L645.567 223.426C644.786 224.822 643.819 225.862 642.666 226.546C641.514 227.229 640.162 227.571 638.609 227.571C636.382 227.571 634.61 226.893 633.291 225.535C631.973 224.178 631.314 222.366 631.314 220.101C631.314 217.923 631.993 216.136 633.35 214.739C634.717 213.333 636.47 212.63 638.609 212.63C640.845 212.63 642.588 213.27 643.838 214.549C645.088 215.828 645.713 217.62 645.713 219.925V220.525ZM642.417 218.387C642.29 217.391 641.91 216.634 641.275 216.116C640.64 215.589 639.771 215.325 638.667 215.325C637.623 215.325 636.783 215.579 636.148 216.087C635.513 216.595 635.069 217.361 634.815 218.387H642.417ZM652.667 215.325C653.009 214.407 653.458 213.729 654.015 213.289C654.581 212.85 655.28 212.63 656.11 212.63C656.559 212.63 656.998 212.684 657.428 212.791C657.867 212.898 658.297 213.055 658.717 213.26L657.574 215.955C657.301 215.76 657.003 215.618 656.681 215.53C656.368 215.433 656.017 215.384 655.626 215.384C654.572 215.384 653.815 215.809 653.356 216.658C652.897 217.498 652.667 218.914 652.667 220.906V227H649.489V213.084H652.667V215.325Z" fill="#EB9928"/>
<path d="M934.275 216.321C934.275 215.237 934.075 214.207 933.674 213.23C933.284 212.254 932.717 211.385 931.975 210.623C931.253 209.871 930.413 209.295 929.456 208.895C928.508 208.484 927.507 208.279 926.453 208.279C925.398 208.279 924.392 208.479 923.435 208.88C922.488 209.28 921.643 209.861 920.901 210.623C920.159 211.375 919.592 212.239 919.202 213.216C918.811 214.192 918.616 215.228 918.616 216.321C918.616 217.405 918.811 218.431 919.202 219.397C919.592 220.364 920.159 221.229 920.901 221.99C921.643 222.752 922.488 223.333 923.435 223.733C924.382 224.134 925.388 224.334 926.453 224.334C927.498 224.334 928.489 224.134 929.426 223.733C930.374 223.333 931.223 222.752 931.975 221.99C932.717 221.229 933.284 220.364 933.674 219.397C934.075 218.421 934.275 217.396 934.275 216.321ZM937.908 216.321C937.908 217.845 937.62 219.285 937.044 220.643C936.477 222 935.647 223.211 934.553 224.275C933.45 225.34 932.205 226.155 930.818 226.722C929.431 227.288 927.976 227.571 926.453 227.571C924.91 227.571 923.435 227.288 922.029 226.722C920.632 226.146 919.397 225.33 918.323 224.275C917.229 223.211 916.399 222.005 915.833 220.657C915.266 219.31 914.983 217.864 914.983 216.321C914.983 214.788 915.266 213.343 915.833 211.985C916.399 210.628 917.229 209.412 918.323 208.338C919.417 207.273 920.657 206.463 922.044 205.906C923.43 205.35 924.9 205.071 926.453 205.071C927.996 205.071 929.456 205.35 930.833 205.906C932.219 206.463 933.46 207.273 934.553 208.338C935.647 209.422 936.477 210.647 937.044 212.015C937.62 213.372 937.908 214.808 937.908 216.321ZM952.464 217.068C951.976 216.531 951.405 216.121 950.75 215.838C950.106 215.555 949.408 215.413 948.656 215.413C947.357 215.413 946.317 215.833 945.536 216.673C944.754 217.513 944.364 218.626 944.364 220.013C944.364 221.458 944.754 222.596 945.536 223.426C946.327 224.246 947.415 224.656 948.802 224.656C949.574 224.656 950.262 224.515 950.868 224.231C951.473 223.938 952.005 223.499 952.464 222.913V226.575C951.878 226.907 951.249 227.156 950.575 227.322C949.911 227.488 949.203 227.571 948.451 227.571C946.273 227.571 944.496 226.878 943.119 225.491C941.751 224.104 941.068 222.308 941.068 220.101C941.068 217.864 941.776 216.062 943.192 214.695C944.618 213.318 946.478 212.63 948.773 212.63C949.496 212.63 950.16 212.703 950.765 212.85C951.371 212.986 951.937 213.201 952.464 213.494V217.068ZM956.913 227V215.896H954.482V213.113H956.913V207.854H960.092V213.113H962.524V215.896H960.092V227H956.913ZM976.641 220.101C976.641 218.812 976.226 217.723 975.396 216.834C974.565 215.936 973.55 215.486 972.349 215.486C971.157 215.486 970.142 215.936 969.302 216.834C968.472 217.723 968.057 218.812 968.057 220.101C968.057 221.39 968.472 222.483 969.302 223.382C970.142 224.271 971.157 224.715 972.349 224.715C973.54 224.715 974.551 224.271 975.381 223.382C976.221 222.483 976.641 221.39 976.641 220.101ZM964.702 220.071C964.702 219.056 964.893 218.099 965.273 217.2C965.664 216.292 966.221 215.486 966.943 214.783C967.656 214.09 968.477 213.558 969.404 213.187C970.332 212.815 971.304 212.63 972.319 212.63C973.364 212.63 974.346 212.815 975.264 213.187C976.191 213.558 977.022 214.104 977.754 214.827C978.486 215.54 979.043 216.346 979.424 217.244C979.805 218.143 979.995 219.085 979.995 220.071C979.995 221.097 979.805 222.059 979.424 222.957C979.053 223.855 978.506 224.651 977.783 225.345C977.022 226.077 976.177 226.629 975.249 227C974.321 227.381 973.345 227.571 972.319 227.571C971.314 227.571 970.347 227.381 969.419 227C968.491 226.629 967.666 226.087 966.943 225.374C966.211 224.651 965.654 223.841 965.273 222.942C964.893 222.044 964.702 221.087 964.702 220.071ZM986.891 220.013C986.891 221.429 987.252 222.571 987.974 223.44C988.707 224.31 989.649 224.744 990.802 224.744C992.003 224.744 992.931 224.344 993.585 223.543C994.249 222.742 994.581 221.604 994.581 220.13C994.581 218.665 994.234 217.522 993.541 216.702C992.857 215.872 991.915 215.457 990.714 215.457C989.513 215.457 988.575 215.857 987.901 216.658C987.227 217.459 986.891 218.577 986.891 220.013ZM986.993 204.295V215.384C987.364 214.505 987.955 213.826 988.766 213.348C989.586 212.869 990.562 212.63 991.695 212.63C993.541 212.63 995.035 213.313 996.178 214.681C997.33 216.038 997.906 217.825 997.906 220.042C997.906 222.376 997.34 224.217 996.207 225.564C995.084 226.902 993.541 227.571 991.578 227.571C990.601 227.571 989.732 227.376 988.971 226.985C988.219 226.595 987.559 225.999 986.993 225.198V227H983.814V204.295H986.993ZM1015.1 220.525H1004C1004.07 221.824 1004.46 222.84 1005.15 223.572C1005.85 224.295 1006.77 224.656 1007.92 224.656C1008.95 224.656 1009.8 224.441 1010.49 224.012C1011.17 223.582 1011.76 222.889 1012.27 221.932L1014.95 223.426C1014.17 224.822 1013.2 225.862 1012.05 226.546C1010.9 227.229 1009.55 227.571 1007.99 227.571C1005.77 227.571 1004 226.893 1002.68 225.535C1001.36 224.178 1000.7 222.366 1000.7 220.101C1000.7 217.923 1001.38 216.136 1002.74 214.739C1004.1 213.333 1005.86 212.63 1007.99 212.63C1010.23 212.63 1011.97 213.27 1013.22 214.549C1014.47 215.828 1015.1 217.62 1015.1 219.925V220.525ZM1011.8 218.387C1011.68 217.391 1011.3 216.634 1010.66 216.116C1010.03 215.589 1009.16 215.325 1008.05 215.325C1007.01 215.325 1006.17 215.579 1005.53 216.087C1004.9 216.595 1004.45 217.361 1004.2 218.387H1011.8ZM1022.05 215.325C1022.39 214.407 1022.84 213.729 1023.4 213.289C1023.97 212.85 1024.67 212.63 1025.5 212.63C1025.94 212.63 1026.38 212.684 1026.81 212.791C1027.25 212.898 1027.68 213.055 1028.1 213.26L1026.96 215.955C1026.69 215.76 1026.39 215.618 1026.07 215.53C1025.75 215.433 1025.4 215.384 1025.01 215.384C1023.96 215.384 1023.2 215.809 1022.74 216.658C1022.28 217.498 1022.05 218.914 1022.05 220.906V227H1018.87V213.084H1022.05V215.325Z" fill="#EB9928"/>
<path d="M1240.44 227V204.705L1254.06 217.815C1254.43 218.187 1254.81 218.582 1255.19 219.002C1255.57 219.422 1255.97 219.896 1256.39 220.423V205.555H1259.61V227.835L1245.71 214.49C1245.34 214.129 1244.98 213.748 1244.63 213.348C1244.28 212.947 1243.96 212.527 1243.64 212.088V227H1240.44ZM1275.65 220.101C1275.65 218.812 1275.23 217.723 1274.4 216.834C1273.57 215.936 1272.56 215.486 1271.35 215.486C1270.16 215.486 1269.15 215.936 1268.31 216.834C1267.48 217.723 1267.06 218.812 1267.06 220.101C1267.06 221.39 1267.48 222.483 1268.31 223.382C1269.15 224.271 1270.16 224.715 1271.35 224.715C1272.55 224.715 1273.56 224.271 1274.39 223.382C1275.23 222.483 1275.65 221.39 1275.65 220.101ZM1263.71 220.071C1263.71 219.056 1263.9 218.099 1264.28 217.2C1264.67 216.292 1265.23 215.486 1265.95 214.783C1266.66 214.09 1267.48 213.558 1268.41 213.187C1269.34 212.815 1270.31 212.63 1271.33 212.63C1272.37 212.63 1273.35 212.815 1274.27 213.187C1275.2 213.558 1276.03 214.104 1276.76 214.827C1277.49 215.54 1278.05 216.346 1278.43 217.244C1278.81 218.143 1279 219.085 1279 220.071C1279 221.097 1278.81 222.059 1278.43 222.957C1278.06 223.855 1277.51 224.651 1276.79 225.345C1276.03 226.077 1275.18 226.629 1274.25 227C1273.33 227.381 1272.35 227.571 1271.33 227.571C1270.32 227.571 1269.35 227.381 1268.42 227C1267.5 226.629 1266.67 226.087 1265.95 225.374C1265.22 224.651 1264.66 223.841 1264.28 222.942C1263.9 222.044 1263.71 221.087 1263.71 220.071ZM1287.7 227.835L1280.42 213.113H1283.89L1286.92 220.101C1287.02 220.315 1287.14 220.638 1287.27 221.067C1287.41 221.497 1287.55 222.01 1287.7 222.605C1287.8 222.186 1287.91 221.771 1288.04 221.36C1288.17 220.94 1288.33 220.521 1288.52 220.101L1291.54 213.113H1294.99L1287.7 227.835ZM1310.82 220.525H1299.72C1299.8 221.824 1300.18 222.84 1300.88 223.572C1301.57 224.295 1302.49 224.656 1303.65 224.656C1304.67 224.656 1305.53 224.441 1306.21 224.012C1306.89 223.582 1307.49 222.889 1308 221.932L1310.68 223.426C1309.9 224.822 1308.93 225.862 1307.78 226.546C1306.62 227.229 1305.27 227.571 1303.72 227.571C1301.49 227.571 1299.72 226.893 1298.4 225.535C1297.08 224.178 1296.42 222.366 1296.42 220.101C1296.42 217.923 1297.1 216.136 1298.46 214.739C1299.83 213.333 1301.58 212.63 1303.72 212.63C1305.96 212.63 1307.7 213.27 1308.95 214.549C1310.2 215.828 1310.82 217.62 1310.82 219.925V220.525ZM1307.53 218.387C1307.4 217.391 1307.02 216.634 1306.39 216.116C1305.75 215.589 1304.88 215.325 1303.78 215.325C1302.73 215.325 1301.89 215.579 1301.26 216.087C1300.62 216.595 1300.18 217.361 1299.93 218.387H1307.53ZM1317.78 227H1314.6V213.113H1317.59V215.384C1318.22 214.417 1318.94 213.714 1319.74 213.274C1320.55 212.825 1321.5 212.601 1322.6 212.601C1323.68 212.601 1324.58 212.83 1325.29 213.289C1326.01 213.738 1326.55 214.427 1326.92 215.354C1327.65 214.397 1328.43 213.699 1329.25 213.26C1330.08 212.82 1331.02 212.601 1332.07 212.601C1332.99 212.601 1333.79 212.771 1334.48 213.113C1335.16 213.445 1335.69 213.934 1336.07 214.578C1336.25 214.881 1336.38 215.242 1336.45 215.662C1336.54 216.082 1336.59 216.683 1336.59 217.464V218.577V227H1333.41V219.866C1333.41 218.001 1333.21 216.775 1332.81 216.189C1332.42 215.594 1331.71 215.296 1330.7 215.296C1329.45 215.296 1328.55 215.696 1328.02 216.497C1327.49 217.288 1327.23 218.68 1327.23 220.672V227H1324.02V219.866C1324.02 218.147 1323.81 216.956 1323.39 216.292C1322.98 215.628 1322.27 215.296 1321.25 215.296C1320.62 215.296 1320.05 215.438 1319.54 215.721C1319.02 216.004 1318.61 216.395 1318.31 216.893C1318.11 217.215 1317.97 217.61 1317.89 218.079C1317.82 218.548 1317.78 219.412 1317.78 220.672V227ZM1344.38 220.013C1344.38 221.429 1344.74 222.571 1345.46 223.44C1346.19 224.31 1347.13 224.744 1348.29 224.744C1349.49 224.744 1350.42 224.344 1351.07 223.543C1351.73 222.742 1352.07 221.604 1352.07 220.13C1352.07 218.665 1351.72 217.522 1351.03 216.702C1350.34 215.872 1349.4 215.457 1348.2 215.457C1347 215.457 1346.06 215.857 1345.39 216.658C1344.71 217.459 1344.38 218.577 1344.38 220.013ZM1344.48 204.295V215.384C1344.85 214.505 1345.44 213.826 1346.25 213.348C1347.07 212.869 1348.05 212.63 1349.18 212.63C1351.03 212.63 1352.52 213.313 1353.66 214.681C1354.81 216.038 1355.39 217.825 1355.39 220.042C1355.39 222.376 1354.82 224.217 1353.69 225.564C1352.57 226.902 1351.03 227.571 1349.06 227.571C1348.09 227.571 1347.22 227.376 1346.46 226.985C1345.7 226.595 1345.04 225.999 1344.48 225.198V227H1341.3V204.295H1344.48ZM1372.58 220.525H1361.48C1361.56 221.824 1361.94 222.84 1362.64 223.572C1363.33 224.295 1364.25 224.656 1365.41 224.656C1366.43 224.656 1367.29 224.441 1367.97 224.012C1368.65 223.582 1369.25 222.889 1369.76 221.932L1372.44 223.426C1371.66 224.822 1370.69 225.862 1369.54 226.546C1368.38 227.229 1367.03 227.571 1365.48 227.571C1363.25 227.571 1361.48 226.893 1360.16 225.535C1358.84 224.178 1358.18 222.366 1358.18 220.101C1358.18 217.923 1358.86 216.136 1360.22 214.739C1361.59 213.333 1363.34 212.63 1365.48 212.63C1367.72 212.63 1369.46 213.27 1370.71 214.549C1371.96 215.828 1372.58 217.62 1372.58 219.925V220.525ZM1369.29 218.387C1369.16 217.391 1368.78 216.634 1368.15 216.116C1367.51 215.589 1366.64 215.325 1365.54 215.325C1364.49 215.325 1363.65 215.579 1363.02 216.087C1362.38 216.595 1361.94 217.361 1361.69 218.387H1369.29ZM1379.54 215.325C1379.88 214.407 1380.33 213.729 1380.89 213.289C1381.45 212.85 1382.15 212.63 1382.98 212.63C1383.43 212.63 1383.87 212.684 1384.3 212.791C1384.74 212.898 1385.17 213.055 1385.59 213.26L1384.45 215.955C1384.17 215.76 1383.87 215.618 1383.55 215.53C1383.24 215.433 1382.89 215.384 1382.5 215.384C1381.44 215.384 1380.69 215.809 1380.23 216.658C1379.77 217.498 1379.54 218.914 1379.54 220.906V227H1376.36V213.084H1379.54V215.325Z" fill="#EB9928"/>
<path d="M266.444 51V30.9844H278.229V34.5938H270.724V38.709H278.229V42.3457H270.724V47.3633H278.229V51H266.444ZM295.203 44.2734C295.203 43.0703 294.898 42.1178 294.287 41.416C293.686 40.7142 292.87 40.3633 291.84 40.3633C290.783 40.3633 289.949 40.7142 289.338 41.416C288.737 42.1087 288.436 43.0612 288.436 44.2734C288.436 45.4857 288.732 46.429 289.324 47.1035C289.926 47.778 290.755 48.1152 291.813 48.1152C292.888 48.1152 293.722 47.778 294.315 47.1035C294.907 46.429 295.203 45.4857 295.203 44.2734ZM298.758 51H294.985L295.039 49.0723C294.511 49.9199 293.873 50.5443 293.125 50.9453C292.387 51.3372 291.485 51.5332 290.418 51.5332C288.641 51.5332 287.205 50.8724 286.112 49.5508C285.027 48.2292 284.485 46.4837 284.485 44.3145C284.485 42.054 285.018 40.2949 286.084 39.0371C287.16 37.7702 288.65 37.1367 290.555 37.1367C291.548 37.1367 292.419 37.36 293.166 37.8066C293.923 38.2533 294.556 38.9186 295.067 39.8027V37.5879H298.758V51ZM309.416 41.0332C309.808 39.7298 310.368 38.7546 311.097 38.1074C311.835 37.4603 312.747 37.1367 313.832 37.1367C314.078 37.1367 314.483 37.1823 315.048 37.2734C315.158 37.2917 315.24 37.3053 315.294 37.3145L314.707 41.498C314.415 41.3796 314.119 41.293 313.818 41.2383C313.526 41.1745 313.216 41.1426 312.888 41.1426C311.703 41.1426 310.851 41.4479 310.332 42.0586C309.812 42.6602 309.552 43.6719 309.552 45.0938V51H305.656V37.5879H309.498L309.416 41.0332ZM320.429 51V29.8086H324.311V51H320.429ZM334.791 49.9609L329.391 37.5879H333.889L336.213 43.7266C336.368 44.1094 336.496 44.5514 336.596 45.0527C336.696 45.5449 336.774 46.0964 336.828 46.707C336.919 46.2148 337.033 45.7135 337.17 45.2031C337.307 44.6927 337.475 44.1504 337.676 43.5762L339.713 37.5879H344.17L336.186 57.0977H331.879L334.791 49.9609ZM368.766 34.6211V51H364.473V34.6211H359.579V30.9844H373.688V34.6211H368.766ZM386.41 44.2734C386.41 43.0703 386.105 42.1178 385.494 41.416C384.893 40.7142 384.077 40.3633 383.047 40.3633C381.99 40.3633 381.156 40.7142 380.545 41.416C379.943 42.1087 379.643 43.0612 379.643 44.2734C379.643 45.4857 379.939 46.429 380.531 47.1035C381.133 47.778 381.962 48.1152 383.019 48.1152C384.095 48.1152 384.929 47.778 385.521 47.1035C386.114 46.429 386.41 45.4857 386.41 44.2734ZM389.965 51H386.191L386.246 49.0723C385.717 49.9199 385.079 50.5443 384.332 50.9453C383.594 51.3372 382.691 51.5332 381.625 51.5332C379.848 51.5332 378.412 50.8724 377.318 49.5508C376.234 48.2292 375.691 46.4837 375.691 44.3145C375.691 42.054 376.225 40.2949 377.291 39.0371C378.366 37.7702 379.857 37.1367 381.762 37.1367C382.755 37.1367 383.626 37.36 384.373 37.8066C385.13 38.2533 385.763 38.9186 386.273 39.8027V37.5879H389.965V51ZM397.013 51V29.8086H400.896V51H397.013ZM408.067 29.8086H411.963V43.5215L416.94 37.5879H421.616L416.215 43.5215L422.149 51H417.336L411.963 43.8906V51H408.067V29.8086ZM444.052 51V34.5391H440.046L441.728 31.1758H448.085V51H444.052Z" fill="#EB9928"/>
<path d="M677.444 51V30.9844H689.229V34.5938H681.724V38.709H689.229V42.3457H681.724V47.3633H689.229V51H677.444ZM706.203 44.2734C706.203 43.0703 705.898 42.1178 705.287 41.416C704.686 40.7142 703.87 40.3633 702.84 40.3633C701.783 40.3633 700.949 40.7142 700.338 41.416C699.737 42.1087 699.436 43.0612 699.436 44.2734C699.436 45.4857 699.732 46.429 700.324 47.1035C700.926 47.778 701.755 48.1152 702.813 48.1152C703.888 48.1152 704.722 47.778 705.315 47.1035C705.907 46.429 706.203 45.4857 706.203 44.2734ZM709.758 51H705.985L706.039 49.0723C705.511 49.9199 704.873 50.5443 704.125 50.9453C703.387 51.3372 702.485 51.5332 701.418 51.5332C699.641 51.5332 698.205 50.8724 697.112 49.5508C696.027 48.2292 695.485 46.4837 695.485 44.3145C695.485 42.054 696.018 40.2949 697.084 39.0371C698.16 37.7702 699.65 37.1367 701.555 37.1367C702.548 37.1367 703.419 37.36 704.166 37.8066C704.923 38.2533 705.556 38.9186 706.067 39.8027V37.5879H709.758V51ZM720.416 41.0332C720.808 39.7298 721.368 38.7546 722.097 38.1074C722.835 37.4603 723.747 37.1367 724.832 37.1367C725.078 37.1367 725.483 37.1823 726.048 37.2734C726.158 37.2917 726.24 37.3053 726.294 37.3145L725.707 41.498C725.415 41.3796 725.119 41.293 724.818 41.2383C724.526 41.1745 724.216 41.1426 723.888 41.1426C722.703 41.1426 721.851 41.4479 721.332 42.0586C720.812 42.6602 720.552 43.6719 720.552 45.0938V51H716.656V37.5879H720.498L720.416 41.0332ZM731.429 51V29.8086H735.311V51H731.429ZM745.791 49.9609L740.391 37.5879H744.889L747.213 43.7266C747.368 44.1094 747.496 44.5514 747.596 45.0527C747.696 45.5449 747.774 46.0964 747.828 46.707C747.919 46.2148 748.033 45.7135 748.17 45.2031C748.307 44.6927 748.475 44.1504 748.676 43.5762L750.713 37.5879H755.17L747.186 57.0977H742.879L745.791 49.9609ZM779.766 34.6211V51H775.473V34.6211H770.579V30.9844H784.688V34.6211H779.766ZM797.41 44.2734C797.41 43.0703 797.105 42.1178 796.494 41.416C795.893 40.7142 795.077 40.3633 794.047 40.3633C792.99 40.3633 792.156 40.7142 791.545 41.416C790.943 42.1087 790.643 43.0612 790.643 44.2734C790.643 45.4857 790.939 46.429 791.531 47.1035C792.133 47.778 792.962 48.1152 794.019 48.1152C795.095 48.1152 795.929 47.778 796.521 47.1035C797.114 46.429 797.41 45.4857 797.41 44.2734ZM800.965 51H797.191L797.246 49.0723C796.717 49.9199 796.079 50.5443 795.332 50.9453C794.594 51.3372 793.691 51.5332 792.625 51.5332C790.848 51.5332 789.412 50.8724 788.318 49.5508C787.234 48.2292 786.691 46.4837 786.691 44.3145C786.691 42.054 787.225 40.2949 788.291 39.0371C789.366 37.7702 790.857 37.1367 792.762 37.1367C793.755 37.1367 794.626 37.36 795.373 37.8066C796.13 38.2533 796.763 38.9186 797.273 39.8027V37.5879H800.965V51ZM808.013 51V29.8086H811.896V51H808.013ZM819.067 29.8086H822.963V43.5215L827.94 37.5879H832.616L827.215 43.5215L833.149 51H828.336L822.963 43.8906V51H819.067V29.8086ZM863.009 47.6914V51H849.146L856.255 41.6758C857.239 40.3906 857.923 39.3789 858.306 38.6406C858.698 37.9023 858.894 37.2507 858.894 36.6855C858.894 35.9017 858.657 35.2865 858.183 34.8398C857.718 34.3932 857.075 34.1699 856.255 34.1699C855.489 34.1699 854.879 34.4525 854.423 35.0176C853.967 35.5736 853.739 36.3255 853.739 37.2734V37.3691H849.706V37.0273C849.706 35.0404 850.276 33.5046 851.415 32.4199C852.554 31.3262 854.168 30.7793 856.255 30.7793C858.388 30.7793 860.047 31.2669 861.232 32.2422C862.416 33.2174 863.009 34.5801 863.009 36.3301C863.009 38.2988 861.468 41.2064 858.388 45.0527L858.101 45.3945L856.255 47.6914H863.009Z" fill="#EB9928"/>
<path d="M1078.82 48.457L1081.2 45.7637C1081.5 46.502 1081.98 47.0853 1082.65 47.5137C1083.31 47.9329 1084.06 48.1426 1084.89 48.1426C1085.89 48.1426 1086.69 47.9056 1087.27 47.4316C1087.85 46.9577 1088.15 46.3197 1088.15 45.5176C1088.15 44.5697 1087.17 43.6263 1085.23 42.6875C1084.6 42.3867 1084.11 42.1406 1083.74 41.9492C1081.99 41.0378 1080.78 40.1491 1080.11 39.2832C1079.43 38.4082 1079.09 37.3691 1079.09 36.166C1079.09 34.5163 1079.75 33.1628 1081.05 32.1055C1082.36 31.0391 1084.06 30.5059 1086.15 30.5059C1087.36 30.5059 1088.41 30.7201 1089.28 31.1484C1090.16 31.5677 1090.94 32.2285 1091.62 33.1309L1089.09 35.5508C1088.79 34.9674 1088.39 34.5345 1087.89 34.252C1087.39 33.9603 1086.8 33.8145 1086.09 33.8145C1085.25 33.8145 1084.56 34.0286 1084.04 34.457C1083.52 34.8763 1083.26 35.4232 1083.26 36.0977C1083.26 37.1549 1084.29 38.1211 1086.35 38.9961C1086.76 39.1693 1087.08 39.306 1087.3 39.4062C1088.99 40.181 1090.25 41.056 1091.06 42.0312C1091.88 43.0065 1092.29 44.1185 1092.29 45.3672C1092.29 47.2448 1091.65 48.7441 1090.36 49.8652C1089.08 50.9772 1087.37 51.5332 1085.21 51.5332C1083.67 51.5332 1082.36 51.2689 1081.27 50.7402C1080.17 50.2116 1079.36 49.4505 1078.82 48.457ZM1102.49 37.5879V44.6426C1102.49 45.8275 1102.72 46.6751 1103.18 47.1855C1103.64 47.696 1104.39 47.9512 1105.43 47.9512C1106.46 47.9512 1107.21 47.696 1107.68 47.1855C1108.14 46.666 1108.37 45.8184 1108.37 44.6426V37.5879H1112.27V44.6426C1112.27 47.0033 1111.72 48.7441 1110.62 49.8652C1109.51 50.9772 1107.8 51.5332 1105.49 51.5332C1103.13 51.5332 1101.39 50.9772 1100.28 49.8652C1099.18 48.7533 1098.63 47.0124 1098.63 44.6426V37.5879H1102.49ZM1123.08 51H1119.18V37.5879H1123.08V39.6934C1123.72 38.8092 1124.39 38.1621 1125.11 37.752C1125.84 37.3418 1126.67 37.1367 1127.59 37.1367C1128.7 37.1367 1129.6 37.3646 1130.3 37.8203C1131 38.276 1131.49 38.9642 1131.79 39.8848C1132.41 38.9733 1133.11 38.2897 1133.89 37.834C1134.68 37.3691 1135.55 37.1367 1136.49 37.1367C1137.44 37.1367 1138.24 37.3145 1138.9 37.6699C1139.56 38.0163 1140.08 38.5404 1140.44 39.2422C1140.63 39.625 1140.77 40.0579 1140.85 40.541C1140.93 41.0241 1140.97 41.7578 1140.97 42.7422V43.166V51H1137.08V44.3691C1137.08 42.7376 1136.91 41.653 1136.57 41.1152C1136.24 40.5775 1135.66 40.3086 1134.84 40.3086C1133.83 40.3086 1133.1 40.6823 1132.65 41.4297C1132.2 42.1771 1131.98 43.3984 1131.98 45.0938V51H1128.08V44.3691C1128.08 42.7923 1127.93 41.7259 1127.62 41.1699C1127.31 40.6139 1126.77 40.3359 1126.02 40.3359C1124.99 40.3359 1124.24 40.7142 1123.77 41.4707C1123.31 42.2181 1123.08 43.4258 1123.08 45.0938V51ZM1151.75 51H1147.86V37.5879H1151.75V39.6934C1152.39 38.8092 1153.07 38.1621 1153.79 37.752C1154.52 37.3418 1155.35 37.1367 1156.27 37.1367C1157.38 37.1367 1158.28 37.3646 1158.97 37.8203C1159.68 38.276 1160.17 38.9642 1160.46 39.8848C1161.08 38.9733 1161.79 38.2897 1162.57 37.834C1163.36 37.3691 1164.23 37.1367 1165.17 37.1367C1166.11 37.1367 1166.92 37.3145 1167.57 37.6699C1168.24 38.0163 1168.75 38.5404 1169.12 39.2422C1169.31 39.625 1169.45 40.0579 1169.53 40.541C1169.61 41.0241 1169.65 41.7578 1169.65 42.7422V43.166V51H1165.75V44.3691C1165.75 42.7376 1165.59 41.653 1165.25 41.1152C1164.92 40.5775 1164.34 40.3086 1163.51 40.3086C1162.51 40.3086 1161.78 40.6823 1161.32 41.4297C1160.88 42.1771 1160.65 43.3984 1160.65 45.0938V51H1156.76V44.3691C1156.76 42.7923 1156.6 41.7259 1156.29 41.1699C1155.98 40.6139 1155.45 40.3359 1154.69 40.3359C1153.66 40.3359 1152.92 40.7142 1152.45 41.4707C1151.99 42.2181 1151.75 43.4258 1151.75 45.0938V51ZM1176.4 32.0781C1176.4 31.4583 1176.62 30.9251 1177.07 30.4785C1177.51 30.0319 1178.05 29.8086 1178.67 29.8086C1179.3 29.8086 1179.83 30.0319 1180.28 30.4785C1180.74 30.916 1180.96 31.4492 1180.96 32.0781C1180.96 32.707 1180.74 33.2448 1180.28 33.6914C1179.83 34.138 1179.3 34.3613 1178.67 34.3613C1178.05 34.3613 1177.51 34.1335 1177.07 33.6777C1176.62 33.222 1176.4 32.6888 1176.4 32.0781ZM1176.74 51V37.5879H1180.62V51H1176.74ZM1188.27 51V40.6367H1186.4V37.5879H1188.27V33.1309H1192.17V37.5879H1194.04V40.6367H1192.17V51H1188.27Z" fill="#EB9928"/>
<path d="M359 89.6667C356.054 89.6667 353.667 92.0545 353.667 95C353.667 97.9455 356.054 100.333 359 100.333C361.946 100.333 364.333 97.9455 364.333 95C364.333 92.0545 361.946 89.6667 359 89.6667ZM358 95L358 144.92L360 144.92L360 95L358 95Z" fill="#EB9928"/>
<path d="M1136 88.3942C1133.05 88.3942 1130.67 90.782 1130.67 93.7275C1130.67 96.6731 1133.05 99.0609 1136 99.0609C1138.95 99.0609 1141.33 96.6731 1141.33 93.7275C1141.33 90.782 1138.95 88.3942 1136 88.3942ZM1135 93.7275L1135 143.647L1137 143.647L1137 93.7275L1135 93.7275Z" fill="#EB9928"/>
<path d="M770 88.3942C767.054 88.3942 764.667 90.782 764.667 93.7275C764.667 96.6731 767.054 99.0609 770 99.0609C772.946 99.0609 775.333 96.6731 775.333 93.7275C775.333 90.782 772.946 88.3942 770 88.3942ZM769 93.7275L769 143.647L771 143.647L771 93.7275L769 93.7275Z" fill="#EB9928"/>
</svg>
