<svg width="1890" height="254" viewBox="0 0 1890 254" fill="none" xmlns="http://www.w3.org/2000/svg">
<line x1="160" y1="160" x2="521" y2="160" stroke="#EB9928" stroke-width="2"/>
<line x1="563" y1="159" x2="924" y2="159" stroke="#EB9928" stroke-width="2"/>
<line x1="966" y1="160" x2="1327" y2="160" stroke="#EB9928" stroke-width="2"/>
<line x1="1369" y1="160" x2="1730" y2="160" stroke="#EB9928" stroke-width="2"/>
<circle cx="1348" cy="160" r="21" fill="#EB9928"/>
<circle cx="1751" cy="161" r="21" fill="#EB9928"/>
<circle cx="139" cy="160" r="21" fill="#EB9928"/>
<circle cx="542" cy="161" r="21" fill="#EB9928"/>
<circle cx="945" cy="161" r="21" fill="#EB9928"/>
<path d="M113.249 240.844C113.634 241.302 114.004 241.635 114.358 241.844C114.712 242.052 115.087 242.156 115.483 242.156C116.212 242.156 116.723 241.917 117.014 241.438C117.316 240.958 117.467 240.068 117.467 238.766V222.125H121.155V239.969C121.155 241.906 120.728 243.333 119.874 244.25C119.02 245.156 117.686 245.609 115.874 245.609C114.874 245.609 113.967 245.417 113.155 245.031C112.353 244.646 111.592 244.047 110.874 243.234L113.249 240.844ZM129.541 230.188V238.531C129.541 239.969 129.838 241 130.432 241.625C131.026 242.25 131.989 242.562 133.322 242.562C134.656 242.562 135.619 242.25 136.213 241.625C136.807 241 137.104 239.969 137.104 238.531V230.188H140.494V237.516C140.494 240.349 139.927 242.406 138.791 243.688C137.656 244.969 135.843 245.609 133.354 245.609C130.822 245.609 128.989 244.974 127.854 243.703C126.718 242.432 126.151 240.37 126.151 237.516V230.188H129.541ZM145.709 245V220.781H149.099V245H145.709ZM156.986 251.969H153.501L157.564 243.719L152.126 230.188H155.876L158.595 237.859C158.751 238.328 158.887 238.807 159.001 239.297C159.126 239.776 159.225 240.266 159.298 240.766C159.434 240.245 159.756 239.417 160.267 238.281L160.345 238.094L164.001 230.188H167.673L156.986 251.969Z" fill="#EB9928"/>
<path d="M497.863 236.016H504.238L501.894 230.797C501.758 230.464 501.618 230.083 501.472 229.656C501.326 229.219 501.18 228.734 501.034 228.203C500.909 228.703 500.774 229.172 500.628 229.609C500.493 230.036 500.352 230.432 500.206 230.797L497.863 236.016ZM508.144 245L505.55 239.109H496.488L493.831 245H489.925L501.003 221.219L512.066 245H508.144ZM517.702 230.188V238.531C517.702 239.969 517.999 241 518.592 241.625C519.186 242.25 520.15 242.562 521.483 242.562C522.816 242.562 523.78 242.25 524.374 241.625C524.967 241 525.264 239.969 525.264 238.531V230.188H528.655V237.516C528.655 240.349 528.087 242.406 526.952 243.688C525.816 244.969 524.004 245.609 521.514 245.609C518.983 245.609 517.15 244.974 516.014 243.703C514.879 242.432 514.311 240.37 514.311 237.516V230.188H517.702ZM544.354 237.547C544.354 236.016 543.994 234.823 543.276 233.969C542.567 233.115 541.573 232.688 540.291 232.688C539.01 232.688 538 233.13 537.26 234.016C536.531 234.891 536.166 236.109 536.166 237.672C536.166 239.245 536.52 240.458 537.229 241.312C537.937 242.167 538.937 242.594 540.229 242.594C541.448 242.594 542.437 242.13 543.198 241.203C543.968 240.276 544.354 239.057 544.354 237.547ZM547.651 244.078C547.651 246.974 547.073 249.01 545.916 250.188C544.76 251.375 542.812 251.969 540.073 251.969C538.031 251.969 536.401 251.536 535.182 250.672C533.963 249.818 533.343 248.677 533.323 247.25L536.963 247.234C537.015 247.87 537.312 248.354 537.854 248.688C538.395 249.021 539.156 249.188 540.135 249.188C541.583 249.188 542.625 248.87 543.26 248.234C543.895 247.599 544.218 246.536 544.229 245.047L544.26 243.078C543.656 243.932 542.948 244.568 542.135 244.984C541.333 245.401 540.411 245.609 539.369 245.609C537.276 245.609 535.625 244.896 534.416 243.469C533.218 242.031 532.619 240.068 532.619 237.578C532.619 235.214 533.234 233.307 534.463 231.859C535.692 230.401 537.296 229.672 539.276 229.672C540.484 229.672 541.515 229.927 542.369 230.438C543.234 230.938 543.864 231.661 544.26 232.609V230.188H547.651V244.078ZM556.099 230.188V238.531C556.099 239.969 556.396 241 556.99 241.625C557.584 242.25 558.547 242.562 559.881 242.562C561.214 242.562 562.178 242.25 562.771 241.625C563.365 241 563.662 239.969 563.662 238.531V230.188H567.053V237.516C567.053 240.349 566.485 242.406 565.349 243.688C564.214 244.969 562.401 245.609 559.912 245.609C557.381 245.609 555.547 244.974 554.412 243.703C553.276 242.432 552.709 240.37 552.709 237.516V230.188H556.099ZM570.408 242.312L573.22 240.781C573.428 241.521 573.814 242.083 574.376 242.469C574.939 242.854 575.663 243.047 576.548 243.047C577.309 243.047 577.902 242.875 578.329 242.531C578.767 242.177 578.986 241.698 578.986 241.094C578.986 240.292 578.215 239.604 576.673 239.031C576.152 238.844 575.751 238.688 575.47 238.562C573.887 237.906 572.777 237.24 572.142 236.562C571.517 235.885 571.204 235.062 571.204 234.094C571.204 232.771 571.72 231.698 572.751 230.875C573.793 230.052 575.168 229.641 576.876 229.641C578.022 229.641 579.001 229.854 579.814 230.281C580.637 230.698 581.236 231.297 581.611 232.078L579.204 233.734C579.027 233.266 578.715 232.896 578.267 232.625C577.829 232.344 577.319 232.203 576.736 232.203C576.09 232.203 575.569 232.359 575.173 232.672C574.788 232.974 574.595 233.38 574.595 233.891C574.595 234.661 575.47 235.365 577.22 236C577.772 236.198 578.199 236.359 578.501 236.484C579.866 237.026 580.84 237.641 581.423 238.328C582.017 239.005 582.314 239.854 582.314 240.875C582.314 242.354 581.777 243.516 580.704 244.359C579.631 245.193 578.152 245.609 576.267 245.609C574.819 245.609 573.616 245.339 572.658 244.797C571.699 244.255 570.949 243.427 570.408 242.312ZM587.013 245V233.156H584.419V230.188H587.013V224.578H590.403V230.188H592.997V233.156H590.403V245H587.013Z" fill="#EB9928"/>
<path d="M865.518 240.422L868.486 239.047C868.768 240.068 869.283 240.849 870.033 241.391C870.783 241.922 871.741 242.188 872.908 242.188C874.012 242.188 874.887 241.88 875.533 241.266C876.189 240.651 876.518 239.828 876.518 238.797C876.518 237.453 875.403 236.255 873.174 235.203C872.861 235.047 872.622 234.932 872.455 234.859C869.934 233.63 868.252 232.521 867.408 231.531C866.575 230.531 866.158 229.312 866.158 227.875C866.158 226.01 866.788 224.5 868.049 223.344C869.32 222.188 870.981 221.609 873.033 221.609C874.721 221.609 876.132 221.938 877.268 222.594C878.403 223.24 879.189 224.172 879.627 225.391L876.721 226.891C876.262 226.172 875.757 225.646 875.205 225.312C874.663 224.979 874.038 224.812 873.33 224.812C872.33 224.812 871.533 225.073 870.939 225.594C870.356 226.115 870.064 226.812 870.064 227.688C870.064 229.062 871.356 230.344 873.939 231.531C874.137 231.625 874.294 231.698 874.408 231.75C876.669 232.792 878.221 233.812 879.064 234.812C879.908 235.802 880.33 237.042 880.33 238.531C880.33 240.698 879.648 242.422 878.283 243.703C876.919 244.974 875.075 245.609 872.752 245.609C870.804 245.609 869.205 245.161 867.955 244.266C866.715 243.37 865.903 242.089 865.518 240.422ZM898.857 238.094H887.013C887.096 239.479 887.508 240.562 888.247 241.344C888.987 242.115 889.971 242.5 891.201 242.5C892.294 242.5 893.206 242.271 893.935 241.812C894.664 241.354 895.3 240.615 895.841 239.594L898.701 241.188C897.867 242.677 896.836 243.786 895.607 244.516C894.378 245.245 892.935 245.609 891.279 245.609C888.904 245.609 887.013 244.885 885.607 243.438C884.201 241.99 883.497 240.057 883.497 237.641C883.497 235.318 884.221 233.411 885.669 231.922C887.128 230.422 888.997 229.672 891.279 229.672C893.664 229.672 895.524 230.354 896.857 231.719C898.19 233.083 898.857 234.995 898.857 237.453V238.094ZM895.341 235.812C895.206 234.75 894.8 233.943 894.122 233.391C893.445 232.828 892.518 232.547 891.341 232.547C890.227 232.547 889.331 232.818 888.654 233.359C887.977 233.901 887.503 234.719 887.232 235.812H895.341ZM906.165 237.547C906.165 239.078 906.545 240.302 907.306 241.219C908.076 242.135 909.087 242.594 910.337 242.594C911.618 242.594 912.608 242.167 913.306 241.312C914.014 240.458 914.368 239.245 914.368 237.672C914.368 236.109 913.998 234.891 913.259 234.016C912.53 233.13 911.524 232.688 910.243 232.688C908.962 232.688 907.962 233.115 907.243 233.969C906.524 234.823 906.165 236.016 906.165 237.547ZM902.884 251.969V230.188H906.274V232.609C906.67 231.672 907.3 230.948 908.165 230.438C909.04 229.927 910.082 229.672 911.29 229.672C913.259 229.672 914.853 230.401 916.071 231.859C917.3 233.307 917.915 235.214 917.915 237.578C917.915 240.068 917.311 242.031 916.103 243.469C914.905 244.896 913.259 245.609 911.165 245.609C910.123 245.609 909.196 245.401 908.384 244.984C907.582 244.568 906.879 243.932 906.274 243.078V251.969H902.884ZM922.786 245V233.156H920.192V230.188H922.786V224.578H926.176V230.188H928.77V233.156H926.176V245H922.786ZM946.453 238.094H934.609C934.693 239.479 935.104 240.562 935.844 241.344C936.583 242.115 937.568 242.5 938.797 242.5C939.891 242.5 940.802 242.271 941.531 241.812C942.26 241.354 942.896 240.615 943.438 239.594L946.297 241.188C945.464 242.677 944.432 243.786 943.203 244.516C941.974 245.245 940.531 245.609 938.875 245.609C936.5 245.609 934.609 244.885 933.203 243.438C931.797 241.99 931.094 240.057 931.094 237.641C931.094 235.318 931.818 233.411 933.266 231.922C934.724 230.422 936.594 229.672 938.875 229.672C941.26 229.672 943.12 230.354 944.453 231.719C945.786 233.083 946.453 234.995 946.453 237.453V238.094ZM942.938 235.812C942.802 234.75 942.396 233.943 941.719 233.391C941.042 232.828 940.115 232.547 938.938 232.547C937.823 232.547 936.927 232.818 936.25 233.359C935.573 233.901 935.099 234.719 934.828 235.812H942.938ZM953.871 245H950.48V230.188H953.668V232.609C954.345 231.578 955.11 230.828 955.964 230.359C956.829 229.88 957.845 229.641 959.011 229.641C960.168 229.641 961.126 229.885 961.886 230.375C962.647 230.854 963.225 231.589 963.621 232.578C964.402 231.557 965.23 230.812 966.105 230.344C966.99 229.875 967.996 229.641 969.121 229.641C970.1 229.641 970.954 229.823 971.683 230.188C972.412 230.542 972.98 231.062 973.386 231.75C973.574 232.073 973.709 232.458 973.793 232.906C973.886 233.354 973.933 233.995 973.933 234.828V236.016V245H970.543V237.391C970.543 235.401 970.329 234.094 969.902 233.469C969.485 232.833 968.735 232.516 967.652 232.516C966.319 232.516 965.365 232.943 964.793 233.797C964.23 234.641 963.949 236.125 963.949 238.25V245H960.527V237.391C960.527 235.557 960.303 234.286 959.855 233.578C959.418 232.87 958.657 232.516 957.574 232.516C956.907 232.516 956.298 232.667 955.746 232.969C955.194 233.271 954.756 233.688 954.433 234.219C954.225 234.562 954.079 234.984 953.996 235.484C953.912 235.984 953.871 236.906 953.871 238.25V245ZM982.241 237.547C982.241 239.057 982.627 240.276 983.397 241.203C984.179 242.13 985.184 242.594 986.413 242.594C987.694 242.594 988.684 242.167 989.382 241.312C990.09 240.458 990.444 239.245 990.444 237.672C990.444 236.109 990.075 234.891 989.335 234.016C988.606 233.13 987.601 232.688 986.319 232.688C985.038 232.688 984.038 233.115 983.319 233.969C982.601 234.823 982.241 236.016 982.241 237.547ZM982.351 220.781V232.609C982.746 231.672 983.377 230.948 984.241 230.438C985.116 229.927 986.158 229.672 987.366 229.672C989.335 229.672 990.929 230.401 992.147 231.859C993.377 233.307 993.991 235.214 993.991 237.578C993.991 240.068 993.387 242.031 992.179 243.469C990.981 244.896 989.335 245.609 987.241 245.609C986.2 245.609 985.272 245.401 984.46 244.984C983.658 244.568 982.955 243.932 982.351 243.078V245H978.96V220.781H982.351ZM1012.33 238.094H1000.49C1000.57 239.479 1000.98 240.562 1001.72 241.344C1002.46 242.115 1003.45 242.5 1004.67 242.5C1005.77 242.5 1006.68 242.271 1007.41 241.812C1008.14 241.354 1008.77 240.615 1009.32 239.594L1012.17 241.188C1011.34 242.677 1010.31 243.786 1009.08 244.516C1007.85 245.245 1006.41 245.609 1004.75 245.609C1002.38 245.609 1000.49 244.885 999.081 243.438C997.674 241.99 996.971 240.057 996.971 237.641C996.971 235.318 997.695 233.411 999.143 231.922C1000.6 230.422 1002.47 229.672 1004.75 229.672C1007.14 229.672 1009 230.354 1010.33 231.719C1011.66 233.083 1012.33 234.995 1012.33 237.453V238.094ZM1008.82 235.812C1008.68 234.75 1008.27 233.943 1007.6 233.391C1006.92 232.828 1005.99 232.547 1004.82 232.547C1003.7 232.547 1002.8 232.818 1002.13 233.359C1001.45 233.901 1000.98 234.719 1000.71 235.812H1008.82ZM1019.75 232.547C1020.11 231.568 1020.59 230.844 1021.19 230.375C1021.79 229.906 1022.53 229.672 1023.42 229.672C1023.9 229.672 1024.37 229.729 1024.83 229.844C1025.29 229.958 1025.75 230.125 1026.2 230.344L1024.98 233.219C1024.69 233.01 1024.37 232.859 1024.03 232.766C1023.7 232.661 1023.32 232.609 1022.9 232.609C1021.78 232.609 1020.97 233.062 1020.48 233.969C1019.99 234.865 1019.75 236.375 1019.75 238.5V245H1016.36V230.156H1019.75V232.547Z" fill="#EB9928"/>
<path d="M1309.26 233.609C1309.26 232.453 1309.05 231.354 1308.62 230.312C1308.21 229.271 1307.6 228.344 1306.81 227.531C1306.04 226.729 1305.14 226.115 1304.12 225.688C1303.11 225.25 1302.04 225.031 1300.92 225.031C1299.79 225.031 1298.72 225.245 1297.7 225.672C1296.69 226.099 1295.79 226.719 1295 227.531C1294.21 228.333 1293.6 229.255 1293.18 230.297C1292.77 231.339 1292.56 232.443 1292.56 233.609C1292.56 234.766 1292.77 235.859 1293.18 236.891C1293.6 237.922 1294.21 238.844 1295 239.656C1295.79 240.469 1296.69 241.089 1297.7 241.516C1298.71 241.943 1299.78 242.156 1300.92 242.156C1302.03 242.156 1303.09 241.943 1304.09 241.516C1305.1 241.089 1306.01 240.469 1306.81 239.656C1307.6 238.844 1308.21 237.922 1308.62 236.891C1309.05 235.849 1309.26 234.755 1309.26 233.609ZM1313.14 233.609C1313.14 235.234 1312.83 236.771 1312.22 238.219C1311.61 239.667 1310.73 240.958 1309.56 242.094C1308.38 243.229 1307.05 244.099 1305.58 244.703C1304.1 245.307 1302.54 245.609 1300.92 245.609C1299.27 245.609 1297.7 245.307 1296.2 244.703C1294.71 244.089 1293.39 243.219 1292.25 242.094C1291.08 240.958 1290.2 239.672 1289.59 238.234C1288.99 236.797 1288.68 235.255 1288.68 233.609C1288.68 231.974 1288.99 230.432 1289.59 228.984C1290.2 227.536 1291.08 226.24 1292.25 225.094C1293.41 223.958 1294.74 223.094 1296.22 222.5C1297.7 221.906 1299.26 221.609 1300.92 221.609C1302.57 221.609 1304.12 221.906 1305.59 222.5C1307.07 223.094 1308.39 223.958 1309.56 225.094C1310.73 226.25 1311.61 227.557 1312.22 229.016C1312.83 230.464 1313.14 231.995 1313.14 233.609ZM1328.66 234.406C1328.14 233.833 1327.53 233.396 1326.84 233.094C1326.15 232.792 1325.4 232.641 1324.6 232.641C1323.22 232.641 1322.11 233.089 1321.27 233.984C1320.44 234.88 1320.02 236.068 1320.02 237.547C1320.02 239.089 1320.44 240.302 1321.27 241.188C1322.12 242.062 1323.28 242.5 1324.76 242.5C1325.58 242.5 1326.32 242.349 1326.96 242.047C1327.61 241.734 1328.18 241.266 1328.66 240.641V244.547C1328.04 244.901 1327.37 245.167 1326.65 245.344C1325.94 245.521 1325.19 245.609 1324.38 245.609C1322.06 245.609 1320.16 244.87 1318.7 243.391C1317.24 241.911 1316.51 239.995 1316.51 237.641C1316.51 235.255 1317.26 233.333 1318.77 231.875C1320.3 230.406 1322.28 229.672 1324.73 229.672C1325.5 229.672 1326.21 229.75 1326.85 229.906C1327.5 230.052 1328.1 230.281 1328.66 230.594V234.406ZM1333.41 245V233.156H1330.82V230.188H1333.41V224.578H1336.8V230.188H1339.39V233.156H1336.8V245H1333.41ZM1354.45 237.641C1354.45 236.266 1354.01 235.104 1353.12 234.156C1352.24 233.198 1351.16 232.719 1349.88 232.719C1348.6 232.719 1347.52 233.198 1346.62 234.156C1345.74 235.104 1345.3 236.266 1345.3 237.641C1345.3 239.016 1345.74 240.182 1346.62 241.141C1347.52 242.089 1348.6 242.562 1349.88 242.562C1351.15 242.562 1352.22 242.089 1353.11 241.141C1354.01 240.182 1354.45 239.016 1354.45 237.641ZM1341.72 237.609C1341.72 236.526 1341.92 235.505 1342.33 234.547C1342.74 233.578 1343.34 232.719 1344.11 231.969C1344.87 231.229 1345.74 230.661 1346.73 230.266C1347.72 229.87 1348.76 229.672 1349.84 229.672C1350.96 229.672 1352.01 229.87 1352.98 230.266C1353.97 230.661 1354.86 231.245 1355.64 232.016C1356.42 232.776 1357.02 233.635 1357.42 234.594C1357.83 235.552 1358.03 236.557 1358.03 237.609C1358.03 238.703 1357.83 239.729 1357.42 240.688C1357.03 241.646 1356.44 242.495 1355.67 243.234C1354.86 244.016 1353.96 244.604 1352.97 245C1351.98 245.406 1350.94 245.609 1349.84 245.609C1348.77 245.609 1347.74 245.406 1346.75 245C1345.76 244.604 1344.88 244.026 1344.11 243.266C1343.33 242.495 1342.73 241.63 1342.33 240.672C1341.92 239.714 1341.72 238.693 1341.72 237.609ZM1365.39 237.547C1365.39 239.057 1365.77 240.276 1366.54 241.203C1367.32 242.13 1368.33 242.594 1369.56 242.594C1370.84 242.594 1371.83 242.167 1372.53 241.312C1373.24 240.458 1373.59 239.245 1373.59 237.672C1373.59 236.109 1373.22 234.891 1372.48 234.016C1371.75 233.13 1370.75 232.688 1369.46 232.688C1368.18 232.688 1367.18 233.115 1366.46 233.969C1365.75 234.823 1365.39 236.016 1365.39 237.547ZM1365.5 220.781V232.609C1365.89 231.672 1366.52 230.948 1367.39 230.438C1368.26 229.927 1369.3 229.672 1370.51 229.672C1372.48 229.672 1374.07 230.401 1375.29 231.859C1376.52 233.307 1377.14 235.214 1377.14 237.578C1377.14 240.068 1376.53 242.031 1375.32 243.469C1374.13 244.896 1372.48 245.609 1370.39 245.609C1369.34 245.609 1368.42 245.401 1367.6 244.984C1366.8 244.568 1366.1 243.932 1365.5 243.078V245H1362.1V220.781H1365.5ZM1395.48 238.094H1383.63C1383.72 239.479 1384.13 240.562 1384.87 241.344C1385.61 242.115 1386.59 242.5 1387.82 242.5C1388.91 242.5 1389.82 242.271 1390.55 241.812C1391.28 241.354 1391.92 240.615 1392.46 239.594L1395.32 241.188C1394.49 242.677 1393.45 243.786 1392.23 244.516C1391 245.245 1389.55 245.609 1387.9 245.609C1385.52 245.609 1383.63 244.885 1382.23 243.438C1380.82 241.99 1380.12 240.057 1380.12 237.641C1380.12 235.318 1380.84 233.411 1382.29 231.922C1383.75 230.422 1385.62 229.672 1387.9 229.672C1390.28 229.672 1392.14 230.354 1393.48 231.719C1394.81 233.083 1395.48 234.995 1395.48 237.453V238.094ZM1391.96 235.812C1391.82 234.75 1391.42 233.943 1390.74 233.391C1390.06 232.828 1389.14 232.547 1387.96 232.547C1386.85 232.547 1385.95 232.818 1385.27 233.359C1384.6 233.901 1384.12 234.719 1383.85 235.812H1391.96ZM1402.89 232.547C1403.26 231.568 1403.74 230.844 1404.33 230.375C1404.93 229.906 1405.68 229.672 1406.57 229.672C1407.04 229.672 1407.51 229.729 1407.97 229.844C1408.44 229.958 1408.9 230.125 1409.35 230.344L1408.13 233.219C1407.84 233.01 1407.52 232.859 1407.17 232.766C1406.84 232.661 1406.47 232.609 1406.05 232.609C1404.92 232.609 1404.12 233.062 1403.63 233.969C1403.14 234.865 1402.89 236.375 1402.89 238.5V245H1399.5V230.156H1402.89V232.547Z" fill="#EB9928"/>
<path d="M1675.1 245V221.219L1689.63 235.203C1690.03 235.599 1690.43 236.021 1690.84 236.469C1691.24 236.917 1691.67 237.422 1692.12 237.984V222.125H1695.55V245.891L1680.73 231.656C1680.33 231.271 1679.94 230.865 1679.57 230.438C1679.21 230.01 1678.86 229.562 1678.52 229.094V245H1675.1ZM1712.66 237.641C1712.66 236.266 1712.22 235.104 1711.33 234.156C1710.45 233.198 1709.36 232.719 1708.08 232.719C1706.81 232.719 1705.73 233.198 1704.83 234.156C1703.95 235.104 1703.5 236.266 1703.5 237.641C1703.5 239.016 1703.95 240.182 1704.83 241.141C1705.73 242.089 1706.81 242.562 1708.08 242.562C1709.35 242.562 1710.43 242.089 1711.32 241.141C1712.21 240.182 1712.66 239.016 1712.66 237.641ZM1699.93 237.609C1699.93 236.526 1700.13 235.505 1700.53 234.547C1700.95 233.578 1701.54 232.719 1702.32 231.969C1703.08 231.229 1703.95 230.661 1704.94 230.266C1705.93 229.87 1706.97 229.672 1708.05 229.672C1709.16 229.672 1710.21 229.87 1711.19 230.266C1712.18 230.661 1713.07 231.245 1713.85 232.016C1714.63 232.776 1715.22 233.635 1715.63 234.594C1716.03 235.552 1716.24 236.557 1716.24 237.609C1716.24 238.703 1716.03 239.729 1715.63 240.688C1715.23 241.646 1714.65 242.495 1713.88 243.234C1713.07 244.016 1712.16 244.604 1711.18 245C1710.19 245.406 1709.14 245.609 1708.05 245.609C1706.98 245.609 1705.95 245.406 1704.96 245C1703.97 244.604 1703.09 244.026 1702.32 243.266C1701.53 242.495 1700.94 241.63 1700.53 240.672C1700.13 239.714 1699.93 238.693 1699.93 237.609ZM1725.51 245.891L1717.75 230.188H1721.45L1724.69 237.641C1724.79 237.87 1724.92 238.214 1725.06 238.672C1725.21 239.13 1725.36 239.677 1725.51 240.312C1725.62 239.865 1725.74 239.422 1725.87 238.984C1726.02 238.536 1726.19 238.089 1726.39 237.641L1729.61 230.188H1733.3L1725.51 245.891ZM1750.18 238.094H1738.34C1738.42 239.479 1738.83 240.562 1739.57 241.344C1740.31 242.115 1741.3 242.5 1742.53 242.5C1743.62 242.5 1744.53 242.271 1745.26 241.812C1745.99 241.354 1746.62 240.615 1747.17 239.594L1750.03 241.188C1749.19 242.677 1748.16 243.786 1746.93 244.516C1745.7 245.245 1744.26 245.609 1742.6 245.609C1740.23 245.609 1738.34 244.885 1736.93 243.438C1735.53 241.99 1734.82 240.057 1734.82 237.641C1734.82 235.318 1735.55 233.411 1736.99 231.922C1738.45 230.422 1740.32 229.672 1742.6 229.672C1744.99 229.672 1746.85 230.354 1748.18 231.719C1749.52 233.083 1750.18 234.995 1750.18 237.453V238.094ZM1746.67 235.812C1746.53 234.75 1746.12 233.943 1745.45 233.391C1744.77 232.828 1743.84 232.547 1742.67 232.547C1741.55 232.547 1740.66 232.818 1739.98 233.359C1739.3 233.901 1738.83 234.719 1738.56 235.812H1746.67ZM1757.6 245H1754.21V230.188H1757.4V232.609C1758.07 231.578 1758.84 230.828 1759.69 230.359C1760.56 229.88 1761.57 229.641 1762.74 229.641C1763.9 229.641 1764.85 229.885 1765.61 230.375C1766.38 230.854 1766.95 231.589 1767.35 232.578C1768.13 231.557 1768.96 230.812 1769.83 230.344C1770.72 229.875 1771.72 229.641 1772.85 229.641C1773.83 229.641 1774.68 229.823 1775.41 230.188C1776.14 230.542 1776.71 231.062 1777.11 231.75C1777.3 232.073 1777.44 232.458 1777.52 232.906C1777.61 233.354 1777.66 233.995 1777.66 234.828V236.016V245H1774.27V237.391C1774.27 235.401 1774.06 234.094 1773.63 233.469C1773.21 232.833 1772.46 232.516 1771.38 232.516C1770.05 232.516 1769.09 232.943 1768.52 233.797C1767.96 234.641 1767.68 236.125 1767.68 238.25V245H1764.26V237.391C1764.26 235.557 1764.03 234.286 1763.58 233.578C1763.15 232.87 1762.39 232.516 1761.3 232.516C1760.64 232.516 1760.03 232.667 1759.47 232.969C1758.92 233.271 1758.48 233.688 1758.16 234.219C1757.95 234.562 1757.81 234.984 1757.72 235.484C1757.64 235.984 1757.6 236.906 1757.6 238.25V245ZM1785.97 237.547C1785.97 239.057 1786.36 240.276 1787.13 241.203C1787.91 242.13 1788.91 242.594 1790.14 242.594C1791.42 242.594 1792.41 242.167 1793.11 241.312C1793.82 240.458 1794.17 239.245 1794.17 237.672C1794.17 236.109 1793.8 234.891 1793.06 234.016C1792.33 233.13 1791.33 232.688 1790.05 232.688C1788.77 232.688 1787.77 233.115 1787.05 233.969C1786.33 234.823 1785.97 236.016 1785.97 237.547ZM1786.08 220.781V232.609C1786.48 231.672 1787.11 230.948 1787.97 230.438C1788.85 229.927 1789.89 229.672 1791.1 229.672C1793.06 229.672 1794.66 230.401 1795.88 231.859C1797.11 233.307 1797.72 235.214 1797.72 237.578C1797.72 240.068 1797.12 242.031 1795.91 243.469C1794.71 244.896 1793.06 245.609 1790.97 245.609C1789.93 245.609 1789 245.401 1788.19 244.984C1787.39 244.568 1786.68 243.932 1786.08 243.078V245H1782.69V220.781H1786.08ZM1816.06 238.094H1804.22C1804.3 239.479 1804.71 240.562 1805.45 241.344C1806.19 242.115 1807.17 242.5 1808.4 242.5C1809.5 242.5 1810.41 242.271 1811.14 241.812C1811.87 241.354 1812.5 240.615 1813.04 239.594L1815.9 241.188C1815.07 242.677 1814.04 243.786 1812.81 244.516C1811.58 245.245 1810.14 245.609 1808.48 245.609C1806.11 245.609 1804.22 244.885 1802.81 243.438C1801.4 241.99 1800.7 240.057 1800.7 237.641C1800.7 235.318 1801.42 233.411 1802.87 231.922C1804.33 230.422 1806.2 229.672 1808.48 229.672C1810.87 229.672 1812.73 230.354 1814.06 231.719C1815.39 233.083 1816.06 234.995 1816.06 237.453V238.094ZM1812.54 235.812C1812.41 234.75 1812 233.943 1811.32 233.391C1810.65 232.828 1809.72 232.547 1808.54 232.547C1807.43 232.547 1806.53 232.818 1805.86 233.359C1805.18 233.901 1804.71 234.719 1804.43 235.812H1812.54ZM1823.48 232.547C1823.84 231.568 1824.32 230.844 1824.91 230.375C1825.52 229.906 1826.26 229.672 1827.15 229.672C1827.63 229.672 1828.1 229.729 1828.55 229.844C1829.02 229.958 1829.48 230.125 1829.93 230.344L1828.71 233.219C1828.42 233.01 1828.1 232.859 1827.76 232.766C1827.42 232.661 1827.05 232.609 1826.63 232.609C1825.51 232.609 1824.7 233.062 1824.21 233.969C1823.72 234.865 1823.48 236.375 1823.48 238.5V245H1820.09V230.156H1823.48V232.547Z" fill="#EB9928"/>
<path d="M677.217 18.0781C676.228 17.1927 675.212 16.5469 674.171 16.1406C673.129 15.724 672.014 15.5156 670.827 15.5156C668.389 15.5156 666.447 16.2448 664.999 17.7031C663.551 19.1615 662.827 21.1198 662.827 23.5781C662.827 25.9844 663.499 27.8958 664.842 29.3125C666.186 30.7188 668.02 31.4219 670.342 31.4219C671.665 31.4219 672.895 31.2031 674.03 30.7656C675.165 30.3177 676.217 29.651 677.186 28.7656L677.155 33.7812C676.113 34.3958 675.02 34.8542 673.874 35.1562C672.738 35.4583 671.54 35.6094 670.28 35.6094C666.634 35.6094 663.639 34.4792 661.296 32.2188C658.962 29.9479 657.796 27.0677 657.796 23.5781C657.796 20.099 658.967 17.2292 661.311 14.9688C663.655 12.7083 666.676 11.5781 670.374 11.5781C671.613 11.5781 672.811 11.7083 673.967 11.9688C675.124 12.2292 676.264 12.6302 677.389 13.1719L677.217 18.0781ZM696.647 27.3594C696.647 26.1094 696.283 25.1146 695.554 24.375C694.825 23.625 693.845 23.25 692.616 23.25C691.387 23.25 690.413 23.6198 689.694 24.3594C688.976 25.099 688.616 26.099 688.616 27.3594C688.616 28.6094 688.976 29.6094 689.694 30.3594C690.413 31.1094 691.387 31.4844 692.616 31.4844C693.835 31.4844 694.809 31.1094 695.538 30.3594C696.278 29.6094 696.647 28.6094 696.647 27.3594ZM701.179 27.3906C701.179 29.7448 700.371 31.7031 698.757 33.2656C697.153 34.8281 695.116 35.6094 692.647 35.6094C690.158 35.6094 688.106 34.8281 686.491 33.2656C684.877 31.7031 684.069 29.7448 684.069 27.3906C684.069 25.0469 684.882 23.0885 686.507 21.5156C688.132 19.9427 690.179 19.1562 692.647 19.1562C695.127 19.1562 697.168 19.9323 698.772 21.4844C700.377 23.0365 701.179 25.0052 701.179 27.3906ZM719.531 27.3125C719.531 25.9375 719.182 24.849 718.484 24.0469C717.796 23.2448 716.864 22.8438 715.687 22.8438C714.479 22.8438 713.525 23.2448 712.827 24.0469C712.14 24.8385 711.796 25.9271 711.796 27.3125C711.796 28.6979 712.135 29.776 712.812 30.5469C713.499 31.3177 714.447 31.7031 715.656 31.7031C716.885 31.7031 717.838 31.3177 718.515 30.5469C719.192 29.776 719.531 28.6979 719.531 27.3125ZM723.593 35H719.281L719.343 32.7969C718.739 33.7656 718.01 34.4792 717.156 34.9375C716.312 35.3854 715.281 35.6094 714.062 35.6094C712.031 35.6094 710.39 34.8542 709.14 33.3438C707.9 31.8333 707.281 29.8385 707.281 27.3594C707.281 24.776 707.89 22.7656 709.109 21.3281C710.338 19.8802 712.041 19.1562 714.218 19.1562C715.354 19.1562 716.348 19.4115 717.202 19.9219C718.067 20.4323 718.791 21.1927 719.374 22.2031V19.6719H723.593V35ZM742.773 34.5469C742.169 34.9115 741.534 35.1771 740.867 35.3438C740.2 35.5208 739.471 35.6094 738.679 35.6094C736.263 35.6094 734.294 34.8438 732.773 33.3125C731.252 31.7708 730.492 29.7708 730.492 27.3125C730.492 24.9062 731.258 22.9479 732.789 21.4375C734.32 19.9167 736.304 19.1562 738.742 19.1562C739.554 19.1562 740.284 19.2344 740.929 19.3906C741.575 19.5469 742.19 19.7917 742.773 20.125L742.742 24.5938C742.273 24.1146 741.731 23.7448 741.117 23.4844C740.502 23.224 739.851 23.0938 739.164 23.0938C737.914 23.0938 736.914 23.4792 736.164 24.25C735.414 25.0104 735.039 26.0208 735.039 27.2812C735.039 28.5729 735.419 29.6042 736.179 30.375C736.95 31.1354 737.987 31.5156 739.289 31.5156C740.008 31.5156 740.643 31.3854 741.195 31.125C741.758 30.8646 742.273 30.4583 742.742 29.9062L742.773 34.5469ZM749.812 35V10.7812H754.172V19.3906C754.172 19.8698 754.156 20.349 754.125 20.8281C754.094 21.2969 754.047 21.7552 753.984 22.2031C754.901 21.1302 755.818 20.3542 756.734 19.875C757.661 19.3958 758.693 19.1562 759.828 19.1562C761.016 19.1562 762.016 19.3594 762.828 19.7656C763.651 20.1719 764.286 20.7812 764.734 21.5938C764.964 22.0208 765.125 22.5052 765.219 23.0469C765.323 23.5781 765.375 24.4167 765.375 25.5625V26.0469V35H760.922V27.4219C760.922 25.5365 760.703 24.2917 760.266 23.6875C759.828 23.0833 759.078 22.7812 758.016 22.7812C757.401 22.7812 756.833 22.9115 756.312 23.1719C755.802 23.4219 755.375 23.7812 755.031 24.25C754.76 24.6146 754.562 25.0312 754.438 25.5C754.323 25.9688 754.266 26.6823 754.266 27.6406V28.25V35H749.812ZM773.055 13.375C773.055 12.6667 773.31 12.0573 773.821 11.5469C774.331 11.0365 774.94 10.7812 775.649 10.7812C776.367 10.7812 776.982 11.0365 777.492 11.5469C778.013 12.0469 778.274 12.6562 778.274 13.375C778.274 14.0938 778.013 14.7083 777.492 15.2188C776.982 15.7292 776.367 15.9844 775.649 15.9844C774.94 15.9844 774.331 15.724 773.821 15.2031C773.31 14.6823 773.055 14.0729 773.055 13.375ZM773.446 35V19.6719H777.883V35H773.446ZM786.079 35V19.6719H790.438V22.0781C791.24 21.0781 792.1 20.3438 793.016 19.875C793.943 19.3958 794.969 19.1562 796.094 19.1562C797.282 19.1562 798.277 19.3594 799.079 19.7656C799.891 20.1615 800.532 20.7708 801.001 21.5938C801.23 22.0208 801.391 22.5052 801.485 23.0469C801.589 23.5781 801.641 24.4167 801.641 25.5625V26.0469V35H797.188V27.4219C797.188 25.5365 796.969 24.2917 796.532 23.6875C796.094 23.0833 795.344 22.7812 794.282 22.7812C793.667 22.7812 793.1 22.9115 792.579 23.1719C792.068 23.4219 791.641 23.7812 791.298 24.25C791.027 24.6146 790.829 25.0312 790.704 25.5C790.589 25.9688 790.532 26.6823 790.532 27.6406V28.25V35H786.079ZM824.868 34.75C824.868 36.3646 824.769 37.5 824.571 38.1562C824.384 38.8125 824.056 39.3802 823.587 39.8594C822.92 40.5781 822.066 41.1094 821.024 41.4531C819.983 41.7969 818.717 41.9688 817.227 41.9688C814.738 41.9688 812.847 41.5729 811.556 40.7812C810.264 39.9896 809.561 38.7865 809.446 37.1719H814.337C814.41 37.7656 814.681 38.2031 815.149 38.4844C815.618 38.7656 816.311 38.9062 817.227 38.9062C818.436 38.9062 819.306 38.5938 819.837 37.9688C820.379 37.3438 820.649 36.3021 820.649 34.8438V32.6562C820.056 33.6042 819.337 34.3073 818.493 34.7656C817.66 35.224 816.67 35.4531 815.524 35.4531C813.42 35.4531 811.738 34.7188 810.477 33.25C809.217 31.7708 808.587 29.7812 808.587 27.2812C808.587 24.7396 809.201 22.75 810.431 21.3125C811.66 19.875 813.358 19.1562 815.524 19.1562C816.639 19.1562 817.629 19.4167 818.493 19.9375C819.368 20.4479 820.097 21.2031 820.681 22.2031V19.6719H824.868V34.75ZM820.837 27.3125C820.837 25.9583 820.493 24.8906 819.806 24.1094C819.118 23.3281 818.181 22.9375 816.993 22.9375C815.774 22.9375 814.821 23.3281 814.134 24.1094C813.446 24.8802 813.102 25.9479 813.102 27.3125C813.102 28.6771 813.441 29.7396 814.118 30.5C814.795 31.2604 815.743 31.6406 816.962 31.6406C818.181 31.6406 819.129 31.2604 819.806 30.5C820.493 29.7396 820.837 28.6771 820.837 27.3125ZM676.616 66.0938L679.335 63.0156C679.679 63.8594 680.231 64.526 680.991 65.0156C681.752 65.4948 682.606 65.7344 683.554 65.7344C684.7 65.7344 685.606 65.4635 686.272 64.9219C686.939 64.3802 687.272 63.651 687.272 62.7344C687.272 61.651 686.163 60.5729 683.944 59.5C683.226 59.1562 682.658 58.875 682.241 58.6562C680.241 57.6146 678.856 56.599 678.085 55.6094C677.314 54.6094 676.929 53.4219 676.929 52.0469C676.929 50.1615 677.674 48.6146 679.163 47.4062C680.663 46.1875 682.606 45.5781 684.991 45.5781C686.377 45.5781 687.569 45.8229 688.569 46.3125C689.58 46.7917 690.47 47.5469 691.241 48.5781L688.351 51.3438C688.007 50.6771 687.549 50.1823 686.976 49.8594C686.413 49.526 685.731 49.3594 684.929 49.3594C683.96 49.3594 683.179 49.6042 682.585 50.0938C681.991 50.5729 681.694 51.1979 681.694 51.9688C681.694 53.1771 682.871 54.2812 685.226 55.2812C685.694 55.4792 686.054 55.6354 686.304 55.75C688.241 56.6354 689.674 57.6354 690.601 58.75C691.538 59.8646 692.007 61.1354 692.007 62.5625C692.007 64.7083 691.272 66.4219 689.804 67.7031C688.345 68.974 686.382 69.6094 683.913 69.6094C682.163 69.6094 680.663 69.3073 679.413 68.7031C678.163 68.099 677.231 67.2292 676.616 66.0938ZM709.874 59.75C709.749 58.7812 709.395 58.0521 708.812 57.5625C708.239 57.0625 707.452 56.8125 706.452 56.8125C705.452 56.8125 704.65 57.0625 704.046 57.5625C703.452 58.0521 703.072 58.7812 702.906 59.75H709.874ZM714.281 62.4375H702.765C702.942 63.5417 703.343 64.3698 703.968 64.9219C704.593 65.4635 705.442 65.7344 706.515 65.7344C707.327 65.7344 708.025 65.5781 708.609 65.2656C709.202 64.9531 709.697 64.4792 710.093 63.8438L713.687 65.6406C712.854 66.9844 711.843 67.9844 710.656 68.6406C709.468 69.2865 708.057 69.6094 706.421 69.6094C703.942 69.6094 701.979 68.8698 700.531 67.3906C699.083 65.9115 698.359 63.9219 698.359 61.4219C698.359 59.0156 699.114 57.0365 700.624 55.4844C702.145 53.9323 704.088 53.1562 706.452 53.1562C708.89 53.1562 710.817 53.8854 712.234 55.3438C713.65 56.7917 714.359 58.7708 714.359 61.2812C714.359 61.4167 714.354 61.5677 714.343 61.7344C714.333 61.8906 714.312 62.125 714.281 62.4375ZM719.836 66.3125L723.257 64.5469C723.372 65.1406 723.679 65.6094 724.179 65.9531C724.679 66.2969 725.299 66.4688 726.039 66.4688C726.768 66.4688 727.341 66.3385 727.757 66.0781C728.174 65.8073 728.382 65.4375 728.382 64.9688C728.382 64.2292 727.643 63.6094 726.164 63.1094C725.705 62.9531 725.341 62.8229 725.07 62.7188C723.268 62.0417 722.018 61.3594 721.32 60.6719C720.632 59.9844 720.289 59.1354 720.289 58.125C720.289 56.625 720.877 55.4115 722.054 54.4844C723.231 53.5573 724.784 53.0938 726.711 53.0938C728.086 53.0938 729.273 53.3698 730.273 53.9219C731.284 54.474 732.018 55.2552 732.476 56.2656L729.211 57.8906C729.034 57.3177 728.726 56.8854 728.289 56.5938C727.851 56.2917 727.304 56.1406 726.648 56.1406C725.992 56.1406 725.461 56.276 725.054 56.5469C724.648 56.8177 724.445 57.1719 724.445 57.6094C724.445 58.3698 725.455 59.0781 727.476 59.7344C727.716 59.8073 727.898 59.8646 728.023 59.9062C729.7 60.4583 730.893 61.1042 731.601 61.8438C732.31 62.5729 732.664 63.5052 732.664 64.6406C732.664 66.1615 732.075 67.3698 730.898 68.2656C729.721 69.1615 728.132 69.6094 726.132 69.6094C724.549 69.6094 723.195 69.3177 722.07 68.7344C720.955 68.1406 720.211 67.3333 719.836 66.3125ZM738.109 66.3125L741.531 64.5469C741.646 65.1406 741.953 65.6094 742.453 65.9531C742.953 66.2969 743.573 66.4688 744.312 66.4688C745.042 66.4688 745.615 66.3385 746.031 66.0781C746.448 65.8073 746.656 65.4375 746.656 64.9688C746.656 64.2292 745.917 63.6094 744.438 63.1094C743.979 62.9531 743.615 62.8229 743.344 62.7188C741.542 62.0417 740.292 61.3594 739.594 60.6719C738.906 59.9844 738.562 59.1354 738.562 58.125C738.562 56.625 739.151 55.4115 740.328 54.4844C741.505 53.5573 743.057 53.0938 744.984 53.0938C746.359 53.0938 747.547 53.3698 748.547 53.9219C749.557 54.474 750.292 55.2552 750.75 56.2656L747.484 57.8906C747.307 57.3177 747 56.8854 746.562 56.5938C746.125 56.2917 745.578 56.1406 744.922 56.1406C744.266 56.1406 743.734 56.276 743.328 56.5469C742.922 56.8177 742.719 57.1719 742.719 57.6094C742.719 58.3698 743.729 59.0781 745.75 59.7344C745.99 59.8073 746.172 59.8646 746.297 59.9062C747.974 60.4583 749.167 61.1042 749.875 61.8438C750.583 62.5729 750.938 63.5052 750.938 64.6406C750.938 66.1615 750.349 67.3698 749.172 68.2656C747.995 69.1615 746.406 69.6094 744.406 69.6094C742.823 69.6094 741.469 69.3177 740.344 68.7344C739.229 68.1406 738.484 67.3333 738.109 66.3125ZM757.664 47.375C757.664 46.6667 757.92 46.0573 758.43 45.5469C758.94 45.0365 759.55 44.7812 760.258 44.7812C760.977 44.7812 761.591 45.0365 762.102 45.5469C762.623 46.0469 762.883 46.6562 762.883 47.375C762.883 48.0938 762.623 48.7083 762.102 49.2188C761.591 49.7292 760.977 49.9844 760.258 49.9844C759.55 49.9844 758.94 49.724 758.43 49.2031C757.92 48.6823 757.664 48.0729 757.664 47.375ZM758.055 69V53.6719H762.492V69H758.055ZM782.282 61.3594C782.282 60.1094 781.917 59.1146 781.188 58.375C780.459 57.625 779.48 57.25 778.251 57.25C777.021 57.25 776.048 57.6198 775.329 58.3594C774.61 59.099 774.251 60.099 774.251 61.3594C774.251 62.6094 774.61 63.6094 775.329 64.3594C776.048 65.1094 777.021 65.4844 778.251 65.4844C779.469 65.4844 780.443 65.1094 781.173 64.3594C781.912 63.6094 782.282 62.6094 782.282 61.3594ZM786.813 61.3906C786.813 63.7448 786.006 65.7031 784.391 67.2656C782.787 68.8281 780.751 69.6094 778.282 69.6094C775.792 69.6094 773.74 68.8281 772.126 67.2656C770.511 65.7031 769.704 63.7448 769.704 61.3906C769.704 59.0469 770.516 57.0885 772.141 55.5156C773.766 53.9427 775.813 53.1562 778.282 53.1562C780.761 53.1562 782.803 53.9323 784.407 55.4844C786.011 57.0365 786.813 59.0052 786.813 61.3906ZM793.868 69V53.6719H798.228V56.0781C799.03 55.0781 799.889 54.3438 800.806 53.875C801.733 53.3958 802.759 53.1562 803.884 53.1562C805.071 53.1562 806.066 53.3594 806.868 53.7656C807.681 54.1615 808.321 54.7708 808.79 55.5938C809.019 56.0208 809.181 56.5052 809.274 57.0469C809.379 57.5781 809.431 58.4167 809.431 59.5625V60.0469V69H804.978V61.4219C804.978 59.5365 804.759 58.2917 804.321 57.6875C803.884 57.0833 803.134 56.7812 802.071 56.7812C801.457 56.7812 800.889 56.9115 800.368 57.1719C799.858 57.4219 799.431 57.7812 799.087 58.25C798.816 58.6146 798.618 59.0312 798.493 59.5C798.379 59.9688 798.321 60.6823 798.321 61.6406V62.25V69H793.868Z" fill="url(#paint0_radial_1365_2)"/>
<path d="M316.421 23.6094C316.421 25.2448 316.114 26.7917 315.499 28.25C314.895 29.7083 314.02 30.9896 312.874 32.0938C311.687 33.2292 310.348 34.099 308.859 34.7031C307.369 35.3073 305.827 35.6094 304.234 35.6094C302.838 35.6094 301.468 35.375 300.124 34.9062C298.791 34.4271 297.567 33.7448 296.452 32.8594C295.015 31.7135 293.911 30.3438 293.14 28.75C292.38 27.1562 291.999 25.4427 291.999 23.6094C291.999 21.9635 292.301 20.4219 292.906 18.9844C293.51 17.5365 294.395 16.25 295.562 15.125C296.708 14.0104 298.036 13.1458 299.546 12.5312C301.067 11.9167 302.63 11.6094 304.234 11.6094C305.827 11.6094 307.374 11.9167 308.874 12.5312C310.385 13.1458 311.718 14.0104 312.874 15.125C314.031 16.25 314.911 17.5365 315.515 18.9844C316.119 20.4323 316.421 21.974 316.421 23.6094ZM304.234 31.25C306.307 31.25 308.015 30.526 309.359 29.0781C310.713 27.6198 311.39 25.7969 311.39 23.6094C311.39 21.4427 310.708 19.6198 309.343 18.1406C307.979 16.6615 306.275 15.9219 304.234 15.9219C302.161 15.9219 300.442 16.6615 299.077 18.1406C297.713 19.6094 297.031 21.4323 297.031 23.6094C297.031 25.8177 297.702 27.6458 299.046 29.0938C300.39 30.5312 302.119 31.25 304.234 31.25ZM327.914 27.3125C327.914 28.6979 328.252 29.776 328.929 30.5469C329.617 31.3177 330.57 31.7031 331.789 31.7031C333.007 31.7031 333.955 31.3177 334.632 30.5469C335.32 29.776 335.664 28.6979 335.664 27.3125C335.664 25.9271 335.315 24.8385 334.617 24.0469C333.929 23.2448 332.976 22.8438 331.757 22.8438C330.58 22.8438 329.643 23.2448 328.945 24.0469C328.257 24.849 327.914 25.9375 327.914 27.3125ZM323.851 41.9688V19.6719H328.117V22.2031C328.7 21.1823 329.414 20.4219 330.257 19.9219C331.112 19.4115 332.101 19.1562 333.226 19.1562C335.403 19.1562 337.106 19.8802 338.336 21.3281C339.565 22.7656 340.179 24.776 340.179 27.3594C340.179 29.849 339.56 31.849 338.32 33.3594C337.08 34.8594 335.45 35.6094 333.429 35.6094C332.211 35.6094 331.174 35.3854 330.32 34.9375C329.476 34.4792 328.752 33.7656 328.148 32.7969C328.2 33.1823 328.237 33.6042 328.257 34.0625C328.289 34.5104 328.304 35.026 328.304 35.6094V41.9688H323.851ZM357.812 25.75C357.688 24.7812 357.333 24.0521 356.75 23.5625C356.177 23.0625 355.391 22.8125 354.391 22.8125C353.391 22.8125 352.589 23.0625 351.984 23.5625C351.391 24.0521 351.01 24.7812 350.844 25.75H357.812ZM362.219 28.4375H350.703C350.88 29.5417 351.281 30.3698 351.906 30.9219C352.531 31.4635 353.38 31.7344 354.453 31.7344C355.266 31.7344 355.964 31.5781 356.547 31.2656C357.141 30.9531 357.635 30.4792 358.031 29.8438L361.625 31.6406C360.792 32.9844 359.781 33.9844 358.594 34.6406C357.406 35.2865 355.995 35.6094 354.359 35.6094C351.88 35.6094 349.917 34.8698 348.469 33.3906C347.021 31.9115 346.297 29.9219 346.297 27.4219C346.297 25.0156 347.052 23.0365 348.562 21.4844C350.083 19.9323 352.026 19.1562 354.391 19.1562C356.828 19.1562 358.755 19.8854 360.172 21.3438C361.589 22.7917 362.297 24.7708 362.297 27.2812C362.297 27.4167 362.292 27.5677 362.281 27.7344C362.271 27.8906 362.25 28.125 362.219 28.4375ZM369.274 35V19.6719H373.633V22.0781C374.435 21.0781 375.295 20.3438 376.211 19.875C377.138 19.3958 378.164 19.1562 379.289 19.1562C380.477 19.1562 381.472 19.3594 382.274 19.7656C383.086 20.1615 383.727 20.7708 384.196 21.5938C384.425 22.0208 384.586 22.5052 384.68 23.0469C384.784 23.5781 384.836 24.4167 384.836 25.5625V26.0469V35H380.383V27.4219C380.383 25.5365 380.164 24.2917 379.727 23.6875C379.289 23.0833 378.539 22.7812 377.477 22.7812C376.862 22.7812 376.295 22.9115 375.774 23.1719C375.263 23.4219 374.836 23.7812 374.492 24.25C374.222 24.6146 374.024 25.0312 373.899 25.5C373.784 25.9688 373.727 26.6823 373.727 27.6406V28.25V35H369.274ZM248.651 69H243.01L236.994 58.3125V69H232.104V46.125H239.104C241.885 46.125 243.968 46.6667 245.354 47.75C246.739 48.8229 247.432 50.4427 247.432 52.6094C247.432 54.1823 246.958 55.526 246.01 56.6406C245.062 57.7552 243.838 58.4062 242.338 58.5938L248.651 69ZM236.994 55.875H237.729C239.708 55.875 241.015 55.6615 241.651 55.2344C242.286 54.7969 242.604 54.0417 242.604 52.9688C242.604 51.8438 242.26 51.0469 241.573 50.5781C240.895 50.099 239.614 49.8594 237.729 49.8594H236.994V55.875ZM264.799 59.75C264.674 58.7812 264.32 58.0521 263.737 57.5625C263.164 57.0625 262.378 56.8125 261.378 56.8125C260.378 56.8125 259.575 57.0625 258.971 57.5625C258.378 58.0521 257.997 58.7812 257.831 59.75H264.799ZM269.206 62.4375H257.69C257.867 63.5417 258.268 64.3698 258.893 64.9219C259.518 65.4635 260.367 65.7344 261.44 65.7344C262.253 65.7344 262.95 65.5781 263.534 65.2656C264.128 64.9531 264.622 64.4792 265.018 63.8438L268.612 65.6406C267.779 66.9844 266.768 67.9844 265.581 68.6406C264.393 69.2865 262.982 69.6094 261.346 69.6094C258.867 69.6094 256.904 68.8698 255.456 67.3906C254.008 65.9115 253.284 63.9219 253.284 61.4219C253.284 59.0156 254.039 57.0365 255.549 55.4844C257.07 53.9323 259.013 53.1562 261.378 53.1562C263.815 53.1562 265.742 53.8854 267.159 55.3438C268.575 56.7917 269.284 58.7708 269.284 61.2812C269.284 61.4167 269.279 61.5677 269.268 61.7344C269.258 61.8906 269.237 62.125 269.206 62.4375ZM291.589 68.75C291.589 70.3646 291.49 71.5 291.292 72.1562C291.104 72.8125 290.776 73.3802 290.308 73.8594C289.641 74.5781 288.787 75.1094 287.745 75.4531C286.703 75.7969 285.438 75.9688 283.948 75.9688C281.459 75.9688 279.568 75.5729 278.276 74.7812C276.985 73.9896 276.281 72.7865 276.167 71.1719H281.058C281.13 71.7656 281.401 72.2031 281.87 72.4844C282.339 72.7656 283.031 72.9062 283.948 72.9062C285.156 72.9062 286.026 72.5938 286.558 71.9688C287.099 71.3438 287.37 70.3021 287.37 68.8438V66.6562C286.776 67.6042 286.058 68.3073 285.214 68.7656C284.38 69.224 283.391 69.4531 282.245 69.4531C280.141 69.4531 278.459 68.7188 277.198 67.25C275.938 65.7708 275.308 63.7812 275.308 61.2812C275.308 58.7396 275.922 56.75 277.151 55.3125C278.38 53.875 280.078 53.1562 282.245 53.1562C283.36 53.1562 284.349 53.4167 285.214 53.9375C286.089 54.4479 286.818 55.2031 287.401 56.2031V53.6719H291.589V68.75ZM287.558 61.3125C287.558 59.9583 287.214 58.8906 286.526 58.1094C285.839 57.3281 284.901 56.9375 283.714 56.9375C282.495 56.9375 281.542 57.3281 280.854 58.1094C280.167 58.8802 279.823 59.9479 279.823 61.3125C279.823 62.6771 280.162 63.7396 280.839 64.5C281.516 65.2604 282.464 65.6406 283.683 65.6406C284.901 65.6406 285.849 65.2604 286.526 64.5C287.214 63.7396 287.558 62.6771 287.558 61.3125ZM299.441 47.375C299.441 46.6667 299.696 46.0573 300.206 45.5469C300.717 45.0365 301.326 44.7812 302.034 44.7812C302.753 44.7812 303.368 45.0365 303.878 45.5469C304.399 46.0469 304.659 46.6562 304.659 47.375C304.659 48.0938 304.399 48.7083 303.878 49.2188C303.368 49.7292 302.753 49.9844 302.034 49.9844C301.326 49.9844 300.717 49.724 300.206 49.2031C299.696 48.6823 299.441 48.0729 299.441 47.375ZM299.831 69V53.6719H304.269V69H299.831ZM310.964 66.3125L314.386 64.5469C314.501 65.1406 314.808 65.6094 315.308 65.9531C315.808 66.2969 316.428 66.4688 317.168 66.4688C317.897 66.4688 318.47 66.3385 318.886 66.0781C319.303 65.8073 319.511 65.4375 319.511 64.9688C319.511 64.2292 318.772 63.6094 317.293 63.1094C316.834 62.9531 316.47 62.8229 316.199 62.7188C314.397 62.0417 313.147 61.3594 312.449 60.6719C311.761 59.9844 311.418 59.1354 311.418 58.125C311.418 56.625 312.006 55.4115 313.183 54.4844C314.36 53.5573 315.912 53.0938 317.839 53.0938C319.214 53.0938 320.402 53.3698 321.402 53.9219C322.412 54.474 323.147 55.2552 323.605 56.2656L320.339 57.8906C320.162 57.3177 319.855 56.8854 319.418 56.5938C318.98 56.2917 318.433 56.1406 317.777 56.1406C317.121 56.1406 316.589 56.276 316.183 56.5469C315.777 56.8177 315.574 57.1719 315.574 57.6094C315.574 58.3698 316.584 59.0781 318.605 59.7344C318.845 59.8073 319.027 59.8646 319.152 59.9062C320.829 60.4583 322.022 61.1042 322.73 61.8438C323.438 62.5729 323.793 63.5052 323.793 64.6406C323.793 66.1615 323.204 67.3698 322.027 68.2656C320.85 69.1615 319.261 69.6094 317.261 69.6094C315.678 69.6094 314.324 69.3177 313.199 68.7344C312.084 68.1406 311.339 67.3333 310.964 66.3125ZM331.285 69V57.1562H329.144V53.6719H331.285V48.5781H335.738V53.6719H337.879V57.1562H335.738V69H331.285ZM348.621 57.6094C349.069 56.1198 349.71 55.0052 350.543 54.2656C351.387 53.526 352.429 53.1562 353.668 53.1562C353.949 53.1562 354.413 53.2083 355.059 53.3125C355.184 53.3333 355.277 53.349 355.34 53.3594L354.668 58.1406C354.335 58.0052 353.996 57.9062 353.652 57.8438C353.319 57.7708 352.965 57.7344 352.59 57.7344C351.236 57.7344 350.262 58.0833 349.668 58.7812C349.074 59.4688 348.777 60.625 348.777 62.25V69H344.324V53.6719H348.715L348.621 57.6094ZM372.332 61.3125C372.332 59.9375 371.984 58.849 371.286 58.0469C370.598 57.2448 369.666 56.8438 368.489 56.8438C367.28 56.8438 366.327 57.2448 365.629 58.0469C364.942 58.8385 364.598 59.9271 364.598 61.3125C364.598 62.6979 364.937 63.776 365.614 64.5469C366.301 65.3177 367.249 65.7031 368.457 65.7031C369.687 65.7031 370.64 65.3177 371.317 64.5469C371.994 63.776 372.332 62.6979 372.332 61.3125ZM376.395 69H372.082L372.145 66.7969C371.541 67.7656 370.812 68.4792 369.957 68.9375C369.114 69.3854 368.082 69.6094 366.864 69.6094C364.832 69.6094 363.192 68.8542 361.942 67.3438C360.702 65.8333 360.082 63.8385 360.082 61.3594C360.082 58.776 360.692 56.7656 361.911 55.3281C363.14 53.8802 364.843 53.1562 367.02 53.1562C368.155 53.1562 369.15 53.4115 370.004 53.9219C370.869 54.4323 371.593 55.1927 372.176 56.2031V53.6719H376.395V69ZM384.825 69V57.1562H382.684V53.6719H384.825V48.5781H389.278V53.6719H391.419V57.1562H389.278V69H384.825ZM397.646 47.375C397.646 46.6667 397.901 46.0573 398.411 45.5469C398.922 45.0365 399.531 44.7812 400.239 44.7812C400.958 44.7812 401.573 45.0365 402.083 45.5469C402.604 46.0469 402.864 46.6562 402.864 47.375C402.864 48.0938 402.604 48.7083 402.083 49.2188C401.573 49.7292 400.958 49.9844 400.239 49.9844C399.531 49.9844 398.922 49.724 398.411 49.2031C397.901 48.6823 397.646 48.0729 397.646 47.375ZM398.036 69V53.6719H402.474V69H398.036ZM422.263 61.3594C422.263 60.1094 421.899 59.1146 421.169 58.375C420.44 57.625 419.461 57.25 418.232 57.25C417.003 57.25 416.029 57.6198 415.31 58.3594C414.591 59.099 414.232 60.099 414.232 61.3594C414.232 62.6094 414.591 63.6094 415.31 64.3594C416.029 65.1094 417.003 65.4844 418.232 65.4844C419.451 65.4844 420.425 65.1094 421.154 64.3594C421.893 63.6094 422.263 62.6094 422.263 61.3594ZM426.794 61.3906C426.794 63.7448 425.987 65.7031 424.372 67.2656C422.768 68.8281 420.732 69.6094 418.263 69.6094C415.774 69.6094 413.721 68.8281 412.107 67.2656C410.492 65.7031 409.685 63.7448 409.685 61.3906C409.685 59.0469 410.497 57.0885 412.122 55.5156C413.747 53.9427 415.794 53.1562 418.263 53.1562C420.742 53.1562 422.784 53.9323 424.388 55.4844C425.992 57.0365 426.794 59.0052 426.794 61.3906ZM433.849 69V53.6719H438.209V56.0781C439.011 55.0781 439.87 54.3438 440.787 53.875C441.714 53.3958 442.74 53.1562 443.865 53.1562C445.052 53.1562 446.047 53.3594 446.849 53.7656C447.662 54.1615 448.302 54.7708 448.771 55.5938C449 56.0208 449.162 56.5052 449.256 57.0469C449.36 57.5781 449.412 58.4167 449.412 59.5625V60.0469V69H444.959V61.4219C444.959 59.5365 444.74 58.2917 444.302 57.6875C443.865 57.0833 443.115 56.7812 442.052 56.7812C441.438 56.7812 440.87 56.9115 440.349 57.1719C439.839 57.4219 439.412 57.7812 439.068 58.25C438.797 58.6146 438.599 59.0312 438.474 59.5C438.36 59.9688 438.302 60.6823 438.302 61.6406V62.25V69H433.849Z" fill="url(#paint1_radial_1365_2)"/>
<path d="M1463.63 35V12.125H1477.1V16.25H1468.52V20.9531H1477.1V25.1094H1468.52V35H1463.63ZM1483.95 13.375C1483.95 12.6667 1484.2 12.0573 1484.71 11.5469C1485.22 11.0365 1485.83 10.7812 1486.54 10.7812C1487.26 10.7812 1487.88 11.0365 1488.39 11.5469C1488.91 12.0469 1489.17 12.6562 1489.17 13.375C1489.17 14.0938 1488.91 14.7083 1488.39 15.2188C1487.88 15.7292 1487.26 15.9844 1486.54 15.9844C1485.83 15.9844 1485.22 15.724 1484.71 15.2031C1484.2 14.6823 1483.95 14.0729 1483.95 13.375ZM1484.34 35V19.6719H1488.78V35H1484.34ZM1496.97 35V19.6719H1501.33V22.0781C1502.13 21.0781 1502.99 20.3438 1503.91 19.875C1504.84 19.3958 1505.86 19.1562 1506.99 19.1562C1508.18 19.1562 1509.17 19.3594 1509.97 19.7656C1510.78 20.1615 1511.43 20.7708 1511.89 21.5938C1512.12 22.0208 1512.28 22.5052 1512.38 23.0469C1512.48 23.5781 1512.53 24.4167 1512.53 25.5625V26.0469V35H1508.08V27.4219C1508.08 25.5365 1507.86 24.2917 1507.43 23.6875C1506.99 23.0833 1506.24 22.7812 1505.18 22.7812C1504.56 22.7812 1503.99 22.9115 1503.47 23.1719C1502.96 23.4219 1502.53 23.7812 1502.19 24.25C1501.92 24.6146 1501.72 25.0312 1501.6 25.5C1501.48 25.9688 1501.43 26.6823 1501.43 27.6406V28.25V35H1496.97ZM1531.73 27.3125C1531.73 25.9375 1531.38 24.849 1530.68 24.0469C1530 23.2448 1529.06 22.8438 1527.89 22.8438C1526.68 22.8438 1525.72 23.2448 1525.03 24.0469C1524.34 24.8385 1524 25.9271 1524 27.3125C1524 28.6979 1524.33 29.776 1525.01 30.5469C1525.7 31.3177 1526.65 31.7031 1527.86 31.7031C1529.08 31.7031 1530.04 31.3177 1530.71 30.5469C1531.39 29.776 1531.73 28.6979 1531.73 27.3125ZM1535.79 35H1531.48L1531.54 32.7969C1530.94 33.7656 1530.21 34.4792 1529.36 34.9375C1528.51 35.3854 1527.48 35.6094 1526.26 35.6094C1524.23 35.6094 1522.59 34.8542 1521.34 33.3438C1520.1 31.8333 1519.48 29.8385 1519.48 27.3594C1519.48 24.776 1520.09 22.7656 1521.31 21.3281C1522.54 19.8802 1524.24 19.1562 1526.42 19.1562C1527.55 19.1562 1528.55 19.4115 1529.4 19.9219C1530.27 20.4323 1530.99 21.1927 1531.57 22.2031V19.6719H1535.79V35ZM1543.85 35V10.7812H1548.29V35H1543.85ZM1581.3 27.3125C1581.3 25.9375 1580.95 24.849 1580.25 24.0469C1579.57 23.2448 1578.63 22.8438 1577.46 22.8438C1576.25 22.8438 1575.3 23.2448 1574.6 24.0469C1573.91 24.8385 1573.57 25.9271 1573.57 27.3125C1573.57 28.6979 1573.91 29.776 1574.58 30.5469C1575.27 31.3177 1576.22 31.7031 1577.43 31.7031C1578.66 31.7031 1579.61 31.3177 1580.29 30.5469C1580.96 29.776 1581.3 28.6979 1581.3 27.3125ZM1585.36 35H1581.05L1581.11 32.7969C1580.51 33.7656 1579.78 34.4792 1578.93 34.9375C1578.08 35.3854 1577.05 35.6094 1575.83 35.6094C1573.8 35.6094 1572.16 34.8542 1570.91 33.3438C1569.67 31.8333 1569.05 29.8385 1569.05 27.3594C1569.05 24.776 1569.66 22.7656 1570.88 21.3281C1572.11 19.8802 1573.81 19.1562 1575.99 19.1562C1577.12 19.1562 1578.12 19.4115 1578.97 19.9219C1579.84 20.4323 1580.56 21.1927 1581.15 22.2031V19.6719H1585.36V35ZM1593.25 35V19.6719H1597.61V22.0781C1598.41 21.0781 1599.27 20.3438 1600.18 19.875C1601.11 19.3958 1602.14 19.1562 1603.26 19.1562C1604.45 19.1562 1605.44 19.3594 1606.25 19.7656C1607.06 20.1615 1607.7 20.7708 1608.17 21.5938C1608.4 22.0208 1608.56 22.5052 1608.65 23.0469C1608.76 23.5781 1608.81 24.4167 1608.81 25.5625V26.0469V35H1604.36V27.4219C1604.36 25.5365 1604.14 24.2917 1603.7 23.6875C1603.26 23.0833 1602.51 22.7812 1601.45 22.7812C1600.84 22.7812 1600.27 22.9115 1599.75 23.1719C1599.24 23.4219 1598.81 23.7812 1598.47 24.25C1598.19 24.6146 1598 25.0312 1597.87 25.5C1597.76 25.9688 1597.7 26.6823 1597.7 27.6406V28.25V35H1593.25ZM1628.01 27.3125C1628.01 25.9375 1627.66 24.849 1626.96 24.0469C1626.27 23.2448 1625.34 22.8438 1624.16 22.8438C1622.95 22.8438 1622 23.2396 1621.3 24.0312C1620.61 24.8125 1620.27 25.8958 1620.27 27.2812C1620.27 28.6667 1620.61 29.75 1621.29 30.5312C1621.97 31.3125 1622.92 31.7031 1624.13 31.7031C1625.36 31.7031 1626.31 31.3177 1626.99 30.5469C1627.67 29.776 1628.01 28.6979 1628.01 27.3125ZM1632.07 35H1627.76L1627.82 32.7969C1627.21 33.7656 1626.48 34.4792 1625.63 34.9375C1624.79 35.3854 1623.76 35.6094 1622.54 35.6094C1620.51 35.6094 1618.86 34.8542 1617.61 33.3438C1616.37 31.8333 1615.76 29.8385 1615.76 27.3594C1615.76 24.7656 1616.36 22.7448 1617.58 21.2969C1618.81 19.849 1620.52 19.125 1622.69 19.125C1623.81 19.125 1624.79 19.3802 1625.63 19.8906C1626.47 20.401 1627.27 21.2083 1628.01 22.3125C1627.95 21.9375 1627.91 21.526 1627.88 21.0781C1627.86 20.6198 1627.85 20.099 1627.85 19.5156V10.7812H1632.07V35ZM1427.87 60.2969L1425.31 52.9062C1425.23 52.6875 1425.14 52.3125 1425.03 51.7812C1424.91 51.25 1424.79 50.599 1424.67 49.8281C1424.53 50.5677 1424.4 51.2344 1424.28 51.8281C1424.15 52.4115 1424.06 52.8021 1423.99 53L1421.53 60.2969H1427.87ZM1413.31 69L1422.01 46.125H1427.6L1436.43 69H1430.87L1429.01 64.1406H1420.15L1418.56 69H1413.31ZM1442.13 69V53.6719H1446.49V56.0781C1447.29 55.0781 1448.15 54.3438 1449.06 53.875C1449.99 53.3958 1451.02 53.1562 1452.14 53.1562C1453.33 53.1562 1454.33 53.3594 1455.13 53.7656C1455.94 54.1615 1456.58 54.7708 1457.05 55.5938C1457.28 56.0208 1457.44 56.5052 1457.53 57.0469C1457.64 57.5781 1457.69 58.4167 1457.69 59.5625V60.0469V69H1453.24V61.4219C1453.24 59.5365 1453.02 58.2917 1452.58 57.6875C1452.14 57.0833 1451.39 56.7812 1450.33 56.7812C1449.72 56.7812 1449.15 56.9115 1448.63 57.1719C1448.12 57.4219 1447.69 57.7812 1447.35 58.25C1447.08 58.6146 1446.88 59.0312 1446.75 59.5C1446.64 59.9688 1446.58 60.6823 1446.58 61.6406V62.25V69H1442.13ZM1465.59 69V53.6719H1469.95V56.0781C1470.75 55.0781 1471.61 54.3438 1472.53 53.875C1473.45 53.3958 1474.48 53.1562 1475.6 53.1562C1476.79 53.1562 1477.79 53.3594 1478.59 53.7656C1479.4 54.1615 1480.04 54.7708 1480.51 55.5938C1480.74 56.0208 1480.9 56.5052 1480.99 57.0469C1481.1 57.5781 1481.15 58.4167 1481.15 59.5625V60.0469V69H1476.7V61.4219C1476.7 59.5365 1476.48 58.2917 1476.04 57.6875C1475.6 57.0833 1474.85 56.7812 1473.79 56.7812C1473.18 56.7812 1472.61 56.9115 1472.09 57.1719C1471.58 57.4219 1471.15 57.7812 1470.81 58.25C1470.54 58.6146 1470.34 59.0312 1470.21 59.5C1470.1 59.9688 1470.04 60.6823 1470.04 61.6406V62.25V69H1465.59ZM1500.64 61.3594C1500.64 60.1094 1500.28 59.1146 1499.55 58.375C1498.82 57.625 1497.84 57.25 1496.61 57.25C1495.38 57.25 1494.41 57.6198 1493.69 58.3594C1492.97 59.099 1492.61 60.099 1492.61 61.3594C1492.61 62.6094 1492.97 63.6094 1493.69 64.3594C1494.41 65.1094 1495.38 65.4844 1496.61 65.4844C1497.83 65.4844 1498.81 65.1094 1499.53 64.3594C1500.27 63.6094 1500.64 62.6094 1500.64 61.3594ZM1505.17 61.3906C1505.17 63.7448 1504.37 65.7031 1502.75 67.2656C1501.15 68.8281 1499.11 69.6094 1496.64 69.6094C1494.15 69.6094 1492.1 68.8281 1490.49 67.2656C1488.87 65.7031 1488.07 63.7448 1488.07 61.3906C1488.07 59.0469 1488.88 57.0885 1490.5 55.5156C1492.13 53.9427 1494.17 53.1562 1496.64 53.1562C1499.12 53.1562 1501.16 53.9323 1502.77 55.4844C1504.37 57.0365 1505.17 59.0052 1505.17 61.3906ZM1516.59 53.6719V61.7344C1516.59 63.0885 1516.85 64.0573 1517.37 64.6406C1517.9 65.224 1518.76 65.5156 1519.95 65.5156C1521.13 65.5156 1521.98 65.224 1522.51 64.6406C1523.04 64.0469 1523.31 63.0781 1523.31 61.7344V53.6719H1527.76V61.7344C1527.76 64.4323 1527.13 66.4219 1525.87 67.7031C1524.61 68.974 1522.66 69.6094 1520.01 69.6094C1517.31 69.6094 1515.33 68.974 1514.06 67.7031C1512.8 66.4323 1512.17 64.4427 1512.17 61.7344V53.6719H1516.59ZM1535.72 69V53.6719H1540.08V56.0781C1540.88 55.0781 1541.74 54.3438 1542.66 53.875C1543.59 53.3958 1544.61 53.1562 1545.74 53.1562C1546.93 53.1562 1547.92 53.3594 1548.72 53.7656C1549.54 54.1615 1550.18 54.7708 1550.64 55.5938C1550.87 56.0208 1551.04 56.5052 1551.13 57.0469C1551.23 57.5781 1551.29 58.4167 1551.29 59.5625V60.0469V69H1546.83V61.4219C1546.83 59.5365 1546.61 58.2917 1546.18 57.6875C1545.74 57.0833 1544.99 56.7812 1543.93 56.7812C1543.31 56.7812 1542.74 56.9115 1542.22 57.1719C1541.71 57.4219 1541.29 57.7812 1540.94 58.25C1540.67 58.6146 1540.47 59.0312 1540.35 59.5C1540.23 59.9688 1540.18 60.6823 1540.18 61.6406V62.25V69H1535.72ZM1570.48 68.5469C1569.88 68.9115 1569.24 69.1771 1568.57 69.3438C1567.91 69.5208 1567.18 69.6094 1566.39 69.6094C1563.97 69.6094 1562 68.8438 1560.48 67.3125C1558.96 65.7708 1558.2 63.7708 1558.2 61.3125C1558.2 58.9062 1558.96 56.9479 1560.5 55.4375C1562.03 53.9167 1564.01 53.1562 1566.45 53.1562C1567.26 53.1562 1567.99 53.2344 1568.64 53.3906C1569.28 53.5469 1569.9 53.7917 1570.48 54.125L1570.45 58.5938C1569.98 58.1146 1569.44 57.7448 1568.82 57.4844C1568.21 57.224 1567.56 57.0938 1566.87 57.0938C1565.62 57.0938 1564.62 57.4792 1563.87 58.25C1563.12 59.0104 1562.75 60.0208 1562.75 61.2812C1562.75 62.5729 1563.13 63.6042 1563.89 64.375C1564.66 65.1354 1565.69 65.5156 1567 65.5156C1567.71 65.5156 1568.35 65.3854 1568.9 65.125C1569.46 64.8646 1569.98 64.4583 1570.45 63.9062L1570.48 68.5469ZM1588.08 59.75C1587.96 58.7812 1587.6 58.0521 1587.02 57.5625C1586.45 57.0625 1585.66 56.8125 1584.66 56.8125C1583.66 56.8125 1582.86 57.0625 1582.25 57.5625C1581.66 58.0521 1581.28 58.7812 1581.11 59.75H1588.08ZM1592.49 62.4375H1580.97C1581.15 63.5417 1581.55 64.3698 1582.18 64.9219C1582.8 65.4635 1583.65 65.7344 1584.72 65.7344C1585.54 65.7344 1586.23 65.5781 1586.82 65.2656C1587.41 64.9531 1587.91 64.4792 1588.3 63.8438L1591.89 65.6406C1591.06 66.9844 1590.05 67.9844 1588.86 68.6406C1587.68 69.2865 1586.26 69.6094 1584.63 69.6094C1582.15 69.6094 1580.19 68.8698 1578.74 67.3906C1577.29 65.9115 1576.57 63.9219 1576.57 61.4219C1576.57 59.0156 1577.32 57.0365 1578.83 55.4844C1580.35 53.9323 1582.3 53.1562 1584.66 53.1562C1587.1 53.1562 1589.03 53.8854 1590.44 55.3438C1591.86 56.7917 1592.57 58.7708 1592.57 61.2812C1592.57 61.4167 1592.56 61.5677 1592.55 61.7344C1592.54 61.8906 1592.52 62.125 1592.49 62.4375ZM1603.93 69H1599.48V53.6719H1603.93V56.0781C1604.66 55.0677 1605.44 54.3281 1606.26 53.8594C1607.1 53.3906 1608.04 53.1562 1609.09 53.1562C1610.36 53.1562 1611.39 53.4167 1612.18 53.9375C1612.99 54.4583 1613.55 55.2448 1613.89 56.2969C1614.6 55.2552 1615.4 54.474 1616.29 53.9531C1617.2 53.4219 1618.19 53.1562 1619.26 53.1562C1620.35 53.1562 1621.26 53.3594 1622.01 53.7656C1622.77 54.1615 1623.36 54.7604 1623.78 55.5625C1624 56 1624.15 56.4948 1624.25 57.0469C1624.34 57.599 1624.39 58.4375 1624.39 59.5625V60.0469V69H1619.93V61.4219C1619.93 59.5573 1619.74 58.3177 1619.36 57.7031C1618.98 57.0885 1618.32 56.7812 1617.37 56.7812C1616.23 56.7812 1615.39 57.2083 1614.87 58.0625C1614.36 58.9167 1614.11 60.3125 1614.11 62.25V69H1609.65V61.4219C1609.65 59.6198 1609.48 58.401 1609.12 57.7656C1608.77 57.1302 1608.16 56.8125 1607.29 56.8125C1606.12 56.8125 1605.26 57.2448 1604.73 58.1094C1604.2 58.9635 1603.93 60.3438 1603.93 62.25V69ZM1642.88 59.75C1642.75 58.7812 1642.4 58.0521 1641.82 57.5625C1641.24 57.0625 1640.46 56.8125 1639.46 56.8125C1638.46 56.8125 1637.66 57.0625 1637.05 57.5625C1636.46 58.0521 1636.08 58.7812 1635.91 59.75H1642.88ZM1647.29 62.4375H1635.77C1635.95 63.5417 1636.35 64.3698 1636.97 64.9219C1637.6 65.4635 1638.45 65.7344 1639.52 65.7344C1640.33 65.7344 1641.03 65.5781 1641.61 65.2656C1642.21 64.9531 1642.7 64.4792 1643.1 63.8438L1646.69 65.6406C1645.86 66.9844 1644.85 67.9844 1643.66 68.6406C1642.47 69.2865 1641.06 69.6094 1639.43 69.6094C1636.95 69.6094 1634.98 68.8698 1633.54 67.3906C1632.09 65.9115 1631.36 63.9219 1631.36 61.4219C1631.36 59.0156 1632.12 57.0365 1633.63 55.4844C1635.15 53.9323 1637.09 53.1562 1639.46 53.1562C1641.9 53.1562 1643.82 53.8854 1645.24 55.3438C1646.66 56.7917 1647.36 58.7708 1647.36 61.2812C1647.36 61.4167 1647.36 61.5677 1647.35 61.7344C1647.34 61.8906 1647.32 62.125 1647.29 62.4375ZM1654.34 69V53.6719H1658.7V56.0781C1659.5 55.0781 1660.36 54.3438 1661.28 53.875C1662.21 53.3958 1663.23 53.1562 1664.36 53.1562C1665.54 53.1562 1666.54 53.3594 1667.34 53.7656C1668.15 54.1615 1668.79 54.7708 1669.26 55.5938C1669.49 56.0208 1669.65 56.5052 1669.75 57.0469C1669.85 57.5781 1669.9 58.4167 1669.9 59.5625V60.0469V69H1665.45V61.4219C1665.45 59.5365 1665.23 58.2917 1664.79 57.6875C1664.36 57.0833 1663.61 56.7812 1662.54 56.7812C1661.93 56.7812 1661.36 56.9115 1660.84 57.1719C1660.33 57.4219 1659.9 57.7812 1659.56 58.25C1659.29 58.6146 1659.09 59.0312 1658.97 59.5C1658.85 59.9688 1658.79 60.6823 1658.79 61.6406V62.25V69H1654.34ZM1678.35 69V57.1562H1676.21V53.6719H1678.35V48.5781H1682.8V53.6719H1684.94V57.1562H1682.8V69H1678.35Z" fill="url(#paint2_radial_1365_2)"/>
<path d="M744 106.667C741.054 106.667 738.667 109.054 738.667 112C738.667 114.946 741.054 117.333 744 117.333C746.946 117.333 749.333 114.946 749.333 112C749.333 109.054 746.946 106.667 744 106.667ZM743 112L743 159.51L745 159.51L745 112L743 112Z" fill="#EB9928"/>
<path d="M1550 106.667C1547.05 106.667 1544.67 109.054 1544.67 112C1544.67 114.946 1547.05 117.333 1550 117.333C1552.95 117.333 1555.33 114.946 1555.33 112C1555.33 109.054 1552.95 106.667 1550 106.667ZM1549 112L1549 159.51L1551 159.51L1551 112L1549 112Z" fill="#EB9928"/>
<defs>
<radialGradient id="paint0_radial_1365_2" cx="0" cy="0" r="1" gradientUnits="userSpaceOnUse" gradientTransform="translate(743.5 40.5) rotate(90) scale(40.5 126.114)">
<stop stop-color="#EB9928"/>
<stop offset="1" stop-color="#FFCE2E"/>
</radialGradient>
<radialGradient id="paint1_radial_1365_2" cx="0" cy="0" r="1" gradientUnits="userSpaceOnUse" gradientTransform="translate(340.5 40.5) rotate(90) scale(40.5 166.681)">
<stop stop-color="#EB9928"/>
<stop offset="1" stop-color="#FFCE2E"/>
</radialGradient>
<radialGradient id="paint2_radial_1365_2" cx="0" cy="0" r="1" gradientUnits="userSpaceOnUse" gradientTransform="translate(1549.5 40.5) rotate(90) scale(40.5 184.261)">
<stop stop-color="#EB9928"/>
<stop offset="1" stop-color="#FFCE2E"/>
</radialGradient>
</defs>
</svg>
