<svg width="1439" height="330" viewBox="0 0 1439 330" fill="none" xmlns="http://www.w3.org/2000/svg">
<line x1="160" y1="236" x2="521" y2="236" stroke="#EB9928" stroke-width="2"/>
<line x1="563" y1="236" x2="913" y2="236" stroke="#EB9928" stroke-width="2"/>
<line x1="928" y1="236" x2="1306" y2="236" stroke="#EB9928" stroke-width="2"/>
<circle cx="139" cy="234" r="21" fill="#EB9928"/>
<circle cx="542" cy="235" r="21" fill="#EB9928"/>
<circle cx="920.5" cy="235.5" r="7.5" fill="#EB9928"/>
<circle cx="1300" cy="233" r="21" fill="#EB9928"/>
<path d="M113.249 316.844C113.634 317.302 114.004 317.635 114.358 317.844C114.712 318.052 115.087 318.156 115.483 318.156C116.212 318.156 116.723 317.917 117.014 317.438C117.316 316.958 117.467 316.068 117.467 314.766V298.125H121.155V315.969C121.155 317.906 120.728 319.333 119.874 320.25C119.02 321.156 117.686 321.609 115.874 321.609C114.874 321.609 113.967 321.417 113.155 321.031C112.353 320.646 111.592 320.047 110.874 319.234L113.249 316.844ZM129.541 306.188V314.531C129.541 315.969 129.838 317 130.432 317.625C131.026 318.25 131.989 318.562 133.322 318.562C134.656 318.562 135.619 318.25 136.213 317.625C136.807 317 137.104 315.969 137.104 314.531V306.188H140.494V313.516C140.494 316.349 139.927 318.406 138.791 319.688C137.656 320.969 135.843 321.609 133.354 321.609C130.822 321.609 128.989 320.974 127.854 319.703C126.718 318.432 126.151 316.37 126.151 313.516V306.188H129.541ZM145.709 321V296.781H149.099V321H145.709ZM156.986 327.969H153.501L157.564 319.719L152.126 306.188H155.876L158.595 313.859C158.751 314.328 158.887 314.807 159.001 315.297C159.126 315.776 159.225 316.266 159.298 316.766C159.434 316.245 159.756 315.417 160.267 314.281L160.345 314.094L164.001 306.188H167.673L156.986 327.969Z" fill="#EB9928"/>
<path d="M253.884 155V137.746H249.742L251 135.176H256.851V155H253.884ZM268.482 148.861C268.482 150.055 268.815 151.017 269.48 151.746C270.146 152.475 271.007 152.84 272.064 152.84C273.258 152.84 274.197 152.484 274.881 151.773C275.564 151.062 275.906 150.092 275.906 148.861C275.906 147.613 275.569 146.637 274.894 145.936C274.22 145.225 273.286 144.869 272.092 144.869C271.025 144.869 270.155 145.238 269.48 145.977C268.815 146.715 268.482 147.676 268.482 148.861ZM270.301 142.846C270.747 142.636 271.185 142.477 271.613 142.367C272.051 142.258 272.484 142.203 272.912 142.203C274.698 142.203 276.17 142.809 277.328 144.021C278.485 145.234 279.064 146.783 279.064 148.67C279.064 150.73 278.413 152.389 277.109 153.646C275.815 154.904 274.106 155.533 271.982 155.533C269.995 155.533 268.396 154.918 267.183 153.688C265.98 152.457 265.379 150.839 265.379 148.834C265.379 146.692 266.837 143.57 269.754 139.469L270.109 138.99L273.609 134.027L276.097 135.285L270.301 142.846ZM292.059 147.193H299.373V149.928H292.059V147.193ZM324.686 152.402V155H311.274L318.752 146.045C319.682 144.924 320.361 143.939 320.789 143.092C321.218 142.244 321.432 141.474 321.432 140.781C321.432 139.788 321.136 139.008 320.543 138.443C319.96 137.869 319.158 137.582 318.137 137.582C317.225 137.582 316.473 137.869 315.881 138.443C315.289 139.008 314.956 139.756 314.883 140.686H311.752C311.752 138.89 312.354 137.459 313.557 136.393C314.76 135.317 316.378 134.779 318.41 134.779C320.343 134.779 321.865 135.276 322.977 136.27C324.098 137.263 324.658 138.617 324.658 140.33C324.658 141.551 324.335 142.786 323.688 144.035C323.05 145.275 321.692 147.079 319.613 149.449L317.07 152.402H324.686ZM335.428 155V137.746H331.285L332.543 135.176H338.395V155H335.428ZM347.026 146V139.782H345.664V138.223H347.026V135.279H348.806V138.223H350.168V139.782H348.806V146H347.026ZM351.962 146V133.285H353.635V139.495C353.991 138.959 354.409 138.568 354.891 138.322C355.372 138.076 355.957 137.953 356.646 137.953C357.226 137.953 357.718 138.046 358.123 138.232C358.533 138.412 358.853 138.683 359.082 139.044C359.219 139.257 359.318 139.506 359.378 139.79C359.438 140.075 359.468 140.572 359.468 141.283V146H357.671V142.005C357.671 140.982 357.546 140.304 357.294 139.971C357.048 139.632 356.608 139.462 355.973 139.462C355.558 139.462 355.186 139.539 354.858 139.692C354.535 139.845 354.281 140.061 354.095 140.34C353.964 140.526 353.871 140.766 353.816 141.062C353.767 141.352 353.742 141.816 353.742 142.456V146H351.962ZM368.314 151.363C368.652 151.764 368.975 152.056 369.285 152.238C369.595 152.421 369.923 152.512 370.27 152.512C370.908 152.512 371.354 152.302 371.609 151.883C371.874 151.464 372.006 150.684 372.006 149.545V134.984H375.232V150.598C375.232 152.293 374.859 153.542 374.111 154.344C373.364 155.137 372.197 155.533 370.611 155.533C369.736 155.533 368.943 155.365 368.232 155.027C367.531 154.69 366.865 154.166 366.236 153.455L368.314 151.363ZM382.57 142.039V149.34C382.57 150.598 382.83 151.5 383.35 152.047C383.869 152.594 384.712 152.867 385.879 152.867C387.046 152.867 387.889 152.594 388.408 152.047C388.928 151.5 389.188 150.598 389.188 149.34V142.039H392.154V148.451C392.154 150.93 391.658 152.73 390.664 153.852C389.671 154.973 388.085 155.533 385.906 155.533C383.692 155.533 382.087 154.977 381.094 153.865C380.1 152.753 379.604 150.949 379.604 148.451V142.039H382.57ZM396.717 155V133.809H399.684V155H396.717ZM406.584 161.098H403.535L407.09 153.879L402.332 142.039H405.614L407.992 148.752C408.129 149.162 408.248 149.581 408.348 150.01C408.457 150.429 408.544 150.857 408.608 151.295C408.726 150.839 409.009 150.115 409.455 149.121L409.524 148.957L412.723 142.039H415.936L406.584 161.098Z" fill="#EB9928"/>
<path d="M609.96 152.402V155H596.548L604.027 146.045C604.956 144.924 605.635 143.939 606.064 143.092C606.492 142.244 606.706 141.474 606.706 140.781C606.706 139.788 606.41 139.008 605.818 138.443C605.234 137.869 604.432 137.582 603.411 137.582C602.5 137.582 601.748 137.869 601.155 138.443C600.563 139.008 600.23 139.756 600.157 140.686H597.027C597.027 138.89 597.628 137.459 598.831 136.393C600.034 135.317 601.652 134.779 603.685 134.779C605.617 134.779 607.139 135.276 608.251 136.27C609.372 137.263 609.933 138.617 609.933 140.33C609.933 141.551 609.609 142.786 608.962 144.035C608.324 145.275 606.966 147.079 604.888 149.449L602.345 152.402H609.96ZM623.355 141.479L618.255 148.67H623.273V143.461C623.273 143.188 623.277 142.882 623.286 142.545C623.305 142.208 623.327 141.852 623.355 141.479ZM623.273 155V150.939H613.675L625.324 134.779H626.24V148.67H628.673V150.939H626.24V155H623.273ZM632.301 146V139.782H630.939V138.223H632.301V135.279H634.081V138.223H635.442V139.782H634.081V146H632.301ZM637.237 146V133.285H638.91V139.495C639.265 138.959 639.684 138.568 640.165 138.322C640.646 138.076 641.231 137.953 641.921 137.953C642.5 137.953 642.992 138.046 643.397 138.232C643.807 138.412 644.127 138.683 644.357 139.044C644.494 139.257 644.592 139.506 644.652 139.79C644.712 140.075 644.742 140.572 644.742 141.283V146H642.946V142.005C642.946 140.982 642.82 140.304 642.569 139.971C642.322 139.632 641.882 139.462 641.248 139.462C640.832 139.462 640.46 139.539 640.132 139.692C639.81 139.845 639.555 140.061 639.369 140.34C639.238 140.526 639.145 140.766 639.09 141.062C639.041 141.352 639.017 141.816 639.017 142.456V146H637.237ZM657.137 151.363C657.474 151.764 657.797 152.056 658.107 152.238C658.417 152.421 658.745 152.512 659.092 152.512C659.73 152.512 660.176 152.302 660.432 151.883C660.696 151.464 660.828 150.684 660.828 149.545V134.984H664.055V150.598C664.055 152.293 663.681 153.542 662.934 154.344C662.186 155.137 661.019 155.533 659.434 155.533C658.559 155.533 657.766 155.365 657.055 155.027C656.353 154.69 655.687 154.166 655.059 153.455L657.137 151.363ZM671.393 142.039V149.34C671.393 150.598 671.652 151.5 672.172 152.047C672.691 152.594 673.535 152.867 674.701 152.867C675.868 152.867 676.711 152.594 677.23 152.047C677.75 151.5 678.01 150.598 678.01 149.34V142.039H680.977V148.451C680.977 150.93 680.48 152.73 679.486 153.852C678.493 154.973 676.907 155.533 674.729 155.533C672.514 155.533 670.91 154.977 669.916 153.865C668.923 152.753 668.426 150.949 668.426 148.451V142.039H671.393ZM685.539 155V133.809H688.506V155H685.539ZM695.406 161.098H692.358L695.912 153.879L691.154 142.039H694.436L696.815 148.752C696.951 149.162 697.07 149.581 697.17 150.01C697.279 150.429 697.366 150.857 697.43 151.295C697.548 150.839 697.831 150.115 698.278 149.121L698.346 148.957L701.545 142.039H704.758L695.406 161.098ZM715.633 147.193H722.948V149.928H715.633V147.193ZM741.657 155V137.746H737.514L738.772 135.176H744.624V155H741.657ZM754.833 150.215C755.297 151.072 755.894 151.728 756.624 152.184C757.353 152.639 758.164 152.867 759.057 152.867C760.379 152.867 761.45 152.448 762.27 151.609C763.09 150.762 763.501 149.65 763.501 148.273C763.501 146.952 763.068 145.876 762.202 145.047C761.345 144.217 760.219 143.803 758.825 143.803C757.986 143.803 757.207 143.949 756.487 144.24C755.776 144.523 755.147 144.947 754.6 145.512L753.794 145.334L756.282 135.176H765.743V137.814H758.237L757.061 142.23C757.608 142.003 758.137 141.834 758.647 141.725C759.157 141.615 759.668 141.561 760.178 141.561C762.083 141.561 763.633 142.171 764.827 143.393C766.021 144.614 766.618 146.204 766.618 148.164C766.618 150.406 765.92 152.197 764.526 153.537C763.131 154.868 761.263 155.533 758.92 155.533C757.535 155.533 756.332 155.296 755.311 154.822C754.29 154.339 753.411 153.596 752.672 152.594L754.833 150.215ZM770.601 146V139.782H769.239V138.223H770.601V135.279H772.381V138.223H773.742V139.782H772.381V146H770.601ZM775.537 146V133.285H777.21V139.495C777.566 138.959 777.984 138.568 778.465 138.322C778.946 138.076 779.532 137.953 780.221 137.953C780.8 137.953 781.292 138.046 781.697 138.232C782.107 138.412 782.427 138.683 782.657 139.044C782.794 139.257 782.892 139.506 782.952 139.79C783.012 140.075 783.042 140.572 783.042 141.283V146H781.246V142.005C781.246 140.982 781.12 140.304 780.869 139.971C780.623 139.632 780.182 139.462 779.548 139.462C779.132 139.462 778.76 139.539 778.432 139.692C778.11 139.845 777.855 140.061 777.669 140.34C777.538 140.526 777.445 140.766 777.391 141.062C777.341 141.352 777.317 141.816 777.317 142.456V146H775.537ZM796.278 147.139H801.856L799.805 142.572C799.687 142.281 799.564 141.948 799.436 141.574C799.308 141.191 799.181 140.768 799.053 140.303C798.944 140.74 798.825 141.15 798.698 141.533C798.579 141.907 798.456 142.253 798.329 142.572L796.278 147.139ZM805.274 155L803.004 149.846H795.075L792.75 155H789.332L799.026 134.191L808.705 155H805.274ZM813.637 142.039V149.34C813.637 150.598 813.897 151.5 814.416 152.047C814.936 152.594 815.779 152.867 816.946 152.867C818.112 152.867 818.956 152.594 819.475 152.047C819.995 151.5 820.254 150.598 820.254 149.34V142.039H823.221V148.451C823.221 150.93 822.724 152.73 821.731 153.852C820.737 154.973 819.152 155.533 816.973 155.533C814.758 155.533 813.154 154.977 812.161 153.865C811.167 152.753 810.67 150.949 810.67 148.451V142.039H813.637ZM836.958 148.479C836.958 147.139 836.643 146.095 836.014 145.348C835.394 144.6 834.524 144.227 833.403 144.227C832.282 144.227 831.398 144.614 830.751 145.389C830.113 146.154 829.794 147.221 829.794 148.588C829.794 149.964 830.103 151.026 830.723 151.773C831.343 152.521 832.218 152.895 833.348 152.895C834.415 152.895 835.28 152.489 835.946 151.678C836.62 150.867 836.958 149.8 836.958 148.479ZM839.842 154.193C839.842 156.727 839.336 158.509 838.325 159.539C837.313 160.578 835.609 161.098 833.211 161.098C831.425 161.098 829.999 160.719 828.932 159.963C827.866 159.215 827.323 158.217 827.305 156.969L830.491 156.955C830.536 157.511 830.796 157.935 831.27 158.227C831.744 158.518 832.409 158.664 833.266 158.664C834.533 158.664 835.445 158.386 836.001 157.83C836.557 157.274 836.839 156.344 836.848 155.041L836.876 153.318C836.347 154.066 835.727 154.622 835.016 154.986C834.314 155.351 833.508 155.533 832.596 155.533C830.764 155.533 829.32 154.909 828.262 153.66C827.214 152.402 826.69 150.684 826.69 148.506C826.69 146.437 827.228 144.769 828.303 143.502C829.379 142.226 830.782 141.588 832.514 141.588C833.572 141.588 834.474 141.811 835.221 142.258C835.978 142.695 836.529 143.329 836.876 144.158V142.039H839.842V154.193ZM847.235 142.039V149.34C847.235 150.598 847.495 151.5 848.014 152.047C848.534 152.594 849.377 152.867 850.544 152.867C851.71 152.867 852.553 152.594 853.073 152.047C853.592 151.5 853.852 150.598 853.852 149.34V142.039H856.819V148.451C856.819 150.93 856.322 152.73 855.329 153.852C854.335 154.973 852.749 155.533 850.571 155.533C848.356 155.533 846.752 154.977 845.758 153.865C844.765 152.753 844.268 150.949 844.268 148.451V142.039H847.235ZM859.755 152.648L862.216 151.309C862.398 151.956 862.735 152.448 863.227 152.785C863.719 153.122 864.353 153.291 865.128 153.291C865.793 153.291 866.313 153.141 866.686 152.84C867.069 152.53 867.26 152.111 867.26 151.582C867.26 150.88 866.586 150.279 865.237 149.777C864.781 149.613 864.43 149.477 864.184 149.367C862.799 148.793 861.828 148.21 861.272 147.617C860.725 147.025 860.452 146.305 860.452 145.457C860.452 144.299 860.903 143.361 861.805 142.641C862.717 141.921 863.92 141.561 865.415 141.561C866.417 141.561 867.274 141.747 867.985 142.121C868.705 142.486 869.229 143.01 869.557 143.693L867.452 145.143C867.297 144.732 867.024 144.409 866.632 144.172C866.249 143.926 865.802 143.803 865.292 143.803C864.727 143.803 864.271 143.939 863.925 144.213C863.587 144.477 863.419 144.833 863.419 145.279C863.419 145.954 864.184 146.569 865.716 147.125C866.199 147.298 866.572 147.439 866.837 147.549C868.031 148.023 868.883 148.561 869.393 149.162C869.913 149.755 870.173 150.497 870.173 151.391C870.173 152.685 869.703 153.701 868.764 154.439C867.826 155.169 866.531 155.533 864.882 155.533C863.615 155.533 862.562 155.296 861.723 154.822C860.885 154.348 860.229 153.624 859.755 152.648ZM874.284 155V144.637H872.014V142.039H874.284V137.131H877.251V142.039H879.52V144.637H877.251V155H874.284Z" fill="#EB9928"/>
<path d="M1048.11 152.402V155H1034.7L1042.18 146.045C1043.11 144.924 1043.79 143.939 1044.21 143.092C1044.64 142.244 1044.86 141.474 1044.86 140.781C1044.86 139.788 1044.56 139.008 1043.97 138.443C1043.38 137.869 1042.58 137.582 1041.56 137.582C1040.65 137.582 1039.9 137.869 1039.31 138.443C1038.71 139.008 1038.38 139.756 1038.31 140.686H1035.18C1035.18 138.89 1035.78 137.459 1036.98 136.393C1038.18 135.317 1039.8 134.779 1041.83 134.779C1043.77 134.779 1045.29 135.276 1046.4 136.27C1047.52 137.263 1048.08 138.617 1048.08 140.33C1048.08 141.551 1047.76 142.786 1047.11 144.035C1046.47 145.275 1045.12 147.079 1043.04 149.449L1040.49 152.402H1048.11ZM1067.11 145.361C1067.11 148.542 1066.47 151.035 1065.18 152.84C1063.91 154.635 1062.15 155.533 1059.91 155.533C1057.64 155.533 1055.87 154.626 1054.6 152.812C1053.34 150.99 1052.71 148.433 1052.71 145.143C1052.71 141.88 1053.35 139.337 1054.63 137.514C1055.9 135.691 1057.68 134.779 1059.95 134.779C1062.24 134.779 1064.01 135.695 1065.25 137.527C1066.49 139.35 1067.11 141.962 1067.11 145.361ZM1059.85 152.73C1061.18 152.73 1062.18 152.097 1062.84 150.83C1063.52 149.554 1063.86 147.649 1063.86 145.115C1063.86 142.654 1063.52 140.781 1062.86 139.496C1062.2 138.202 1061.24 137.555 1059.97 137.555C1058.65 137.555 1057.65 138.197 1056.98 139.482C1056.3 140.768 1055.97 142.663 1055.97 145.17C1055.97 147.604 1056.3 149.472 1056.97 150.775C1057.64 152.079 1058.6 152.73 1059.85 152.73ZM1070.45 146V139.782H1069.09V138.223H1070.45V135.279H1072.23V138.223H1073.59V139.782H1072.23V146H1070.45ZM1075.39 146V133.285H1077.06V139.495C1077.42 138.959 1077.83 138.568 1078.32 138.322C1078.8 138.076 1079.38 137.953 1080.07 137.953C1080.65 137.953 1081.14 138.046 1081.55 138.232C1081.96 138.412 1082.28 138.683 1082.51 139.044C1082.64 139.257 1082.74 139.506 1082.8 139.79C1082.86 140.075 1082.89 140.572 1082.89 141.283V146H1081.1V142.005C1081.1 140.982 1080.97 140.304 1080.72 139.971C1080.47 139.632 1080.03 139.462 1079.4 139.462C1078.98 139.462 1078.61 139.539 1078.28 139.692C1077.96 139.845 1077.71 140.061 1077.52 140.34C1077.39 140.526 1077.3 140.766 1077.24 141.062C1077.19 141.352 1077.17 141.816 1077.17 142.456V146H1075.39ZM1096.13 147.139H1101.71L1099.66 142.572C1099.54 142.281 1099.41 141.948 1099.29 141.574C1099.16 141.191 1099.03 140.768 1098.9 140.303C1098.79 140.74 1098.68 141.15 1098.55 141.533C1098.43 141.907 1098.31 142.253 1098.18 142.572L1096.13 147.139ZM1105.12 155L1102.85 149.846H1094.92L1092.6 155H1089.18L1098.88 134.191L1108.56 155H1105.12ZM1113.49 142.039V149.34C1113.49 150.598 1113.75 151.5 1114.27 152.047C1114.79 152.594 1115.63 152.867 1116.8 152.867C1117.96 152.867 1118.81 152.594 1119.33 152.047C1119.84 151.5 1120.1 150.598 1120.1 149.34V142.039H1123.07V148.451C1123.07 150.93 1122.57 152.73 1121.58 153.852C1120.59 154.973 1119 155.533 1116.82 155.533C1114.61 155.533 1113 154.977 1112.01 153.865C1111.02 152.753 1110.52 150.949 1110.52 148.451V142.039H1113.49ZM1136.81 148.479C1136.81 147.139 1136.49 146.095 1135.86 145.348C1135.24 144.6 1134.37 144.227 1133.25 144.227C1132.13 144.227 1131.25 144.614 1130.6 145.389C1129.96 146.154 1129.64 147.221 1129.64 148.588C1129.64 149.964 1129.95 151.026 1130.57 151.773C1131.19 152.521 1132.07 152.895 1133.2 152.895C1134.26 152.895 1135.13 152.489 1135.8 151.678C1136.47 150.867 1136.81 149.8 1136.81 148.479ZM1139.69 154.193C1139.69 156.727 1139.19 158.509 1138.17 159.539C1137.16 160.578 1135.46 161.098 1133.06 161.098C1131.27 161.098 1129.85 160.719 1128.78 159.963C1127.72 159.215 1127.17 158.217 1127.16 156.969L1130.34 156.955C1130.39 157.511 1130.65 157.935 1131.12 158.227C1131.59 158.518 1132.26 158.664 1133.12 158.664C1134.38 158.664 1135.29 158.386 1135.85 157.83C1136.41 157.274 1136.69 156.344 1136.7 155.041L1136.73 153.318C1136.2 154.066 1135.58 154.622 1134.87 154.986C1134.16 155.351 1133.36 155.533 1132.45 155.533C1130.61 155.533 1129.17 154.909 1128.11 153.66C1127.06 152.402 1126.54 150.684 1126.54 148.506C1126.54 146.437 1127.08 144.769 1128.15 143.502C1129.23 142.226 1130.63 141.588 1132.36 141.588C1133.42 141.588 1134.32 141.811 1135.07 142.258C1135.83 142.695 1136.38 143.329 1136.73 144.158V142.039H1139.69V154.193ZM1147.08 142.039V149.34C1147.08 150.598 1147.34 151.5 1147.86 152.047C1148.38 152.594 1149.23 152.867 1150.39 152.867C1151.56 152.867 1152.4 152.594 1152.92 152.047C1153.44 151.5 1153.7 150.598 1153.7 149.34V142.039H1156.67V148.451C1156.67 150.93 1156.17 152.73 1155.18 153.852C1154.19 154.973 1152.6 155.533 1150.42 155.533C1148.21 155.533 1146.6 154.977 1145.61 153.865C1144.61 152.753 1144.12 150.949 1144.12 148.451V142.039H1147.08ZM1159.6 152.648L1162.07 151.309C1162.25 151.956 1162.59 152.448 1163.08 152.785C1163.57 153.122 1164.2 153.291 1164.98 153.291C1165.64 153.291 1166.16 153.141 1166.54 152.84C1166.92 152.53 1167.11 152.111 1167.11 151.582C1167.11 150.88 1166.44 150.279 1165.09 149.777C1164.63 149.613 1164.28 149.477 1164.03 149.367C1162.65 148.793 1161.68 148.21 1161.12 147.617C1160.58 147.025 1160.3 146.305 1160.3 145.457C1160.3 144.299 1160.75 143.361 1161.66 142.641C1162.57 141.921 1163.77 141.561 1165.26 141.561C1166.27 141.561 1167.12 141.747 1167.84 142.121C1168.56 142.486 1169.08 143.01 1169.41 143.693L1167.3 145.143C1167.15 144.732 1166.87 144.409 1166.48 144.172C1166.1 143.926 1165.65 143.803 1165.14 143.803C1164.58 143.803 1164.12 143.939 1163.77 144.213C1163.44 144.477 1163.27 144.833 1163.27 145.279C1163.27 145.954 1164.03 146.569 1165.57 147.125C1166.05 147.298 1166.42 147.439 1166.69 147.549C1167.88 148.023 1168.73 148.561 1169.24 149.162C1169.76 149.755 1170.02 150.497 1170.02 151.391C1170.02 152.685 1169.55 153.701 1168.61 154.439C1167.68 155.169 1166.38 155.533 1164.73 155.533C1163.46 155.533 1162.41 155.296 1161.57 154.822C1160.73 154.348 1160.08 153.624 1159.6 152.648ZM1174.13 155V144.637H1171.86V142.039H1174.13V137.131H1177.1V142.039H1179.37V144.637H1177.1V155H1174.13Z" fill="#EB9928"/>
<path d="M497.863 312.016H504.238L501.894 306.797C501.758 306.464 501.618 306.083 501.472 305.656C501.326 305.219 501.18 304.734 501.034 304.203C500.909 304.703 500.774 305.172 500.628 305.609C500.493 306.036 500.352 306.432 500.206 306.797L497.863 312.016ZM508.144 321L505.55 315.109H496.488L493.831 321H489.925L501.003 297.219L512.066 321H508.144ZM517.702 306.188V314.531C517.702 315.969 517.999 317 518.592 317.625C519.186 318.25 520.15 318.562 521.483 318.562C522.816 318.562 523.78 318.25 524.374 317.625C524.967 317 525.264 315.969 525.264 314.531V306.188H528.655V313.516C528.655 316.349 528.087 318.406 526.952 319.688C525.816 320.969 524.004 321.609 521.514 321.609C518.983 321.609 517.15 320.974 516.014 319.703C514.879 318.432 514.311 316.37 514.311 313.516V306.188H517.702ZM544.354 313.547C544.354 312.016 543.994 310.823 543.276 309.969C542.567 309.115 541.573 308.688 540.291 308.688C539.01 308.688 538 309.13 537.26 310.016C536.531 310.891 536.166 312.109 536.166 313.672C536.166 315.245 536.52 316.458 537.229 317.312C537.937 318.167 538.937 318.594 540.229 318.594C541.448 318.594 542.437 318.13 543.198 317.203C543.968 316.276 544.354 315.057 544.354 313.547ZM547.651 320.078C547.651 322.974 547.073 325.01 545.916 326.188C544.76 327.375 542.812 327.969 540.073 327.969C538.031 327.969 536.401 327.536 535.182 326.672C533.963 325.818 533.343 324.677 533.323 323.25L536.963 323.234C537.015 323.87 537.312 324.354 537.854 324.688C538.395 325.021 539.156 325.188 540.135 325.188C541.583 325.188 542.625 324.87 543.26 324.234C543.895 323.599 544.218 322.536 544.229 321.047L544.26 319.078C543.656 319.932 542.948 320.568 542.135 320.984C541.333 321.401 540.411 321.609 539.369 321.609C537.276 321.609 535.625 320.896 534.416 319.469C533.218 318.031 532.619 316.068 532.619 313.578C532.619 311.214 533.234 309.307 534.463 307.859C535.692 306.401 537.296 305.672 539.276 305.672C540.484 305.672 541.515 305.927 542.369 306.438C543.234 306.938 543.864 307.661 544.26 308.609V306.188H547.651V320.078ZM556.099 306.188V314.531C556.099 315.969 556.396 317 556.99 317.625C557.584 318.25 558.547 318.562 559.881 318.562C561.214 318.562 562.178 318.25 562.771 317.625C563.365 317 563.662 315.969 563.662 314.531V306.188H567.053V313.516C567.053 316.349 566.485 318.406 565.349 319.688C564.214 320.969 562.401 321.609 559.912 321.609C557.381 321.609 555.547 320.974 554.412 319.703C553.276 318.432 552.709 316.37 552.709 313.516V306.188H556.099ZM570.408 318.312L573.22 316.781C573.428 317.521 573.814 318.083 574.376 318.469C574.939 318.854 575.663 319.047 576.548 319.047C577.309 319.047 577.902 318.875 578.329 318.531C578.767 318.177 578.986 317.698 578.986 317.094C578.986 316.292 578.215 315.604 576.673 315.031C576.152 314.844 575.751 314.688 575.47 314.562C573.887 313.906 572.777 313.24 572.142 312.562C571.517 311.885 571.204 311.062 571.204 310.094C571.204 308.771 571.72 307.698 572.751 306.875C573.793 306.052 575.168 305.641 576.876 305.641C578.022 305.641 579.001 305.854 579.814 306.281C580.637 306.698 581.236 307.297 581.611 308.078L579.204 309.734C579.027 309.266 578.715 308.896 578.267 308.625C577.829 308.344 577.319 308.203 576.736 308.203C576.09 308.203 575.569 308.359 575.173 308.672C574.788 308.974 574.595 309.38 574.595 309.891C574.595 310.661 575.47 311.365 577.22 312C577.772 312.198 578.199 312.359 578.501 312.484C579.866 313.026 580.84 313.641 581.423 314.328C582.017 315.005 582.314 315.854 582.314 316.875C582.314 318.354 581.777 319.516 580.704 320.359C579.631 321.193 578.152 321.609 576.267 321.609C574.819 321.609 573.616 321.339 572.658 320.797C571.699 320.255 570.949 319.427 570.408 318.312ZM587.013 321V309.156H584.419V306.188H587.013V300.578H590.403V306.188H592.997V309.156H590.403V321H587.013Z" fill="#EB9928"/>
<path d="M1220.52 316.422L1223.49 315.047C1223.77 316.068 1224.28 316.849 1225.03 317.391C1225.78 317.922 1226.74 318.188 1227.91 318.188C1229.01 318.188 1229.89 317.88 1230.53 317.266C1231.19 316.651 1231.52 315.828 1231.52 314.797C1231.52 313.453 1230.4 312.255 1228.17 311.203C1227.86 311.047 1227.62 310.932 1227.46 310.859C1224.93 309.63 1223.25 308.521 1222.41 307.531C1221.57 306.531 1221.16 305.312 1221.16 303.875C1221.16 302.01 1221.79 300.5 1223.05 299.344C1224.32 298.188 1225.98 297.609 1228.03 297.609C1229.72 297.609 1231.13 297.938 1232.27 298.594C1233.4 299.24 1234.19 300.172 1234.63 301.391L1231.72 302.891C1231.26 302.172 1230.76 301.646 1230.21 301.312C1229.66 300.979 1229.04 300.812 1228.33 300.812C1227.33 300.812 1226.53 301.073 1225.94 301.594C1225.36 302.115 1225.06 302.812 1225.06 303.688C1225.06 305.062 1226.36 306.344 1228.94 307.531C1229.14 307.625 1229.29 307.698 1229.41 307.75C1231.67 308.792 1233.22 309.812 1234.06 310.812C1234.91 311.802 1235.33 313.042 1235.33 314.531C1235.33 316.698 1234.65 318.422 1233.28 319.703C1231.92 320.974 1230.07 321.609 1227.75 321.609C1225.8 321.609 1224.21 321.161 1222.96 320.266C1221.72 319.37 1220.9 318.089 1220.52 316.422ZM1253.86 314.094H1242.01C1242.1 315.479 1242.51 316.562 1243.25 317.344C1243.99 318.115 1244.97 318.5 1246.2 318.5C1247.29 318.5 1248.21 318.271 1248.93 317.812C1249.66 317.354 1250.3 316.615 1250.84 315.594L1253.7 317.188C1252.87 318.677 1251.84 319.786 1250.61 320.516C1249.38 321.245 1247.93 321.609 1246.28 321.609C1243.9 321.609 1242.01 320.885 1240.61 319.438C1239.2 317.99 1238.5 316.057 1238.5 313.641C1238.5 311.318 1239.22 309.411 1240.67 307.922C1242.13 306.422 1244 305.672 1246.28 305.672C1248.66 305.672 1250.52 306.354 1251.86 307.719C1253.19 309.083 1253.86 310.995 1253.86 313.453V314.094ZM1250.34 311.812C1250.21 310.75 1249.8 309.943 1249.12 309.391C1248.45 308.828 1247.52 308.547 1246.34 308.547C1245.23 308.547 1244.33 308.818 1243.65 309.359C1242.98 309.901 1242.5 310.719 1242.23 311.812H1250.34ZM1261.17 313.547C1261.17 315.078 1261.55 316.302 1262.31 317.219C1263.08 318.135 1264.09 318.594 1265.34 318.594C1266.62 318.594 1267.61 318.167 1268.31 317.312C1269.01 316.458 1269.37 315.245 1269.37 313.672C1269.37 312.109 1269 310.891 1268.26 310.016C1267.53 309.13 1266.52 308.688 1265.24 308.688C1263.96 308.688 1262.96 309.115 1262.24 309.969C1261.52 310.823 1261.17 312.016 1261.17 313.547ZM1257.88 327.969V306.188H1261.27V308.609C1261.67 307.672 1262.3 306.948 1263.17 306.438C1264.04 305.927 1265.08 305.672 1266.29 305.672C1268.26 305.672 1269.85 306.401 1271.07 307.859C1272.3 309.307 1272.92 311.214 1272.92 313.578C1272.92 316.068 1272.31 318.031 1271.1 319.469C1269.9 320.896 1268.26 321.609 1266.17 321.609C1265.12 321.609 1264.2 321.401 1263.38 320.984C1262.58 320.568 1261.88 319.932 1261.27 319.078V327.969H1257.88ZM1277.79 321V309.156H1275.19V306.188H1277.79V300.578H1281.18V306.188H1283.77V309.156H1281.18V321H1277.79ZM1301.45 314.094H1289.61C1289.69 315.479 1290.1 316.562 1290.84 317.344C1291.58 318.115 1292.57 318.5 1293.8 318.5C1294.89 318.5 1295.8 318.271 1296.53 317.812C1297.26 317.354 1297.9 316.615 1298.44 315.594L1301.3 317.188C1300.46 318.677 1299.43 319.786 1298.2 320.516C1296.97 321.245 1295.53 321.609 1293.88 321.609C1291.5 321.609 1289.61 320.885 1288.2 319.438C1286.8 317.99 1286.09 316.057 1286.09 313.641C1286.09 311.318 1286.82 309.411 1288.27 307.922C1289.72 306.422 1291.59 305.672 1293.88 305.672C1296.26 305.672 1298.12 306.354 1299.45 307.719C1300.79 309.083 1301.45 310.995 1301.45 313.453V314.094ZM1297.94 311.812C1297.8 310.75 1297.4 309.943 1296.72 309.391C1296.04 308.828 1295.11 308.547 1293.94 308.547C1292.82 308.547 1291.93 308.818 1291.25 309.359C1290.57 309.901 1290.1 310.719 1289.83 311.812H1297.94ZM1308.87 321H1305.48V306.188H1308.67V308.609C1309.34 307.578 1310.11 306.828 1310.96 306.359C1311.83 305.88 1312.84 305.641 1314.01 305.641C1315.17 305.641 1316.13 305.885 1316.89 306.375C1317.65 306.854 1318.22 307.589 1318.62 308.578C1319.4 307.557 1320.23 306.812 1321.11 306.344C1321.99 305.875 1323 305.641 1324.12 305.641C1325.1 305.641 1325.95 305.823 1326.68 306.188C1327.41 306.542 1327.98 307.062 1328.39 307.75C1328.57 308.073 1328.71 308.458 1328.79 308.906C1328.89 309.354 1328.93 309.995 1328.93 310.828V312.016V321H1325.54V313.391C1325.54 311.401 1325.33 310.094 1324.9 309.469C1324.49 308.833 1323.74 308.516 1322.65 308.516C1321.32 308.516 1320.37 308.943 1319.79 309.797C1319.23 310.641 1318.95 312.125 1318.95 314.25V321H1315.53V313.391C1315.53 311.557 1315.3 310.286 1314.86 309.578C1314.42 308.87 1313.66 308.516 1312.57 308.516C1311.91 308.516 1311.3 308.667 1310.75 308.969C1310.19 309.271 1309.76 309.688 1309.43 310.219C1309.22 310.562 1309.08 310.984 1309 311.484C1308.91 311.984 1308.87 312.906 1308.87 314.25V321ZM1337.24 313.547C1337.24 315.057 1337.63 316.276 1338.4 317.203C1339.18 318.13 1340.18 318.594 1341.41 318.594C1342.69 318.594 1343.68 318.167 1344.38 317.312C1345.09 316.458 1345.44 315.245 1345.44 313.672C1345.44 312.109 1345.07 310.891 1344.33 310.016C1343.61 309.13 1342.6 308.688 1341.32 308.688C1340.04 308.688 1339.04 309.115 1338.32 309.969C1337.6 310.823 1337.24 312.016 1337.24 313.547ZM1337.35 296.781V308.609C1337.75 307.672 1338.38 306.948 1339.24 306.438C1340.12 305.927 1341.16 305.672 1342.37 305.672C1344.33 305.672 1345.93 306.401 1347.15 307.859C1348.38 309.307 1348.99 311.214 1348.99 313.578C1348.99 316.068 1348.39 318.031 1347.18 319.469C1345.98 320.896 1344.33 321.609 1342.24 321.609C1341.2 321.609 1340.27 321.401 1339.46 320.984C1338.66 320.568 1337.95 319.932 1337.35 319.078V321H1333.96V296.781H1337.35ZM1367.33 314.094H1355.49C1355.57 315.479 1355.98 316.562 1356.72 317.344C1357.46 318.115 1358.45 318.5 1359.67 318.5C1360.77 318.5 1361.68 318.271 1362.41 317.812C1363.14 317.354 1363.77 316.615 1364.32 315.594L1367.17 317.188C1366.34 318.677 1365.31 319.786 1364.08 320.516C1362.85 321.245 1361.41 321.609 1359.75 321.609C1357.38 321.609 1355.49 320.885 1354.08 319.438C1352.67 317.99 1351.97 316.057 1351.97 313.641C1351.97 311.318 1352.7 309.411 1354.14 307.922C1355.6 306.422 1357.47 305.672 1359.75 305.672C1362.14 305.672 1364 306.354 1365.33 307.719C1366.66 309.083 1367.33 310.995 1367.33 313.453V314.094ZM1363.82 311.812C1363.68 310.75 1363.27 309.943 1362.6 309.391C1361.92 308.828 1360.99 308.547 1359.82 308.547C1358.7 308.547 1357.8 308.818 1357.13 309.359C1356.45 309.901 1355.98 310.719 1355.71 311.812H1363.82ZM1374.75 308.547C1375.11 307.568 1375.59 306.844 1376.19 306.375C1376.79 305.906 1377.53 305.672 1378.42 305.672C1378.9 305.672 1379.37 305.729 1379.83 305.844C1380.29 305.958 1380.75 306.125 1381.2 306.344L1379.98 309.219C1379.69 309.01 1379.37 308.859 1379.03 308.766C1378.7 308.661 1378.32 308.609 1377.9 308.609C1376.78 308.609 1375.97 309.062 1375.48 309.969C1374.99 310.865 1374.75 312.375 1374.75 314.5V321H1371.36V306.156H1374.75V308.547Z" fill="#EB9928"/>
<path d="M662.15 35V9.26562H667.863L679.254 24.2422C679.582 24.6641 679.939 25.2617 680.326 26.0352C680.725 26.7969 681.135 27.6992 681.557 28.7422C681.428 27.9805 681.334 27.2246 681.275 26.4746C681.217 25.7246 681.187 24.7871 681.187 23.6621V9.26562H686.443V35H681.047L669.34 19.7422C669.012 19.3203 668.654 18.7285 668.268 17.9668C667.881 17.1934 667.471 16.2734 667.037 15.207C667.166 15.9453 667.26 16.6953 667.318 17.457C667.377 18.207 667.406 19.1562 667.406 20.3047V35H662.15ZM708.917 26.4043C708.917 24.998 708.507 23.8789 707.687 23.0469C706.866 22.2031 705.765 21.7812 704.382 21.7812C702.999 21.7812 701.904 22.1973 701.095 23.0293C700.286 23.8613 699.882 24.9863 699.882 26.4043C699.882 27.8105 700.286 28.9355 701.095 29.7793C701.904 30.623 702.999 31.0449 704.382 31.0449C705.753 31.0449 706.849 30.623 707.669 29.7793C708.501 28.9355 708.917 27.8105 708.917 26.4043ZM714.015 26.4395C714.015 29.0879 713.107 31.291 711.29 33.0488C709.486 34.8066 707.195 35.6855 704.417 35.6855C701.616 35.6855 699.308 34.8066 697.491 33.0488C695.675 31.291 694.767 29.0879 694.767 26.4395C694.767 23.8027 695.681 21.5996 697.509 19.8301C699.337 18.0605 701.64 17.1758 704.417 17.1758C707.206 17.1758 709.503 18.0488 711.308 19.7949C713.113 21.541 714.015 23.7559 714.015 26.4395ZM726.786 22.1855C727.29 20.5098 728.01 19.2559 728.948 18.4238C729.897 17.5918 731.069 17.1758 732.464 17.1758C732.78 17.1758 733.301 17.2344 734.028 17.3516C734.169 17.375 734.274 17.3926 734.344 17.4043L733.589 22.7832C733.214 22.6309 732.833 22.5195 732.446 22.4492C732.071 22.3672 731.673 22.3262 731.251 22.3262C729.727 22.3262 728.631 22.7188 727.964 23.5039C727.296 24.2773 726.962 25.5781 726.962 27.4062V35H721.952V17.7559H726.891L726.786 22.1855ZM745.691 35H740.682V17.7559H745.691V20.4629C746.512 19.3262 747.385 18.4941 748.311 17.9668C749.248 17.4395 750.309 17.1758 751.492 17.1758C752.922 17.1758 754.082 17.4688 754.973 18.0547C755.875 18.6406 756.514 19.5254 756.889 20.709C757.686 19.5371 758.588 18.6582 759.596 18.0723C760.615 17.4746 761.729 17.1758 762.936 17.1758C764.154 17.1758 765.186 17.4043 766.029 17.8613C766.885 18.3066 767.547 18.9805 768.016 19.8828C768.262 20.375 768.438 20.9316 768.543 21.5527C768.648 22.1738 768.701 23.1172 768.701 24.3828V24.9277V35H763.691V26.4746C763.691 24.377 763.475 22.9824 763.041 22.291C762.619 21.5996 761.875 21.2539 760.809 21.2539C759.52 21.2539 758.582 21.7344 757.996 22.6953C757.422 23.6562 757.135 25.2266 757.135 27.4062V35H752.125V26.4746C752.125 24.4473 751.926 23.0762 751.527 22.3613C751.129 21.6465 750.443 21.2891 749.471 21.2891C748.146 21.2891 747.186 21.7754 746.588 22.748C745.99 23.709 745.691 25.2617 745.691 27.4062V35ZM790.331 26.3516C790.331 24.8047 789.939 23.5801 789.154 22.6777C788.38 21.7754 787.331 21.3242 786.007 21.3242C784.648 21.3242 783.576 21.7754 782.79 22.6777C782.017 23.5684 781.63 24.793 781.63 26.3516C781.63 27.9102 782.011 29.123 782.773 29.9902C783.546 30.8574 784.613 31.291 785.972 31.291C787.355 31.291 788.427 30.8574 789.189 29.9902C789.951 29.123 790.331 27.9102 790.331 26.3516ZM794.902 35H790.05L790.12 32.5215C789.441 33.6113 788.62 34.4141 787.66 34.9297C786.71 35.4336 785.55 35.6855 784.179 35.6855C781.894 35.6855 780.048 34.8359 778.642 33.1367C777.247 31.4375 776.55 29.1934 776.55 26.4043C776.55 23.498 777.236 21.2363 778.607 19.6191C779.99 17.9902 781.906 17.1758 784.355 17.1758C785.632 17.1758 786.751 17.4629 787.712 18.0371C788.685 18.6113 789.499 19.4668 790.156 20.6035V17.7559H794.902V35ZM803.964 35V7.75391H808.956V35H803.964ZM634.169 73H627.824L621.056 60.9766V73H615.554V47.2656H623.429C626.558 47.2656 628.902 47.875 630.46 49.0938C632.019 50.3008 632.798 52.123 632.798 54.5605C632.798 56.3301 632.265 57.8418 631.199 59.0957C630.132 60.3496 628.755 61.082 627.068 61.293L634.169 73ZM621.056 58.2344H621.882C624.109 58.2344 625.58 57.9941 626.294 57.5137C627.009 57.0215 627.367 56.1719 627.367 54.9648C627.367 53.6992 626.98 52.8027 626.207 52.2754C625.445 51.7363 624.003 51.4668 621.882 51.4668H621.056V58.2344ZM652.337 62.5938C652.196 61.5039 651.798 60.6836 651.141 60.1328C650.497 59.5703 649.612 59.2891 648.487 59.2891C647.362 59.2891 646.46 59.5703 645.78 60.1328C645.112 60.6836 644.684 61.5039 644.497 62.5938H652.337ZM657.294 65.6172H644.339C644.538 66.8594 644.989 67.791 645.692 68.4121C646.395 69.0215 647.35 69.3262 648.558 69.3262C649.472 69.3262 650.257 69.1504 650.913 68.7988C651.581 68.4473 652.138 67.9141 652.583 67.1992L656.626 69.2207C655.688 70.7324 654.552 71.8574 653.216 72.5957C651.88 73.3223 650.292 73.6855 648.452 73.6855C645.663 73.6855 643.454 72.8535 641.825 71.1895C640.196 69.5254 639.382 67.2871 639.382 64.4746C639.382 61.7676 640.231 59.541 641.931 57.7949C643.641 56.0488 645.827 55.1758 648.487 55.1758C651.229 55.1758 653.397 55.9961 654.991 57.6367C656.585 59.2656 657.382 61.4922 657.382 64.3164C657.382 64.4688 657.376 64.6387 657.364 64.8262C657.352 65.002 657.329 65.2656 657.294 65.6172ZM682.475 72.7188C682.475 74.5352 682.364 75.8125 682.141 76.5508C681.93 77.2891 681.561 77.9277 681.033 78.4668C680.283 79.2754 679.323 79.873 678.151 80.2598C676.979 80.6465 675.555 80.8398 673.879 80.8398C671.078 80.8398 668.951 80.3945 667.498 79.5039C666.045 78.6133 665.254 77.2598 665.125 75.4434H670.627C670.709 76.1113 671.014 76.6035 671.541 76.9199C672.069 77.2363 672.848 77.3945 673.879 77.3945C675.239 77.3945 676.217 77.043 676.815 76.3398C677.424 75.6367 677.729 74.4648 677.729 72.8242V70.3633C677.061 71.4297 676.252 72.2207 675.303 72.7363C674.365 73.252 673.252 73.5098 671.963 73.5098C669.596 73.5098 667.703 72.6836 666.285 71.0312C664.867 69.3672 664.158 67.1289 664.158 64.3164C664.158 61.457 664.85 59.2188 666.233 57.6016C667.615 55.9844 669.526 55.1758 671.963 55.1758C673.217 55.1758 674.33 55.4688 675.303 56.0547C676.287 56.6289 677.108 57.4785 677.764 58.6035V55.7559H682.475V72.7188ZM677.94 64.3516C677.94 62.8281 677.553 61.627 676.78 60.748C676.006 59.8691 674.951 59.4297 673.615 59.4297C672.244 59.4297 671.172 59.8691 670.399 60.748C669.625 61.6152 669.239 62.8164 669.239 64.3516C669.239 65.8867 669.619 67.082 670.381 67.9375C671.143 68.793 672.209 69.2207 673.58 69.2207C674.951 69.2207 676.018 68.793 676.78 67.9375C677.553 67.082 677.94 65.8867 677.94 64.3516ZM691.308 48.6719C691.308 47.875 691.595 47.1895 692.17 46.6152C692.744 46.041 693.429 45.7539 694.226 45.7539C695.035 45.7539 695.726 46.041 696.3 46.6152C696.886 47.1777 697.179 47.8633 697.179 48.6719C697.179 49.4805 696.886 50.1719 696.3 50.7461C695.726 51.3203 695.035 51.6074 694.226 51.6074C693.429 51.6074 692.744 51.3145 692.17 50.7285C691.595 50.1426 691.308 49.457 691.308 48.6719ZM691.748 73V55.7559H696.74V73H691.748ZM704.272 69.9766L708.122 67.9902C708.251 68.6582 708.597 69.1855 709.159 69.5723C709.722 69.959 710.419 70.1523 711.251 70.1523C712.071 70.1523 712.716 70.0059 713.185 69.7129C713.653 69.4082 713.888 68.9922 713.888 68.4648C713.888 67.6328 713.056 66.9355 711.392 66.373C710.876 66.1973 710.466 66.0508 710.161 65.9336C708.134 65.1719 706.728 64.4043 705.942 63.6309C705.169 62.8574 704.782 61.9023 704.782 60.7656C704.782 59.0781 705.444 57.7129 706.769 56.6699C708.093 55.627 709.839 55.1055 712.007 55.1055C713.554 55.1055 714.89 55.416 716.015 56.0371C717.151 56.6582 717.978 57.5371 718.493 58.6738L714.819 60.502C714.62 59.8574 714.274 59.3711 713.782 59.043C713.29 58.7031 712.675 58.5332 711.936 58.5332C711.198 58.5332 710.601 58.6855 710.144 58.9902C709.686 59.2949 709.458 59.6934 709.458 60.1855C709.458 61.041 710.595 61.8379 712.868 62.5762C713.138 62.6582 713.343 62.7227 713.483 62.7695C715.37 63.3906 716.712 64.1172 717.509 64.9492C718.306 65.7695 718.704 66.8184 718.704 68.0957C718.704 69.8066 718.042 71.166 716.718 72.1738C715.394 73.1816 713.606 73.6855 711.356 73.6855C709.575 73.6855 708.052 73.3574 706.786 72.7012C705.532 72.0332 704.694 71.125 704.272 69.9766ZM727.133 73V59.6758H724.725V55.7559H727.133V50.0254H732.143V55.7559H734.551V59.6758H732.143V73H727.133ZM746.636 60.1855C747.14 58.5098 747.861 57.2559 748.799 56.4238C749.748 55.5918 750.92 55.1758 752.314 55.1758C752.631 55.1758 753.152 55.2344 753.879 55.3516C754.019 55.375 754.125 55.3926 754.195 55.4043L753.439 60.7832C753.064 60.6309 752.683 60.5195 752.297 60.4492C751.922 60.3672 751.523 60.3262 751.101 60.3262C749.578 60.3262 748.482 60.7188 747.814 61.5039C747.146 62.2773 746.812 63.5781 746.812 65.4062V73H741.802V55.7559H746.742L746.636 60.1855ZM773.312 64.3516C773.312 62.8047 772.919 61.5801 772.134 60.6777C771.36 59.7754 770.312 59.3242 768.987 59.3242C767.628 59.3242 766.556 59.7754 765.771 60.6777C764.997 61.5684 764.61 62.793 764.61 64.3516C764.61 65.9102 764.991 67.123 765.753 67.9902C766.526 68.8574 767.593 69.291 768.952 69.291C770.335 69.291 771.407 68.8574 772.169 67.9902C772.931 67.123 773.312 65.9102 773.312 64.3516ZM777.882 73H773.03L773.101 70.5215C772.421 71.6113 771.601 72.4141 770.64 72.9297C769.69 73.4336 768.53 73.6855 767.159 73.6855C764.874 73.6855 763.028 72.8359 761.622 71.1367C760.228 69.4375 759.53 67.1934 759.53 64.4043C759.53 61.498 760.216 59.2363 761.587 57.6191C762.97 55.9902 764.886 55.1758 767.335 55.1758C768.612 55.1758 769.731 55.4629 770.692 56.0371C771.665 56.6113 772.48 57.4668 773.136 58.6035V55.7559H777.882V73ZM787.366 73V59.6758H784.957V55.7559H787.366V50.0254H792.375V55.7559H794.784V59.6758H792.375V73H787.366ZM801.789 48.6719C801.789 47.875 802.076 47.1895 802.65 46.6152C803.224 46.041 803.91 45.7539 804.707 45.7539C805.515 45.7539 806.207 46.041 806.781 46.6152C807.367 47.1777 807.66 47.8633 807.66 48.6719C807.66 49.4805 807.367 50.1719 806.781 50.7461C806.207 51.3203 805.515 51.6074 804.707 51.6074C803.91 51.6074 803.224 51.3145 802.65 50.7285C802.076 50.1426 801.789 49.457 801.789 48.6719ZM802.228 73V55.7559H807.22V73H802.228ZM829.484 64.4043C829.484 62.998 829.073 61.8789 828.253 61.0469C827.433 60.2031 826.331 59.7812 824.948 59.7812C823.566 59.7812 822.47 60.1973 821.661 61.0293C820.853 61.8613 820.448 62.9863 820.448 64.4043C820.448 65.8105 820.853 66.9355 821.661 67.7793C822.47 68.623 823.566 69.0449 824.948 69.0449C826.319 69.0449 827.415 68.623 828.235 67.7793C829.068 66.9355 829.484 65.8105 829.484 64.4043ZM834.581 64.4395C834.581 67.0879 833.673 69.291 831.857 71.0488C830.052 72.8066 827.761 73.6855 824.984 73.6855C822.183 73.6855 819.874 72.8066 818.058 71.0488C816.241 69.291 815.333 67.0879 815.333 64.4395C815.333 61.8027 816.247 59.5996 818.075 57.8301C819.903 56.0605 822.206 55.1758 824.984 55.1758C827.773 55.1758 830.069 56.0488 831.874 57.7949C833.679 59.541 834.581 61.7559 834.581 64.4395ZM842.518 73V55.7559H847.422V58.4629C848.325 57.3379 849.291 56.5117 850.323 55.9844C851.366 55.4453 852.52 55.1758 853.786 55.1758C855.122 55.1758 856.241 55.4043 857.143 55.8613C858.057 56.3066 858.778 56.9922 859.305 57.918C859.563 58.3984 859.745 58.9434 859.85 59.5527C859.967 60.1504 860.026 61.0938 860.026 62.3828V62.9277V73H855.016V64.4746C855.016 62.3535 854.77 60.9531 854.278 60.2734C853.786 59.5938 852.942 59.2539 851.747 59.2539C851.055 59.2539 850.416 59.4004 849.831 59.6934C849.256 59.9746 848.776 60.3789 848.389 60.9062C848.084 61.3164 847.862 61.7852 847.721 62.3125C847.592 62.8398 847.528 63.6426 847.528 64.7207V65.4062V73H842.518Z" fill="url(#paint0_radial_852_8)"/>
<path d="M1031.93 15.9629C1030.82 14.9668 1029.68 14.2402 1028.5 13.7832C1027.33 13.3145 1026.08 13.0801 1024.74 13.0801C1022 13.0801 1019.82 13.9004 1018.19 15.541C1016.56 17.1816 1015.74 19.3848 1015.74 22.1504C1015.74 24.8574 1016.5 27.0078 1018.01 28.6016C1019.52 30.1836 1021.58 30.9746 1024.2 30.9746C1025.69 30.9746 1027.07 30.7285 1028.35 30.2363C1029.62 29.7324 1030.81 28.9824 1031.9 27.9863L1031.86 33.6289C1030.69 34.3203 1029.46 34.8359 1028.17 35.1758C1026.89 35.5156 1025.55 35.6855 1024.13 35.6855C1020.03 35.6855 1016.66 34.4141 1014.02 31.8711C1011.4 29.3164 1010.08 26.0762 1010.08 22.1504C1010.08 18.2363 1011.4 15.0078 1014.04 12.4648C1016.67 9.92187 1020.07 8.65039 1024.23 8.65039C1025.63 8.65039 1026.98 8.79687 1028.28 9.08984C1029.58 9.38281 1030.86 9.83398 1032.13 10.4434L1031.93 15.9629ZM1053.79 26.4043C1053.79 24.998 1053.38 23.8789 1052.56 23.0469C1051.74 22.2031 1050.64 21.7812 1049.26 21.7812C1047.87 21.7812 1046.78 22.1973 1045.97 23.0293C1045.16 23.8613 1044.76 24.9863 1044.76 26.4043C1044.76 27.8105 1045.16 28.9355 1045.97 29.7793C1046.78 30.623 1047.87 31.0449 1049.26 31.0449C1050.63 31.0449 1051.72 30.623 1052.54 29.7793C1053.37 28.9355 1053.79 27.8105 1053.79 26.4043ZM1058.89 26.4395C1058.89 29.0879 1057.98 31.291 1056.16 33.0488C1054.36 34.8066 1052.07 35.6855 1049.29 35.6855C1046.49 35.6855 1044.18 34.8066 1042.37 33.0488C1040.55 31.291 1039.64 29.0879 1039.64 26.4395C1039.64 23.8027 1040.55 21.5996 1042.38 19.8301C1044.21 18.0605 1046.51 17.1758 1049.29 17.1758C1052.08 17.1758 1054.38 18.0488 1056.18 19.7949C1057.99 21.541 1058.89 23.7559 1058.89 26.4395ZM1079.53 26.3516C1079.53 24.8047 1079.14 23.5801 1078.36 22.6777C1077.58 21.7754 1076.53 21.3242 1075.21 21.3242C1073.85 21.3242 1072.78 21.7754 1071.99 22.6777C1071.22 23.5684 1070.83 24.793 1070.83 26.3516C1070.83 27.9102 1071.21 29.123 1071.98 29.9902C1072.75 30.8574 1073.82 31.291 1075.18 31.291C1076.56 31.291 1077.63 30.8574 1078.39 29.9902C1079.15 29.123 1079.53 27.9102 1079.53 26.3516ZM1084.1 35H1079.25L1079.32 32.5215C1078.64 33.6113 1077.82 34.4141 1076.86 34.9297C1075.91 35.4336 1074.75 35.6855 1073.38 35.6855C1071.1 35.6855 1069.25 34.8359 1067.85 33.1367C1066.45 31.4375 1065.75 29.1934 1065.75 26.4043C1065.75 23.498 1066.44 21.2363 1067.81 19.6191C1069.19 17.9902 1071.11 17.1758 1073.56 17.1758C1074.84 17.1758 1075.95 17.4629 1076.92 18.0371C1077.89 18.6113 1078.7 19.4668 1079.36 20.6035V17.7559H1084.1V35ZM1105.68 34.4902C1105 34.9004 1104.29 35.1992 1103.54 35.3867C1102.79 35.5859 1101.97 35.6855 1101.08 35.6855C1098.36 35.6855 1096.14 34.8242 1094.43 33.1016C1092.72 31.3672 1091.87 29.1172 1091.87 26.3516C1091.87 23.6445 1092.73 21.4414 1094.45 19.7422C1096.17 18.0312 1098.4 17.1758 1101.15 17.1758C1102.06 17.1758 1102.88 17.2637 1103.61 17.4395C1104.33 17.6152 1105.03 17.8906 1105.68 18.2656L1105.65 23.293C1105.12 22.7539 1104.51 22.3379 1103.82 22.0449C1103.13 21.752 1102.4 21.6055 1101.62 21.6055C1100.22 21.6055 1099.09 22.0391 1098.25 22.9062C1097.4 23.7617 1096.98 24.8984 1096.98 26.3164C1096.98 27.7695 1097.41 28.9297 1098.26 29.7969C1099.13 30.6523 1100.3 31.0801 1101.76 31.0801C1102.57 31.0801 1103.29 30.9336 1103.91 30.6406C1104.54 30.3477 1105.12 29.8906 1105.65 29.2695L1105.68 34.4902ZM1113.6 35V7.75391H1118.51V17.4395C1118.51 17.9785 1118.49 18.5176 1118.45 19.0566C1118.42 19.584 1118.37 20.0996 1118.29 20.6035C1119.33 19.3965 1120.36 18.5234 1121.39 17.9844C1122.43 17.4453 1123.59 17.1758 1124.87 17.1758C1126.21 17.1758 1127.33 17.4043 1128.24 17.8613C1129.17 18.3184 1129.88 19.0039 1130.39 19.918C1130.65 20.3984 1130.83 20.9434 1130.93 21.5527C1131.05 22.1504 1131.11 23.0938 1131.11 24.3828V24.9277V35H1126.1V26.4746C1126.1 24.3535 1125.85 22.9531 1125.36 22.2734C1124.87 21.5938 1124.03 21.2539 1122.83 21.2539C1122.14 21.2539 1121.5 21.4004 1120.91 21.6934C1120.34 21.9746 1119.86 22.3789 1119.47 22.9062C1119.17 23.3164 1118.95 23.7852 1118.8 24.3125C1118.68 24.8398 1118.61 25.6426 1118.61 26.7207V27.4062V35H1113.6ZM1139.75 10.6719C1139.75 9.875 1140.04 9.18945 1140.61 8.61523C1141.18 8.04102 1141.87 7.75391 1142.67 7.75391C1143.48 7.75391 1144.17 8.04102 1144.74 8.61523C1145.33 9.17773 1145.62 9.86328 1145.62 10.6719C1145.62 11.4805 1145.33 12.1719 1144.74 12.7461C1144.17 13.3203 1143.48 13.6074 1142.67 13.6074C1141.87 13.6074 1141.18 13.3145 1140.61 12.7285C1140.04 12.1426 1139.75 11.457 1139.75 10.6719ZM1140.19 35V17.7559H1145.18V35H1140.19ZM1154.4 35V17.7559H1159.31V20.4629C1160.21 19.3379 1161.17 18.5117 1162.21 17.9844C1163.25 17.4453 1164.4 17.1758 1165.67 17.1758C1167 17.1758 1168.12 17.4043 1169.03 17.8613C1169.94 18.3066 1170.66 18.9922 1171.19 19.918C1171.45 20.3984 1171.63 20.9434 1171.73 21.5527C1171.85 22.1504 1171.91 23.0938 1171.91 24.3828V24.9277V35H1166.9V26.4746C1166.9 24.3535 1166.65 22.9531 1166.16 22.2734C1165.67 21.5938 1164.82 21.2539 1163.63 21.2539C1162.94 21.2539 1162.3 21.4004 1161.71 21.6934C1161.14 21.9746 1160.66 22.3789 1160.27 22.9062C1159.97 23.3164 1159.74 23.7852 1159.6 24.3125C1159.48 24.8398 1159.41 25.6426 1159.41 26.7207V27.4062V35H1154.4ZM1198.04 34.7188C1198.04 36.5352 1197.93 37.8125 1197.71 38.5508C1197.49 39.2891 1197.13 39.9277 1196.6 40.4668C1195.85 41.2754 1194.89 41.873 1193.71 42.2598C1192.54 42.6465 1191.12 42.8398 1189.44 42.8398C1186.64 42.8398 1184.52 42.3945 1183.06 41.5039C1181.61 40.6133 1180.82 39.2598 1180.69 37.4434H1186.19C1186.27 38.1113 1186.58 38.6035 1187.11 38.9199C1187.63 39.2363 1188.41 39.3945 1189.44 39.3945C1190.8 39.3945 1191.78 39.043 1192.38 38.3398C1192.99 37.6367 1193.29 36.4648 1193.29 34.8242V32.3633C1192.63 33.4297 1191.82 34.2207 1190.87 34.7363C1189.93 35.252 1188.82 35.5098 1187.53 35.5098C1185.16 35.5098 1183.27 34.6836 1181.85 33.0312C1180.43 31.3672 1179.72 29.1289 1179.72 26.3164C1179.72 23.457 1180.41 21.2188 1181.8 19.6016C1183.18 17.9844 1185.09 17.1758 1187.53 17.1758C1188.78 17.1758 1189.89 17.4688 1190.87 18.0547C1191.85 18.6289 1192.67 19.4785 1193.33 20.6035V17.7559H1198.04V34.7188ZM1193.5 26.3516C1193.5 24.8281 1193.12 23.627 1192.34 22.748C1191.57 21.8691 1190.52 21.4297 1189.18 21.4297C1187.81 21.4297 1186.74 21.8691 1185.96 22.748C1185.19 23.6152 1184.8 24.8164 1184.8 26.3516C1184.8 27.8867 1185.18 29.082 1185.95 29.9375C1186.71 30.793 1187.77 31.2207 1189.14 31.2207C1190.52 31.2207 1191.58 30.793 1192.34 29.9375C1193.12 29.082 1193.5 27.8867 1193.5 26.3516ZM1031.26 69.7305L1034.31 66.2676C1034.7 67.2168 1035.32 67.9668 1036.18 68.5176C1037.03 69.0566 1037.99 69.3262 1039.06 69.3262C1040.35 69.3262 1041.37 69.0215 1042.12 68.4121C1042.87 67.8027 1043.24 66.9824 1043.24 65.9512C1043.24 64.7324 1042 63.5195 1039.5 62.3125C1038.69 61.9258 1038.05 61.6094 1037.58 61.3633C1035.33 60.1914 1033.78 59.0488 1032.91 57.9355C1032.04 56.8105 1031.61 55.4746 1031.61 53.9277C1031.61 51.8066 1032.45 50.0664 1034.12 48.707C1035.81 47.3359 1037.99 46.6504 1040.68 46.6504C1042.24 46.6504 1043.58 46.9258 1044.7 47.4766C1045.84 48.0156 1046.84 48.8652 1047.71 50.0254L1044.46 53.1367C1044.07 52.3867 1043.55 51.8301 1042.91 51.4668C1042.28 51.0918 1041.51 50.9043 1040.61 50.9043C1039.52 50.9043 1038.64 51.1797 1037.97 51.7305C1037.3 52.2695 1036.97 52.9727 1036.97 53.8398C1036.97 55.1992 1038.29 56.4414 1040.94 57.5664C1041.47 57.7891 1041.87 57.9648 1042.15 58.0938C1044.33 59.0898 1045.95 60.2148 1046.99 61.4688C1048.04 62.7227 1048.57 64.1523 1048.57 65.7578C1048.57 68.1719 1047.74 70.0996 1046.09 71.541C1044.45 72.9707 1042.24 73.6855 1039.46 73.6855C1037.5 73.6855 1035.81 73.3457 1034.4 72.666C1033 71.9863 1031.95 71.0078 1031.26 69.7305ZM1068.67 62.5938C1068.53 61.5039 1068.13 60.6836 1067.48 60.1328C1066.83 59.5703 1065.95 59.2891 1064.82 59.2891C1063.7 59.2891 1062.79 59.5703 1062.11 60.1328C1061.45 60.6836 1061.02 61.5039 1060.83 62.5938H1068.67ZM1073.63 65.6172H1060.67C1060.87 66.8594 1061.32 67.791 1062.03 68.4121C1062.73 69.0215 1063.68 69.3262 1064.89 69.3262C1065.81 69.3262 1066.59 69.1504 1067.25 68.7988C1067.92 68.4473 1068.47 67.9141 1068.92 67.1992L1072.96 69.2207C1072.02 70.7324 1070.89 71.8574 1069.55 72.5957C1068.21 73.3223 1066.63 73.6855 1064.79 73.6855C1062 73.6855 1059.79 72.8535 1058.16 71.1895C1056.53 69.5254 1055.72 67.2871 1055.72 64.4746C1055.72 61.7676 1056.57 59.541 1058.26 57.7949C1059.98 56.0488 1062.16 55.1758 1064.82 55.1758C1067.56 55.1758 1069.73 55.9961 1071.33 57.6367C1072.92 59.2656 1073.72 61.4922 1073.72 64.3164C1073.72 64.4688 1073.71 64.6387 1073.7 64.8262C1073.69 65.002 1073.66 65.2656 1073.63 65.6172ZM1079.88 69.9766L1083.73 67.9902C1083.86 68.6582 1084.2 69.1855 1084.76 69.5723C1085.33 69.959 1086.02 70.1523 1086.86 70.1523C1087.68 70.1523 1088.32 70.0059 1088.79 69.7129C1089.26 69.4082 1089.49 68.9922 1089.49 68.4648C1089.49 67.6328 1088.66 66.9355 1087 66.373C1086.48 66.1973 1086.07 66.0508 1085.77 65.9336C1083.74 65.1719 1082.33 64.4043 1081.55 63.6309C1080.77 62.8574 1080.39 61.9023 1080.39 60.7656C1080.39 59.0781 1081.05 57.7129 1082.37 56.6699C1083.7 55.627 1085.44 55.1055 1087.61 55.1055C1089.16 55.1055 1090.49 55.416 1091.62 56.0371C1092.76 56.6582 1093.58 57.5371 1094.1 58.6738L1090.42 60.502C1090.23 59.8574 1089.88 59.3711 1089.39 59.043C1088.9 58.7031 1088.28 58.5332 1087.54 58.5332C1086.8 58.5332 1086.21 58.6855 1085.75 58.9902C1085.29 59.2949 1085.06 59.6934 1085.06 60.1855C1085.06 61.041 1086.2 61.8379 1088.47 62.5762C1088.74 62.6582 1088.95 62.7227 1089.09 62.7695C1090.98 63.3906 1092.32 64.1172 1093.11 64.9492C1093.91 65.7695 1094.31 66.8184 1094.31 68.0957C1094.31 69.8066 1093.65 71.166 1092.32 72.1738C1091 73.1816 1089.21 73.6855 1086.96 73.6855C1085.18 73.6855 1083.66 73.3574 1082.39 72.7012C1081.14 72.0332 1080.3 71.125 1079.88 69.9766ZM1100.44 69.9766L1104.29 67.9902C1104.41 68.6582 1104.76 69.1855 1105.32 69.5723C1105.88 69.959 1106.58 70.1523 1107.41 70.1523C1108.23 70.1523 1108.88 70.0059 1109.35 69.7129C1109.82 69.4082 1110.05 68.9922 1110.05 68.4648C1110.05 67.6328 1109.22 66.9355 1107.55 66.373C1107.04 66.1973 1106.63 66.0508 1106.32 65.9336C1104.3 65.1719 1102.89 64.4043 1102.11 63.6309C1101.33 62.8574 1100.95 61.9023 1100.95 60.7656C1100.95 59.0781 1101.61 57.7129 1102.93 56.6699C1104.26 55.627 1106 55.1055 1108.17 55.1055C1109.72 55.1055 1111.05 55.416 1112.18 56.0371C1113.31 56.6582 1114.14 57.5371 1114.66 58.6738L1110.98 60.502C1110.78 59.8574 1110.44 59.3711 1109.95 59.043C1109.45 58.7031 1108.84 58.5332 1108.1 58.5332C1107.36 58.5332 1106.76 58.6855 1106.31 58.9902C1105.85 59.2949 1105.62 59.6934 1105.62 60.1855C1105.62 61.041 1106.76 61.8379 1109.03 62.5762C1109.3 62.6582 1109.51 62.7227 1109.65 62.7695C1111.53 63.3906 1112.88 64.1172 1113.67 64.9492C1114.47 65.7695 1114.87 66.8184 1114.87 68.0957C1114.87 69.8066 1114.21 71.166 1112.88 72.1738C1111.56 73.1816 1109.77 73.6855 1107.52 73.6855C1105.74 73.6855 1104.21 73.3574 1102.95 72.7012C1101.7 72.0332 1100.86 71.125 1100.44 69.9766ZM1122.43 48.6719C1122.43 47.875 1122.72 47.1895 1123.3 46.6152C1123.87 46.041 1124.56 45.7539 1125.35 45.7539C1126.16 45.7539 1126.85 46.041 1127.43 46.6152C1128.01 47.1777 1128.31 47.8633 1128.31 48.6719C1128.31 49.4805 1128.01 50.1719 1127.43 50.7461C1126.85 51.3203 1126.16 51.6074 1125.35 51.6074C1124.56 51.6074 1123.87 51.3145 1123.3 50.7285C1122.72 50.1426 1122.43 49.457 1122.43 48.6719ZM1122.87 73V55.7559H1127.87V73H1122.87ZM1150.13 64.4043C1150.13 62.998 1149.72 61.8789 1148.9 61.0469C1148.08 60.2031 1146.98 59.7812 1145.59 59.7812C1144.21 59.7812 1143.12 60.1973 1142.31 61.0293C1141.5 61.8613 1141.09 62.9863 1141.09 64.4043C1141.09 65.8105 1141.5 66.9355 1142.31 67.7793C1143.12 68.623 1144.21 69.0449 1145.59 69.0449C1146.97 69.0449 1148.06 68.623 1148.88 67.7793C1149.71 66.9355 1150.13 65.8105 1150.13 64.4043ZM1155.23 64.4395C1155.23 67.0879 1154.32 69.291 1152.5 71.0488C1150.7 72.8066 1148.41 73.6855 1145.63 73.6855C1142.83 73.6855 1140.52 72.8066 1138.7 71.0488C1136.89 69.291 1135.98 67.0879 1135.98 64.4395C1135.98 61.8027 1136.89 59.5996 1138.72 57.8301C1140.55 56.0605 1142.85 55.1758 1145.63 55.1758C1148.42 55.1758 1150.72 56.0488 1152.52 57.7949C1154.32 59.541 1155.23 61.7559 1155.23 64.4395ZM1163.16 73V55.7559H1168.07V58.4629C1168.97 57.3379 1169.94 56.5117 1170.97 55.9844C1172.01 55.4453 1173.17 55.1758 1174.43 55.1758C1175.77 55.1758 1176.89 55.4043 1177.79 55.8613C1178.7 56.3066 1179.42 56.9922 1179.95 57.918C1180.21 58.3984 1180.39 58.9434 1180.5 59.5527C1180.61 60.1504 1180.67 61.0938 1180.67 62.3828V62.9277V73H1175.66V64.4746C1175.66 62.3535 1175.42 60.9531 1174.92 60.2734C1174.43 59.5938 1173.59 59.2539 1172.39 59.2539C1171.7 59.2539 1171.06 59.4004 1170.48 59.6934C1169.9 59.9746 1169.42 60.3789 1169.04 60.9062C1168.73 61.3164 1168.51 61.7852 1168.37 62.3125C1168.24 62.8398 1168.17 63.6426 1168.17 64.7207V65.4062V73H1163.16Z" fill="url(#paint1_radial_852_8)"/>
<path d="M231.89 81V55.2656H247.042V59.9062H237.391V65.1973H247.042V69.873H237.391V76.3242H247.042V81H231.89ZM268.865 72.3516C268.865 70.8047 268.473 69.5801 267.688 68.6777C266.914 67.7754 265.865 67.3242 264.541 67.3242C263.182 67.3242 262.11 67.7754 261.324 68.6777C260.551 69.5684 260.164 70.793 260.164 72.3516C260.164 73.9102 260.545 75.123 261.307 75.9902C262.08 76.8574 263.147 77.291 264.506 77.291C265.889 77.291 266.961 76.8574 267.723 75.9902C268.485 75.123 268.865 73.9102 268.865 72.3516ZM273.436 81H268.584L268.655 78.5215C267.975 79.6113 267.155 80.4141 266.194 80.9297C265.244 81.4336 264.084 81.6855 262.713 81.6855C260.428 81.6855 258.582 80.8359 257.176 79.1367C255.781 77.4375 255.084 75.1934 255.084 72.4043C255.084 69.498 255.77 67.2363 257.141 65.6191C258.524 63.9902 260.44 63.1758 262.889 63.1758C264.166 63.1758 265.285 63.4629 266.246 64.0371C267.219 64.6113 268.033 65.4668 268.69 66.6035V63.7559H273.436V81ZM287.138 68.1855C287.642 66.5098 288.363 65.2559 289.3 64.4238C290.25 63.5918 291.421 63.1758 292.816 63.1758C293.132 63.1758 293.654 63.2344 294.38 63.3516C294.521 63.375 294.627 63.3926 294.697 63.4043L293.941 68.7832C293.566 68.6309 293.185 68.5195 292.798 68.4492C292.423 68.3672 292.025 68.3262 291.603 68.3262C290.08 68.3262 288.984 68.7188 288.316 69.5039C287.648 70.2773 287.314 71.5781 287.314 73.4062V81H282.304V63.7559H287.244L287.138 68.1855ZM301.298 81V53.7539H306.29V81H301.298ZM319.764 79.6641L312.821 63.7559H318.604L321.592 71.6484C321.791 72.1406 321.955 72.709 322.084 73.3535C322.213 73.9863 322.313 74.6953 322.383 75.4805C322.5 74.8477 322.647 74.2031 322.823 73.5469C322.998 72.8906 323.215 72.1934 323.473 71.4551L326.092 63.7559H331.823L321.557 88.8398H316.02L319.764 79.6641ZM359.333 76.7109H361.495C362.878 76.7109 363.927 76.4121 364.642 75.8145C365.356 75.2051 365.714 74.3203 365.714 73.1602C365.714 72.0703 365.356 71.2383 364.642 70.6641C363.939 70.0898 362.913 69.8027 361.565 69.8027H359.333V76.7109ZM359.333 65.5488H360.564C362.228 65.5488 363.405 65.3145 364.097 64.8457C364.788 64.377 365.134 63.5918 365.134 62.4902C365.134 61.4121 364.8 60.6445 364.132 60.1875C363.476 59.7305 362.321 59.502 360.669 59.502H359.333V65.5488ZM353.831 81V55.2656H358.647C361.144 55.2656 362.966 55.3652 364.114 55.5645C365.274 55.752 366.276 56.0684 367.12 56.5137C368.116 57.0879 368.884 57.8438 369.423 58.7812C369.974 59.7188 370.249 60.7793 370.249 61.9629C370.249 63.4863 369.798 64.7109 368.896 65.6367C367.993 66.5508 366.646 67.1602 364.853 67.4648C366.927 67.7695 368.491 68.4434 369.546 69.4863C370.612 70.5293 371.146 71.918 371.146 73.6523C371.146 74.918 370.841 76.0781 370.231 77.1328C369.622 78.1758 368.784 78.9844 367.718 79.5586C366.769 80.0742 365.655 80.4434 364.378 80.666C363.101 80.8887 360.985 81 358.032 81H357.47H353.831ZM378.801 56.6719C378.801 55.875 379.088 55.1895 379.663 54.6152C380.237 54.041 380.922 53.7539 381.719 53.7539C382.528 53.7539 383.219 54.041 383.793 54.6152C384.379 55.1777 384.672 55.8633 384.672 56.6719C384.672 57.4805 384.379 58.1719 383.793 58.7461C383.219 59.3203 382.528 59.6074 381.719 59.6074C380.922 59.6074 380.237 59.3145 379.663 58.7285C379.088 58.1426 378.801 57.457 378.801 56.6719ZM379.241 81V63.7559H384.233V81H379.241ZM398.287 68.1855C398.791 66.5098 399.511 65.2559 400.449 64.4238C401.398 63.5918 402.57 63.1758 403.965 63.1758C404.281 63.1758 404.802 63.2344 405.529 63.3516C405.67 63.375 405.775 63.3926 405.845 63.4043L405.09 68.7832C404.715 68.6309 404.334 68.5195 403.947 68.4492C403.572 68.3672 403.174 68.3262 402.752 68.3262C401.228 68.3262 400.133 68.7188 399.465 69.5039C398.797 70.2773 398.463 71.5781 398.463 73.4062V81H393.453V63.7559H398.392L398.287 68.1855ZM424.962 72.3516C424.962 70.8047 424.569 69.5801 423.784 68.6777C423.011 67.7754 421.962 67.3242 420.638 67.3242C419.278 67.3242 418.206 67.7695 417.421 68.6602C416.648 69.5391 416.261 70.7578 416.261 72.3164C416.261 73.875 416.642 75.0938 417.403 75.9727C418.177 76.8516 419.243 77.291 420.603 77.291C421.985 77.291 423.058 76.8574 423.819 75.9902C424.581 75.123 424.962 73.9102 424.962 72.3516ZM429.532 81H424.681L424.751 78.5215C424.071 79.6113 423.251 80.4141 422.29 80.9297C421.341 81.4336 420.181 81.6855 418.81 81.6855C416.525 81.6855 414.679 80.8359 413.273 79.1367C411.878 77.4375 411.181 75.1934 411.181 72.4043C411.181 69.4863 411.866 67.2129 413.237 65.584C414.62 63.9551 416.536 63.1406 418.985 63.1406C420.239 63.1406 421.341 63.4277 422.29 64.002C423.239 64.5762 424.13 65.4844 424.962 66.7266C424.903 66.3047 424.857 65.8418 424.821 65.3379C424.798 64.8223 424.786 64.2363 424.786 63.5801V53.7539H429.532V81Z" fill="url(#paint2_radial_852_8)"/>
<path d="M331 181.667C328.054 181.667 325.667 184.054 325.667 187C325.667 189.946 328.054 192.333 331 192.333C333.946 192.333 336.333 189.946 336.333 187C336.333 184.054 333.946 181.667 331 181.667ZM330 187L330 234.51L332 234.51L332 187L330 187Z" fill="#EB9928"/>
<path d="M738 181.667C735.054 181.667 732.667 184.054 732.667 187C732.667 189.946 735.054 192.333 738 192.333C740.946 192.333 743.333 189.946 743.333 187C743.333 184.054 740.946 181.667 738 181.667ZM737 187L737 234.51L739 234.51L739 187L737 187Z" fill="#EB9928"/>
<path d="M1104 181.667C1101.05 181.667 1098.67 184.054 1098.67 187C1098.67 189.946 1101.05 192.333 1104 192.333C1106.95 192.333 1109.33 189.946 1109.33 187C1109.33 184.054 1106.95 181.667 1104 181.667ZM1103 187L1103 234.51L1105 234.51L1105 187L1103 187Z" fill="#EB9928"/>
<line x1="383" y1="111" x2="279" y2="111" stroke="#EB9928" stroke-width="2"/>
<line x1="1146" y1="111" x2="1062" y2="111" stroke="#EB9928" stroke-width="2"/>
<line x1="812" y1="111" x2="663" y2="111" stroke="#EB9928" stroke-width="2"/>
<defs>
<radialGradient id="paint0_radial_852_8" cx="0" cy="0" r="1" gradientUnits="userSpaceOnUse" gradientTransform="translate(738 46) rotate(90.8185) scale(35.0036 236.784)">
<stop stop-color="#EB9928"/>
<stop offset="1" stop-color="#FFCE2E"/>
</radialGradient>
<radialGradient id="paint1_radial_852_8" cx="0" cy="0" r="1" gradientUnits="userSpaceOnUse" gradientTransform="translate(1106.5 40.5) rotate(90) scale(40.5 126.114)">
<stop stop-color="#EB9928"/>
<stop offset="1" stop-color="#FFCE2E"/>
</radialGradient>
<radialGradient id="paint2_radial_852_8" cx="0" cy="0" r="1" gradientUnits="userSpaceOnUse" gradientTransform="translate(330.5 67.5) rotate(90) scale(40.5 454.17)">
<stop stop-color="#EB9928"/>
<stop offset="0.383093" stop-color="#FFCE2E"/>
</radialGradient>
</defs>
</svg>
