<svg width="1738" height="238" viewBox="0 0 1738 238" fill="none" xmlns="http://www.w3.org/2000/svg">
<line x1="160" y1="143.666" x2="476.839" y2="143.666" stroke="#1E2E40" stroke-width="2"/>
<line x1="513" y1="144" x2="849" y2="144" stroke="#1E2E40" stroke-width="2"/>
<line x1="886" y1="144" x2="1225" y2="144" stroke="#1E2E40" stroke-width="2"/>
<line x1="1262.47" y1="143.666" x2="1578.29" y2="143.666" stroke="#1E2E40" stroke-width="2"/>
<ellipse cx="1243.63" cy="143.138" rx="18.8473" ry="17.8286" fill="#1E2E40"/>
<ellipse cx="1596.63" cy="144.157" rx="18.3379" ry="17.8286" fill="#1E2E40"/>
<ellipse cx="141.338" cy="143.138" rx="18.3379" ry="17.8286" fill="#1E2E40"/>
<ellipse cx="495.338" cy="144.157" rx="18.3379" ry="17.8286" fill="#1E2E40"/>
<ellipse cx="867.847" cy="144.157" rx="18.8473" ry="17.8286" fill="#1E2E40"/>
<path d="M116.449 223.104C116.81 223.533 117.157 223.846 117.489 224.041C117.821 224.236 118.173 224.334 118.544 224.334C119.227 224.334 119.706 224.109 119.979 223.66C120.263 223.211 120.404 222.376 120.404 221.155V205.555H123.861V222.283C123.861 224.1 123.461 225.438 122.66 226.297C121.859 227.146 120.609 227.571 118.91 227.571C117.973 227.571 117.123 227.391 116.361 227.029C115.609 226.668 114.896 226.106 114.223 225.345L116.449 223.104ZM131.723 213.113V220.936C131.723 222.283 132.002 223.25 132.558 223.836C133.115 224.422 134.018 224.715 135.268 224.715C136.518 224.715 137.422 224.422 137.978 223.836C138.535 223.25 138.813 222.283 138.813 220.936V213.113H141.992V219.983C141.992 222.64 141.46 224.568 140.395 225.77C139.331 226.971 137.632 227.571 135.298 227.571C132.924 227.571 131.206 226.976 130.141 225.784C129.077 224.593 128.545 222.659 128.545 219.983V213.113H131.723ZM146.88 227V204.295H150.059V227H146.88ZM157.452 233.533H154.186L157.994 225.799L152.897 213.113H156.412L158.961 220.306C159.108 220.745 159.235 221.194 159.342 221.653C159.459 222.103 159.552 222.562 159.62 223.03C159.747 222.542 160.05 221.766 160.529 220.701L160.602 220.525L164.03 213.113H167.472L157.452 233.533Z" fill="#1E2E40"/>
<path d="M453.212 218.577H459.189L456.991 213.685C456.864 213.372 456.732 213.016 456.596 212.615C456.459 212.205 456.322 211.751 456.186 211.253C456.068 211.722 455.941 212.161 455.805 212.571C455.678 212.972 455.546 213.343 455.409 213.685L453.212 218.577ZM462.851 227L460.419 221.478H451.923L449.433 227H445.771L456.156 204.705L466.527 227H462.851ZM471.811 213.113V220.936C471.811 222.283 472.09 223.25 472.646 223.836C473.203 224.422 474.106 224.715 475.356 224.715C476.606 224.715 477.51 224.422 478.066 223.836C478.623 223.25 478.901 222.283 478.901 220.936V213.113H482.08V219.983C482.08 222.64 481.548 224.568 480.483 225.77C479.419 226.971 477.72 227.571 475.386 227.571C473.013 227.571 471.294 226.976 470.229 225.784C469.165 224.593 468.633 222.659 468.633 219.983V213.113H471.811ZM496.798 220.013C496.798 218.577 496.461 217.459 495.787 216.658C495.123 215.857 494.19 215.457 492.989 215.457C491.788 215.457 490.84 215.872 490.147 216.702C489.464 217.522 489.122 218.665 489.122 220.13C489.122 221.604 489.454 222.742 490.118 223.543C490.782 224.344 491.719 224.744 492.93 224.744C494.073 224.744 495.001 224.31 495.714 223.44C496.436 222.571 496.798 221.429 496.798 220.013ZM499.888 226.136C499.888 228.851 499.346 230.76 498.262 231.863C497.178 232.977 495.352 233.533 492.784 233.533C490.87 233.533 489.341 233.128 488.199 232.317C487.056 231.517 486.475 230.447 486.456 229.109L489.869 229.095C489.918 229.69 490.196 230.145 490.704 230.457C491.212 230.77 491.924 230.926 492.842 230.926C494.2 230.926 495.176 230.628 495.772 230.032C496.368 229.437 496.671 228.44 496.68 227.044L496.71 225.198C496.143 225.999 495.479 226.595 494.717 226.985C493.965 227.376 493.101 227.571 492.125 227.571C490.162 227.571 488.614 226.902 487.481 225.564C486.358 224.217 485.797 222.376 485.797 220.042C485.797 217.825 486.373 216.038 487.525 214.681C488.677 213.313 490.181 212.63 492.037 212.63C493.17 212.63 494.136 212.869 494.937 213.348C495.748 213.816 496.339 214.495 496.71 215.384V213.113H499.888V226.136ZM507.809 213.113V220.936C507.809 222.283 508.087 223.25 508.644 223.836C509.201 224.422 510.104 224.715 511.354 224.715C512.604 224.715 513.507 224.422 514.064 223.836C514.621 223.25 514.899 222.283 514.899 220.936V213.113H518.078V219.983C518.078 222.64 517.545 224.568 516.481 225.77C515.416 226.971 513.717 227.571 511.383 227.571C509.01 227.571 507.291 226.976 506.227 225.784C505.163 224.593 504.63 222.659 504.63 219.983V213.113H507.809ZM521.223 224.48L523.86 223.045C524.055 223.738 524.416 224.266 524.944 224.627C525.471 224.988 526.15 225.169 526.98 225.169C527.693 225.169 528.249 225.008 528.65 224.686C529.06 224.354 529.265 223.904 529.265 223.338C529.265 222.586 528.542 221.941 527.097 221.404C526.609 221.229 526.233 221.082 525.969 220.965C524.485 220.35 523.445 219.725 522.849 219.09C522.263 218.455 521.97 217.684 521.97 216.775C521.97 215.535 522.453 214.529 523.42 213.758C524.397 212.986 525.686 212.601 527.287 212.601C528.362 212.601 529.28 212.801 530.041 213.201C530.813 213.592 531.374 214.153 531.726 214.886L529.47 216.438C529.304 215.999 529.011 215.652 528.591 215.398C528.181 215.135 527.702 215.003 527.156 215.003C526.55 215.003 526.062 215.149 525.691 215.442C525.329 215.726 525.149 216.106 525.149 216.585C525.149 217.308 525.969 217.967 527.61 218.562C528.127 218.748 528.528 218.899 528.811 219.017C530.09 219.524 531.003 220.101 531.55 220.745C532.107 221.38 532.385 222.176 532.385 223.133C532.385 224.52 531.882 225.608 530.876 226.399C529.87 227.181 528.484 227.571 526.716 227.571C525.359 227.571 524.231 227.317 523.332 226.81C522.434 226.302 521.731 225.525 521.223 224.48ZM536.79 227V215.896H534.358V213.113H536.79V207.854H539.969V213.113H542.4V215.896H539.969V227H536.79Z" fill="#1E2E40"/>
<path d="M793.076 222.708L795.859 221.419C796.123 222.376 796.606 223.108 797.309 223.616C798.013 224.114 798.911 224.363 800.005 224.363C801.04 224.363 801.86 224.075 802.466 223.499C803.081 222.923 803.389 222.151 803.389 221.185C803.389 219.925 802.344 218.802 800.254 217.815C799.961 217.669 799.736 217.562 799.58 217.493C797.217 216.341 795.64 215.301 794.848 214.373C794.067 213.436 793.677 212.293 793.677 210.945C793.677 209.197 794.267 207.781 795.449 206.697C796.64 205.613 798.198 205.071 800.122 205.071C801.704 205.071 803.027 205.379 804.092 205.994C805.156 206.6 805.893 207.474 806.304 208.616L803.579 210.022C803.149 209.349 802.676 208.855 802.158 208.543C801.65 208.23 801.064 208.074 800.4 208.074C799.463 208.074 798.716 208.318 798.159 208.807C797.612 209.295 797.339 209.949 797.339 210.77C797.339 212.059 798.55 213.26 800.972 214.373C801.157 214.461 801.304 214.529 801.411 214.578C803.53 215.555 804.985 216.512 805.776 217.449C806.567 218.377 806.963 219.539 806.963 220.936C806.963 222.967 806.323 224.583 805.044 225.784C803.765 226.976 802.036 227.571 799.858 227.571C798.032 227.571 796.533 227.151 795.361 226.312C794.199 225.472 793.437 224.271 793.076 222.708ZM824.332 220.525H813.228C813.306 221.824 813.692 222.84 814.385 223.572C815.079 224.295 816.002 224.656 817.154 224.656C818.179 224.656 819.034 224.441 819.717 224.012C820.401 223.582 820.997 222.889 821.505 221.932L824.185 223.426C823.404 224.822 822.437 225.862 821.285 226.546C820.132 227.229 818.78 227.571 817.227 227.571C815.001 227.571 813.228 226.893 811.91 225.535C810.591 224.178 809.932 222.366 809.932 220.101C809.932 217.923 810.611 216.136 811.968 214.739C813.336 213.333 815.089 212.63 817.227 212.63C819.464 212.63 821.207 213.27 822.457 214.549C823.707 215.828 824.332 217.62 824.332 219.925V220.525ZM821.036 218.387C820.909 217.391 820.528 216.634 819.893 216.116C819.258 215.589 818.389 215.325 817.286 215.325C816.241 215.325 815.401 215.579 814.766 216.087C814.132 216.595 813.687 217.361 813.433 218.387H821.036ZM831.183 220.013C831.183 221.448 831.54 222.596 832.252 223.455C832.975 224.314 833.922 224.744 835.094 224.744C836.295 224.744 837.223 224.344 837.877 223.543C838.541 222.742 838.873 221.604 838.873 220.13C838.873 218.665 838.527 217.522 837.833 216.702C837.15 215.872 836.207 215.457 835.006 215.457C833.805 215.457 832.868 215.857 832.194 216.658C831.52 217.459 831.183 218.577 831.183 220.013ZM828.107 233.533V213.113H831.286V215.384C831.657 214.505 832.248 213.826 833.058 213.348C833.878 212.869 834.855 212.63 835.988 212.63C837.833 212.63 839.328 213.313 840.47 214.681C841.623 216.038 842.199 217.825 842.199 220.042C842.199 222.376 841.632 224.217 840.499 225.564C839.376 226.902 837.833 227.571 835.871 227.571C834.894 227.571 834.025 227.376 833.263 226.985C832.511 226.595 831.852 225.999 831.286 225.198V233.533H828.107ZM846.765 227V215.896H844.333V213.113H846.765V207.854H849.944V213.113H852.375V215.896H849.944V227H846.765ZM868.953 220.525H857.85C857.928 221.824 858.314 222.84 859.007 223.572C859.7 224.295 860.623 224.656 861.775 224.656C862.801 224.656 863.655 224.441 864.339 224.012C865.023 223.582 865.618 222.889 866.126 221.932L868.807 223.426C868.025 224.822 867.059 225.862 865.906 226.546C864.754 227.229 863.401 227.571 861.849 227.571C859.622 227.571 857.85 226.893 856.531 225.535C855.213 224.178 854.554 222.366 854.554 220.101C854.554 217.923 855.232 216.136 856.59 214.739C857.957 213.333 859.71 212.63 861.849 212.63C864.085 212.63 865.828 213.27 867.078 214.549C868.328 215.828 868.953 217.62 868.953 219.925V220.525ZM865.657 218.387C865.53 217.391 865.149 216.634 864.515 216.116C863.88 215.589 863.011 215.325 861.907 215.325C860.862 215.325 860.023 215.579 859.388 216.087C858.753 216.595 858.309 217.361 858.055 218.387H865.657ZM875.907 227H872.728V213.113H875.717V215.384C876.351 214.417 877.069 213.714 877.87 213.274C878.681 212.825 879.633 212.601 880.726 212.601C881.81 212.601 882.709 212.83 883.422 213.289C884.135 213.738 884.677 214.427 885.048 215.354C885.78 214.397 886.557 213.699 887.377 213.26C888.207 212.82 889.149 212.601 890.204 212.601C891.122 212.601 891.923 212.771 892.606 213.113C893.29 213.445 893.822 213.934 894.203 214.578C894.379 214.881 894.506 215.242 894.584 215.662C894.672 216.082 894.716 216.683 894.716 217.464V218.577V227H891.537V219.866C891.537 218.001 891.337 216.775 890.936 216.189C890.546 215.594 889.843 215.296 888.827 215.296C887.577 215.296 886.683 215.696 886.146 216.497C885.619 217.288 885.355 218.68 885.355 220.672V227H882.147V219.866C882.147 218.147 881.937 216.956 881.517 216.292C881.107 215.628 880.394 215.296 879.379 215.296C878.754 215.296 878.182 215.438 877.665 215.721C877.147 216.004 876.737 216.395 876.434 216.893C876.239 217.215 876.102 217.61 876.024 218.079C875.946 218.548 875.907 219.412 875.907 220.672V227ZM902.505 220.013C902.505 221.429 902.866 222.571 903.589 223.44C904.321 224.31 905.263 224.744 906.416 224.744C907.617 224.744 908.545 224.344 909.199 223.543C909.863 222.742 910.195 221.604 910.195 220.13C910.195 218.665 909.848 217.522 909.155 216.702C908.471 215.872 907.529 215.457 906.328 215.457C905.127 215.457 904.189 215.857 903.515 216.658C902.841 217.459 902.505 218.577 902.505 220.013ZM902.607 204.295V215.384C902.978 214.505 903.569 213.826 904.38 213.348C905.2 212.869 906.176 212.63 907.309 212.63C909.155 212.63 910.649 213.313 911.792 214.681C912.944 216.038 913.52 217.825 913.52 220.042C913.52 222.376 912.954 224.217 911.821 225.564C910.698 226.902 909.155 227.571 907.192 227.571C906.215 227.571 905.346 227.376 904.585 226.985C903.833 226.595 903.173 225.999 902.607 225.198V227H899.428V204.295H902.607ZM930.713 220.525H919.61C919.688 221.824 920.074 222.84 920.767 223.572C921.46 224.295 922.383 224.656 923.536 224.656C924.561 224.656 925.415 224.441 926.099 224.012C926.783 223.582 927.378 222.889 927.886 221.932L930.567 223.426C929.786 224.822 928.819 225.862 927.666 226.546C926.514 227.229 925.162 227.571 923.609 227.571C921.382 227.571 919.61 226.893 918.291 225.535C916.973 224.178 916.314 222.366 916.314 220.101C916.314 217.923 916.993 216.136 918.35 214.739C919.717 213.333 921.47 212.63 923.609 212.63C925.845 212.63 927.588 213.27 928.838 214.549C930.088 215.828 930.713 217.62 930.713 219.925V220.525ZM927.417 218.387C927.29 217.391 926.91 216.634 926.275 216.116C925.64 215.589 924.771 215.325 923.667 215.325C922.623 215.325 921.783 215.579 921.148 216.087C920.513 216.595 920.069 217.361 919.815 218.387H927.417ZM937.667 215.325C938.009 214.407 938.458 213.729 939.015 213.289C939.581 212.85 940.28 212.63 941.11 212.63C941.559 212.63 941.998 212.684 942.428 212.791C942.867 212.898 943.297 213.055 943.717 213.26L942.574 215.955C942.301 215.76 942.003 215.618 941.681 215.53C941.368 215.433 941.017 215.384 940.626 215.384C939.572 215.384 938.815 215.809 938.356 216.658C937.897 217.498 937.667 218.914 937.667 220.906V227H934.489V213.084H937.667V215.325Z" fill="#1E2E40"/>
<path d="M1207.28 216.321C1207.28 215.237 1207.07 214.207 1206.67 213.23C1206.28 212.254 1205.72 211.385 1204.98 210.623C1204.25 209.871 1203.41 209.295 1202.46 208.895C1201.51 208.484 1200.51 208.279 1199.45 208.279C1198.4 208.279 1197.39 208.479 1196.44 208.88C1195.49 209.28 1194.64 209.861 1193.9 210.623C1193.16 211.375 1192.59 212.239 1192.2 213.216C1191.81 214.192 1191.62 215.228 1191.62 216.321C1191.62 217.405 1191.81 218.431 1192.2 219.397C1192.59 220.364 1193.16 221.229 1193.9 221.99C1194.64 222.752 1195.49 223.333 1196.44 223.733C1197.38 224.134 1198.39 224.334 1199.45 224.334C1200.5 224.334 1201.49 224.134 1202.43 223.733C1203.37 223.333 1204.22 222.752 1204.98 221.99C1205.72 221.229 1206.28 220.364 1206.67 219.397C1207.07 218.421 1207.28 217.396 1207.28 216.321ZM1210.91 216.321C1210.91 217.845 1210.62 219.285 1210.04 220.643C1209.48 222 1208.65 223.211 1207.55 224.275C1206.45 225.34 1205.2 226.155 1203.82 226.722C1202.43 227.288 1200.98 227.571 1199.45 227.571C1197.91 227.571 1196.44 227.288 1195.03 226.722C1193.63 226.146 1192.4 225.33 1191.32 224.275C1190.23 223.211 1189.4 222.005 1188.83 220.657C1188.27 219.31 1187.98 217.864 1187.98 216.321C1187.98 214.788 1188.27 213.343 1188.83 211.985C1189.4 210.628 1190.23 209.412 1191.32 208.338C1192.42 207.273 1193.66 206.463 1195.04 205.906C1196.43 205.35 1197.9 205.071 1199.45 205.071C1201 205.071 1202.46 205.35 1203.83 205.906C1205.22 206.463 1206.46 207.273 1207.55 208.338C1208.65 209.422 1209.48 210.647 1210.04 212.015C1210.62 213.372 1210.91 214.808 1210.91 216.321ZM1225.46 217.068C1224.98 216.531 1224.4 216.121 1223.75 215.838C1223.11 215.555 1222.41 215.413 1221.66 215.413C1220.36 215.413 1219.32 215.833 1218.54 216.673C1217.75 217.513 1217.36 218.626 1217.36 220.013C1217.36 221.458 1217.75 222.596 1218.54 223.426C1219.33 224.246 1220.42 224.656 1221.8 224.656C1222.57 224.656 1223.26 224.515 1223.87 224.231C1224.47 223.938 1225.01 223.499 1225.46 222.913V226.575C1224.88 226.907 1224.25 227.156 1223.57 227.322C1222.91 227.488 1222.2 227.571 1221.45 227.571C1219.27 227.571 1217.5 226.878 1216.12 225.491C1214.75 224.104 1214.07 222.308 1214.07 220.101C1214.07 217.864 1214.78 216.062 1216.19 214.695C1217.62 213.318 1219.48 212.63 1221.77 212.63C1222.5 212.63 1223.16 212.703 1223.77 212.85C1224.37 212.986 1224.94 213.201 1225.46 213.494V217.068ZM1229.91 227V215.896H1227.48V213.113H1229.91V207.854H1233.09V213.113H1235.52V215.896H1233.09V227H1229.91ZM1249.64 220.101C1249.64 218.812 1249.23 217.723 1248.4 216.834C1247.57 215.936 1246.55 215.486 1245.35 215.486C1244.16 215.486 1243.14 215.936 1242.3 216.834C1241.47 217.723 1241.06 218.812 1241.06 220.101C1241.06 221.39 1241.47 222.483 1242.3 223.382C1243.14 224.271 1244.16 224.715 1245.35 224.715C1246.54 224.715 1247.55 224.271 1248.38 223.382C1249.22 222.483 1249.64 221.39 1249.64 220.101ZM1237.7 220.071C1237.7 219.056 1237.89 218.099 1238.27 217.2C1238.66 216.292 1239.22 215.486 1239.94 214.783C1240.66 214.09 1241.48 213.558 1242.4 213.187C1243.33 212.815 1244.3 212.63 1245.32 212.63C1246.36 212.63 1247.35 212.815 1248.26 213.187C1249.19 213.558 1250.02 214.104 1250.75 214.827C1251.49 215.54 1252.04 216.346 1252.42 217.244C1252.8 218.143 1253 219.085 1253 220.071C1253 221.097 1252.8 222.059 1252.42 222.957C1252.05 223.855 1251.51 224.651 1250.78 225.345C1250.02 226.077 1249.18 226.629 1248.25 227C1247.32 227.381 1246.34 227.571 1245.32 227.571C1244.31 227.571 1243.35 227.381 1242.42 227C1241.49 226.629 1240.67 226.087 1239.94 225.374C1239.21 224.651 1238.65 223.841 1238.27 222.942C1237.89 222.044 1237.7 221.087 1237.7 220.071ZM1259.89 220.013C1259.89 221.429 1260.25 222.571 1260.97 223.44C1261.71 224.31 1262.65 224.744 1263.8 224.744C1265 224.744 1265.93 224.344 1266.58 223.543C1267.25 222.742 1267.58 221.604 1267.58 220.13C1267.58 218.665 1267.23 217.522 1266.54 216.702C1265.86 215.872 1264.91 215.457 1263.71 215.457C1262.51 215.457 1261.58 215.857 1260.9 216.658C1260.23 217.459 1259.89 218.577 1259.89 220.013ZM1259.99 204.295V215.384C1260.36 214.505 1260.95 213.826 1261.77 213.348C1262.59 212.869 1263.56 212.63 1264.7 212.63C1266.54 212.63 1268.04 213.313 1269.18 214.681C1270.33 216.038 1270.91 217.825 1270.91 220.042C1270.91 222.376 1270.34 224.217 1269.21 225.564C1268.08 226.902 1266.54 227.571 1264.58 227.571C1263.6 227.571 1262.73 227.376 1261.97 226.985C1261.22 226.595 1260.56 225.999 1259.99 225.198V227H1256.81V204.295H1259.99ZM1288.1 220.525H1277C1277.07 221.824 1277.46 222.84 1278.15 223.572C1278.85 224.295 1279.77 224.656 1280.92 224.656C1281.95 224.656 1282.8 224.441 1283.49 224.012C1284.17 223.582 1284.76 222.889 1285.27 221.932L1287.95 223.426C1287.17 224.822 1286.2 225.862 1285.05 226.546C1283.9 227.229 1282.55 227.571 1280.99 227.571C1278.77 227.571 1277 226.893 1275.68 225.535C1274.36 224.178 1273.7 222.366 1273.7 220.101C1273.7 217.923 1274.38 216.136 1275.74 214.739C1277.1 213.333 1278.86 212.63 1280.99 212.63C1283.23 212.63 1284.97 213.27 1286.22 214.549C1287.47 215.828 1288.1 217.62 1288.1 219.925V220.525ZM1284.8 218.387C1284.68 217.391 1284.3 216.634 1283.66 216.116C1283.03 215.589 1282.16 215.325 1281.05 215.325C1280.01 215.325 1279.17 215.579 1278.53 216.087C1277.9 216.595 1277.45 217.361 1277.2 218.387H1284.8ZM1295.05 215.325C1295.39 214.407 1295.84 213.729 1296.4 213.289C1296.97 212.85 1297.67 212.63 1298.5 212.63C1298.94 212.63 1299.38 212.684 1299.81 212.791C1300.25 212.898 1300.68 213.055 1301.1 213.26L1299.96 215.955C1299.69 215.76 1299.39 215.618 1299.07 215.53C1298.75 215.433 1298.4 215.384 1298.01 215.384C1296.96 215.384 1296.2 215.809 1295.74 216.658C1295.28 217.498 1295.05 218.914 1295.05 220.906V227H1291.87V213.084H1295.05V215.325Z" fill="#1E2E40"/>
<path d="M1525.44 227V204.705L1539.06 217.815C1539.43 218.187 1539.81 218.582 1540.19 219.002C1540.57 219.422 1540.97 219.896 1541.39 220.423V205.555H1544.61V227.835L1530.71 214.49C1530.34 214.129 1529.98 213.748 1529.63 213.348C1529.28 212.947 1528.96 212.527 1528.64 212.088V227H1525.44ZM1560.65 220.101C1560.65 218.812 1560.23 217.723 1559.4 216.834C1558.57 215.936 1557.56 215.486 1556.35 215.486C1555.16 215.486 1554.15 215.936 1553.31 216.834C1552.48 217.723 1552.06 218.812 1552.06 220.101C1552.06 221.39 1552.48 222.483 1553.31 223.382C1554.15 224.271 1555.16 224.715 1556.35 224.715C1557.55 224.715 1558.56 224.271 1559.39 223.382C1560.23 222.483 1560.65 221.39 1560.65 220.101ZM1548.71 220.071C1548.71 219.056 1548.9 218.099 1549.28 217.2C1549.67 216.292 1550.23 215.486 1550.95 214.783C1551.66 214.09 1552.48 213.558 1553.41 213.187C1554.34 212.815 1555.31 212.63 1556.33 212.63C1557.37 212.63 1558.35 212.815 1559.27 213.187C1560.2 213.558 1561.03 214.104 1561.76 214.827C1562.49 215.54 1563.05 216.346 1563.43 217.244C1563.81 218.143 1564 219.085 1564 220.071C1564 221.097 1563.81 222.059 1563.43 222.957C1563.06 223.855 1562.51 224.651 1561.79 225.345C1561.03 226.077 1560.18 226.629 1559.25 227C1558.33 227.381 1557.35 227.571 1556.33 227.571C1555.32 227.571 1554.35 227.381 1553.42 227C1552.5 226.629 1551.67 226.087 1550.95 225.374C1550.22 224.651 1549.66 223.841 1549.28 222.942C1548.9 222.044 1548.71 221.087 1548.71 220.071ZM1572.7 227.835L1565.42 213.113H1568.89L1571.92 220.101C1572.02 220.315 1572.14 220.638 1572.27 221.067C1572.41 221.497 1572.55 222.01 1572.7 222.605C1572.8 222.186 1572.91 221.771 1573.04 221.36C1573.17 220.94 1573.33 220.521 1573.52 220.101L1576.54 213.113H1579.99L1572.7 227.835ZM1595.82 220.525H1584.72C1584.8 221.824 1585.18 222.84 1585.88 223.572C1586.57 224.295 1587.49 224.656 1588.65 224.656C1589.67 224.656 1590.53 224.441 1591.21 224.012C1591.89 223.582 1592.49 222.889 1593 221.932L1595.68 223.426C1594.9 224.822 1593.93 225.862 1592.78 226.546C1591.62 227.229 1590.27 227.571 1588.72 227.571C1586.49 227.571 1584.72 226.893 1583.4 225.535C1582.08 224.178 1581.42 222.366 1581.42 220.101C1581.42 217.923 1582.1 216.136 1583.46 214.739C1584.83 213.333 1586.58 212.63 1588.72 212.63C1590.96 212.63 1592.7 213.27 1593.95 214.549C1595.2 215.828 1595.82 217.62 1595.82 219.925V220.525ZM1592.53 218.387C1592.4 217.391 1592.02 216.634 1591.39 216.116C1590.75 215.589 1589.88 215.325 1588.78 215.325C1587.73 215.325 1586.89 215.579 1586.26 216.087C1585.62 216.595 1585.18 217.361 1584.93 218.387H1592.53ZM1602.78 227H1599.6V213.113H1602.59V215.384C1603.22 214.417 1603.94 213.714 1604.74 213.274C1605.55 212.825 1606.5 212.601 1607.6 212.601C1608.68 212.601 1609.58 212.83 1610.29 213.289C1611.01 213.738 1611.55 214.427 1611.92 215.354C1612.65 214.397 1613.43 213.699 1614.25 213.26C1615.08 212.82 1616.02 212.601 1617.07 212.601C1617.99 212.601 1618.79 212.771 1619.48 213.113C1620.16 213.445 1620.69 213.934 1621.07 214.578C1621.25 214.881 1621.38 215.242 1621.45 215.662C1621.54 216.082 1621.59 216.683 1621.59 217.464V218.577V227H1618.41V219.866C1618.41 218.001 1618.21 216.775 1617.81 216.189C1617.42 215.594 1616.71 215.296 1615.7 215.296C1614.45 215.296 1613.55 215.696 1613.02 216.497C1612.49 217.288 1612.23 218.68 1612.23 220.672V227H1609.02V219.866C1609.02 218.147 1608.81 216.956 1608.39 216.292C1607.98 215.628 1607.27 215.296 1606.25 215.296C1605.62 215.296 1605.05 215.438 1604.54 215.721C1604.02 216.004 1603.61 216.395 1603.31 216.893C1603.11 217.215 1602.97 217.61 1602.89 218.079C1602.82 218.548 1602.78 219.412 1602.78 220.672V227ZM1629.38 220.013C1629.38 221.429 1629.74 222.571 1630.46 223.44C1631.19 224.31 1632.13 224.744 1633.29 224.744C1634.49 224.744 1635.42 224.344 1636.07 223.543C1636.73 222.742 1637.07 221.604 1637.07 220.13C1637.07 218.665 1636.72 217.522 1636.03 216.702C1635.34 215.872 1634.4 215.457 1633.2 215.457C1632 215.457 1631.06 215.857 1630.39 216.658C1629.71 217.459 1629.38 218.577 1629.38 220.013ZM1629.48 204.295V215.384C1629.85 214.505 1630.44 213.826 1631.25 213.348C1632.07 212.869 1633.05 212.63 1634.18 212.63C1636.03 212.63 1637.52 213.313 1638.66 214.681C1639.81 216.038 1640.39 217.825 1640.39 220.042C1640.39 222.376 1639.82 224.217 1638.69 225.564C1637.57 226.902 1636.03 227.571 1634.06 227.571C1633.09 227.571 1632.22 227.376 1631.46 226.985C1630.7 226.595 1630.04 225.999 1629.48 225.198V227H1626.3V204.295H1629.48ZM1657.58 220.525H1646.48C1646.56 221.824 1646.94 222.84 1647.64 223.572C1648.33 224.295 1649.25 224.656 1650.41 224.656C1651.43 224.656 1652.29 224.441 1652.97 224.012C1653.65 223.582 1654.25 222.889 1654.76 221.932L1657.44 223.426C1656.66 224.822 1655.69 225.862 1654.54 226.546C1653.38 227.229 1652.03 227.571 1650.48 227.571C1648.25 227.571 1646.48 226.893 1645.16 225.535C1643.84 224.178 1643.18 222.366 1643.18 220.101C1643.18 217.923 1643.86 216.136 1645.22 214.739C1646.59 213.333 1648.34 212.63 1650.48 212.63C1652.72 212.63 1654.46 213.27 1655.71 214.549C1656.96 215.828 1657.58 217.62 1657.58 219.925V220.525ZM1654.29 218.387C1654.16 217.391 1653.78 216.634 1653.15 216.116C1652.51 215.589 1651.64 215.325 1650.54 215.325C1649.49 215.325 1648.65 215.579 1648.02 216.087C1647.38 216.595 1646.94 217.361 1646.69 218.387H1654.29ZM1664.54 215.325C1664.88 214.407 1665.33 213.729 1665.89 213.289C1666.45 212.85 1667.15 212.63 1667.98 212.63C1668.43 212.63 1668.87 212.684 1669.3 212.791C1669.74 212.898 1670.17 213.055 1670.59 213.26L1669.45 215.955C1669.17 215.76 1668.87 215.618 1668.55 215.53C1668.24 215.433 1667.89 215.384 1667.5 215.384C1666.44 215.384 1665.69 215.809 1665.23 216.658C1664.77 217.498 1664.54 218.914 1664.54 220.906V227H1661.36V213.084H1664.54V215.325Z" fill="#1E2E40"/>
<path d="M557.819 36.1934C556.953 35.4186 556.064 34.8535 555.153 34.498C554.241 34.1335 553.266 33.9512 552.227 33.9512C550.094 33.9512 548.394 34.5892 547.127 35.8652C545.86 37.1413 545.227 38.8548 545.227 41.0059C545.227 43.1113 545.815 44.7839 546.991 46.0234C548.166 47.2539 549.771 47.8691 551.803 47.8691C552.961 47.8691 554.036 47.6777 555.03 47.2949C556.023 46.903 556.944 46.3197 557.791 45.5449L557.764 49.9336C556.853 50.4714 555.896 50.8724 554.893 51.1367C553.9 51.401 552.851 51.5332 551.748 51.5332C548.558 51.5332 545.938 50.5443 543.887 48.5664C541.845 46.5794 540.825 44.0592 540.825 41.0059C540.825 37.9616 541.85 35.4505 543.901 33.4727C545.952 31.4948 548.595 30.5059 551.831 30.5059C552.915 30.5059 553.963 30.6198 554.975 30.8477C555.987 31.0755 556.985 31.4264 557.969 31.9004L557.819 36.1934ZM574.82 44.3145C574.82 43.2207 574.501 42.3503 573.863 41.7031C573.225 41.0469 572.368 40.7188 571.293 40.7188C570.217 40.7188 569.365 41.0423 568.736 41.6895C568.107 42.3366 567.793 43.2116 567.793 44.3145C567.793 45.4082 568.107 46.2832 568.736 46.9395C569.365 47.5957 570.217 47.9238 571.293 47.9238C572.359 47.9238 573.211 47.5957 573.849 46.9395C574.496 46.2832 574.82 45.4082 574.82 44.3145ZM578.785 44.3418C578.785 46.4017 578.078 48.1152 576.666 49.4824C575.262 50.8496 573.48 51.5332 571.32 51.5332C569.142 51.5332 567.346 50.8496 565.933 49.4824C564.521 48.1152 563.814 46.4017 563.814 44.3418C563.814 42.291 564.525 40.5775 565.947 39.2012C567.369 37.8249 569.16 37.1367 571.32 37.1367C573.489 37.1367 575.276 37.8158 576.679 39.1738C578.083 40.5319 578.785 42.2546 578.785 44.3418ZM594.843 44.2734C594.843 43.0703 594.537 42.1178 593.927 41.416C593.325 40.7142 592.509 40.3633 591.479 40.3633C590.422 40.3633 589.588 40.7142 588.978 41.416C588.376 42.1087 588.075 43.0612 588.075 44.2734C588.075 45.4857 588.371 46.429 588.964 47.1035C589.565 47.778 590.395 48.1152 591.452 48.1152C592.528 48.1152 593.362 47.778 593.954 47.1035C594.547 46.429 594.843 45.4857 594.843 44.2734ZM598.397 51H594.624L594.679 49.0723C594.15 49.9199 593.512 50.5443 592.765 50.9453C592.026 51.3372 591.124 51.5332 590.058 51.5332C588.28 51.5332 586.845 50.8724 585.751 49.5508C584.666 48.2292 584.124 46.4837 584.124 44.3145C584.124 42.054 584.657 40.2949 585.724 39.0371C586.799 37.7702 588.289 37.1367 590.194 37.1367C591.188 37.1367 592.058 37.36 592.806 37.8066C593.562 38.2533 594.196 38.9186 594.706 39.8027V37.5879H598.397V51ZM615.18 50.6035C614.651 50.9225 614.095 51.1549 613.512 51.3008C612.929 51.4557 612.291 51.5332 611.598 51.5332C609.483 51.5332 607.761 50.8633 606.43 49.5234C605.099 48.1745 604.434 46.4245 604.434 44.2734C604.434 42.168 605.104 40.4544 606.444 39.1328C607.783 37.8021 609.52 37.1367 611.653 37.1367C612.364 37.1367 613.002 37.2051 613.567 37.3418C614.132 37.4785 614.67 37.6927 615.18 37.9844L615.153 41.8945C614.742 41.4753 614.269 41.1517 613.731 40.9238C613.193 40.696 612.623 40.582 612.022 40.582C610.928 40.582 610.053 40.9193 609.397 41.5938C608.741 42.2591 608.412 43.1432 608.412 44.2461C608.412 45.3763 608.745 46.2786 609.41 46.9531C610.085 47.6185 610.992 47.9512 612.131 47.9512C612.76 47.9512 613.316 47.8372 613.799 47.6094C614.291 47.3815 614.742 47.026 615.153 46.543L615.18 50.6035ZM621.339 51V29.8086H625.154V37.3418C625.154 37.7611 625.14 38.1803 625.113 38.5996C625.086 39.0098 625.044 39.4108 624.99 39.8027C625.792 38.8639 626.594 38.1849 627.396 37.7656C628.207 37.3464 629.11 37.1367 630.103 37.1367C631.142 37.1367 632.017 37.3145 632.728 37.6699C633.448 38.0254 634.004 38.5586 634.396 39.2695C634.597 39.6432 634.738 40.0671 634.82 40.541C634.911 41.0059 634.957 41.7396 634.957 42.7422V43.166V51H631.06V44.3691C631.06 42.7194 630.869 41.6302 630.486 41.1016C630.103 40.5729 629.447 40.3086 628.517 40.3086C627.979 40.3086 627.483 40.4225 627.027 40.6504C626.58 40.8691 626.207 41.1836 625.906 41.5938C625.669 41.9128 625.496 42.2773 625.386 42.6875C625.286 43.0977 625.236 43.722 625.236 44.5605V45.0938V51H621.339ZM641.677 32.0781C641.677 31.4583 641.9 30.9251 642.347 30.4785C642.793 30.0319 643.326 29.8086 643.946 29.8086C644.575 29.8086 645.113 30.0319 645.559 30.4785C646.015 30.916 646.243 31.4492 646.243 32.0781C646.243 32.707 646.015 33.2448 645.559 33.6914C645.113 34.138 644.575 34.3613 643.946 34.3613C643.326 34.3613 642.793 34.1335 642.347 33.6777C641.9 33.222 641.677 32.6888 641.677 32.0781ZM642.018 51V37.5879H645.901V51H642.018ZM653.072 51V37.5879H656.887V39.6934C657.589 38.8184 658.341 38.1758 659.143 37.7656C659.954 37.3464 660.852 37.1367 661.836 37.1367C662.875 37.1367 663.746 37.3145 664.447 37.6699C665.158 38.0163 665.719 38.5495 666.129 39.2695C666.33 39.6432 666.471 40.0671 666.553 40.541C666.644 41.0059 666.69 41.7396 666.69 42.7422V43.166V51H662.793V44.3691C662.793 42.7194 662.602 41.6302 662.219 41.1016C661.836 40.5729 661.18 40.3086 660.25 40.3086C659.712 40.3086 659.216 40.4225 658.76 40.6504C658.313 40.8691 657.94 41.1836 657.639 41.5938C657.402 41.9128 657.229 42.2773 657.119 42.6875C657.019 43.0977 656.969 43.722 656.969 44.5605V45.0938V51H653.072ZM687.013 50.7812C687.013 52.194 686.926 53.1875 686.753 53.7617C686.589 54.3359 686.302 54.8327 685.892 55.252C685.309 55.8809 684.561 56.3457 683.65 56.6465C682.738 56.9473 681.631 57.0977 680.328 57.0977C678.149 57.0977 676.495 56.7513 675.365 56.0586C674.234 55.3659 673.619 54.3132 673.519 52.9004H677.798C677.862 53.4199 678.099 53.8027 678.509 54.0488C678.919 54.2949 679.525 54.418 680.328 54.418C681.385 54.418 682.146 54.1445 682.611 53.5977C683.085 53.0508 683.322 52.1393 683.322 50.8633V48.9492C682.802 49.7786 682.173 50.3939 681.435 50.7949C680.706 51.196 679.84 51.3965 678.837 51.3965C676.996 51.3965 675.524 50.7539 674.421 49.4688C673.318 48.1745 672.767 46.4336 672.767 44.2461C672.767 42.0221 673.305 40.2812 674.38 39.0234C675.456 37.7656 676.941 37.1367 678.837 37.1367C679.813 37.1367 680.678 37.3646 681.435 37.8203C682.201 38.2669 682.839 38.9277 683.349 39.8027V37.5879H687.013V50.7812ZM683.486 44.2734C683.486 43.0885 683.185 42.1543 682.583 41.4707C681.982 40.7871 681.162 40.4453 680.122 40.4453C679.056 40.4453 678.222 40.7871 677.62 41.4707C677.019 42.1452 676.718 43.0794 676.718 44.2734C676.718 45.4674 677.014 46.3971 677.607 47.0625C678.199 47.7279 679.029 48.0605 680.095 48.0605C681.162 48.0605 681.991 47.7279 682.583 47.0625C683.185 46.3971 683.486 45.4674 683.486 44.2734ZM704.965 48.457L707.344 45.7637C707.644 46.502 708.128 47.0853 708.793 47.5137C709.458 47.9329 710.206 48.1426 711.035 48.1426C712.038 48.1426 712.831 47.9056 713.414 47.4316C713.997 46.9577 714.289 46.3197 714.289 45.5176C714.289 44.5697 713.318 43.6263 711.377 42.6875C710.748 42.3867 710.251 42.1406 709.887 41.9492C708.137 41.0378 706.924 40.1491 706.25 39.2832C705.575 38.4082 705.238 37.3691 705.238 36.166C705.238 34.5163 705.89 33.1628 707.193 32.1055C708.506 31.0391 710.206 30.5059 712.293 30.5059C713.505 30.5059 714.549 30.7201 715.424 31.1484C716.308 31.5677 717.087 32.2285 717.762 33.1309L715.232 35.5508C714.932 34.9674 714.531 34.5345 714.029 34.252C713.537 33.9603 712.94 33.8145 712.238 33.8145C711.391 33.8145 710.707 34.0286 710.187 34.457C709.668 34.8763 709.408 35.4232 709.408 36.0977C709.408 37.1549 710.438 38.1211 712.498 38.9961C712.908 39.1693 713.223 39.306 713.441 39.4062C715.137 40.181 716.39 41.056 717.201 42.0312C718.021 43.0065 718.432 44.1185 718.432 45.3672C718.432 47.2448 717.789 48.7441 716.504 49.8652C715.228 50.9772 713.51 51.5332 711.35 51.5332C709.818 51.5332 708.506 51.2689 707.412 50.7402C706.318 50.2116 705.503 49.4505 704.965 48.457ZM734.066 42.9062C733.956 42.0586 733.646 41.4206 733.136 40.9922C732.635 40.5547 731.947 40.3359 731.072 40.3359C730.197 40.3359 729.495 40.5547 728.966 40.9922C728.447 41.4206 728.114 42.0586 727.968 42.9062H734.066ZM737.921 45.2578H727.845C728 46.224 728.351 46.9486 728.898 47.4316C729.445 47.9056 730.187 48.1426 731.126 48.1426C731.837 48.1426 732.448 48.0059 732.958 47.7324C733.478 47.459 733.911 47.0443 734.257 46.4883L737.402 48.0605C736.672 49.2363 735.788 50.1113 734.749 50.6855C733.71 51.2507 732.475 51.5332 731.044 51.5332C728.875 51.5332 727.157 50.8861 725.89 49.5918C724.623 48.2975 723.989 46.5566 723.989 44.3691C723.989 42.2637 724.65 40.5319 725.972 39.1738C727.303 37.8158 729.003 37.1367 731.072 37.1367C733.204 37.1367 734.891 37.7747 736.13 39.0508C737.37 40.3177 737.989 42.0495 737.989 44.2461C737.989 44.3646 737.985 44.4967 737.976 44.6426C737.967 44.7793 737.948 44.9844 737.921 45.2578ZM742.782 48.6484L745.776 47.1035C745.876 47.623 746.145 48.0332 746.583 48.334C747.02 48.6348 747.562 48.7852 748.209 48.7852C748.848 48.7852 749.349 48.6712 749.713 48.4434C750.078 48.2064 750.26 47.8828 750.26 47.4727C750.26 46.8255 749.613 46.2832 748.319 45.8457C747.918 45.709 747.599 45.5951 747.362 45.5039C745.785 44.9115 744.691 44.3145 744.081 43.7129C743.479 43.1113 743.178 42.3685 743.178 41.4844C743.178 40.1719 743.693 39.11 744.723 38.2988C745.753 37.4876 747.111 37.082 748.797 37.082C750.001 37.082 751.04 37.3236 751.915 37.8066C752.799 38.2897 753.441 38.9733 753.842 39.8574L750.985 41.2793C750.83 40.778 750.561 40.3997 750.178 40.1445C749.795 39.8802 749.317 39.748 748.743 39.748C748.168 39.748 747.704 39.8665 747.348 40.1035C746.993 40.3405 746.815 40.6504 746.815 41.0332C746.815 41.6986 747.699 42.3184 749.467 42.8926C749.677 42.9564 749.836 43.0065 749.946 43.043C751.413 43.526 752.457 44.0911 753.077 44.7383C753.696 45.3763 754.006 46.1921 754.006 47.1855C754.006 48.5163 753.491 49.5736 752.461 50.3574C751.431 51.1413 750.042 51.5332 748.292 51.5332C746.906 51.5332 745.721 51.278 744.737 50.7676C743.762 50.248 743.11 49.5417 742.782 48.6484ZM758.771 48.6484L761.765 47.1035C761.866 47.623 762.135 48.0332 762.572 48.334C763.01 48.6348 763.552 48.7852 764.199 48.7852C764.837 48.7852 765.338 48.6712 765.703 48.4434C766.068 48.2064 766.25 47.8828 766.25 47.4727C766.25 46.8255 765.603 46.2832 764.308 45.8457C763.907 45.709 763.588 45.5951 763.351 45.5039C761.775 44.9115 760.681 44.3145 760.07 43.7129C759.469 43.1113 759.168 42.3685 759.168 41.4844C759.168 40.1719 759.683 39.11 760.713 38.2988C761.743 37.4876 763.101 37.082 764.787 37.082C765.99 37.082 767.029 37.3236 767.904 37.8066C768.788 38.2897 769.431 38.9733 769.832 39.8574L766.974 41.2793C766.819 40.778 766.551 40.3997 766.168 40.1445C765.785 39.8802 765.306 39.748 764.732 39.748C764.158 39.748 763.693 39.8665 763.338 40.1035C762.982 40.3405 762.804 40.6504 762.804 41.0332C762.804 41.6986 763.689 42.3184 765.457 42.8926C765.666 42.9564 765.826 43.0065 765.935 43.043C767.403 43.526 768.446 44.0911 769.066 44.7383C769.686 45.3763 769.996 46.1921 769.996 47.1855C769.996 48.5163 769.481 49.5736 768.451 50.3574C767.421 51.1413 766.031 51.5332 764.281 51.5332C762.896 51.5332 761.711 51.278 760.726 50.7676C759.751 50.248 759.099 49.5417 758.771 48.6484ZM775.882 32.0781C775.882 31.4583 776.105 30.9251 776.552 30.4785C776.998 30.0319 777.532 29.8086 778.151 29.8086C778.78 29.8086 779.318 30.0319 779.765 30.4785C780.22 30.916 780.448 31.4492 780.448 32.0781C780.448 32.707 780.22 33.2448 779.765 33.6914C779.318 34.138 778.78 34.3613 778.151 34.3613C777.532 34.3613 776.998 34.1335 776.552 33.6777C776.105 33.222 775.882 32.6888 775.882 32.0781ZM776.224 51V37.5879H780.107V51H776.224ZM797.422 44.3145C797.422 43.2207 797.103 42.3503 796.465 41.7031C795.827 41.0469 794.97 40.7188 793.895 40.7188C792.819 40.7188 791.967 41.0423 791.338 41.6895C790.709 42.3366 790.395 43.2116 790.395 44.3145C790.395 45.4082 790.709 46.2832 791.338 46.9395C791.967 47.5957 792.819 47.9238 793.895 47.9238C794.961 47.9238 795.814 47.5957 796.452 46.9395C797.099 46.2832 797.422 45.4082 797.422 44.3145ZM801.387 44.3418C801.387 46.4017 800.681 48.1152 799.268 49.4824C797.864 50.8496 796.082 51.5332 793.922 51.5332C791.744 51.5332 789.948 50.8496 788.536 49.4824C787.123 48.1152 786.416 46.4017 786.416 44.3418C786.416 42.291 787.127 40.5775 788.549 39.2012C789.971 37.8249 791.762 37.1367 793.922 37.1367C796.091 37.1367 797.878 37.8158 799.282 39.1738C800.685 40.5319 801.387 42.2546 801.387 44.3418ZM807.56 51V37.5879H811.375V39.6934C812.076 38.8184 812.828 38.1758 813.63 37.7656C814.442 37.3464 815.339 37.1367 816.324 37.1367C817.363 37.1367 818.233 37.3145 818.935 37.6699C819.646 38.0163 820.207 38.5495 820.617 39.2695C820.817 39.6432 820.959 40.0671 821.041 40.541C821.132 41.0059 821.177 41.7396 821.177 42.7422V43.166V51H817.281V44.3691C817.281 42.7194 817.089 41.6302 816.707 41.1016C816.324 40.5729 815.668 40.3086 814.738 40.3086C814.2 40.3086 813.703 40.4225 813.248 40.6504C812.801 40.8691 812.427 41.1836 812.127 41.5938C811.89 41.9128 811.716 42.2773 811.607 42.6875C811.507 43.0977 811.457 43.722 811.457 44.5605V45.0938V51H807.56Z" fill="#1E2E40"/>
<path d="M946.345 36.1934C945.479 35.4186 944.59 34.8535 943.679 34.498C942.767 34.1335 941.792 33.9512 940.753 33.9512C938.62 33.9512 936.92 34.5892 935.653 35.8652C934.386 37.1413 933.753 38.8548 933.753 41.0059C933.753 43.1113 934.341 44.7839 935.517 46.0234C936.692 47.2539 938.297 47.8691 940.329 47.8691C941.487 47.8691 942.562 47.6777 943.556 47.2949C944.549 46.903 945.47 46.3197 946.317 45.5449L946.29 49.9336C945.379 50.4714 944.422 50.8724 943.419 51.1367C942.426 51.401 941.377 51.5332 940.274 51.5332C937.084 51.5332 934.464 50.5443 932.413 48.5664C930.371 46.5794 929.351 44.0592 929.351 41.0059C929.351 37.9616 930.376 35.4505 932.427 33.4727C934.478 31.4948 937.121 30.5059 940.357 30.5059C941.441 30.5059 942.489 30.6198 943.501 30.8477C944.513 31.0755 945.511 31.4264 946.495 31.9004L946.345 36.1934ZM963.346 44.3145C963.346 43.2207 963.027 42.3503 962.389 41.7031C961.751 41.0469 960.894 40.7188 959.819 40.7188C958.743 40.7188 957.891 41.0423 957.262 41.6895C956.633 42.3366 956.319 43.2116 956.319 44.3145C956.319 45.4082 956.633 46.2832 957.262 46.9395C957.891 47.5957 958.743 47.9238 959.819 47.9238C960.885 47.9238 961.737 47.5957 962.375 46.9395C963.022 46.2832 963.346 45.4082 963.346 44.3145ZM967.311 44.3418C967.311 46.4017 966.605 48.1152 965.192 49.4824C963.788 50.8496 962.006 51.5332 959.846 51.5332C957.668 51.5332 955.872 50.8496 954.459 49.4824C953.047 48.1152 952.34 46.4017 952.34 44.3418C952.34 42.291 953.051 40.5775 954.473 39.2012C955.895 37.8249 957.686 37.1367 959.846 37.1367C962.015 37.1367 963.802 37.8158 965.205 39.1738C966.609 40.5319 967.311 42.2546 967.311 44.3418ZM983.369 44.2734C983.369 43.0703 983.063 42.1178 982.453 41.416C981.851 40.7142 981.035 40.3633 980.005 40.3633C978.948 40.3633 978.114 40.7142 977.504 41.416C976.902 42.1087 976.601 43.0612 976.601 44.2734C976.601 45.4857 976.897 46.429 977.49 47.1035C978.091 47.778 978.921 48.1152 979.978 48.1152C981.054 48.1152 981.888 47.778 982.48 47.1035C983.073 46.429 983.369 45.4857 983.369 44.2734ZM986.923 51H983.15L983.205 49.0723C982.676 49.9199 982.038 50.5443 981.291 50.9453C980.552 51.3372 979.65 51.5332 978.584 51.5332C976.806 51.5332 975.371 50.8724 974.277 49.5508C973.192 48.2292 972.65 46.4837 972.65 44.3145C972.65 42.054 973.183 40.2949 974.25 39.0371C975.325 37.7702 976.815 37.1367 978.72 37.1367C979.714 37.1367 980.584 37.36 981.332 37.8066C982.088 38.2533 982.722 38.9186 983.232 39.8027V37.5879H986.923V51ZM1003.71 50.6035C1003.18 50.9225 1002.62 51.1549 1002.04 51.3008C1001.45 51.4557 1000.82 51.5332 1000.12 51.5332C998.009 51.5332 996.287 50.8633 994.956 49.5234C993.625 48.1745 992.96 46.4245 992.96 44.2734C992.96 42.168 993.63 40.4544 994.97 39.1328C996.309 37.8021 998.046 37.1367 1000.18 37.1367C1000.89 37.1367 1001.53 37.2051 1002.09 37.3418C1002.66 37.4785 1003.2 37.6927 1003.71 37.9844L1003.68 41.8945C1003.27 41.4753 1002.79 41.1517 1002.26 40.9238C1001.72 40.696 1001.15 40.582 1000.55 40.582C999.454 40.582 998.579 40.9193 997.923 41.5938C997.267 42.2591 996.938 43.1432 996.938 44.2461C996.938 45.3763 997.271 46.2786 997.936 46.9531C998.611 47.6185 999.518 47.9512 1000.66 47.9512C1001.29 47.9512 1001.84 47.8372 1002.33 47.6094C1002.82 47.3815 1003.27 47.026 1003.68 46.543L1003.71 50.6035ZM1009.87 51V29.8086H1013.68V37.3418C1013.68 37.7611 1013.67 38.1803 1013.64 38.5996C1013.61 39.0098 1013.57 39.4108 1013.52 39.8027C1014.32 38.8639 1015.12 38.1849 1015.92 37.7656C1016.73 37.3464 1017.64 37.1367 1018.63 37.1367C1019.67 37.1367 1020.54 37.3145 1021.25 37.6699C1021.97 38.0254 1022.53 38.5586 1022.92 39.2695C1023.12 39.6432 1023.26 40.0671 1023.35 40.541C1023.44 41.0059 1023.48 41.7396 1023.48 42.7422V43.166V51H1019.59V44.3691C1019.59 42.7194 1019.39 41.6302 1019.01 41.1016C1018.63 40.5729 1017.97 40.3086 1017.04 40.3086C1016.51 40.3086 1016.01 40.4225 1015.55 40.6504C1015.11 40.8691 1014.73 41.1836 1014.43 41.5938C1014.19 41.9128 1014.02 42.2773 1013.91 42.6875C1013.81 43.0977 1013.76 43.722 1013.76 44.5605V45.0938V51H1009.87ZM1030.2 32.0781C1030.2 31.4583 1030.43 30.9251 1030.87 30.4785C1031.32 30.0319 1031.85 29.8086 1032.47 29.8086C1033.1 29.8086 1033.64 30.0319 1034.09 30.4785C1034.54 30.916 1034.77 31.4492 1034.77 32.0781C1034.77 32.707 1034.54 33.2448 1034.09 33.6914C1033.64 34.138 1033.1 34.3613 1032.47 34.3613C1031.85 34.3613 1031.32 34.1335 1030.87 33.6777C1030.43 33.222 1030.2 32.6888 1030.2 32.0781ZM1030.54 51V37.5879H1034.43V51H1030.54ZM1041.6 51V37.5879H1045.41V39.6934C1046.11 38.8184 1046.87 38.1758 1047.67 37.7656C1048.48 37.3464 1049.38 37.1367 1050.36 37.1367C1051.4 37.1367 1052.27 37.3145 1052.97 37.6699C1053.68 38.0163 1054.24 38.5495 1054.66 39.2695C1054.86 39.6432 1055 40.0671 1055.08 40.541C1055.17 41.0059 1055.22 41.7396 1055.22 42.7422V43.166V51H1051.32V44.3691C1051.32 42.7194 1051.13 41.6302 1050.74 41.1016C1050.36 40.5729 1049.71 40.3086 1048.78 40.3086C1048.24 40.3086 1047.74 40.4225 1047.29 40.6504C1046.84 40.8691 1046.47 41.1836 1046.16 41.5938C1045.93 41.9128 1045.75 42.2773 1045.65 42.6875C1045.55 43.0977 1045.49 43.722 1045.49 44.5605V45.0938V51H1041.6ZM1075.54 50.7812C1075.54 52.194 1075.45 53.1875 1075.28 53.7617C1075.12 54.3359 1074.83 54.8327 1074.42 55.252C1073.83 55.8809 1073.09 56.3457 1072.18 56.6465C1071.26 56.9473 1070.16 57.0977 1068.85 57.0977C1066.68 57.0977 1065.02 56.7513 1063.89 56.0586C1062.76 55.3659 1062.15 54.3132 1062.04 52.9004H1066.32C1066.39 53.4199 1066.63 53.8027 1067.04 54.0488C1067.45 54.2949 1068.05 54.418 1068.85 54.418C1069.91 54.418 1070.67 54.1445 1071.14 53.5977C1071.61 53.0508 1071.85 52.1393 1071.85 50.8633V48.9492C1071.33 49.7786 1070.7 50.3939 1069.96 50.7949C1069.23 51.196 1068.37 51.3965 1067.36 51.3965C1065.52 51.3965 1064.05 50.7539 1062.95 49.4688C1061.84 48.1745 1061.29 46.4336 1061.29 44.2461C1061.29 42.0221 1061.83 40.2812 1062.91 39.0234C1063.98 37.7656 1065.47 37.1367 1067.36 37.1367C1068.34 37.1367 1069.2 37.3646 1069.96 37.8203C1070.73 38.2669 1071.36 38.9277 1071.88 39.8027V37.5879H1075.54V50.7812ZM1072.01 44.2734C1072.01 43.0885 1071.71 42.1543 1071.11 41.4707C1070.51 40.7871 1069.69 40.4453 1068.65 40.4453C1067.58 40.4453 1066.75 40.7871 1066.15 41.4707C1065.54 42.1452 1065.24 43.0794 1065.24 44.2734C1065.24 45.4674 1065.54 46.3971 1066.13 47.0625C1066.73 47.7279 1067.55 48.0605 1068.62 48.0605C1069.69 48.0605 1070.52 47.7279 1071.11 47.0625C1071.71 46.3971 1072.01 45.4674 1072.01 44.2734ZM1110.9 36.1934C1110.03 35.4186 1109.14 34.8535 1108.23 34.498C1107.32 34.1335 1106.34 33.9512 1105.3 33.9512C1103.17 33.9512 1101.47 34.5892 1100.2 35.8652C1098.94 37.1413 1098.3 38.8548 1098.3 41.0059C1098.3 43.1113 1098.89 44.7839 1100.07 46.0234C1101.24 47.2539 1102.85 47.8691 1104.88 47.8691C1106.04 47.8691 1107.11 47.6777 1108.11 47.2949C1109.1 46.903 1110.02 46.3197 1110.87 45.5449L1110.84 49.9336C1109.93 50.4714 1108.97 50.8724 1107.97 51.1367C1106.98 51.401 1105.93 51.5332 1104.82 51.5332C1101.63 51.5332 1099.01 50.5443 1096.96 48.5664C1094.92 46.5794 1093.9 44.0592 1093.9 41.0059C1093.9 37.9616 1094.93 35.4505 1096.98 33.4727C1099.03 31.4948 1101.67 30.5059 1104.91 30.5059C1105.99 30.5059 1107.04 30.6198 1108.05 30.8477C1109.06 31.0755 1110.06 31.4264 1111.05 31.9004L1110.9 36.1934ZM1117.9 51V29.8086H1121.79V51H1117.9ZM1128.76 32.0781C1128.76 31.4583 1128.99 30.9251 1129.43 30.4785C1129.88 30.0319 1130.41 29.8086 1131.03 29.8086C1131.66 29.8086 1132.2 30.0319 1132.65 30.4785C1133.1 30.916 1133.33 31.4492 1133.33 32.0781C1133.33 32.707 1133.1 33.2448 1132.65 33.6914C1132.2 34.138 1131.66 34.3613 1131.03 34.3613C1130.41 34.3613 1129.88 34.1335 1129.43 33.6777C1128.99 33.222 1128.76 32.6888 1128.76 32.0781ZM1129.11 51V37.5879H1132.99V51H1129.11ZM1140.16 51V37.5879H1143.98V39.6934C1144.68 38.8184 1145.43 38.1758 1146.23 37.7656C1147.04 37.3464 1147.94 37.1367 1148.92 37.1367C1149.96 37.1367 1150.83 37.3145 1151.54 37.6699C1152.25 38.0163 1152.81 38.5495 1153.22 39.2695C1153.42 39.6432 1153.56 40.0671 1153.64 40.541C1153.73 41.0059 1153.78 41.7396 1153.78 42.7422V43.166V51H1149.88V44.3691C1149.88 42.7194 1149.69 41.6302 1149.31 41.1016C1148.92 40.5729 1148.27 40.3086 1147.34 40.3086C1146.8 40.3086 1146.3 40.4225 1145.85 40.6504C1145.4 40.8691 1145.03 41.1836 1144.73 41.5938C1144.49 41.9128 1144.32 42.2773 1144.21 42.6875C1144.11 43.0977 1144.06 43.722 1144.06 44.5605V45.0938V51H1140.16ZM1160.5 32.0781C1160.5 31.4583 1160.72 30.9251 1161.17 30.4785C1161.61 30.0319 1162.15 29.8086 1162.77 29.8086C1163.4 29.8086 1163.93 30.0319 1164.38 30.4785C1164.84 30.916 1165.06 31.4492 1165.06 32.0781C1165.06 32.707 1164.84 33.2448 1164.38 33.6914C1163.93 34.138 1163.4 34.3613 1162.77 34.3613C1162.15 34.3613 1161.61 34.1335 1161.17 33.6777C1160.72 33.222 1160.5 32.6888 1160.5 32.0781ZM1160.84 51V37.5879H1164.72V51H1160.84ZM1181.78 50.6035C1181.25 50.9225 1180.69 51.1549 1180.11 51.3008C1179.53 51.4557 1178.89 51.5332 1178.2 51.5332C1176.08 51.5332 1174.36 50.8633 1173.03 49.5234C1171.7 48.1745 1171.03 46.4245 1171.03 44.2734C1171.03 42.168 1171.7 40.4544 1173.04 39.1328C1174.38 37.8021 1176.12 37.1367 1178.25 37.1367C1178.96 37.1367 1179.6 37.2051 1180.17 37.3418C1180.73 37.4785 1181.27 37.6927 1181.78 37.9844L1181.75 41.8945C1181.34 41.4753 1180.87 41.1517 1180.33 40.9238C1179.79 40.696 1179.22 40.582 1178.62 40.582C1177.53 40.582 1176.65 40.9193 1176 41.5938C1175.34 42.2591 1175.01 43.1432 1175.01 44.2461C1175.01 45.3763 1175.34 46.2786 1176.01 46.9531C1176.68 47.6185 1177.59 47.9512 1178.73 47.9512C1179.36 47.9512 1179.91 47.8372 1180.4 47.6094C1180.89 47.3815 1181.34 47.026 1181.75 46.543L1181.78 50.6035Z" fill="#1E2E40"/>
<path d="M194.138 41.0332C194.138 42.4642 193.87 43.8177 193.332 45.0938C192.803 46.3698 192.038 47.4909 191.035 48.457C189.996 49.4505 188.825 50.2116 187.521 50.7402C186.218 51.2689 184.869 51.5332 183.474 51.5332C182.253 51.5332 181.054 51.3281 179.879 50.918C178.712 50.4987 177.641 49.9017 176.666 49.127C175.408 48.1243 174.442 46.9258 173.767 45.5312C173.102 44.1367 172.769 42.6374 172.769 41.0332C172.769 39.5931 173.034 38.2441 173.562 36.9863C174.091 35.7194 174.866 34.5938 175.887 33.6094C176.889 32.6341 178.051 31.8776 179.373 31.3398C180.704 30.8021 182.071 30.5332 183.474 30.5332C184.869 30.5332 186.222 30.8021 187.535 31.3398C188.857 31.8776 190.023 32.6341 191.035 33.6094C192.047 34.5938 192.817 35.7194 193.346 36.9863C193.874 38.2533 194.138 39.6022 194.138 41.0332ZM183.474 47.7188C185.288 47.7188 186.783 47.0853 187.959 45.8184C189.144 44.5423 189.736 42.9473 189.736 41.0332C189.736 39.1374 189.139 37.5423 187.945 36.248C186.751 34.9538 185.261 34.3066 183.474 34.3066C181.661 34.3066 180.157 34.9538 178.963 36.248C177.769 37.5332 177.172 39.1283 177.172 41.0332C177.172 42.9655 177.76 44.5651 178.935 45.832C180.111 47.0898 181.624 47.7188 183.474 47.7188ZM204.194 44.2734C204.194 45.4857 204.491 46.429 205.083 47.1035C205.685 47.778 206.519 48.1152 207.585 48.1152C208.651 48.1152 209.481 47.778 210.073 47.1035C210.675 46.429 210.976 45.4857 210.976 44.2734C210.976 43.0612 210.67 42.1087 210.06 41.416C209.458 40.7142 208.624 40.3633 207.558 40.3633C206.528 40.3633 205.707 40.7142 205.097 41.416C204.495 42.1178 204.194 43.0703 204.194 44.2734ZM200.64 57.0977V37.5879H204.372V39.8027C204.883 38.9095 205.507 38.2441 206.245 37.8066C206.993 37.36 207.858 37.1367 208.843 37.1367C210.748 37.1367 212.238 37.7702 213.314 39.0371C214.389 40.2949 214.927 42.054 214.927 44.3145C214.927 46.4928 214.385 48.2428 213.3 49.5645C212.215 50.877 210.789 51.5332 209.021 51.5332C207.954 51.5332 207.047 51.3372 206.3 50.9453C205.562 50.5443 204.928 49.9199 204.399 49.0723C204.445 49.4095 204.477 49.7786 204.495 50.1797C204.523 50.5716 204.536 51.0228 204.536 51.5332V57.0977H200.64ZM230.356 42.9062C230.246 42.0586 229.937 41.4206 229.426 40.9922C228.925 40.5547 228.237 40.3359 227.362 40.3359C226.487 40.3359 225.785 40.5547 225.256 40.9922C224.737 41.4206 224.404 42.0586 224.258 42.9062H230.356ZM234.211 45.2578H224.135C224.29 46.224 224.641 46.9486 225.188 47.4316C225.735 47.9056 226.478 48.1426 227.416 48.1426C228.127 48.1426 228.738 48.0059 229.248 47.7324C229.768 47.459 230.201 47.0443 230.547 46.4883L233.692 48.0605C232.963 49.2363 232.078 50.1113 231.039 50.6855C230 51.2507 228.765 51.5332 227.334 51.5332C225.165 51.5332 223.447 50.8861 222.18 49.5918C220.913 48.2975 220.28 46.5566 220.28 44.3691C220.28 42.2637 220.94 40.5319 222.262 39.1738C223.593 37.8158 225.293 37.1367 227.362 37.1367C229.494 37.1367 231.181 37.7747 232.42 39.0508C233.66 40.3177 234.28 42.0495 234.28 44.2461C234.28 44.3646 234.275 44.4967 234.266 44.6426C234.257 44.7793 234.239 44.9844 234.211 45.2578ZM240.384 51V37.5879H244.199V39.6934C244.901 38.8184 245.653 38.1758 246.455 37.7656C247.266 37.3464 248.164 37.1367 249.148 37.1367C250.187 37.1367 251.058 37.3145 251.759 37.6699C252.47 38.0163 253.031 38.5495 253.441 39.2695C253.642 39.6432 253.783 40.0671 253.865 40.541C253.956 41.0059 254.002 41.7396 254.002 42.7422V43.166V51H250.105V44.3691C250.105 42.7194 249.914 41.6302 249.531 41.1016C249.148 40.5729 248.492 40.3086 247.562 40.3086C247.024 40.3086 246.528 40.4225 246.072 40.6504C245.625 40.8691 245.252 41.1836 244.951 41.5938C244.714 41.9128 244.541 42.2773 244.431 42.6875C244.331 43.0977 244.281 43.722 244.281 44.5605V45.0938V51H240.384ZM287.567 51H282.631L277.367 41.6484V51H273.088V30.9844H279.213C281.647 30.9844 283.47 31.4583 284.682 32.4062C285.894 33.3451 286.5 34.7624 286.5 36.6582C286.5 38.0345 286.085 39.2103 285.256 40.1855C284.427 41.1608 283.356 41.7305 282.043 41.8945L287.567 51ZM277.367 39.5156H278.01C279.742 39.5156 280.886 39.3288 281.442 38.9551C281.998 38.5723 282.276 37.9115 282.276 36.9727C282.276 35.9883 281.975 35.291 281.373 34.8809C280.781 34.4616 279.66 34.252 278.01 34.252H277.367V39.5156ZM301.697 42.9062C301.587 42.0586 301.277 41.4206 300.767 40.9922C300.266 40.5547 299.578 40.3359 298.703 40.3359C297.828 40.3359 297.126 40.5547 296.597 40.9922C296.078 41.4206 295.745 42.0586 295.599 42.9062H301.697ZM305.552 45.2578H295.476C295.631 46.224 295.982 46.9486 296.529 47.4316C297.076 47.9056 297.818 48.1426 298.757 48.1426C299.468 48.1426 300.079 48.0059 300.589 47.7324C301.109 47.459 301.542 47.0443 301.888 46.4883L305.033 48.0605C304.304 49.2363 303.419 50.1113 302.38 50.6855C301.341 51.2507 300.106 51.5332 298.675 51.5332C296.506 51.5332 294.788 50.8861 293.521 49.5918C292.254 48.2975 291.621 46.5566 291.621 44.3691C291.621 42.2637 292.281 40.5319 293.603 39.1738C294.934 37.8158 296.634 37.1367 298.703 37.1367C300.835 37.1367 302.522 37.7747 303.761 39.0508C305.001 40.3177 305.621 42.0495 305.621 44.2461C305.621 44.3646 305.616 44.4967 305.607 44.6426C305.598 44.7793 305.58 44.9844 305.552 45.2578ZM325.137 50.7812C325.137 52.194 325.051 53.1875 324.878 53.7617C324.714 54.3359 324.427 54.8327 324.016 55.252C323.433 55.8809 322.686 56.3457 321.774 56.6465C320.863 56.9473 319.755 57.0977 318.452 57.0977C316.274 57.0977 314.619 56.7513 313.489 56.0586C312.359 55.3659 311.744 54.3132 311.643 52.9004H315.923C315.986 53.4199 316.223 53.8027 316.634 54.0488C317.044 54.2949 317.65 54.418 318.452 54.418C319.509 54.418 320.27 54.1445 320.735 53.5977C321.209 53.0508 321.446 52.1393 321.446 50.8633V48.9492C320.927 49.7786 320.298 50.3939 319.559 50.7949C318.83 51.196 317.964 51.3965 316.962 51.3965C315.121 51.3965 313.649 50.7539 312.546 49.4688C311.443 48.1745 310.891 46.4336 310.891 44.2461C310.891 42.0221 311.429 40.2812 312.505 39.0234C313.58 37.7656 315.066 37.1367 316.962 37.1367C317.937 37.1367 318.803 37.3646 319.559 37.8203C320.325 38.2669 320.963 38.9277 321.473 39.8027V37.5879H325.137V50.7812ZM321.61 44.2734C321.61 43.0885 321.309 42.1543 320.708 41.4707C320.106 40.7871 319.286 40.4453 318.247 40.4453C317.18 40.4453 316.346 40.7871 315.745 41.4707C315.143 42.1452 314.843 43.0794 314.843 44.2734C314.843 45.4674 315.139 46.3971 315.731 47.0625C316.324 47.7279 317.153 48.0605 318.219 48.0605C319.286 48.0605 320.115 47.7279 320.708 47.0625C321.309 46.3971 321.61 45.4674 321.61 44.2734ZM332.008 32.0781C332.008 31.4583 332.231 30.9251 332.678 30.4785C333.124 30.0319 333.658 29.8086 334.277 29.8086C334.906 29.8086 335.444 30.0319 335.891 30.4785C336.346 30.916 336.574 31.4492 336.574 32.0781C336.574 32.707 336.346 33.2448 335.891 33.6914C335.444 34.138 334.906 34.3613 334.277 34.3613C333.658 34.3613 333.124 34.1335 332.678 33.6777C332.231 33.222 332.008 32.6888 332.008 32.0781ZM332.35 51V37.5879H336.232V51H332.35ZM342.091 48.6484L345.085 47.1035C345.186 47.623 345.454 48.0332 345.892 48.334C346.329 48.6348 346.872 48.7852 347.519 48.7852C348.157 48.7852 348.658 48.6712 349.023 48.4434C349.387 48.2064 349.57 47.8828 349.57 47.4727C349.57 46.8255 348.923 46.2832 347.628 45.8457C347.227 45.709 346.908 45.5951 346.671 45.5039C345.094 44.9115 344.001 44.3145 343.39 43.7129C342.788 43.1113 342.488 42.3685 342.488 41.4844C342.488 40.1719 343.003 39.11 344.033 38.2988C345.062 37.4876 346.421 37.082 348.107 37.082C349.31 37.082 350.349 37.3236 351.224 37.8066C352.108 38.2897 352.751 38.9733 353.152 39.8574L350.294 41.2793C350.139 40.778 349.87 40.3997 349.488 40.1445C349.105 39.8802 348.626 39.748 348.052 39.748C347.478 39.748 347.013 39.8665 346.658 40.1035C346.302 40.3405 346.124 40.6504 346.124 41.0332C346.124 41.6986 347.008 42.3184 348.777 42.8926C348.986 42.9564 349.146 43.0065 349.255 43.043C350.723 43.526 351.766 44.0911 352.386 44.7383C353.006 45.3763 353.316 46.1921 353.316 47.1855C353.316 48.5163 352.801 49.5736 351.771 50.3574C350.741 51.1413 349.351 51.5332 347.601 51.5332C346.215 51.5332 345.031 51.278 344.046 50.7676C343.071 50.248 342.419 49.5417 342.091 48.6484ZM359.872 51V40.6367H357.999V37.5879H359.872V33.1309H363.768V37.5879H365.641V40.6367H363.768V51H359.872ZM375.041 41.0332C375.433 39.7298 375.993 38.7546 376.723 38.1074C377.461 37.4603 378.372 37.1367 379.457 37.1367C379.703 37.1367 380.109 37.1823 380.674 37.2734C380.783 37.2917 380.865 37.3053 380.92 37.3145L380.332 41.498C380.04 41.3796 379.744 41.293 379.443 41.2383C379.152 41.1745 378.842 41.1426 378.514 41.1426C377.329 41.1426 376.476 41.4479 375.957 42.0586C375.437 42.6602 375.178 43.6719 375.178 45.0938V51H371.281V37.5879H375.123L375.041 41.0332ZM395.788 44.2734C395.788 43.0703 395.483 42.1178 394.872 41.416C394.271 40.7142 393.455 40.3633 392.425 40.3633C391.368 40.3633 390.534 40.7142 389.923 41.416C389.321 42.1087 389.021 43.0612 389.021 44.2734C389.021 45.4857 389.317 46.429 389.909 47.1035C390.511 47.778 391.34 48.1152 392.398 48.1152C393.473 48.1152 394.307 47.778 394.9 47.1035C395.492 46.429 395.788 45.4857 395.788 44.2734ZM399.343 51H395.569L395.624 49.0723C395.096 49.9199 394.458 50.5443 393.71 50.9453C392.972 51.3372 392.069 51.5332 391.003 51.5332C389.226 51.5332 387.79 50.8724 386.696 49.5508C385.612 48.2292 385.069 46.4837 385.069 44.3145C385.069 42.054 385.603 40.2949 386.669 39.0371C387.745 37.7702 389.235 37.1367 391.14 37.1367C392.133 37.1367 393.004 37.36 393.751 37.8066C394.508 38.2533 395.141 38.9186 395.652 39.8027V37.5879H399.343V51ZM406.719 51V40.6367H404.846V37.5879H406.719V33.1309H410.616V37.5879H412.489V40.6367H410.616V51H406.719ZM417.937 32.0781C417.937 31.4583 418.161 30.9251 418.607 30.4785C419.054 30.0319 419.587 29.8086 420.207 29.8086C420.836 29.8086 421.373 30.0319 421.82 30.4785C422.276 30.916 422.504 31.4492 422.504 32.0781C422.504 32.707 422.276 33.2448 421.82 33.6914C421.373 34.138 420.836 34.3613 420.207 34.3613C419.587 34.3613 419.054 34.1335 418.607 33.6777C418.161 33.222 417.937 32.6888 417.937 32.0781ZM418.279 51V37.5879H422.162V51H418.279ZM439.478 44.3145C439.478 43.2207 439.159 42.3503 438.521 41.7031C437.882 41.0469 437.026 40.7188 435.95 40.7188C434.875 40.7188 434.022 41.0423 433.394 41.6895C432.765 42.3366 432.45 43.2116 432.45 44.3145C432.45 45.4082 432.765 46.2832 433.394 46.9395C434.022 47.5957 434.875 47.9238 435.95 47.9238C437.017 47.9238 437.869 47.5957 438.507 46.9395C439.154 46.2832 439.478 45.4082 439.478 44.3145ZM443.442 44.3418C443.442 46.4017 442.736 48.1152 441.323 49.4824C439.92 50.8496 438.138 51.5332 435.978 51.5332C433.799 51.5332 432.004 50.8496 430.591 49.4824C429.178 48.1152 428.472 46.4017 428.472 44.3418C428.472 42.291 429.183 40.5775 430.604 39.2012C432.026 37.8249 433.817 37.1367 435.978 37.1367C438.147 37.1367 439.933 37.8158 441.337 39.1738C442.741 40.5319 443.442 42.2546 443.442 44.3418ZM449.615 51V37.5879H453.43V39.6934C454.132 38.8184 454.884 38.1758 455.686 37.7656C456.497 37.3464 457.395 37.1367 458.379 37.1367C459.418 37.1367 460.289 37.3145 460.99 37.6699C461.701 38.0163 462.262 38.5495 462.672 39.2695C462.873 39.6432 463.014 40.0671 463.096 40.541C463.187 41.0059 463.233 41.7396 463.233 42.7422V43.166V51H459.336V44.3691C459.336 42.7194 459.145 41.6302 458.762 41.1016C458.379 40.5729 457.723 40.3086 456.793 40.3086C456.255 40.3086 455.759 40.4225 455.303 40.6504C454.856 40.8691 454.483 41.1836 454.182 41.5938C453.945 41.9128 453.772 42.2773 453.662 42.6875C453.562 43.0977 453.512 43.722 453.512 44.5605V45.0938V51H449.615Z" fill="#1E2E40"/>
<path d="M1345.25 36V15.9844H1357.03V19.5938H1349.53V23.709H1357.03V27.3457H1349.53V36H1345.25ZM1363.03 17.0781C1363.03 16.4583 1363.25 15.9251 1363.7 15.4785C1364.14 15.0319 1364.68 14.8086 1365.3 14.8086C1365.93 14.8086 1366.46 15.0319 1366.91 15.4785C1367.37 15.916 1367.59 16.4492 1367.59 17.0781C1367.59 17.707 1367.37 18.2448 1366.91 18.6914C1366.46 19.138 1365.93 19.3613 1365.3 19.3613C1364.68 19.3613 1364.14 19.1335 1363.7 18.6777C1363.25 18.222 1363.03 17.6888 1363.03 17.0781ZM1363.37 36V22.5879H1367.25V36H1363.37ZM1374.42 36V22.5879H1378.24V24.6934C1378.94 23.8184 1379.69 23.1758 1380.49 22.7656C1381.3 22.3464 1382.2 22.1367 1383.19 22.1367C1384.23 22.1367 1385.1 22.3145 1385.8 22.6699C1386.51 23.0163 1387.07 23.5495 1387.48 24.2695C1387.68 24.6432 1387.82 25.0671 1387.9 25.541C1387.99 26.0059 1388.04 26.7396 1388.04 27.7422V28.166V36H1384.14V29.3691C1384.14 27.7194 1383.95 26.6302 1383.57 26.1016C1383.19 25.5729 1382.53 25.3086 1381.6 25.3086C1381.06 25.3086 1380.57 25.4225 1380.11 25.6504C1379.66 25.8691 1379.29 26.1836 1378.99 26.5938C1378.75 26.9128 1378.58 27.2773 1378.47 27.6875C1378.37 28.0977 1378.32 28.722 1378.32 29.5605V30.0938V36H1374.42ZM1404.84 29.2734C1404.84 28.0703 1404.53 27.1178 1403.92 26.416C1403.32 25.7142 1402.5 25.3633 1401.47 25.3633C1400.42 25.3633 1399.58 25.7142 1398.97 26.416C1398.37 27.1087 1398.07 28.0612 1398.07 29.2734C1398.07 30.4857 1398.36 31.429 1398.96 32.1035C1399.56 32.778 1400.39 33.1152 1401.45 33.1152C1402.52 33.1152 1403.36 32.778 1403.95 32.1035C1404.54 31.429 1404.84 30.4857 1404.84 29.2734ZM1408.39 36H1404.62L1404.67 34.0723C1404.14 34.9199 1403.51 35.5443 1402.76 35.9453C1402.02 36.3372 1401.12 36.5332 1400.05 36.5332C1398.27 36.5332 1396.84 35.8724 1395.74 34.5508C1394.66 33.2292 1394.12 31.4837 1394.12 29.3145C1394.12 27.054 1394.65 25.2949 1395.72 24.0371C1396.79 22.7702 1398.28 22.1367 1400.19 22.1367C1401.18 22.1367 1402.05 22.36 1402.8 22.8066C1403.56 23.2533 1404.19 23.9186 1404.7 24.8027V22.5879H1408.39V36ZM1415.44 36V14.8086H1419.32V36H1415.44ZM1448.21 29.2734C1448.21 28.0703 1447.91 27.1178 1447.29 26.416C1446.69 25.7142 1445.88 25.3633 1444.85 25.3633C1443.79 25.3633 1442.96 25.7142 1442.35 26.416C1441.74 27.1087 1441.44 28.0612 1441.44 29.2734C1441.44 30.4857 1441.74 31.429 1442.33 32.1035C1442.93 32.778 1443.76 33.1152 1444.82 33.1152C1445.9 33.1152 1446.73 32.778 1447.32 32.1035C1447.91 31.429 1448.21 30.4857 1448.21 29.2734ZM1451.77 36H1447.99L1448.05 34.0723C1447.52 34.9199 1446.88 35.5443 1446.13 35.9453C1445.39 36.3372 1444.49 36.5332 1443.43 36.5332C1441.65 36.5332 1440.21 35.8724 1439.12 34.5508C1438.03 33.2292 1437.49 31.4837 1437.49 29.3145C1437.49 27.054 1438.03 25.2949 1439.09 24.0371C1440.17 22.7702 1441.66 22.1367 1443.56 22.1367C1444.56 22.1367 1445.43 22.36 1446.17 22.8066C1446.93 23.2533 1447.56 23.9186 1448.07 24.8027V22.5879H1451.77V36ZM1458.66 36V22.5879H1462.48V24.6934C1463.18 23.8184 1463.93 23.1758 1464.73 22.7656C1465.54 22.3464 1466.44 22.1367 1467.43 22.1367C1468.47 22.1367 1469.34 22.3145 1470.04 22.6699C1470.75 23.0163 1471.31 23.5495 1471.72 24.2695C1471.92 24.6432 1472.06 25.0671 1472.14 25.541C1472.24 26.0059 1472.28 26.7396 1472.28 27.7422V28.166V36H1468.38V29.3691C1468.38 27.7194 1468.19 26.6302 1467.81 26.1016C1467.43 25.5729 1466.77 25.3086 1465.84 25.3086C1465.3 25.3086 1464.81 25.4225 1464.35 25.6504C1463.9 25.8691 1463.53 26.1836 1463.23 26.5938C1462.99 26.9128 1462.82 27.2773 1462.71 27.6875C1462.61 28.0977 1462.56 28.722 1462.56 29.5605V30.0938V36H1458.66ZM1489.08 29.2734C1489.08 28.0703 1488.77 27.1178 1488.16 26.416C1487.56 25.7142 1486.74 25.3633 1485.71 25.3633C1484.66 25.3633 1483.82 25.7096 1483.21 26.4023C1482.61 27.0859 1482.31 28.0339 1482.31 29.2461C1482.31 30.4583 1482.61 31.4062 1483.2 32.0898C1483.8 32.7734 1484.63 33.1152 1485.69 33.1152C1486.76 33.1152 1487.6 32.778 1488.19 32.1035C1488.78 31.429 1489.08 30.4857 1489.08 29.2734ZM1492.63 36H1488.86L1488.91 34.0723C1488.38 34.9199 1487.75 35.5443 1487 35.9453C1486.26 36.3372 1485.36 36.5332 1484.29 36.5332C1482.51 36.5332 1481.08 35.8724 1479.98 34.5508C1478.9 33.2292 1478.36 31.4837 1478.36 29.3145C1478.36 27.0449 1478.89 25.2767 1479.96 24.0098C1481.03 22.7428 1482.52 22.1094 1484.43 22.1094C1485.4 22.1094 1486.26 22.3327 1487 22.7793C1487.74 23.2259 1488.43 23.9323 1489.08 24.8984C1489.03 24.5703 1488.99 24.2103 1488.97 23.8184C1488.95 23.4173 1488.94 22.9616 1488.94 22.4512V14.8086H1492.63V36ZM1313.96 58.3848L1311.72 51.918C1311.65 51.7266 1311.57 51.3984 1311.47 50.9336C1311.37 50.4688 1311.26 49.8991 1311.16 49.2246C1311.04 49.8717 1310.92 50.4551 1310.81 50.9746C1310.7 51.485 1310.62 51.8268 1310.57 52L1308.41 58.3848H1313.96ZM1301.22 66L1308.83 45.9844H1313.73L1321.45 66H1316.58L1314.96 61.748H1307.2L1305.81 66H1301.22ZM1326.43 66V52.5879H1330.25V54.6934C1330.95 53.8184 1331.7 53.1758 1332.5 52.7656C1333.32 52.3464 1334.21 52.1367 1335.2 52.1367C1336.24 52.1367 1337.11 52.3145 1337.81 52.6699C1338.52 53.0163 1339.08 53.5495 1339.49 54.2695C1339.69 54.6432 1339.83 55.0671 1339.91 55.541C1340.01 56.0059 1340.05 56.7396 1340.05 57.7422V58.166V66H1336.15V59.3691C1336.15 57.7194 1335.96 56.6302 1335.58 56.1016C1335.2 55.5729 1334.54 55.3086 1333.61 55.3086C1333.07 55.3086 1332.58 55.4225 1332.12 55.6504C1331.67 55.8691 1331.3 56.1836 1331 56.5938C1330.76 56.9128 1330.59 57.2773 1330.48 57.6875C1330.38 58.0977 1330.33 58.722 1330.33 59.5605V60.0938V66H1326.43ZM1346.96 66V52.5879H1350.78V54.6934C1351.48 53.8184 1352.23 53.1758 1353.03 52.7656C1353.84 52.3464 1354.74 52.1367 1355.73 52.1367C1356.77 52.1367 1357.64 52.3145 1358.34 52.6699C1359.05 53.0163 1359.61 53.5495 1360.02 54.2695C1360.22 54.6432 1360.36 55.0671 1360.44 55.541C1360.53 56.0059 1360.58 56.7396 1360.58 57.7422V58.166V66H1356.68V59.3691C1356.68 57.7194 1356.49 56.6302 1356.11 56.1016C1355.73 55.5729 1355.07 55.3086 1354.14 55.3086C1353.6 55.3086 1353.11 55.4225 1352.65 55.6504C1352.2 55.8691 1351.83 56.1836 1351.53 56.5938C1351.29 56.9128 1351.12 57.2773 1351.01 57.6875C1350.91 58.0977 1350.86 58.722 1350.86 59.5605V60.0938V66H1346.96ZM1377.64 59.3145C1377.64 58.2207 1377.32 57.3503 1376.68 56.7031C1376.04 56.0469 1375.18 55.7188 1374.11 55.7188C1373.03 55.7188 1372.18 56.0423 1371.55 56.6895C1370.92 57.3366 1370.61 58.2116 1370.61 59.3145C1370.61 60.4082 1370.92 61.2832 1371.55 61.9395C1372.18 62.5957 1373.03 62.9238 1374.11 62.9238C1375.17 62.9238 1376.03 62.5957 1376.67 61.9395C1377.31 61.2832 1377.64 60.4082 1377.64 59.3145ZM1381.6 59.3418C1381.6 61.4017 1380.89 63.1152 1379.48 64.4824C1378.08 65.8496 1376.3 66.5332 1374.14 66.5332C1371.96 66.5332 1370.16 65.8496 1368.75 64.4824C1367.34 63.1152 1366.63 61.4017 1366.63 59.3418C1366.63 57.291 1367.34 55.5775 1368.76 54.2012C1370.18 52.8249 1371.98 52.1367 1374.14 52.1367C1376.3 52.1367 1378.09 52.8158 1379.5 54.1738C1380.9 55.5319 1381.6 57.2546 1381.6 59.3418ZM1391.59 52.5879V59.6426C1391.59 60.8275 1391.82 61.6751 1392.27 62.1855C1392.74 62.696 1393.49 62.9512 1394.53 62.9512C1395.56 62.9512 1396.3 62.696 1396.77 62.1855C1397.23 61.666 1397.47 60.8184 1397.47 59.6426V52.5879H1401.36V59.6426C1401.36 62.0033 1400.81 63.7441 1399.71 64.8652C1398.61 65.9772 1396.9 66.5332 1394.58 66.5332C1392.22 66.5332 1390.49 65.9772 1389.37 64.8652C1388.27 63.7533 1387.72 62.0124 1387.72 59.6426V52.5879H1391.59ZM1408.33 66V52.5879H1412.14V54.6934C1412.85 53.8184 1413.6 53.1758 1414.4 52.7656C1415.21 52.3464 1416.11 52.1367 1417.09 52.1367C1418.13 52.1367 1419 52.3145 1419.7 52.6699C1420.42 53.0163 1420.98 53.5495 1421.39 54.2695C1421.59 54.6432 1421.73 55.0671 1421.81 55.541C1421.9 56.0059 1421.95 56.7396 1421.95 57.7422V58.166V66H1418.05V59.3691C1418.05 57.7194 1417.86 56.6302 1417.48 56.1016C1417.09 55.5729 1416.44 55.3086 1415.51 55.3086C1414.97 55.3086 1414.47 55.4225 1414.02 55.6504C1413.57 55.8691 1413.2 56.1836 1412.9 56.5938C1412.66 56.9128 1412.49 57.2773 1412.38 57.6875C1412.28 58.0977 1412.23 58.722 1412.23 59.5605V60.0938V66H1408.33ZM1438.74 65.6035C1438.21 65.9225 1437.66 66.1549 1437.07 66.3008C1436.49 66.4557 1435.85 66.5332 1435.16 66.5332C1433.05 66.5332 1431.32 65.8633 1429.99 64.5234C1428.66 63.1745 1428 61.4245 1428 59.2734C1428 57.168 1428.67 55.4544 1430.01 54.1328C1431.35 52.8021 1433.08 52.1367 1435.22 52.1367C1435.93 52.1367 1436.56 52.2051 1437.13 52.3418C1437.69 52.4785 1438.23 52.6927 1438.74 52.9844L1438.72 56.8945C1438.31 56.4753 1437.83 56.1517 1437.29 55.9238C1436.76 55.696 1436.19 55.582 1435.58 55.582C1434.49 55.582 1433.62 55.9193 1432.96 56.5938C1432.3 57.2591 1431.98 58.1432 1431.98 59.2461C1431.98 60.3763 1432.31 61.2786 1432.97 61.9531C1433.65 62.6185 1434.55 62.9512 1435.69 62.9512C1436.32 62.9512 1436.88 62.8372 1437.36 62.6094C1437.85 62.3815 1438.31 62.026 1438.72 61.543L1438.74 65.6035ZM1454.14 57.9062C1454.04 57.0586 1453.73 56.4206 1453.21 55.9922C1452.71 55.5547 1452.03 55.3359 1451.15 55.3359C1450.28 55.3359 1449.57 55.5547 1449.04 55.9922C1448.53 56.4206 1448.19 57.0586 1448.05 57.9062H1454.14ZM1458 60.2578H1447.92C1448.08 61.224 1448.43 61.9486 1448.98 62.4316C1449.52 62.9056 1450.27 63.1426 1451.21 63.1426C1451.92 63.1426 1452.53 63.0059 1453.04 62.7324C1453.56 62.459 1453.99 62.0443 1454.34 61.4883L1457.48 63.0605C1456.75 64.2363 1455.87 65.1113 1454.83 65.6855C1453.79 66.2507 1452.55 66.5332 1451.12 66.5332C1448.95 66.5332 1447.24 65.8861 1445.97 64.5918C1444.7 63.2975 1444.07 61.5566 1444.07 59.3691C1444.07 57.2637 1444.73 55.5319 1446.05 54.1738C1447.38 52.8158 1449.08 52.1367 1451.15 52.1367C1453.28 52.1367 1454.97 52.7747 1456.21 54.0508C1457.45 55.3177 1458.07 57.0495 1458.07 59.2461C1458.07 59.3646 1458.06 59.4967 1458.05 59.6426C1458.05 59.7793 1458.03 59.9844 1458 60.2578ZM1468.01 66H1464.12V52.5879H1468.01V54.6934C1468.65 53.8092 1469.33 53.1621 1470.05 52.752C1470.78 52.3418 1471.61 52.1367 1472.53 52.1367C1473.64 52.1367 1474.54 52.3646 1475.23 52.8203C1475.94 53.276 1476.43 53.9642 1476.72 54.8848C1477.34 53.9733 1478.05 53.2897 1478.83 52.834C1479.62 52.3691 1480.49 52.1367 1481.43 52.1367C1482.38 52.1367 1483.18 52.3145 1483.83 52.6699C1484.5 53.0163 1485.01 53.5404 1485.38 54.2422C1485.57 54.625 1485.71 55.0579 1485.79 55.541C1485.87 56.0241 1485.91 56.7578 1485.91 57.7422V58.166V66H1482.01V59.3691C1482.01 57.7376 1481.85 56.653 1481.51 56.1152C1481.18 55.5775 1480.6 55.3086 1479.77 55.3086C1478.77 55.3086 1478.04 55.6823 1477.59 56.4297C1477.14 57.1771 1476.92 58.3984 1476.92 60.0938V66H1473.02V59.3691C1473.02 57.7923 1472.86 56.7259 1472.55 56.1699C1472.24 55.6139 1471.71 55.3359 1470.95 55.3359C1469.92 55.3359 1469.18 55.7142 1468.71 56.4707C1468.25 57.2181 1468.01 58.4258 1468.01 60.0938V66ZM1502.09 57.9062C1501.98 57.0586 1501.67 56.4206 1501.16 55.9922C1500.66 55.5547 1499.97 55.3359 1499.1 55.3359C1498.22 55.3359 1497.52 55.5547 1496.99 55.9922C1496.47 56.4206 1496.14 57.0586 1495.99 57.9062H1502.09ZM1505.95 60.2578H1495.87C1496.03 61.224 1496.38 61.9486 1496.92 62.4316C1497.47 62.9056 1498.21 63.1426 1499.15 63.1426C1499.86 63.1426 1500.47 63.0059 1500.98 62.7324C1501.5 62.459 1501.94 62.0443 1502.28 61.4883L1505.43 63.0605C1504.7 64.2363 1503.82 65.1113 1502.78 65.6855C1501.74 66.2507 1500.5 66.5332 1499.07 66.5332C1496.9 66.5332 1495.18 65.8861 1493.92 64.5918C1492.65 63.2975 1492.02 61.5566 1492.02 59.3691C1492.02 57.2637 1492.68 55.5319 1494 54.1738C1495.33 52.8158 1497.03 52.1367 1499.1 52.1367C1501.23 52.1367 1502.92 52.7747 1504.16 54.0508C1505.4 55.3177 1506.02 57.0495 1506.02 59.2461C1506.02 59.3646 1506.01 59.4967 1506 59.6426C1505.99 59.7793 1505.98 59.9844 1505.95 60.2578ZM1512.12 66V52.5879H1515.94V54.6934C1516.64 53.8184 1517.39 53.1758 1518.19 52.7656C1519 52.3464 1519.9 52.1367 1520.88 52.1367C1521.92 52.1367 1522.79 52.3145 1523.5 52.6699C1524.21 53.0163 1524.77 53.5495 1525.18 54.2695C1525.38 54.6432 1525.52 55.0671 1525.6 55.541C1525.69 56.0059 1525.74 56.7396 1525.74 57.7422V58.166V66H1521.84V59.3691C1521.84 57.7194 1521.65 56.6302 1521.27 56.1016C1520.88 55.5729 1520.23 55.3086 1519.3 55.3086C1518.76 55.3086 1518.26 55.4225 1517.81 55.6504C1517.36 55.8691 1516.99 56.1836 1516.69 56.5938C1516.45 56.9128 1516.28 57.2773 1516.17 57.6875C1516.07 58.0977 1516.02 58.722 1516.02 59.5605V60.0938V66H1512.12ZM1533.13 66V55.6367H1531.26V52.5879H1533.13V48.1309H1537.02V52.5879H1538.9V55.6367H1537.02V66H1533.13Z" fill="#1E2E40"/>
<path d="M318.723 89.4126C315.778 89.4126 313.39 91.8005 313.39 94.746C313.39 97.6915 315.778 100.079 318.723 100.079C321.669 100.079 324.056 97.6915 324.056 94.746C324.056 91.8005 321.669 89.4126 318.723 89.4126ZM317.723 94.746L317.723 144.666L319.723 144.666L319.723 94.746L317.723 94.746Z" fill="#1E2E40"/>
<path d="M681.722 88.3942C678.777 88.3942 676.389 90.782 676.389 93.7275C676.389 96.6731 678.777 99.0609 681.722 99.0609C684.668 99.0609 687.056 96.6731 687.056 93.7275C687.056 90.782 684.668 88.3942 681.722 88.3942ZM680.722 93.7275L680.722 143.647L682.722 143.647L682.722 93.7275L680.722 93.7275Z" fill="#1E2E40"/>
<path d="M1055.91 88.3942C1052.96 88.3942 1050.58 90.782 1050.58 93.7275C1050.58 96.6731 1052.96 99.0609 1055.91 99.0609C1058.85 99.0609 1061.24 96.6731 1061.24 93.7275C1061.24 90.782 1058.85 88.3942 1055.91 88.3942ZM1054.91 93.7275L1054.91 143.647L1056.91 143.647L1056.91 93.7275L1054.91 93.7275Z" fill="#1E2E40"/>
<path d="M1420.38 88.3942C1417.44 88.3942 1415.05 90.782 1415.05 93.7275C1415.05 96.6731 1417.44 99.0609 1420.38 99.0609C1423.33 99.0609 1425.72 96.6731 1425.72 93.7275C1425.72 90.782 1423.33 88.3942 1420.38 88.3942ZM1419.38 93.7275L1419.38 143.647L1421.38 143.647L1421.38 93.7275L1419.38 93.7275Z" fill="#1E2E40"/>
</svg>
