<svg width="62" height="62" viewBox="0 0 62 62" fill="none" xmlns="http://www.w3.org/2000/svg">
<g clip-path="url(#clip0_513_25)">
<path fill-rule="evenodd" clip-rule="evenodd" d="M0 31C0 13.8792 13.8792 0 31 0C48.1208 0 62 13.8792 62 31C62 48.1208 48.1208 62 31 62C13.8792 62 0 48.1208 0 31Z" fill="#FFCE2E"/>
<path fill-rule="evenodd" clip-rule="evenodd" d="M28.8289 44.5099C31.5536 44.5099 33.7764 42.3423 33.8776 39.641L33.8868 15.5267H38.2922C38.1982 15.0233 38.1506 14.5122 38.15 14H32.1334L32.1233 38.1151C32.023 40.8156 29.7993 42.9823 27.0754 42.9823C26.2578 42.9826 25.4524 42.7835 24.7292 42.402L24.729 42.4017C23.912 41.9733 23.2275 41.3299 22.7496 40.5407C22.2717 39.7516 22.0186 38.8469 22.0177 37.9243C22.0192 36.5833 22.5526 35.2977 23.5008 34.3496C24.449 33.4013 25.7346 32.868 27.0756 32.8664C27.596 32.8664 28.0954 32.9517 28.568 33.1007V28.3823C28.568 28.3823 28.5679 28.3823 28.5679 28.3823V26.9577C28.0734 26.8877 27.5748 26.8513 27.0754 26.849C20.9684 26.849 16 31.8182 16 37.9253C16 41.6714 17.8723 44.9876 20.7283 46.9929C19.1311 45.2848 18.1263 43.1228 17.8393 40.8254C18.134 43.1928 19.1799 45.3297 20.7285 46.9928C22.5864 48.3007 24.8035 49.0017 27.0756 48.9998C33.1826 48.9998 38.1502 44.0313 38.1502 37.9243V25.6961C40.5889 27.45 43.5178 28.3919 46.5218 28.3882V23.7118H46.5225L46.5216 23.7117V22.3716C44.9035 22.3731 43.3201 21.9027 41.9653 21.0178L41.9633 21.0155C41.0119 20.3967 40.196 19.5912 39.565 18.6479C38.9341 17.7046 38.5011 16.6431 38.2924 15.5275H33.887L33.8778 39.6418C33.7766 42.3423 31.5538 44.5099 28.829 44.5099L28.8289 44.5099ZM46.1106 23.6121C46.2465 23.6487 46.3835 23.6819 46.5216 23.7117C46.3835 23.6819 46.2465 23.6487 46.1106 23.6121ZM25.0589 29.0403C20.8028 30.5856 17.7545 34.668 17.7545 39.4519C17.7545 39.917 17.7833 40.3754 17.8393 40.8254C17.7827 40.3721 17.754 39.9134 17.7543 39.452C17.7543 34.6679 20.8027 30.5855 25.0589 29.0403Z" fill="#FFF9EE"/>
</g>
<defs>
<clipPath id="clip0_513_25">
<rect width="62" height="62" fill="white"/>
</clipPath>
</defs>
</svg>
